<?xml version="1.0" encoding="UTF-8" standalone="no"?>
<!DOCTYPE svg  PUBLIC '-//W3C//DTD SVG 1.1//EN'  'http://www.w3.org/Graphics/SVG/1.1/DTD/svg11.dtd'>
<svg xmlns="http://www.w3.org/2000/svg">
<defs>
<font id="DroidSans-Regular" horiz-adv-x="1128">
<font-face underline-position="-103" font-weight="400" descent="-410" panose-1="2 11 6 6 3 8 4 2 2 4" units-per-em="2048" unicode-range="U+0020-2044" bbox="-1061 -512 2394 2109" x-height="1098" underline-thickness="102" font-family="DroidSans" ascent="1638" cap-height="1462"/>
<missing-glyph horiz-adv-x="2048"/>
<glyph glyph-name=".notdef" horiz-adv-x="2048"/>
<glyph glyph-name=".null" horiz-adv-x="0"/>
<glyph glyph-name="nonmarkingreturn" horiz-adv-x="2048"/>
<glyph glyph-name="space" horiz-adv-x="532" unicode=" "/>
<glyph glyph-name="exclam" horiz-adv-x="551" unicode="!" d="M147 111q0 38 10 64.5t27 43t40 24t50 7.5q26 0 49.5 -7.5t40.5 -24t27 -43t10 -64.5q0 -37 -10 -63.5t-27 -43.5t-40.5 -25t-49.5 -8q-27 0 -50 8t-40 25t-27 43.5t-10 63.5zM336 414h-121l-51 1048h223z"/>
<glyph glyph-name="quotedbl" horiz-adv-x="823" unicode='&quot;' d="M690 1462l-41 -528h-114l-41 528h196zM330 1462l-41 -528h-115l-41 528h197z"/>
<glyph glyph-name="numbersign" horiz-adv-x="1323" unicode="#" d="M483 565h291l64 328h-291zM983 893l-63 -328h280v-137h-307l-82 -428h-147l84 428h-291l-82 -428h-144l78 428h-258v137h285l65 328h-274v137h299l82 432h147l-82 -432h293l84 432h144l-84 -432h262v-137h-289z"/>
<glyph glyph-name="dollar" d="M315 1049q0 -36 8.5 -64.5t28.5 -52t53 -42.5t82 -36v369q-89 -16 -130.5 -60.5t-41.5 -113.5zM809 446q0 33 -10 60.5t-31.5 50t-56.5 41.5t-86 37v-373q93 14 138.5 63t45.5 121zM985 446q0 -70 -25 -127t-71.5 -99t-113 -69.5t-150.5 -39.5v-230h-138v221 q-50 0 -101 4.5t-99 13.5t-90 22t-74 30v172q33 -16 76.5 -32.5t91.5 -29.5t98.5 -21.5t97.5 -8.5v434q-89 30 -154.5 63t-108.5 75.5t-64 97.5t-21 129q0 67 24.5 122.5t70 97t110 68t143.5 35.5v180h138v-176q100 -5 184.5 -26t151.5 -52l-66 -145q-56 25 -126 45.5 t-144 26.5v-422q88 -31 155.5 -64t113 -74.5t68.5 -95t23 -125.5z" unicode="$"/>
<glyph glyph-name="percent" horiz-adv-x="1690" unicode="%" d="M1331 1462l-811 -1462h-158l812 1462h157zM1587 440q0 -108 -17.5 -193.5t-54.5 -144.5t-94.5 -90.5t-136.5 -31.5q-74 0 -130 31.5t-93.5 90.5t-56.5 144.5t-19 193.5t17.5 193t54 143.5t93 89.5t134.5 31q75 0 131.5 -31t94.5 -89.5t57.5 -143.5t19.5 -193zM1133 440 q0 -165 35.5 -247t115.5 -82q156 0 156 329q0 328 -156 328q-80 0 -115.5 -81.5t-35.5 -246.5zM705 1026q0 -108 -18 -194t-55 -145t-94.5 -90.5t-136.5 -31.5q-73 0 -129 31.5t-94 90.5t-57 145t-19 194t17.5 193t54 143.5t93 89.5t134.5 31q75 0 131.5 -31t95 -89.5 t58 -143.5t19.5 -193zM250 1026q0 -165 35.5 -247.5t115.5 -82.5q156 0 156 330q0 328 -156 328q-80 0 -115.5 -81.5t-35.5 -246.5z"/>
<glyph glyph-name="ampersand" horiz-adv-x="1438" unicode="&amp;" d="M109 381q0 78 20 139t58.5 111t94 93t126.5 85q-31 36 -61 74.5t-52.5 82t-36.5 93t-14 106.5q0 75 25 134.5t72 101t116 63t157 21.5q83 0 148.5 -21.5t111 -63t69.5 -101t24 -134.5q0 -64 -25 -118.5t-67 -101t-96.5 -86t-114.5 -75.5l352 -372q27 29 48.5 59t38.5 64 t30.5 73t23.5 86h184q-15 -66 -35.5 -121.5t-47 -104.5t-59 -91.5t-71.5 -83.5l277 -293h-225l-168 172q-49 -45 -97 -80.5t-102 -60t-116 -38t-140 -13.5q-105 0 -188.5 26.5t-141 78t-88 126t-30.5 170.5zM557 141q58 0 107 11.5t91 31.5t78 47t68 58l-387 407 q-52 -33 -92 -64.5t-67.5 -67.5t-41.5 -78.5t-14 -98.5q0 -54 17.5 -99.5t50.5 -78t81 -50.5t109 -18zM422 1165q0 -34 8 -66.5t24.5 -65t42.5 -66t62 -70.5q59 35 102 66t71 63t42 67t14 76q0 36 -12.5 66.5t-36 52.5t-56.5 34.5t-75 12.5q-86 0 -136 -44.5t-50 -125.5z "/>
<glyph glyph-name="quotesingle" horiz-adv-x="463" unicode="&apos;" d="M330 1462l-41 -528h-115l-41 528h197z"/>
<glyph glyph-name="parenleft" horiz-adv-x="616" unicode="(" d="M82 561q0 125 18 246.5t55 236t93.5 220t134.5 198.5h172q-140 -193 -212.5 -424t-72.5 -475q0 -119 18.5 -237t54 -231t88.5 -219t122 -200h-170q-78 90 -134.5 193t-93.5 215.5t-55 232.5t-18 244z"/>
<glyph glyph-name="parenright" horiz-adv-x="616" unicode=")" d="M535 561q0 -124 -18 -244t-55.5 -232.5t-94 -215.5t-134.5 -193h-170q69 94 122 200t89 219t54 231t18 237q0 244 -72 475t-213 424h172q78 -93 134.5 -198.5t94 -220t55.5 -236t18 -246.5z"/>
<glyph glyph-name="asterisk" d="M664 1556l-43 -393l397 111l26 -193l-378 -28l245 -326l-178 -96l-176 358l-158 -358l-184 96l242 326l-375 28l29 193l391 -111l-43 393h205z" unicode="*"/>
<glyph glyph-name="plus" d="M489 647h-387v150h387v389h150v-389h387v-150h-387v-385h-150v385z" unicode="+"/>
<glyph glyph-name="comma" horiz-adv-x="512" unicode="," d="M362 238l15 -23q-14 -54 -33.5 -115t-43 -123t-49 -123.5t-50.5 -117.5h-138q15 61 29.5 127t28 131.5t24.5 128t19 115.5h198z"/>
<glyph glyph-name="hyphen" horiz-adv-x="659" unicode="-" d="M82 465v168h496v-168h-496z"/>
<glyph glyph-name="period" horiz-adv-x="549" unicode="." d="M147 111q0 38 10 64.5t27 43t40 24t50 7.5q26 0 49.5 -7.5t40.5 -24t27 -43t10 -64.5q0 -37 -10 -63.5t-27 -43.5t-40.5 -25t-49.5 -8q-27 0 -50 8t-40 25t-27 43.5t-10 63.5z"/>
<glyph glyph-name="slash" horiz-adv-x="764" unicode="/" d="M743 1462l-544 -1462h-179l545 1462h178z"/>
<glyph glyph-name="zero" d="M283 733q0 -150 15 -262t48 -186.5t86.5 -112t130.5 -37.5t131 37t88.5 111t50 186.5t15.5 263.5q0 150 -15.5 262t-50 186t-88.5 111t-131 37t-130.5 -37t-86.5 -111t-48 -186t-15 -262zM1032 733q0 -177 -25.5 -317t-82 -237t-145.5 -148t-216 -51q-118 0 -205.5 51 t-145 148t-86 237t-28.5 317t25.5 317t81 236.5t144 147.5t214.5 51q119 0 207 -50.5t146 -147t87 -236.5t29 -318z" unicode="0"/>
<glyph glyph-name="one" d="M711 0h-176v913q0 43 0.5 92t2 97.5t3 93t2.5 78.5q-17 -18 -30 -31t-26.5 -25t-28.5 -25.5t-36 -31.5l-148 -121l-96 123l383 299h150v-1462z" unicode="1"/>
<glyph glyph-name="two" d="M1008 0h-912v156l350 381q75 81 134 148t100.5 131t63.5 128.5t22 140.5q0 59 -17 104t-48.5 76.5t-74.5 47.5t-96 16q-95 0 -171.5 -38.5t-145.5 -98.5l-102 119q40 36 86 67.5t99 54.5t112 36.5t124 13.5q96 0 173.5 -27t131.5 -77.5t83.5 -123t29.5 -163.5 q0 -85 -26.5 -162t-73 -151.5t-111 -149.5t-139.5 -156l-281 -299v-8h689v-166z" unicode="2"/>
<glyph glyph-name="three" d="M961 1120q0 -73 -23 -133t-64.5 -104t-99.5 -72.5t-129 -40.5v-6q177 -22 269 -112.5t92 -235.5q0 -96 -32.5 -176t-98.5 -138t-167 -90t-239 -32q-109 0 -205.5 17t-181.5 62v170q87 -46 188.5 -71t194.5 -25q92 0 159 20t110.5 57t64 91t20.5 121q0 68 -26.5 116.5 t-75.5 80t-119.5 46.5t-159.5 15h-133v151h133q81 0 144 20t105.5 57t64.5 88t22 112q0 52 -18 93t-51 69.5t-79 43.5t-102 15q-107 0 -188.5 -33.5t-155.5 -87.5l-92 125q38 31 84.5 58t101.5 47.5t117.5 32.5t132.5 12q108 0 189.5 -27t136.5 -75.5t83 -115t28 -145.5z " unicode="3"/>
<glyph glyph-name="four" d="M698 494v356q0 56 1.5 117.5t3.5 120t4.5 109.5t3.5 85h-9q-7 -20 -17.5 -44.5t-23 -49t-25.5 -47.5t-24 -39l-411 -608h497zM1087 328h-213v-328h-176v328h-675v159l663 983h188v-976h213v-166z" unicode="4"/>
<glyph glyph-name="five" d="M545 897q99 0 184.5 -27.5t149 -81.5t99.5 -134t36 -185q0 -114 -34 -205t-101 -154t-165.5 -96.5t-226.5 -33.5q-51 0 -100.5 5t-95 14.5t-86.5 24.5t-74 35v172q33 -23 77.5 -41t93.5 -30t98.5 -18.5t91.5 -6.5q79 0 141 18.5t105 57.5t66 98t23 140q0 143 -88 218.5 t-256 75.5q-27 0 -58.5 -2.5t-63 -6.5t-60 -8.5t-49.5 -8.5l-90 57l55 688h690v-166h-532l-39 -419q32 6 84.5 13t124.5 7z" unicode="5"/>
<glyph glyph-name="six" d="M588 133q60 0 109.5 20.5t85.5 62t55.5 105t19.5 150.5q0 70 -16.5 125.5t-49.5 94.5t-82.5 60t-115.5 21q-67 0 -122.5 -23.5t-94.5 -61t-60.5 -85.5t-21.5 -96q0 -67 18.5 -133.5t55 -119.5t91.5 -86.5t128 -33.5zM113 625q0 105 10.5 209t37 199.5t72.5 177.5 t117 142.5t170 95t232 34.5q19 0 42 -1t46.5 -3.5t45 -6t38.5 -8.5v-155q-35 12 -79 18t-87 6q-90 0 -158.5 -21.5t-118.5 -60.5t-83.5 -93t-54.5 -119.5t-31 -139.5t-13 -154h12q20 36 48.5 67.5t66.5 54t85.5 35.5t106.5 13q95 0 172 -29.5t131 -86.5t83.5 -139.5 t29.5 -188.5q0 -114 -31 -205t-89 -154.5t-140 -97.5t-184 -34q-100 0 -187.5 39t-151.5 119t-101 201t-37 286z" unicode="6"/>
<glyph glyph-name="seven" d="M281 0l563 1296h-754v166h940v-145l-555 -1317h-194z" unicode="7"/>
<glyph glyph-name="eight" d="M563 1333q-106 0 -168.5 -53t-62.5 -154q0 -57 17.5 -98t48.5 -73t74.5 -57.5t94.5 -49.5q48 22 90.5 48t74 59t49.5 75t18 96q0 101 -63 154t-173 53zM285 371q0 -53 16 -97.5t50 -76t86 -49t124 -17.5q70 0 123.5 17.5t89.5 50t54 78.5t18 102q0 52 -19.5 94t-56 78 t-87.5 68t-114 63l-30 14q-126 -60 -190 -137.5t-64 -187.5zM565 1485q84 0 158.5 -22t131 -66t89.5 -110t33 -154q0 -67 -20 -121t-55 -97.5t-83 -78t-104 -62.5q58 -31 113.5 -69t99 -85.5t70 -106.5t26.5 -132q0 -92 -33.5 -166.5t-94 -126.5t-145 -80t-186.5 -28 q-110 0 -195.5 27t-144 77.5t-89 123.5t-30.5 165q0 75 22.5 135t60.5 108t90 85t110 65q-49 31 -92 67.5t-74.5 81.5t-50 99.5t-18.5 120.5q0 87 33.5 152.5t90.5 109.5t131.5 66t155.5 22z" unicode="8"/>
<glyph glyph-name="nine" d="M553 1329q-60 0 -109.5 -20t-85.5 -62t-55.5 -105.5t-19.5 -150.5q0 -70 16.5 -125.5t49.5 -94.5t82.5 -60t115.5 -21q68 0 123 23.5t94 61t60.5 85.5t21.5 96q0 67 -18.5 133.5t-55 120t-91.5 86.5t-128 33zM1028 838q0 -105 -10.5 -209.5t-37 -199.5t-72.5 -177.5 t-117 -142.5t-170 -94.5t-232 -34.5q-19 0 -42 1t-46 3.5t-45 5.5t-39 8v156q35 -13 79 -19t87 -6q135 0 222 47t138 127.5t72.5 187.5t26.5 226h-13q-20 -36 -48 -67t-66 -54t-86 -36t-107 -13q-95 0 -172 29.5t-131 86.5t-83.5 139.5t-29.5 188.5q0 114 31.5 205.5t89 155 t140 97.5t184.5 34q101 0 188 -39t151 -119t101 -201.5t37 -285.5z" unicode="9"/>
<glyph glyph-name="colon" horiz-adv-x="549" unicode=":" d="M147 987q0 39 10 65.5t27 43t40 23.5t50 7q26 0 49.5 -7t40.5 -23.5t27 -43t10 -65.5q0 -37 -10 -63t-27 -43t-40.5 -25t-49.5 -8q-27 0 -50 8t-40 25t-27 43t-10 63zM147 111q0 38 10 64.5t27 43t40 24t50 7.5q26 0 49.5 -7.5t40.5 -24t27 -43t10 -64.5q0 -37 -10 -63.5 t-27 -43.5t-40.5 -25t-49.5 -8q-27 0 -50 8t-40 25t-27 43.5t-10 63.5z"/>
<glyph glyph-name="semicolon" horiz-adv-x="549" unicode=";" d="M147 987q0 39 10 65.5t27 43t40 23.5t50 7q26 0 49.5 -7t40.5 -23.5t27 -43t10 -65.5q0 -37 -10 -63t-27 -43t-40.5 -25t-49.5 -8q-27 0 -50 8t-40 25t-27 43t-10 63zM362 238l15 -23q-14 -54 -33.5 -115t-43 -123t-49 -123.5t-50.5 -117.5h-138q15 61 29.5 127t28 131.5 t24.5 128t19 115.5h198z"/>
<glyph glyph-name="less" d="M1026 238l-924 424v102l924 481v-160l-735 -364l735 -322v-161z" unicode="&lt;"/>
<glyph glyph-name="equal" d="M102 442v150h924v-150h-924zM102 852v149h924v-149h-924z" unicode="="/>
<glyph glyph-name="greater" d="M102 399l736 322l-736 364v160l924 -481v-102l-924 -424v161z" unicode="&gt;"/>
<glyph glyph-name="question" horiz-adv-x="872" unicode="?" d="M233 111q0 38 10 64.5t27 43t40 24t50 7.5q26 0 49.5 -7.5t40.5 -24t27 -43t10 -64.5q0 -37 -10 -63.5t-27 -43.5t-40.5 -25t-49.5 -8q-27 0 -50 8t-40 25t-27 43.5t-10 63.5zM281 414v37q0 57 7.5 103t27 86t52.5 78.5t83 80.5q48 41 82 74.5t55.5 68t32 74t10.5 92.5 q0 48 -15 87.5t-43.5 68t-71 44t-98.5 15.5q-83 0 -158 -26t-145 -60l-63 145q81 42 175 71.5t191 29.5q93 0 167.5 -25.5t126.5 -73.5t80 -117.5t28 -156.5q0 -67 -13.5 -119.5t-40.5 -97.5t-67 -87t-94 -89q-52 -45 -85 -78.5t-52 -65t-26 -64.5t-7 -77v-18h-139z"/>
<glyph glyph-name="at" horiz-adv-x="1774" unicode="@" d="M662 602q0 -133 50.5 -192.5t135.5 -59.5q55 0 94 22.5t64 64t38 99t17 126.5l14 253q-28 8 -66.5 14.5t-80.5 6.5q-74 0 -124.5 -29t-82 -76t-45.5 -107t-14 -122zM1665 731q0 -62 -9.5 -124.5t-28 -119t-47 -105t-66.5 -84.5t-86.5 -56.5t-106.5 -20.5q-45 0 -81.5 15 t-62.5 40t-42.5 57.5t-22.5 67.5h-4q-18 -37 -45 -70t-62.5 -57.5t-80 -38.5t-97.5 -14q-77 0 -136.5 28t-100.5 78.5t-62.5 121.5t-21.5 157q0 101 29.5 185t85 145t134.5 95t177 34q45 0 90 -4t86 -11t75.5 -15.5t57.5 -16.5l-23 -416q-1 -22 -1.5 -35.5t-0.5 -21.5v-12 v-7q0 -53 10.5 -87t27.5 -54t38.5 -27.5t44.5 -7.5q46 0 81 30.5t58.5 82.5t35.5 122t12 148q0 142 -43 252.5t-119 186.5t-180.5 115.5t-227.5 39.5q-169 0 -298 -55.5t-216.5 -155t-132.5 -236t-45 -298.5q0 -151 39.5 -268t116 -197t190 -121t260.5 -41q61 0 120.5 7 t115 19t105.5 27.5t93 32.5v-141q-86 -38 -194 -60t-238 -22q-179 0 -319.5 51t-238 148.5t-148.5 238t-51 319.5q0 188 59 350.5t168.5 281.5t265 187t348.5 68q156 0 287 -50.5t226.5 -145t148.5 -230t53 -305.5z"/>
<glyph glyph-name="A" horiz-adv-x="1245" unicode="A" d="M836 618l-148 424q-6 18 -14.5 44t-17.5 56t-18 62.5t-17 63.5q-7 -31 -16 -64t-18 -63.5t-17.5 -56t-14.5 -42.5l-145 -424h426zM1055 0l-160 453h-545l-162 -453h-188l537 1468h170l538 -1468h-190z"/>
<glyph glyph-name="B" horiz-adv-x="1272" unicode="B" d="M385 686v-528h266q88 0 147.5 20t96 56t52.5 86.5t16 111.5q0 56 -16.5 103t-54 80.5t-99.5 52t-154 18.5h-254zM385 842h244q84 0 141 15t92 44.5t50.5 74t15.5 103.5q0 120 -77 172t-243 52h-223v-461zM199 1462h399q128 0 225.5 -19.5t163 -63t98.5 -114t33 -173.5 q0 -62 -19.5 -116t-56.5 -95t-91.5 -68.5t-123.5 -36.5v-10q69 -12 129.5 -34.5t105.5 -62t71 -99.5t26 -146q0 -100 -32.5 -178.5t-94 -133t-149.5 -83.5t-199 -29h-485v1462z"/>
<glyph glyph-name="C" horiz-adv-x="1235" unicode="C" d="M793 1319q-107 0 -194 -40.5t-148.5 -116.5t-95 -185t-33.5 -246q0 -141 29.5 -250.5t88.5 -184.5t147 -114t206 -39q89 0 169 17.5t158 40.5v-162q-39 -15 -78 -26.5t-81.5 -18.5t-91 -10.5t-107.5 -3.5q-164 0 -284 54t-198.5 153t-116.5 238t-38 308q0 166 43.5 304 t128 237t209.5 154t287 55q108 0 206 -22t177 -64l-78 -156q-63 32 -137 55t-168 23z"/>
<glyph glyph-name="D" horiz-adv-x="1401" unicode="D" d="M1079 739q0 146 -33 252.5t-96 175.5t-155 102.5t-209 33.5h-201v-1143h162q264 0 398 146t134 433zM1276 745q0 -185 -48 -324.5t-139 -233t-223.5 -140.5t-300.5 -47h-366v1462h407q153 0 277 -46t211 -136.5t134.5 -224.5t47.5 -310z"/>
<glyph glyph-name="E" horiz-adv-x="1081" unicode="E" d="M958 0h-759v1462h759v-164h-573v-452h535v-162h-535v-520h573v-164z"/>
<glyph glyph-name="F" horiz-adv-x="1006" unicode="F" d="M385 0h-186v1462h759v-164h-573v-516h535v-164h-535v-618z"/>
<glyph glyph-name="G" horiz-adv-x="1413" unicode="G" d="M782 772h484v-717q-55 -18 -111 -32t-115 -23.5t-124 -14.5t-140 -5q-157 0 -278 52.5t-204 150t-126 237t-43 313.5q0 172 47.5 311t138.5 236.5t224.5 150t304.5 52.5q111 0 213 -22t190 -64l-72 -162q-36 17 -77.5 32t-85.5 26.5t-90.5 18.5t-92.5 7 q-122 0 -216 -40.5t-157.5 -116.5t-96.5 -185t-33 -246q0 -130 27.5 -238t87.5 -186t155 -121t229 -43q44 0 80.5 2.5t67.5 6.5t58.5 9.5t53.5 10.5v436h-299v164z"/>
<glyph glyph-name="H" horiz-adv-x="1436" unicode="H" d="M1237 0h-186v682h-666v-682h-186v1462h186v-616h666v616h186v-1462z"/>
<glyph glyph-name="I" horiz-adv-x="694" unicode="I" d="M612 0h-530v102l172 41v1176l-172 41v102h530v-102l-172 -41v-1176l172 -41v-102z"/>
<glyph glyph-name="J" horiz-adv-x="555" unicode="J" d="M-29 -389q-51 0 -89 6.5t-66 17.5v160q34 -9 73 -14.5t84 -5.5q37 0 74.5 9.5t68 34.5t49.5 69t19 112v1462h187v-1442q0 -105 -29.5 -182t-82 -127.5t-126 -75t-162.5 -24.5z"/>
<glyph glyph-name="K" horiz-adv-x="1186" unicode="K" d="M1186 0h-211l-451 698l-139 -114v-584h-186v1462h186v-731l121 168l452 563h209l-520 -637z"/>
<glyph glyph-name="L" horiz-adv-x="1006" unicode="L" d="M199 0v1462h186v-1296h573v-166h-759z"/>
<glyph glyph-name="M" horiz-adv-x="1782" unicode="M" d="M803 0l-443 1280h-8q6 -74 10 -147q4 -63 6.5 -132.5t2.5 -126.5v-874h-172v1462h276l412 -1192h6l414 1192h276v-1462h-186v887q0 52 2 119t5 128q4 71 7 144h-8l-447 -1278h-153z"/>
<glyph glyph-name="N" horiz-adv-x="1493" unicode="N" d="M1294 0h-215l-719 1210h-8q6 -77 10 -153q4 -65 6.5 -136t2.5 -128v-793h-172v1462h213l716 -1204h7q-3 76 -7 150q-1 32 -2.5 65.5l-3 67t-2 64.5t-0.5 57v800h174v-1462z"/>
<glyph glyph-name="O" horiz-adv-x="1520" unicode="O" d="M322 733q0 -137 26 -246.5t79.5 -186t136 -117t196.5 -40.5t196.5 40.5t136 117t78.5 186t25 246.5q0 138 -25 247t-78 184.5t-135 116t-196 40.5t-197 -40.5t-137 -116t-80 -184.5t-26 -247zM1393 733q0 -169 -40.5 -308t-120.5 -238t-198.5 -153t-273.5 -54 q-163 0 -282.5 54t-198 153t-116.5 238.5t-38 309.5t38 308.5t117 236.5t199 151.5t283 53.5q155 0 272.5 -53.5t197.5 -152t120.5 -237t40.5 -309.5z"/>
<glyph glyph-name="P" horiz-adv-x="1180" unicode="P" d="M385 727h129q93 0 162.5 16t115 51.5t68.5 92t23 137.5q0 142 -82 210.5t-256 68.5h-160v-576zM1075 1034q0 -91 -27.5 -175t-90.5 -148.5t-166.5 -103t-255.5 -38.5h-150v-569h-186v1462h362q134 0 231 -28.5t160 -83t93 -134.5t30 -182z"/>
<glyph glyph-name="Q" horiz-adv-x="1518" unicode="Q" d="M322 733q0 -137 26 -246.5t79.5 -186t136 -117t196.5 -40.5t196.5 40.5t136 117t78.5 186t25 246.5q0 138 -25 247t-78 184.5t-135 116t-196 40.5t-197 -40.5t-137 -116t-80 -184.5t-26 -247zM1393 733q0 -131 -24.5 -244t-72 -203.5t-118.5 -156.5t-164 -104 q43 -94 111.5 -165.5t158.5 -131.5l-121 -142q-103 73 -189.5 172t-137.5 226q-17 -2 -37.5 -3t-38.5 -1q-163 0 -282.5 54t-198 153t-116.5 238.5t-38 309.5t38 308.5t117 236.5t199 151.5t283 53.5q155 0 272.5 -53.5t197.5 -152t120.5 -237t40.5 -309.5z"/>
<glyph glyph-name="R" horiz-adv-x="1208" unicode="R" d="M385 762h164q90 0 153 17.5t103.5 52t59 86t18.5 120.5q0 72 -20.5 122t-62 82t-105 46.5t-150.5 14.5h-160v-541zM385 604v-604h-186v1462h356q266 0 393 -103t127 -312q0 -87 -24.5 -152t-65 -111.5t-92.5 -77.5t-107 -51l398 -655h-219l-351 604h-229z"/>
<glyph glyph-name="S" horiz-adv-x="1063" unicode="S" d="M969 391q0 -97 -34.5 -173.5t-98.5 -129.5t-156 -80.5t-207 -27.5q-111 0 -207.5 17.5t-161.5 51.5v178q34 -16 77.5 -31.5t91.5 -27.5t99 -19.5t101 -7.5q160 0 236.5 60t76.5 172q0 54 -14.5 94t-51 73.5t-97.5 65t-154 68.5q-89 35 -154.5 76.5t-108 93.5t-63 118 t-20.5 150q0 88 32 157t90 116.5t138.5 72.5t177.5 25q119 0 214 -22.5t169 -57.5l-67 -156q-65 29 -147.5 50.5t-170.5 21.5q-122 0 -189 -56.5t-67 -152.5q0 -57 15 -98.5t50 -75t92.5 -63t141.5 -62.5q91 -36 159.5 -74t114.5 -86t69.5 -111t23.5 -149z"/>
<glyph glyph-name="T" horiz-adv-x="1063" unicode="T" d="M625 0h-187v1298h-418v164h1022v-164h-417v-1298z"/>
<glyph glyph-name="U" horiz-adv-x="1430" unicode="U" d="M1245 1464v-948q0 -114 -33 -212t-99.5 -170t-167 -113t-236.5 -41q-128 0 -226 38.5t-164.5 109.5t-100.5 170.5t-34 221.5v942h187v-952q0 -175 86.5 -271t261.5 -96q89 0 153 27t105 76t61 117t21 149v952h186z"/>
<glyph glyph-name="V" horiz-adv-x="1163" unicode="V" d="M965 1462h198l-489 -1462h-187l-487 1462h197l295 -927q29 -91 50 -175.5t38 -158.5q15 74 38 158.5t54 181.5z"/>
<glyph glyph-name="W" horiz-adv-x="1810" unicode="W" d="M809 1462h197l229 -856q15 -56 29.5 -112t27 -108.5t22 -99.5t15.5 -85q4 38 10 83t14 94.5t17.5 101t20.5 100.5l200 882h199l-367 -1462h-188l-254 938q-14 51 -27 105t-24 101q-12 55 -23 107q-11 -51 -22 -106q-10 -47 -22.5 -103t-26.5 -110l-242 -932h-188 l-386 1462h197l223 -889q12 -46 22 -95.5t18.5 -98.5t15.5 -94.5t12 -83.5q5 37 12.5 86t17.5 103t21.5 109.5t24.5 104.5z"/>
<glyph glyph-name="X" horiz-adv-x="1120" unicode="X" d="M1120 0h-211l-354 635l-367 -635h-188l453 764l-422 698h198l332 -559l334 559h190l-421 -692z"/>
<glyph glyph-name="Y" horiz-adv-x="1079" unicode="Y" d="M539 723l340 739h200l-446 -893v-569h-187v559l-446 903h203z"/>
<glyph glyph-name="Z" horiz-adv-x="1104" unicode="Z" d="M1022 0h-940v145l711 1151h-691v166h899v-145l-710 -1151h731v-166z"/>
<glyph glyph-name="bracketleft" horiz-adv-x="621" unicode="[" d="M569 -324h-405v1786h405v-149h-223v-1487h223v-150z"/>
<glyph glyph-name="backslash" horiz-adv-x="764" unicode="\" d="M201 1462l544 -1462h-178l-544 1462h178z"/>
<glyph glyph-name="bracketright" horiz-adv-x="621" unicode="]" d="M51 -174h223v1487h-223v149h406v-1786h-406v150z"/>
<glyph glyph-name="asciicircum" horiz-adv-x="1090" unicode="^" d="M41 549l459 924h102l447 -924h-161l-337 735l-349 -735h-161z"/>
<glyph glyph-name="underscore" horiz-adv-x="842" unicode="_" d="M846 -324h-850v140h850v-140z"/>
<glyph glyph-name="grave" horiz-adv-x="1182" unicode="`" d="M786 1241h-120q-35 28 -76 69.5t-79.5 85.5t-70 84.5t-47.5 67.5v21h219q16 -34 37.5 -74.5t44.5 -81t47 -78.5t45 -67v-27z"/>
<glyph glyph-name="a" horiz-adv-x="1087" unicode="a" d="M459 127q61 0 113 19t90 57.5t59.5 97t21.5 137.5v99l-143 -7q-90 -4 -151 -20t-97.5 -44.5t-52.5 -69t-16 -91.5q0 -92 48.5 -135t127.5 -43zM793 0l-37 152h-8q-33 -45 -66 -77.5t-72 -53.5t-87 -31t-111 -10q-69 0 -127 19.5t-100.5 60t-66.5 102t-24 145.5 q0 164 115.5 252t351.5 96l184 7v69q0 67 -14.5 112t-42 72.5t-68 39.5t-92.5 12q-83 0 -154.5 -24t-137.5 -58l-64 137q74 40 165 68t191 28q102 0 176.5 -20.5t123 -65t72.5 -113.5t24 -167v-752h-131z"/>
<glyph glyph-name="b" horiz-adv-x="1200" unicode="b" d="M635 967q-80 0 -133.5 -25.5t-86 -77.5t-46 -130t-13.5 -183q0 -101 13.5 -179.5t46 -132t86.5 -81t135 -27.5q135 0 198.5 109t63.5 313q0 208 -63.5 311t-200.5 103zM670 1118q94 0 171 -36t131.5 -107.5t84.5 -177.5t30 -246q0 -141 -30 -247.5t-84.5 -178.5 t-131.5 -108.5t-171 -36.5q-59 0 -107 13t-86.5 34.5t-68 50.5t-52.5 61h-12l-37 -139h-133v1556h182v-376q0 -35 -1 -74.5t-3 -73.5q-2 -40 -4 -78h8q23 35 52 65t67.5 52t86.5 34.5t108 12.5z"/>
<glyph glyph-name="c" horiz-adv-x="948" unicode="c" d="M594 -20q-101 0 -189 31.5t-153 100t-102 175t-37 256.5q0 157 38 266.5t104.5 178t155.5 99.5t191 31q78 0 152.5 -17t124.5 -42l-54 -154q-23 10 -51 19.5t-58 17t-59 12t-55 4.5q-157 0 -229 -100.5t-72 -312.5q0 -211 72.5 -308.5t220.5 -97.5q81 0 146.5 18.5 t119.5 43.5v-162q-54 -29 -115.5 -44t-150.5 -15z"/>
<glyph glyph-name="d" horiz-adv-x="1200" unicode="d" d="M565 131q76 0 128.5 23t85 70t48 117.5t17.5 164.5v41q0 101 -13.5 179.5t-46 132t-86.5 81t-135 27.5q-135 0 -198.5 -109t-63.5 -313q0 -209 63.5 -311.5t200.5 -102.5zM852 147h-8q-22 -34 -51.5 -64.5t-68 -53.5t-86.5 -36t-108 -13q-93 0 -170 36t-132 107.5 t-85 177.5t-30 246q0 141 30 247.5t85 178.5t132 108.5t170 36.5q59 0 107 -13t86.5 -35t68.5 -51t52 -61h12q-3 34 -6 65q-2 26 -4 53.5t-2 43.5v436h182v-1556h-147z"/>
<glyph glyph-name="e" horiz-adv-x="1096" unicode="e" d="M563 967q-114 0 -180.5 -78t-77.5 -227h492q0 68 -13.5 124.5t-42 96.5t-72.5 62t-106 22zM608 -20q-110 0 -201 37t-156.5 108t-101.5 176t-36 240q0 136 33 243t93 181.5t143.5 113.5t184.5 39q99 0 178 -35.5t134 -100t84.5 -155t29.5 -200.5v-113h-692 q5 -193 81.5 -284t227.5 -91q51 0 94.5 5t84 14.5t78.5 24t77 32.5v-162q-40 -19 -78.5 -33t-79 -23t-84 -13t-94.5 -4z"/>
<glyph glyph-name="f" horiz-adv-x="674" unicode="f" d="M651 961h-245v-961h-183v961h-194v75l194 68v96q0 107 22.5 177.5t65 112.5t104.5 59.5t140 17.5q59 0 108.5 -11.5t88.5 -25.5l-47 -141q-31 11 -67.5 19.5t-76.5 8.5t-69 -9.5t-48 -33.5t-28.5 -65.5t-9.5 -106.5v-104h245v-137z"/>
<glyph glyph-name="g" horiz-adv-x="1061" unicode="g" d="M301 745q0 -115 54 -171t153 -56q100 0 151.5 55.5t51.5 174.5q0 123 -52.5 181t-152.5 58q-99 0 -152 -60t-53 -182zM209 -180q0 -37 13 -69t42.5 -55t78 -36.5t120.5 -13.5q186 0 278.5 57.5t92.5 165.5q0 46 -12 75t-39.5 45.5t-72.5 22.5t-110 6h-176q-35 0 -73 -8 t-69.5 -30t-52 -60.5t-20.5 -99.5zM1020 1098v-113l-197 -27q28 -35 47 -89.5t19 -123.5q0 -76 -23.5 -140.5t-71 -111.5t-117.5 -73.5t-163 -26.5q-22 0 -44 0.5t-36 3.5q-17 -10 -33.5 -22.5t-30 -28.5t-22 -36t-8.5 -44q0 -27 12 -43.5t32.5 -25.5t48.5 -12t59 -3h176 q93 0 157 -23.5t104.5 -63.5t58.5 -94.5t18 -115.5q0 -88 -32.5 -158t-99.5 -118.5t-169.5 -74.5t-241.5 -26q-107 0 -187 21t-133 61t-79.5 96.5t-26.5 127.5q0 60 19.5 105.5t52.5 78.5t76.5 54t90.5 32q-42 19 -69 60t-27 94q0 61 32 105.5t101 86.5q-43 18 -78.5 49.5 t-60 72t-38 88.5t-13.5 99q0 89 25 159t74 119t122 75t170 26q37 0 76.5 -5.5t66.5 -14.5h363z"/>
<glyph glyph-name="h" horiz-adv-x="1206" unicode="h" d="M860 0v707q0 130 -52.5 195t-164.5 65q-81 0 -136 -26t-88.5 -77t-48 -125t-14.5 -170v-569h-182v1556h182v-462l-8 -144h10q25 43 59.5 74.5t75.5 52.5t87 31t94 10q183 0 275.5 -95.5t92.5 -305.5v-717h-182z"/>
<glyph glyph-name="i" horiz-adv-x="530" unicode="i" d="M160 1395q0 60 30.5 87t75.5 27q22 0 41.5 -6.5t34 -20.5t23 -35.5t8.5 -51.5q0 -58 -31.5 -86.5t-75.5 -28.5q-45 0 -75.5 28t-30.5 87zM356 0h-182v1098h182v-1098z"/>
<glyph glyph-name="j" horiz-adv-x="530" unicode="j" d="M160 1395q0 60 30.5 87t75.5 27q22 0 41.5 -6.5t34 -20.5t23 -35.5t8.5 -51.5q0 -58 -31.5 -86.5t-75.5 -28.5q-45 0 -75.5 28t-30.5 87zM66 -492q-48 0 -79.5 7t-54.5 18v148q26 -10 53 -15.5t62 -5.5q27 0 50 7.5t40.5 27t27 52t9.5 83.5v1268h182v-1256 q0 -77 -17 -138.5t-53 -105t-90.5 -67t-129.5 -23.5z"/>
<glyph glyph-name="k" horiz-adv-x="1016" unicode="k" d="M342 567l135 170l293 361h211l-401 -475l428 -623h-209l-336 504l-109 -82v-422h-180v1556h180v-714l-16 -275h4z"/>
<glyph glyph-name="l" horiz-adv-x="530" unicode="l" d="M356 0h-182v1556h182v-1556z"/>
<glyph glyph-name="m" horiz-adv-x="1835" unicode="m" d="M1489 0v707q0 130 -50 195t-155 65q-73 0 -124 -23.5t-83.5 -69t-47.5 -113t-15 -155.5v-606h-183v707q0 130 -49.5 195t-154.5 65q-77 0 -129 -26t-83.5 -77t-45 -125t-13.5 -170v-569h-182v1098h148l26 -148h10q24 43 57 74.5t72.5 52.5t84 31t90.5 10q120 0 199.5 -44 t117.5 -138h8q26 47 62.5 81t80 56.5t91.5 33.5t98 11q175 0 263.5 -95.5t88.5 -305.5v-717h-182z"/>
<glyph glyph-name="n" horiz-adv-x="1206" unicode="n" d="M860 0v707q0 130 -52.5 195t-164.5 65q-81 0 -136 -26t-88.5 -77t-48 -125t-14.5 -170v-569h-182v1098h148l26 -148h10q25 43 59.5 74.5t75.5 52.5t87 31t94 10q183 0 275.5 -95.5t92.5 -305.5v-717h-182z"/>
<glyph glyph-name="o" horiz-adv-x="1182" unicode="o" d="M301 551q0 -209 68.5 -314.5t222.5 -105.5t221.5 105.5t67.5 314.5t-68.5 312.5t-222.5 103.5t-221.5 -103.5t-67.5 -312.5zM1069 551q0 -137 -33.5 -243.5t-96 -179t-151.5 -110.5t-200 -38q-103 0 -190 38t-150.5 110.5t-99 179t-35.5 243.5q0 136 33.5 241.5t95.5 178 t151.5 110t200.5 37.5q103 0 190 -37.5t150.5 -110t99 -178t35.5 -241.5z"/>
<glyph glyph-name="p" horiz-adv-x="1200" unicode="p" d="M635 967q-76 0 -128.5 -23t-85 -70t-48 -117t-17.5 -165v-41q0 -101 13.5 -179.5t46 -132t86.5 -81t135 -27.5q135 0 198.5 109t63.5 313q0 208 -63.5 311t-200.5 103zM670 -20q-59 0 -107 13t-86.5 34.5t-68 50.5t-52.5 61h-12q3 -34 6 -65q2 -26 4 -53.5t2 -43.5v-469 h-182v1590h148l26 -148h8q23 35 52 65.5t67.5 53t86.5 36t108 13.5q94 0 171 -36t131.5 -107.5t84.5 -177.5t30 -246q0 -141 -30 -247.5t-84.5 -178.5t-131.5 -108.5t-171 -36.5z"/>
<glyph glyph-name="q" horiz-adv-x="1200" unicode="q" d="M530 -20q-93 0 -170 36t-132 107.5t-85 177.5t-30 246q0 141 30 247.5t85 178.5t132 108.5t170 36.5q59 0 107 -13.5t86 -36t68 -53t53 -65.5h8l27 148h147v-1590h-182v469q0 19 2 48t4 56q3 32 6 66h-12q-22 -34 -51.5 -64.5t-68 -53.5t-86.5 -36t-108 -13zM565 131 q76 0 128.5 23t85 70t48 117.5t17.5 164.5v41q0 101 -13.5 179.5t-46 132t-86.5 81t-135 27.5q-135 0 -198.5 -109t-63.5 -313q0 -209 63.5 -311.5t200.5 -102.5z"/>
<glyph glyph-name="r" horiz-adv-x="817" unicode="r" d="M649 1118q29 0 65 -2.5t62 -7.5l-24 -168q-28 5 -57.5 8.5t-55.5 3.5q-63 0 -115 -25.5t-89.5 -73t-58 -114t-20.5 -147.5v-592h-182v1098h148l22 -201h8q25 43 53.5 83t64 70.5t79.5 49t100 18.5z"/>
<glyph glyph-name="s" horiz-adv-x="924" unicode="s" d="M831 301q0 -80 -29 -140t-83.5 -100.5t-131.5 -60.5t-173 -20q-109 0 -187 17.5t-137 51.5v166q31 -16 69 -31.5t80 -27.5t86.5 -19.5t88.5 -7.5q65 0 110.5 11t74 31.5t41.5 50t13 65.5q0 31 -10 56t-36.5 49.5t-72.5 49.5t-118 56t-129.5 61t-97.5 67t-61.5 85.5 t-21.5 115.5q0 70 27.5 124.5t77.5 91.5t120 56t156 19q97 0 177.5 -21t152.5 -55l-63 -147q-65 29 -133.5 50.5t-139.5 21.5q-102 0 -151 -33.5t-49 -95.5q0 -35 11.5 -61t39.5 -49t75 -46.5t117 -52.5q72 -30 128.5 -60t96.5 -67.5t61 -85.5t21 -115z"/>
<glyph glyph-name="t" horiz-adv-x="694" unicode="t" d="M506 129q18 0 40.5 2t43.5 5t38.5 7t26.5 7v-138q-13 -6 -33 -12t-44 -10.5t-50 -7t-51 -2.5q-62 0 -115 16t-91.5 55t-60.5 105.5t-22 167.5v637h-155v81l155 78l78 230h105v-252h276v-137h-276v-637q0 -97 31.5 -146t103.5 -49z"/>
<glyph glyph-name="u" horiz-adv-x="1206" unicode="u" d="M885 0l-27 147h-10q-25 -43 -59.5 -74.5t-75.5 -52t-87 -30.5t-94 -10q-91 0 -160 23t-115 72t-69.5 125t-23.5 181v717h182v-707q0 -130 53 -195t164 -65q81 0 136 26t88.5 76.5t48 124.5t14.5 170v570h182v-1098h-147z"/>
<glyph glyph-name="v" horiz-adv-x="981" unicode="v" d="M375 0l-375 1098h188l199 -611q11 -33 26 -85t30 -106t27.5 -102t16.5 -73h7q5 25 17 73t27 102t30 106t26 85l199 611h188l-375 -1098h-231z"/>
<glyph glyph-name="w" horiz-adv-x="1528" unicode="w" d="M1008 0l-168 616q-4 18 -10 40.5t-12 47.5t-12.5 51t-12.5 51q-14 58 -29 120h-6q-14 -63 -27 -121q-11 -50 -23.5 -103t-23.5 -90l-172 -612h-211l-281 1098h191l131 -584q10 -45 20 -97.5t19 -104t16 -97t11 -74.5h6q5 26 13.5 69.5t19 92t21.5 96t21 80.5l179 619h196 l172 -619q9 -34 20.5 -80t22.5 -93.5t20 -91.5t13 -73h6q3 26 9.5 69.5t15.5 95.5t19.5 106.5t21.5 101.5l137 584h186l-284 -1098h-215z"/>
<glyph glyph-name="x" horiz-adv-x="1024" unicode="x" d="M408 563l-353 535h207l250 -410l250 410h207l-355 -535l373 -563h-207l-268 436l-270 -436h-207z"/>
<glyph glyph-name="y" horiz-adv-x="1001" unicode="y" d="M10 1098h189l215 -613q14 -40 28.5 -84t27 -88t21.5 -85t13 -76h6q5 25 16 68t24.5 91.5t28 95.5t25.5 80l199 611h188l-434 -1241q-28 -81 -60.5 -145.5t-75.5 -109.5t-101 -69.5t-138 -24.5q-52 0 -90 5.5t-65 11.5v145q21 -5 53 -8.5t67 -3.5q48 0 83 11.5t61 33.5 t44.5 54t33.5 73l57 160z"/>
<glyph glyph-name="z" horiz-adv-x="903" unicode="z" d="M821 0h-739v125l536 836h-503v137h688v-146l-524 -815h542v-137z"/>
<glyph glyph-name="braceleft" horiz-adv-x="725" unicode="{" d="M500 -16q0 -48 12 -78.5t34.5 -48t55 -24t72.5 -7.5v-150q-77 1 -142.5 17.5t-113 52t-74.5 90.5t-27 133v334q0 103 -65.5 146t-190.5 43v155q125 0 190.5 43t65.5 146v333q0 78 27 133t74.5 90.5t113 52t142.5 17.5v-149q-40 -1 -72.5 -7.5t-55 -24t-34.5 -48 t-12 -78.5v-332q0 -105 -59.5 -166.5t-174.5 -81.5v-12q115 -20 174.5 -81t59.5 -167v-331z"/>
<glyph glyph-name="bar" d="M489 1556h150v-2048h-150v2048z" unicode="|"/>
<glyph glyph-name="braceright" horiz-adv-x="725" unicode="}" d="M225 315q0 106 59.5 167t174.5 81v12q-115 20 -174.5 81.5t-59.5 166.5v332q0 48 -12 78.5t-34.5 48t-55 24t-72.5 7.5v149q77 -1 142.5 -17.5t113 -52t74.5 -90.5t27 -133v-333q0 -52 16.5 -88t49 -58.5t80.5 -32.5t110 -10v-155q-125 0 -190.5 -43t-65.5 -146v-334 q0 -78 -27 -133t-74.5 -90.5t-113 -52t-142.5 -17.5v150q40 1 72.5 7.5t55 24t34.5 48t12 78.5v331z"/>
<glyph glyph-name="asciitilde" d="M530 651q-37 16 -64.5 27t-50 17.5t-43 9t-42.5 2.5q-28 0 -58 -9.5t-59.5 -26t-57.5 -38.5t-53 -47v162q100 108 248 108q29 0 54 -2.5t52.5 -9t61 -19t80.5 -32.5q37 -16 64.5 -27t51 -17.5t43.5 -9t42 -2.5q28 0 58 9.5t59.5 26t57.5 38.5t52 47v-162 q-99 -108 -248 -108q-29 0 -54 2.5t-52.5 9t-61 19t-80.5 32.5z" unicode="~"/>
<glyph glyph-name="nonbreakingspace" horiz-adv-x="532" unicode=" "/>
<glyph glyph-name="exclamdown" horiz-adv-x="551" unicode="¡" d="M401 979q0 -38 -9.5 -64.5t-27 -43t-40.5 -24t-50 -7.5q-26 0 -49 7.5t-40.5 24t-27.5 43t-10 64.5q0 37 10 63t27.5 43t40.5 25t49 8q27 0 50 -8t40.5 -25t27 -43t9.5 -63zM213 676h121l51 -1049h-223z"/>
<glyph glyph-name="cent" d="M831 197q-55 -15 -131 -17v-200h-137v206q-87 13 -156 50.5t-118 104t-75 166t-26 236.5q0 141 26.5 242.5t75 169.5t118 105.5t155.5 50.5v172h137v-164q72 -3 140 -19.5t114 -39.5l-53 -154q-23 10 -51 19.5t-58 17t-59.5 12t-54.5 4.5q-157 0 -229 -101t-72 -313 q0 -210 72.5 -307.5t220.5 -97.5q81 0 146.5 18.5t119.5 42.5v-161q-50 -28 -105 -43z" unicode="¢"/>
<glyph glyph-name="sterling" d="M666 1481q106 0 193 -22.5t153 -57.5l-66 -144q-56 29 -126.5 50.5t-145.5 21.5q-48 0 -89 -13.5t-71 -43t-46.5 -76.5t-16.5 -113v-295h376v-137h-376v-211q0 -62 -11.5 -106.5t-31 -76.5t-45 -53.5t-52.5 -37.5h748v-166h-991v154q44 11 80.5 31.5t63 54.5t41.5 82.5 t15 115.5v213h-198v137h198v324q0 87 29.5 155.5t82 116t125.5 72.5t161 25z" unicode="£"/>
<glyph glyph-name="currency" d="M324 723q0 -50 18.5 -93.5t51 -76t76 -51.5t93.5 -19q51 0 95.5 19t77.5 51.5t52 76t19 93.5q0 51 -19 95.5t-52 77.5t-77.5 52t-95.5 19q-50 0 -93.5 -19t-76 -52t-51 -77.5t-18.5 -95.5zM186 723q0 59 17.5 112.5t48.5 100.5l-129 129l98 98l127 -129q47 32 101 50 t114 18t113.5 -18t99.5 -50l129 129l99 -96l-130 -129q31 -46 49.5 -100.5t18.5 -114.5t-17.5 -115t-50.5 -100l127 -127l-96 -96l-129 127q-46 -31 -99.5 -48.5t-113.5 -17.5t-115 18t-100 50l-127 -127l-96 96l127 127q-31 45 -48.5 99t-17.5 114z" unicode="¤"/>
<glyph glyph-name="yen" d="M563 723l346 739h191l-385 -768h239v-137h-301v-158h301v-137h-301v-262h-178v262h-301v137h301v158h-301v137h234l-379 768h192z" unicode="¥"/>
<glyph glyph-name="brokenbar" d="M489 289h150v-781h-150v781zM489 1556h150v-780h-150v780z" unicode="¦"/>
<glyph glyph-name="section" horiz-adv-x="995" unicode="§" d="M291 831q0 -37 14 -68.5t45.5 -60.5t82 -56.5t122.5 -57.5l35 -15q20 13 40.5 31t37 41t27 51t10.5 62q0 38 -13 70t-45.5 61.5t-86.5 58t-136 58.5q-25 -8 -48.5 -23.5t-42.5 -38t-30.5 -51.5t-11.5 -62zM137 809q0 51 13 92.5t35.5 73.5t51.5 54.5t60 37.5 q-75 38 -117.5 95t-42.5 141q0 61 27.5 110t77.5 83t120 52.5t156 18.5q97 0 175.5 -20t150.5 -52l-56 -139q-65 28 -135 47.5t-141 19.5q-99 0 -150 -29.5t-51 -86.5q0 -27 12 -50t40.5 -45t76 -45.5t117.5 -52.5q72 -28 128.5 -60.5t95.5 -71.5t60 -87.5t21 -110.5 q0 -52 -12 -94.5t-32.5 -76.5t-46.5 -58.5t-54 -40.5q69 -38 107 -92.5t38 -132.5q0 -71 -29.5 -126.5t-83.5 -94t-131.5 -58.5t-173.5 -20q-108 0 -186 16.5t-137 48.5v158q31 -15 69 -30t80 -26.5t86.5 -18.5t87.5 -7q69 0 115.5 12t74 31.5t39 45t11.5 52.5 q0 29 -8.5 51.5t-34 45t-72.5 47t-123 55.5q-73 31 -130.5 62t-97.5 70t-60.5 89t-20.5 117z"/>
<glyph glyph-name="dieresis" horiz-adv-x="1182" unicode="¨" d="M682 1395q0 54 28 78t68 24q19 0 36.5 -6t30.5 -18.5t21 -31.5t8 -46q0 -53 -29 -78t-67 -25q-40 0 -68 25t-28 78zM307 1395q0 54 28 78t68 24q39 0 68 -24.5t29 -77.5t-29 -78t-68 -25q-40 0 -68 25t-28 78z"/>
<glyph glyph-name="copyright" horiz-adv-x="1704" unicode="©" d="M209 731q0 -133 50.5 -250t138 -204.5t204.5 -138t250 -50.5t250 50.5t204.5 138t138 204.5t50.5 250t-50.5 250t-138 204.5t-204.5 138t-250 50.5t-250 -50.5t-204.5 -138t-138 -204.5t-50.5 -250zM100 731q0 104 27 200t75.5 179.5t117.5 152.5t152.5 117.5t179.5 75.5 t200 27t200 -27t179.5 -75.5t152.5 -117.5t117.5 -152.5t75.5 -179.5t27 -200t-27 -200t-75.5 -179.5t-117.5 -152t-152.5 -117.5t-179.5 -75.5t-200 -26.5t-200 26.5t-179.5 75.5t-152.5 117.5t-117.5 152t-75.5 179.5t-27 200zM891 1053q-61 0 -108 -22t-79 -63.5 t-48.5 -101.5t-16.5 -135q0 -78 14.5 -138t45 -101t78 -62.5t114.5 -21.5q23 0 50 3.5t55.5 9.5t56.5 14.5t53 17.5v-131q-24 -11 -48.5 -20t-51 -16t-56.5 -10.5t-65 -3.5q-102 0 -178 33t-126.5 94t-76 146t-25.5 188q0 101 27 184.5t79.5 143.5t129 93.5t176.5 33.5 q63 0 129 -16.5t125 -45.5l-62 -127q-52 26 -100.5 40t-91.5 14z"/>
<glyph glyph-name="ordfeminine" horiz-adv-x="678" unicode="ª" d="M377 1110q-51 -3 -85 -12t-54.5 -24t-29.5 -36.5t-9 -50.5q0 -51 25 -73.5t67 -22.5q34 0 63 10.5t50.5 32.5t34 54.5t12.5 76.5v49zM487 797l-28 82q-18 -22 -37.5 -39.5t-43 -30t-51.5 -19t-63 -6.5q-43 0 -79 13t-62 38.5t-40.5 64t-14.5 89.5q0 102 70.5 156 t213.5 59l99 4v31q0 72 -30.5 100.5t-86.5 28.5q-48 0 -93 -14.5t-87 -36.5l-48 100q51 26 109.5 44t118.5 18q125 0 184.5 -53t59.5 -175v-454h-91z"/>
<glyph glyph-name="guillemotleft" horiz-adv-x="997" unicode="«" d="M489 553l310 414l116 -78l-237 -348l237 -348l-116 -78l-310 411v27zM82 553l309 414l117 -78l-238 -348l238 -348l-117 -78l-309 411v27z"/>
<glyph glyph-name="logicalnot" d="M1026 797v-535h-149v385h-775v150h924z" unicode="¬"/>
<glyph glyph-name="uni00AD" horiz-adv-x="659" unicode="­" d="M82 465v168h496v-168h-496z"/>
<glyph glyph-name="registered" horiz-adv-x="1704" unicode="®" d="M209 731q0 -133 50.5 -250t138 -204.5t204.5 -138t250 -50.5t250 50.5t204.5 138t138 204.5t50.5 250t-50.5 250t-138 204.5t-204.5 138t-250 50.5t-250 -50.5t-204.5 -138t-138 -204.5t-50.5 -250zM100 731q0 104 27 200t75.5 179.5t117.5 152.5t152.5 117.5t179.5 75.5 t200 27t200 -27t179.5 -75.5t152.5 -117.5t117.5 -152.5t75.5 -179.5t27 -200t-27 -200t-75.5 -179.5t-117.5 -152t-152.5 -117.5t-179.5 -75.5t-200 -26.5t-200 26.5t-179.5 75.5t-152.5 117.5t-117.5 152t-75.5 179.5t-27 200zM1145 913q0 -48 -13.5 -85.5t-36 -66 t-51 -48.5t-59.5 -33q67 -110 120 -197q23 -37 44 -72.5t37.5 -63.5t26.5 -45l10 -17h-179l-206 352h-95v-352h-157v893h233q168 0 247 -65t79 -200zM743 768h72q91 0 130.5 36t39.5 105q0 74 -41.5 103.5t-130.5 29.5h-70v-274z"/>
<glyph glyph-name="overscore" horiz-adv-x="1024" unicode="¯" d="M1030 1556h-1036v140h1036v-140z"/>
<glyph glyph-name="degree" horiz-adv-x="877" unicode="°" d="M246 1167q0 -39 15 -73.5t41 -60.5t61 -41t75 -15t75 15t61.5 41t41.5 60.5t15 73.5q0 40 -15 75.5t-41.5 62t-61.5 42t-75 15.5t-75 -15.5t-61 -42t-41 -62t-15 -75.5zM123 1167q0 65 25 122.5t67.5 100.5t100 68t122.5 25t122.5 -25t100.5 -68t68 -100.5t25 -122.5 t-25 -122t-68 -99.5t-100.5 -67t-122.5 -24.5t-122.5 24.5t-100 67t-67.5 99.5t-25 122z"/>
<glyph glyph-name="plusminus" d="M102 0v150h924v-150h-924zM489 647h-387v150h387v389h150v-389h387v-150h-387v-385h-150v385z" unicode="±"/>
<glyph glyph-name="twosuperior" horiz-adv-x="678" unicode="²" d="M621 586h-572v112l209 228q57 62 93 104.5t56 76t27.5 63t7.5 63.5q0 65 -33 97t-87 32q-51 0 -97.5 -25t-91.5 -63l-78 94q54 48 120.5 80.5t148.5 32.5q60 0 108.5 -16.5t82.5 -48t52.5 -77t18.5 -102.5q0 -50 -14.5 -93t-41.5 -85.5t-66.5 -88t-90.5 -100.5l-148 -157 h396v-127z"/>
<glyph glyph-name="threesuperior" horiz-adv-x="678" unicode="³" d="M590 1255q0 -78 -40.5 -131t-109.5 -77q88 -23 132 -76t44 -131q0 -60 -20 -110t-61.5 -85.5t-104.5 -55.5t-149 -20q-70 0 -131.5 12.5t-118.5 43.5v133q63 -34 129 -53t119 -19q98 0 142 41.5t44 114.5q0 74 -53.5 107.5t-149.5 33.5h-98v113h98q92 0 134 39.5 t42 103.5q0 32 -10 55.5t-27.5 38.5t-41 22t-50.5 7q-59 0 -107.5 -20.5t-99.5 -57.5l-69 96q29 23 59.5 41.5t64.5 31.5t72 20.5t82 7.5q69 0 121.5 -17t87.5 -47t52.5 -71.5t17.5 -90.5z"/>
<glyph glyph-name="acute" horiz-adv-x="1182" unicode="´" d="M393 1268q22 29 45.5 67t47 78.5t44.5 81t37 74.5h219v-21q-16 -27 -47.5 -67.5t-70 -84.5t-79 -85.5t-75.5 -69.5h-121v27z"/>
<glyph glyph-name="mu" horiz-adv-x="1217" unicode="µ" d="M356 391q0 -130 53 -195t164 -65q82 0 137 26t88.5 76.5t47.5 124.5t14 170v570h182v-1098h-147l-27 147h-10q-48 -83 -120 -125t-175 -42q-72 0 -125 23t-88 65q1 -38 3 -78q2 -35 2.5 -77.5t0.5 -84.5v-320h-182v1590h182v-707z"/>
<glyph glyph-name="paragraph" horiz-adv-x="1341" unicode="¶" d="M1126 -260h-120v1657h-207v-1657h-121v819q-61 -18 -146 -18q-95 0 -172.5 25.5t-132 84.5t-84.5 155t-30 236q0 147 32.5 245.5t92 158.5t142.5 85t183 25h563v-1816z"/>
<glyph glyph-name="periodcentered" horiz-adv-x="549" unicode="·" d="M147 723q0 38 10 64.5t27 43t40 24t50 7.5q26 0 49.5 -7.5t40.5 -24t27 -43t10 -64.5q0 -37 -10 -63t-27 -43t-40.5 -25t-49.5 -8q-27 0 -50 8t-40 25t-27 43t-10 63z"/>
<glyph glyph-name="cedilla" horiz-adv-x="420" unicode="¸" d="M408 -287q0 -97 -70.5 -151t-220.5 -54q-22 0 -44.5 3t-37.5 6v108q15 -3 39.5 -4.5t40.5 -1.5q71 0 111 21.5t40 70.5q0 24 -13 41.5t-36 30.5t-54.5 22.5t-68.5 18.5l90 176h121l-57 -115q34 -8 63 -21t50.5 -33.5t34 -49.5t12.5 -68z"/>
<glyph glyph-name="onesuperior" horiz-adv-x="678" unicode="¹" d="M307 1462h135v-876h-145v516q0 25 0.5 55t2 60t3 58t2.5 50q-14 -17 -33 -37t-41 -37l-94 -73l-74 96z"/>
<glyph glyph-name="ordmasculine" horiz-adv-x="717" unicode="º" d="M197 1133q0 -119 37.5 -179.5t123.5 -60.5q85 0 122.5 60.5t37.5 179.5q0 120 -37.5 177.5t-122.5 57.5q-86 0 -123.5 -57.5t-37.5 -177.5zM651 1133q0 -83 -20.5 -148t-59 -109.5t-93 -68t-122.5 -23.5q-63 0 -116 23.5t-92 68t-60.5 109.5t-21.5 148t20.5 147.5 t58.5 108.5t92.5 67t122.5 23q62 0 115.5 -23t92.5 -67t61 -108.5t22 -147.5z"/>
<glyph glyph-name="guillemotright" horiz-adv-x="997" unicode="»" d="M510 526l-309 -411l-117 78l238 348l-238 348l117 78l309 -414v-27zM918 526l-310 -411l-116 78l237 348l-237 348l116 78l310 -414v-27z"/>
<glyph glyph-name="onequarter" horiz-adv-x="1509" unicode="¼" d="M307 1462h135v-876h-145v516q0 25 0.5 55t2 60t3 58t2.5 50q-14 -17 -33 -37t-41 -37l-94 -73l-74 96zM1202 1462l-811 -1462h-157l811 1462h157zM1151 320v195q0 42 1.5 91.5t4.5 98.5q-5 -11 -15 -29.5t-21 -39.5t-23 -41l-21 -35l-155 -240h229zM1419 193h-125v-192 h-143v192h-375v111l377 579h141v-563h125v-127z"/>
<glyph glyph-name="onehalf" horiz-adv-x="1509" unicode="½" d="M288 1462h135v-876h-145v516q0 25 0.5 55t2 60t3 58t2.5 50q-14 -17 -33 -37t-41 -37l-94 -73l-74 96zM1181 1462l-811 -1462h-157l811 1462h157zM1440 1h-572v112l209 228q57 62 93 104.5t56 76t27.5 63t7.5 63.5q0 65 -33 97t-87 32q-51 0 -97.5 -25t-91.5 -63l-78 94 q54 48 120.5 80.5t148.5 32.5q60 0 108.5 -16.5t82.5 -48t52.5 -77t18.5 -102.5q0 -50 -14.5 -93t-41.5 -85.5t-66.5 -88t-90.5 -100.5l-148 -157h396v-127z"/>
<glyph glyph-name="threequarters" horiz-adv-x="1509" unicode="¾" d="M590 1255q0 -78 -40.5 -131t-109.5 -77q88 -23 132 -76t44 -131q0 -60 -20 -110t-61.5 -85.5t-104.5 -55.5t-149 -20q-70 0 -131.5 12.5t-118.5 43.5v133q63 -34 129 -53t119 -19q98 0 142 41.5t44 114.5q0 74 -53.5 107.5t-149.5 33.5h-98v113h98q92 0 134 39.5 t42 103.5q0 32 -10 55.5t-27.5 38.5t-41 22t-50.5 7q-59 0 -107.5 -20.5t-99.5 -57.5l-69 96q29 23 59.5 41.5t64.5 31.5t72 20.5t82 7.5q69 0 121.5 -17t87.5 -47t52.5 -71.5t17.5 -90.5zM1296 1462l-811 -1462h-157l811 1462h157zM1218 320v195q0 42 1.5 91.5t4.5 98.5 q-5 -11 -15 -29.5t-21 -39.5t-23 -41l-21 -35l-155 -240h229zM1486 193h-125v-192h-143v192h-375v111l377 579h141v-563h125v-127z"/>
<glyph glyph-name="questiondown" horiz-adv-x="872" unicode="¿" d="M639 979q0 -38 -9.5 -64.5t-27 -43t-40.5 -24t-50 -7.5q-26 0 -49 7.5t-40.5 24t-27.5 43t-10 64.5q0 37 10 63t27.5 43t40.5 25t49 8q27 0 50 -8t40.5 -25t27 -43t9.5 -63zM592 676v-37q0 -58 -8 -103.5t-27.5 -86t-52 -78.5t-82.5 -80q-48 -41 -82 -74.5t-55.5 -68 t-32 -74t-10.5 -92.5q0 -48 15 -87.5t43.5 -68t71 -44t97.5 -15.5q84 0 159 25.5t144 60.5l64 -146q-82 -42 -176 -71t-191 -29q-93 0 -167.5 25.5t-126 73.5t-79.5 117t-28 157q0 68 13.5 120t40 97t67 87t94.5 89q52 45 85 78.5t52 64.5t26 64.5t7 76.5v19h139z"/>
<glyph glyph-name="Agrave" horiz-adv-x="1245" unicode="À" d="M836 618l-148 424q-6 18 -14.5 44t-17.5 56t-18 62.5t-17 63.5q-7 -31 -16 -64t-18 -63.5t-17.5 -56t-14.5 -42.5l-145 -424h426zM1055 0l-160 453h-545l-162 -453h-188l537 1468h170l538 -1468h-190zM719 1579h-120q-35 28 -76 69.5t-79.5 85.5t-70 84.5t-47.5 67.5v21 h219q16 -34 37.5 -74.5t44.5 -81t47 -78.5t45 -67v-27z"/>
<glyph glyph-name="Aacute" horiz-adv-x="1245" unicode="Á" d="M836 618l-148 424q-6 18 -14.5 44t-17.5 56t-18 62.5t-17 63.5q-7 -31 -16 -64t-18 -63.5t-17.5 -56t-14.5 -42.5l-145 -424h426zM1055 0l-160 453h-545l-162 -453h-188l537 1468h170l538 -1468h-190zM534 1606q22 29 45.5 67t47 78.5t44.5 81t37 74.5h219v-21 q-16 -27 -47.5 -67.5t-70 -84.5t-79 -85.5t-75.5 -69.5h-121v27z"/>
<glyph glyph-name="Acircumflex" horiz-adv-x="1245" unicode="Â" d="M836 618l-148 424q-6 18 -14.5 44t-17.5 56t-18 62.5t-17 63.5q-7 -31 -16 -64t-18 -63.5t-17.5 -56t-14.5 -42.5l-145 -424h426zM1055 0l-160 453h-545l-162 -453h-188l537 1468h170l538 -1468h-190zM953 1579h-121q-51 34 -105 82.5t-106 103.5q-54 -55 -107 -103.5 t-104 -82.5h-121v27q26 29 60 67t67.5 78.5t63 81t45.5 74.5h192q16 -34 45.5 -74.5t63 -81t68 -78.5t59.5 -67v-27z"/>
<glyph glyph-name="Atilde" horiz-adv-x="1245" unicode="Ã" d="M836 618l-148 424q-6 18 -14.5 44t-17.5 56t-18 62.5t-17 63.5q-7 -31 -16 -64t-18 -63.5t-17.5 -56t-14.5 -42.5l-145 -424h426zM1055 0l-160 453h-545l-162 -453h-188l537 1468h170l538 -1468h-190zM772 1581q-40 0 -79.5 17.5t-77.5 39t-73 39t-67 17.5 q-45 0 -69 -26.5t-38 -88.5h-104q5 60 21.5 109t43 83.5t63.5 53t83 18.5q42 0 82.5 -17.5t78.5 -38.5t72.5 -38.5t63.5 -17.5q45 0 68 26t38 88h105q-5 -60 -21.5 -108.5t-43 -83t-63.5 -53.5t-83 -19z"/>
<glyph glyph-name="Adieresis" horiz-adv-x="1245" unicode="Ä" d="M836 618l-148 424q-6 18 -14.5 44t-17.5 56t-18 62.5t-17 63.5q-7 -31 -16 -64t-18 -63.5t-17.5 -56t-14.5 -42.5l-145 -424h426zM1055 0l-160 453h-545l-162 -453h-188l537 1468h170l538 -1468h-190zM715 1733q0 54 28 78t68 24q19 0 36.5 -6t30.5 -18.5t21 -31.5t8 -46 q0 -53 -29 -78t-67 -25q-40 0 -68 25t-28 78zM340 1733q0 54 28 78t68 24q39 0 68 -24.5t29 -77.5t-29 -78t-68 -25q-40 0 -68 25t-28 78z"/>
<glyph glyph-name="Aring" horiz-adv-x="1245" unicode="Å" d="M836 618l-148 424q-6 18 -14.5 44t-17.5 56t-18 62.5t-17 63.5q-7 -31 -16 -64t-18 -63.5t-17.5 -56t-14.5 -42.5l-145 -424h426zM1055 0l-160 453h-545l-162 -453h-188l537 1468h170l538 -1468h-190zM731 1581q0 53 -31.5 83t-80.5 30q-50 0 -81.5 -30t-31.5 -83 t28.5 -83t84.5 -30q49 0 80.5 30t31.5 83zM848 1583q0 -51 -17.5 -91.5t-48 -68.5t-72.5 -42.5t-91 -14.5q-50 0 -91 14.5t-70.5 42.5t-45.5 67.5t-16 90.5t16 90.5t45.5 67.5t70.5 42.5t91 14.5q48 0 90 -14.5t73 -42t48.5 -67t17.5 -89.5z"/>
<glyph glyph-name="AE" horiz-adv-x="1745" unicode="Æ" d="M459 618h403v680h-108zM1622 0h-760v453h-475l-203 -453h-186l655 1462h969v-164h-573v-452h534v-162h-534v-520h573v-164z"/>
<glyph glyph-name="Ccedilla" horiz-adv-x="1235" unicode="Ç" d="M793 1319q-107 0 -194 -40.5t-148.5 -116.5t-95 -185t-33.5 -246q0 -141 29.5 -250.5t88.5 -184.5t147 -114t206 -39q89 0 169 17.5t158 40.5v-162q-39 -15 -78 -26.5t-81.5 -18.5t-91 -10.5t-107.5 -3.5q-164 0 -284 54t-198.5 153t-116.5 238t-38 308q0 166 43.5 304 t128 237t209.5 154t287 55q108 0 206 -22t177 -64l-78 -156q-63 32 -137 55t-168 23zM916 -287q0 -97 -70.5 -151t-220.5 -54q-22 0 -44.5 3t-37.5 6v108q15 -3 39.5 -4.5t40.5 -1.5q71 0 111 21.5t40 70.5q0 24 -13 41.5t-36 30.5t-54.5 22.5t-68.5 18.5l90 176h121 l-57 -115q34 -8 63 -21t50.5 -33.5t34 -49.5t12.5 -68z"/>
<glyph glyph-name="Egrave" horiz-adv-x="1081" unicode="È" d="M958 0h-759v1462h759v-164h-573v-452h535v-162h-535v-520h573v-164zM713 1579h-120q-35 28 -76 69.5t-79.5 85.5t-70 84.5t-47.5 67.5v21h219q16 -34 37.5 -74.5t44.5 -81t47 -78.5t45 -67v-27z"/>
<glyph glyph-name="Eacute" horiz-adv-x="1081" unicode="É" d="M958 0h-759v1462h759v-164h-573v-452h535v-162h-535v-520h573v-164zM456 1606q22 29 45.5 67t47 78.5t44.5 81t37 74.5h219v-21q-16 -27 -47.5 -67.5t-70 -84.5t-79 -85.5t-75.5 -69.5h-121v27z"/>
<glyph glyph-name="Ecircumflex" horiz-adv-x="1081" unicode="Ê" d="M958 0h-759v1462h759v-164h-573v-452h535v-162h-535v-520h573v-164zM907 1579h-121q-51 34 -105 82.5t-106 103.5q-54 -55 -107 -103.5t-104 -82.5h-121v27q26 29 60 67t67.5 78.5t63 81t45.5 74.5h192q16 -34 45.5 -74.5t63 -81t68 -78.5t59.5 -67v-27z"/>
<glyph glyph-name="Edieresis" horiz-adv-x="1081" unicode="Ë" d="M958 0h-759v1462h759v-164h-573v-452h535v-162h-535v-520h573v-164zM671 1733q0 54 28 78t68 24q19 0 36.5 -6t30.5 -18.5t21 -31.5t8 -46q0 -53 -29 -78t-67 -25q-40 0 -68 25t-28 78zM296 1733q0 54 28 78t68 24q39 0 68 -24.5t29 -77.5t-29 -78t-68 -25q-40 0 -68 25 t-28 78z"/>
<glyph glyph-name="Igrave" horiz-adv-x="694" unicode="Ì" d="M612 0h-530v102l172 41v1176l-172 41v102h530v-102l-172 -41v-1176l172 -41v-102zM455 1579h-120q-35 28 -76 69.5t-79.5 85.5t-70 84.5t-47.5 67.5v21h219q16 -34 37.5 -74.5t44.5 -81t47 -78.5t45 -67v-27z"/>
<glyph glyph-name="Iacute" horiz-adv-x="694" unicode="Í" d="M612 0h-530v102l172 41v1176l-172 41v102h530v-102l-172 -41v-1176l172 -41v-102zM257 1606q22 29 45.5 67t47 78.5t44.5 81t37 74.5h219v-21q-16 -27 -47.5 -67.5t-70 -84.5t-79 -85.5t-75.5 -69.5h-121v27z"/>
<glyph glyph-name="Icircumflex" horiz-adv-x="694" unicode="Î" d="M612 0h-530v102l172 41v1176l-172 41v102h530v-102l-172 -41v-1176l172 -41v-102zM681 1579h-121q-51 34 -105 82.5t-106 103.5q-54 -55 -107 -103.5t-104 -82.5h-121v27q26 29 60 67t67.5 78.5t63 81t45.5 74.5h192q16 -34 45.5 -74.5t63 -81t68 -78.5t59.5 -67v-27z "/>
<glyph glyph-name="Idieresis" horiz-adv-x="694" unicode="Ï" d="M612 0h-530v102l172 41v1176l-172 41v102h530v-102l-172 -41v-1176l172 -41v-102zM439 1733q0 54 28 78t68 24q19 0 36.5 -6t30.5 -18.5t21 -31.5t8 -46q0 -53 -29 -78t-67 -25q-40 0 -68 25t-28 78zM64 1733q0 54 28 78t68 24q39 0 68 -24.5t29 -77.5t-29 -78t-68 -25 q-40 0 -68 25t-28 78z"/>
<glyph glyph-name="Eth" horiz-adv-x="1401" unicode="Ð" d="M1079 739q0 146 -33 252.5t-96 175.5t-155 102.5t-209 33.5h-201v-498h336v-162h-336v-483h162q264 0 398 146t134 433zM47 805h152v657h407q153 0 277 -46t211 -136.5t134.5 -224.5t47.5 -310q0 -185 -48 -324.5t-139 -233t-223.5 -140.5t-300.5 -47h-366v643h-152v162z "/>
<glyph glyph-name="Ntilde" horiz-adv-x="1493" unicode="Ñ" d="M1294 0h-215l-719 1210h-8q6 -77 10 -153q4 -65 6.5 -136t2.5 -128v-793h-172v1462h213l716 -1204h7q-3 76 -7 150q-1 32 -2.5 65.5l-3 67t-2 64.5t-0.5 57v800h174v-1462zM905 1581q-40 0 -79.5 17.5t-77.5 39t-73 39t-67 17.5q-45 0 -69 -26.5t-38 -88.5h-104 q5 60 21.5 109t43 83.5t63.5 53t83 18.5q42 0 82.5 -17.5t78.5 -38.5t72.5 -38.5t63.5 -17.5q45 0 68 26t38 88h105q-5 -60 -21.5 -108.5t-43 -83t-63.5 -53.5t-83 -19z"/>
<glyph glyph-name="Ograve" horiz-adv-x="1520" unicode="Ò" d="M322 733q0 -137 26 -246.5t79.5 -186t136 -117t196.5 -40.5t196.5 40.5t136 117t78.5 186t25 246.5q0 138 -25 247t-78 184.5t-135 116t-196 40.5t-197 -40.5t-137 -116t-80 -184.5t-26 -247zM1393 733q0 -169 -40.5 -308t-120.5 -238t-198.5 -153t-273.5 -54 q-163 0 -282.5 54t-198 153t-116.5 238.5t-38 309.5t38 308.5t117 236.5t199 151.5t283 53.5q155 0 272.5 -53.5t197.5 -152t120.5 -237t40.5 -309.5zM870 1579h-120q-35 28 -76 69.5t-79.5 85.5t-70 84.5t-47.5 67.5v21h219q16 -34 37.5 -74.5t44.5 -81t47 -78.5t45 -67 v-27z"/>
<glyph glyph-name="Oacute" horiz-adv-x="1520" unicode="Ó" d="M322 733q0 -137 26 -246.5t79.5 -186t136 -117t196.5 -40.5t196.5 40.5t136 117t78.5 186t25 246.5q0 138 -25 247t-78 184.5t-135 116t-196 40.5t-197 -40.5t-137 -116t-80 -184.5t-26 -247zM1393 733q0 -169 -40.5 -308t-120.5 -238t-198.5 -153t-273.5 -54 q-163 0 -282.5 54t-198 153t-116.5 238.5t-38 309.5t38 308.5t117 236.5t199 151.5t283 53.5q155 0 272.5 -53.5t197.5 -152t120.5 -237t40.5 -309.5zM651 1606q22 29 45.5 67t47 78.5t44.5 81t37 74.5h219v-21q-16 -27 -47.5 -67.5t-70 -84.5t-79 -85.5t-75.5 -69.5h-121 v27z"/>
<glyph glyph-name="Ocircumflex" horiz-adv-x="1520" unicode="Ô" d="M322 733q0 -137 26 -246.5t79.5 -186t136 -117t196.5 -40.5t196.5 40.5t136 117t78.5 186t25 246.5q0 138 -25 247t-78 184.5t-135 116t-196 40.5t-197 -40.5t-137 -116t-80 -184.5t-26 -247zM1393 733q0 -169 -40.5 -308t-120.5 -238t-198.5 -153t-273.5 -54 q-163 0 -282.5 54t-198 153t-116.5 238.5t-38 309.5t38 308.5t117 236.5t199 151.5t283 53.5q155 0 272.5 -53.5t197.5 -152t120.5 -237t40.5 -309.5zM1096 1579h-121q-51 34 -105 82.5t-106 103.5q-54 -55 -107 -103.5t-104 -82.5h-121v27q26 29 60 67t67.5 78.5t63 81 t45.5 74.5h192q16 -34 45.5 -74.5t63 -81t68 -78.5t59.5 -67v-27z"/>
<glyph glyph-name="Otilde" horiz-adv-x="1520" unicode="Õ" d="M322 733q0 -137 26 -246.5t79.5 -186t136 -117t196.5 -40.5t196.5 40.5t136 117t78.5 186t25 246.5q0 138 -25 247t-78 184.5t-135 116t-196 40.5t-197 -40.5t-137 -116t-80 -184.5t-26 -247zM1393 733q0 -169 -40.5 -308t-120.5 -238t-198.5 -153t-273.5 -54 q-163 0 -282.5 54t-198 153t-116.5 238.5t-38 309.5t38 308.5t117 236.5t199 151.5t283 53.5q155 0 272.5 -53.5t197.5 -152t120.5 -237t40.5 -309.5zM891 1581q-40 0 -79.5 17.5t-77.5 39t-73 39t-67 17.5q-45 0 -69 -26.5t-38 -88.5h-104q5 60 21.5 109t43 83.5t63.5 53 t83 18.5q42 0 82.5 -17.5t78.5 -38.5t72.5 -38.5t63.5 -17.5q45 0 68 26t38 88h105q-5 -60 -21.5 -108.5t-43 -83t-63.5 -53.5t-83 -19z"/>
<glyph glyph-name="Odieresis" horiz-adv-x="1520" unicode="Ö" d="M322 733q0 -137 26 -246.5t79.5 -186t136 -117t196.5 -40.5t196.5 40.5t136 117t78.5 186t25 246.5q0 138 -25 247t-78 184.5t-135 116t-196 40.5t-197 -40.5t-137 -116t-80 -184.5t-26 -247zM1393 733q0 -169 -40.5 -308t-120.5 -238t-198.5 -153t-273.5 -54 q-163 0 -282.5 54t-198 153t-116.5 238.5t-38 309.5t38 308.5t117 236.5t199 151.5t283 53.5q155 0 272.5 -53.5t197.5 -152t120.5 -237t40.5 -309.5zM852 1733q0 54 28 78t68 24q19 0 36.5 -6t30.5 -18.5t21 -31.5t8 -46q0 -53 -29 -78t-67 -25q-40 0 -68 25t-28 78z M477 1733q0 54 28 78t68 24q39 0 68 -24.5t29 -77.5t-29 -78t-68 -25q-40 0 -68 25t-28 78z"/>
<glyph glyph-name="multiply" d="M459 723l-318 319l105 105l317 -318l322 318l104 -103l-321 -321l319 -320l-102 -102l-322 317l-317 -315l-103 103z" unicode="×"/>
<glyph glyph-name="Oslash" horiz-adv-x="1520" unicode="Ø" d="M1196 733q0 257 -88 408l-578 -940q47 -28 104 -43t126 -15q114 0 196.5 40.5t136 117t78.5 186t25 246.5zM322 733q0 -131 23 -235.5t71 -182.5l579 945q-48 29 -105 45t-128 16q-114 0 -197 -40.5t-137 -116t-80 -184.5t-26 -247zM1300 1454l-92 -149q91 -99 138 -244 t47 -328q0 -169 -40.5 -308t-120.5 -238t-198.5 -153t-273.5 -54q-189 0 -322 71l-78 -127l-137 78l90 145q-97 100 -142.5 249t-45.5 339q0 170 38 308.5t117 236.5t199 151.5t283 53.5q94 0 174.5 -21t146.5 -59l80 127z"/>
<glyph glyph-name="Ugrave" horiz-adv-x="1430" unicode="Ù" d="M1245 1464v-948q0 -114 -33 -212t-99.5 -170t-167 -113t-236.5 -41q-128 0 -226 38.5t-164.5 109.5t-100.5 170.5t-34 221.5v942h187v-952q0 -175 86.5 -271t261.5 -96q89 0 153 27t105 76t61 117t21 149v952h186zM847 1579h-120q-35 28 -76 69.5t-79.5 85.5t-70 84.5 t-47.5 67.5v21h219q16 -34 37.5 -74.5t44.5 -81t47 -78.5t45 -67v-27z"/>
<glyph glyph-name="Uacute" horiz-adv-x="1430" unicode="Ú" d="M1245 1464v-948q0 -114 -33 -212t-99.5 -170t-167 -113t-236.5 -41q-128 0 -226 38.5t-164.5 109.5t-100.5 170.5t-34 221.5v942h187v-952q0 -175 86.5 -271t261.5 -96q89 0 153 27t105 76t61 117t21 149v952h186zM590 1606q22 29 45.5 67t47 78.5t44.5 81t37 74.5h219 v-21q-16 -27 -47.5 -67.5t-70 -84.5t-79 -85.5t-75.5 -69.5h-121v27z"/>
<glyph glyph-name="Ucircumflex" horiz-adv-x="1430" unicode="Û" d="M1245 1464v-948q0 -114 -33 -212t-99.5 -170t-167 -113t-236.5 -41q-128 0 -226 38.5t-164.5 109.5t-100.5 170.5t-34 221.5v942h187v-952q0 -175 86.5 -271t261.5 -96q89 0 153 27t105 76t61 117t21 149v952h186zM1043 1579h-121q-51 34 -105 82.5t-106 103.5 q-54 -55 -107 -103.5t-104 -82.5h-121v27q26 29 60 67t67.5 78.5t63 81t45.5 74.5h192q16 -34 45.5 -74.5t63 -81t68 -78.5t59.5 -67v-27z"/>
<glyph glyph-name="Udieresis" horiz-adv-x="1430" unicode="Ü" d="M1245 1464v-948q0 -114 -33 -212t-99.5 -170t-167 -113t-236.5 -41q-128 0 -226 38.5t-164.5 109.5t-100.5 170.5t-34 221.5v942h187v-952q0 -175 86.5 -271t261.5 -96q89 0 153 27t105 76t61 117t21 149v952h186zM807 1733q0 54 28 78t68 24q19 0 36.5 -6t30.5 -18.5 t21 -31.5t8 -46q0 -53 -29 -78t-67 -25q-40 0 -68 25t-28 78zM432 1733q0 54 28 78t68 24q39 0 68 -24.5t29 -77.5t-29 -78t-68 -25q-40 0 -68 25t-28 78z"/>
<glyph glyph-name="Yacute" horiz-adv-x="1079" unicode="Ý" d="M539 723l340 739h200l-446 -893v-569h-187v559l-446 903h203zM442 1606q22 29 45.5 67t47 78.5t44.5 81t37 74.5h219v-21q-16 -27 -47.5 -67.5t-70 -84.5t-79 -85.5t-75.5 -69.5h-121v27z"/>
<glyph glyph-name="Thorn" horiz-adv-x="1180" unicode="Þ" d="M385 475h129q93 0 162.5 16t115 51.5t68.5 92t23 137.5q0 143 -82 211t-256 68h-160v-576zM1075 782q0 -91 -27.5 -175t-90.5 -148.5t-166.5 -103t-255.5 -38.5h-150v-317h-186v1462h186v-252h176q134 0 231 -28.5t160 -83t93 -134.5t30 -182z"/>
<glyph glyph-name="germandbls" horiz-adv-x="1233" unicode="ß" d="M1010 1260q0 -57 -21.5 -101.5t-53 -81t-69 -66.5t-69 -57.5t-53 -54.5t-21.5 -57q0 -21 7 -37.5t26.5 -36t54.5 -44t92 -62.5q56 -37 100 -73t74.5 -77t47 -89t16.5 -110q0 -87 -28 -150t-78.5 -103.5t-121 -60t-155.5 -19.5q-97 0 -166.5 17.5t-122.5 51.5v166 q26 -16 58.5 -31.5t68.5 -27.5t74 -19.5t75 -7.5q56 0 96.5 12.5t66.5 35t38 54.5t12 72q0 36 -8.5 65.5t-30 57.5t-57.5 57t-92 64q-63 40 -105.5 74t-69 67.5t-37.5 68.5t-11 77q0 54 20.5 93.5t51.5 71t67 58.5t67 56t51.5 62.5t20.5 77.5q0 42 -16.5 73t-46.5 51.5 t-71.5 30t-92.5 9.5q-49 0 -93 -9.5t-77 -33.5t-52.5 -65.5t-19.5 -106.5v-1202h-182v1200q0 104 31.5 174.5t88 113t134.5 61t170 18.5t168 -19t130 -57t84 -96t30 -135z"/>
<glyph glyph-name="agrave" horiz-adv-x="1087" unicode="à" d="M459 127q61 0 113 19t90 57.5t59.5 97t21.5 137.5v99l-143 -7q-90 -4 -151 -20t-97.5 -44.5t-52.5 -69t-16 -91.5q0 -92 48.5 -135t127.5 -43zM793 0l-37 152h-8q-33 -45 -66 -77.5t-72 -53.5t-87 -31t-111 -10q-69 0 -127 19.5t-100.5 60t-66.5 102t-24 145.5 q0 164 115.5 252t351.5 96l184 7v69q0 67 -14.5 112t-42 72.5t-68 39.5t-92.5 12q-83 0 -154.5 -24t-137.5 -58l-64 137q74 40 165 68t191 28q102 0 176.5 -20.5t123 -65t72.5 -113.5t24 -167v-752h-131zM678 1241h-120q-35 28 -76 69.5t-79.5 85.5t-70 84.5t-47.5 67.5v21 h219q16 -34 37.5 -74.5t44.5 -81t47 -78.5t45 -67v-27z"/>
<glyph glyph-name="aacute" horiz-adv-x="1087" unicode="á" d="M459 127q61 0 113 19t90 57.5t59.5 97t21.5 137.5v99l-143 -7q-90 -4 -151 -20t-97.5 -44.5t-52.5 -69t-16 -91.5q0 -92 48.5 -135t127.5 -43zM793 0l-37 152h-8q-33 -45 -66 -77.5t-72 -53.5t-87 -31t-111 -10q-69 0 -127 19.5t-100.5 60t-66.5 102t-24 145.5 q0 164 115.5 252t351.5 96l184 7v69q0 67 -14.5 112t-42 72.5t-68 39.5t-92.5 12q-83 0 -154.5 -24t-137.5 -58l-64 137q74 40 165 68t191 28q102 0 176.5 -20.5t123 -65t72.5 -113.5t24 -167v-752h-131zM446 1268q22 29 45.5 67t47 78.5t44.5 81t37 74.5h219v-21 q-16 -27 -47.5 -67.5t-70 -84.5t-79 -85.5t-75.5 -69.5h-121v27z"/>
<glyph glyph-name="acircumflex" horiz-adv-x="1087" unicode="â" d="M459 127q61 0 113 19t90 57.5t59.5 97t21.5 137.5v99l-143 -7q-90 -4 -151 -20t-97.5 -44.5t-52.5 -69t-16 -91.5q0 -92 48.5 -135t127.5 -43zM793 0l-37 152h-8q-33 -45 -66 -77.5t-72 -53.5t-87 -31t-111 -10q-69 0 -127 19.5t-100.5 60t-66.5 102t-24 145.5 q0 164 115.5 252t351.5 96l184 7v69q0 67 -14.5 112t-42 72.5t-68 39.5t-92.5 12q-83 0 -154.5 -24t-137.5 -58l-64 137q74 40 165 68t191 28q102 0 176.5 -20.5t123 -65t72.5 -113.5t24 -167v-752h-131zM892 1241h-121q-51 34 -105 82.5t-106 103.5q-54 -55 -107 -103.5 t-104 -82.5h-121v27q26 29 60 67t67.5 78.5t63 81t45.5 74.5h192q16 -34 45.5 -74.5t63 -81t68 -78.5t59.5 -67v-27z"/>
<glyph glyph-name="atilde" horiz-adv-x="1087" unicode="ã" d="M459 127q61 0 113 19t90 57.5t59.5 97t21.5 137.5v99l-143 -7q-90 -4 -151 -20t-97.5 -44.5t-52.5 -69t-16 -91.5q0 -92 48.5 -135t127.5 -43zM793 0l-37 152h-8q-33 -45 -66 -77.5t-72 -53.5t-87 -31t-111 -10q-69 0 -127 19.5t-100.5 60t-66.5 102t-24 145.5 q0 164 115.5 252t351.5 96l184 7v69q0 67 -14.5 112t-42 72.5t-68 39.5t-92.5 12q-83 0 -154.5 -24t-137.5 -58l-64 137q74 40 165 68t191 28q102 0 176.5 -20.5t123 -65t72.5 -113.5t24 -167v-752h-131zM699 1243q-40 0 -79.5 17.5t-77.5 39t-73 39t-67 17.5 q-45 0 -69 -26.5t-38 -88.5h-104q5 60 21.5 109t43 83.5t63.5 53t83 18.5q42 0 82.5 -17.5t78.5 -38.5t72.5 -38.5t63.5 -17.5q45 0 68 26t38 88h105q-5 -60 -21.5 -108.5t-43 -83t-63.5 -53.5t-83 -19z"/>
<glyph glyph-name="adieresis" horiz-adv-x="1087" unicode="ä" d="M459 127q61 0 113 19t90 57.5t59.5 97t21.5 137.5v99l-143 -7q-90 -4 -151 -20t-97.5 -44.5t-52.5 -69t-16 -91.5q0 -92 48.5 -135t127.5 -43zM793 0l-37 152h-8q-33 -45 -66 -77.5t-72 -53.5t-87 -31t-111 -10q-69 0 -127 19.5t-100.5 60t-66.5 102t-24 145.5 q0 164 115.5 252t351.5 96l184 7v69q0 67 -14.5 112t-42 72.5t-68 39.5t-92.5 12q-83 0 -154.5 -24t-137.5 -58l-64 137q74 40 165 68t191 28q102 0 176.5 -20.5t123 -65t72.5 -113.5t24 -167v-752h-131zM648 1395q0 54 28 78t68 24q19 0 36.5 -6t30.5 -18.5t21 -31.5t8 -46 q0 -53 -29 -78t-67 -25q-40 0 -68 25t-28 78zM273 1395q0 54 28 78t68 24q39 0 68 -24.5t29 -77.5t-29 -78t-68 -25q-40 0 -68 25t-28 78z"/>
<glyph glyph-name="aring" horiz-adv-x="1087" unicode="å" d="M459 127q61 0 113 19t90 57.5t59.5 97t21.5 137.5v99l-143 -7q-90 -4 -151 -20t-97.5 -44.5t-52.5 -69t-16 -91.5q0 -92 48.5 -135t127.5 -43zM793 0l-37 152h-8q-33 -45 -66 -77.5t-72 -53.5t-87 -31t-111 -10q-69 0 -127 19.5t-100.5 60t-66.5 102t-24 145.5 q0 164 115.5 252t351.5 96l184 7v69q0 67 -14.5 112t-42 72.5t-68 39.5t-92.5 12q-83 0 -154.5 -24t-137.5 -58l-64 137q74 40 165 68t191 28q102 0 176.5 -20.5t123 -65t72.5 -113.5t24 -167v-752h-131zM666 1456q0 53 -31.5 83t-80.5 30q-50 0 -81.5 -30t-31.5 -83 t28.5 -83t84.5 -30q49 0 80.5 30t31.5 83zM783 1458q0 -51 -17.5 -91.5t-48 -68.5t-72.5 -42.5t-91 -14.5q-50 0 -91 14.5t-70.5 42.5t-45.5 67.5t-16 90.5t16 90.5t45.5 67.5t70.5 42.5t91 14.5q48 0 90 -14.5t73 -42t48.5 -67t17.5 -89.5z"/>
<glyph glyph-name="ae" horiz-adv-x="1706" unicode="æ" d="M1184 967q-110 0 -173.5 -78t-74.5 -227h471q0 68 -13 124.5t-40.5 96.5t-69.5 62t-100 22zM283 305q0 -92 48.5 -135t127.5 -43q61 0 113 19t90 57.5t59.5 97t21.5 137.5v99l-143 -7q-90 -4 -151 -20t-97.5 -44.5t-52.5 -69t-16 -91.5zM94 307q0 164 115.5 252t351.5 96 l184 7v69q0 67 -14.5 112t-42 72.5t-68 39.5t-92.5 12q-83 0 -154.5 -24t-137.5 -58l-64 137q74 40 165 68t191 28q131 0 214 -42.5t126 -135.5q51 85 134 131.5t186 46.5q97 0 174 -35.5t131 -100t82.5 -155t28.5 -200.5v-113h-672q5 -193 78.5 -284t220.5 -91q49 0 91.5 5 t81.5 14.5t76 24t74 32.5v-162q-39 -19 -76.5 -33t-77 -23t-82 -13t-91.5 -4q-138 0 -239 57t-163 172q-34 -54 -72 -96.5t-85.5 -72t-105.5 -45t-132 -15.5q-71 0 -132.5 19.5t-106.5 60t-71 102t-26 145.5z"/>
<glyph glyph-name="ccedilla" horiz-adv-x="948" unicode="ç" d="M594 -20q-101 0 -189 31.5t-153 100t-102 175t-37 256.5q0 157 38 266.5t104.5 178t155.5 99.5t191 31q78 0 152.5 -17t124.5 -42l-54 -154q-23 10 -51 19.5t-58 17t-59 12t-55 4.5q-157 0 -229 -100.5t-72 -312.5q0 -211 72.5 -308.5t220.5 -97.5q81 0 146.5 18.5 t119.5 43.5v-162q-54 -29 -115.5 -44t-150.5 -15zM730 -287q0 -97 -70.5 -151t-220.5 -54q-22 0 -44.5 3t-37.5 6v108q15 -3 39.5 -4.5t40.5 -1.5q71 0 111 21.5t40 70.5q0 24 -13 41.5t-36 30.5t-54.5 22.5t-68.5 18.5l90 176h121l-57 -115q34 -8 63 -21t50.5 -33.5 t34 -49.5t12.5 -68z"/>
<glyph glyph-name="egrave" horiz-adv-x="1096" unicode="è" d="M563 967q-114 0 -180.5 -78t-77.5 -227h492q0 68 -13.5 124.5t-42 96.5t-72.5 62t-106 22zM608 -20q-110 0 -201 37t-156.5 108t-101.5 176t-36 240q0 136 33 243t93 181.5t143.5 113.5t184.5 39q99 0 178 -35.5t134 -100t84.5 -155t29.5 -200.5v-113h-692 q5 -193 81.5 -284t227.5 -91q51 0 94.5 5t84 14.5t78.5 24t77 32.5v-162q-40 -19 -78.5 -33t-79 -23t-84 -13t-94.5 -4zM678 1241h-120q-35 28 -76 69.5t-79.5 85.5t-70 84.5t-47.5 67.5v21h219q16 -34 37.5 -74.5t44.5 -81t47 -78.5t45 -67v-27z"/>
<glyph glyph-name="eacute" horiz-adv-x="1096" unicode="é" d="M563 967q-114 0 -180.5 -78t-77.5 -227h492q0 68 -13.5 124.5t-42 96.5t-72.5 62t-106 22zM608 -20q-110 0 -201 37t-156.5 108t-101.5 176t-36 240q0 136 33 243t93 181.5t143.5 113.5t184.5 39q99 0 178 -35.5t134 -100t84.5 -155t29.5 -200.5v-113h-692 q5 -193 81.5 -284t227.5 -91q51 0 94.5 5t84 14.5t78.5 24t77 32.5v-162q-40 -19 -78.5 -33t-79 -23t-84 -13t-94.5 -4zM475 1268q22 29 45.5 67t47 78.5t44.5 81t37 74.5h219v-21q-16 -27 -47.5 -67.5t-70 -84.5t-79 -85.5t-75.5 -69.5h-121v27z"/>
<glyph glyph-name="ecircumflex" horiz-adv-x="1096" unicode="ê" d="M563 967q-114 0 -180.5 -78t-77.5 -227h492q0 68 -13.5 124.5t-42 96.5t-72.5 62t-106 22zM608 -20q-110 0 -201 37t-156.5 108t-101.5 176t-36 240q0 136 33 243t93 181.5t143.5 113.5t184.5 39q99 0 178 -35.5t134 -100t84.5 -155t29.5 -200.5v-113h-692 q5 -193 81.5 -284t227.5 -91q51 0 94.5 5t84 14.5t78.5 24t77 32.5v-162q-40 -19 -78.5 -33t-79 -23t-84 -13t-94.5 -4zM888 1241h-121q-51 34 -105 82.5t-106 103.5q-54 -55 -107 -103.5t-104 -82.5h-121v27q26 29 60 67t67.5 78.5t63 81t45.5 74.5h192q16 -34 45.5 -74.5 t63 -81t68 -78.5t59.5 -67v-27z"/>
<glyph glyph-name="edieresis" horiz-adv-x="1096" unicode="ë" d="M563 967q-114 0 -180.5 -78t-77.5 -227h492q0 68 -13.5 124.5t-42 96.5t-72.5 62t-106 22zM608 -20q-110 0 -201 37t-156.5 108t-101.5 176t-36 240q0 136 33 243t93 181.5t143.5 113.5t184.5 39q99 0 178 -35.5t134 -100t84.5 -155t29.5 -200.5v-113h-692 q5 -193 81.5 -284t227.5 -91q51 0 94.5 5t84 14.5t78.5 24t77 32.5v-162q-40 -19 -78.5 -33t-79 -23t-84 -13t-94.5 -4zM644 1395q0 54 28 78t68 24q19 0 36.5 -6t30.5 -18.5t21 -31.5t8 -46q0 -53 -29 -78t-67 -25q-40 0 -68 25t-28 78zM269 1395q0 54 28 78t68 24 q39 0 68 -24.5t29 -77.5t-29 -78t-68 -25q-40 0 -68 25t-28 78z"/>
<glyph glyph-name="igrave" horiz-adv-x="530" unicode="ì" d="M356 0h-182v1098h182v-1098zM359 1241h-120q-35 28 -76 69.5t-79.5 85.5t-70 84.5t-47.5 67.5v21h219q16 -34 37.5 -74.5t44.5 -81t47 -78.5t45 -67v-27z"/>
<glyph glyph-name="iacute" horiz-adv-x="530" unicode="í" d="M356 0h-182v1098h182v-1098zM185 1268q22 29 45.5 67t47 78.5t44.5 81t37 74.5h219v-21q-16 -27 -47.5 -67.5t-70 -84.5t-79 -85.5t-75.5 -69.5h-121v27z"/>
<glyph glyph-name="icircumflex" horiz-adv-x="530" unicode="î" d="M356 0h-182v1098h182v-1098zM597 1241h-121q-51 34 -105 82.5t-106 103.5q-54 -55 -107 -103.5t-104 -82.5h-121v27q26 29 60 67t67.5 78.5t63 81t45.5 74.5h192q16 -34 45.5 -74.5t63 -81t68 -78.5t59.5 -67v-27z"/>
<glyph glyph-name="idieresis" horiz-adv-x="530" unicode="ï" d="M356 0h-182v1098h182v-1098zM357 1395q0 54 28 78t68 24q19 0 36.5 -6t30.5 -18.5t21 -31.5t8 -46q0 -53 -29 -78t-67 -25q-40 0 -68 25t-28 78zM-18 1395q0 54 28 78t68 24q39 0 68 -24.5t29 -77.5t-29 -78t-68 -25q-40 0 -68 25t-28 78z"/>
<glyph glyph-name="eth" horiz-adv-x="1182" unicode="ð" d="M881 526q0 56 -17 109.5t-52 94.5t-90 66t-130 25q-77 0 -131.5 -23t-89.5 -67t-51.5 -109.5t-16.5 -150.5q0 -76 16.5 -138.5t52 -107.5t90 -69.5t130.5 -24.5q154 0 221.5 99.5t67.5 295.5zM1069 573q0 -142 -33.5 -252t-96 -186t-151.5 -115.5t-200 -39.5 q-104 0 -191.5 33t-151 96.5t-99 156t-35.5 211.5t31.5 211t90.5 155t143 95.5t189 32.5q102 0 179 -29.5t120 -89.5l8 4q-31 118 -91 214t-150 177l-256 -153l-74 114l217 131q-40 28 -82.5 55.5t-89.5 53.5l70 123q65 -32 126 -68t120 -80l227 138l74 -113l-195 -117 q67 -65 122.5 -143t95 -171.5t61.5 -204t22 -239.5z"/>
<glyph glyph-name="ntilde" horiz-adv-x="1206" unicode="ñ" d="M860 0v707q0 130 -52.5 195t-164.5 65q-81 0 -136 -26t-88.5 -77t-48 -125t-14.5 -170v-569h-182v1098h148l26 -148h10q25 43 59.5 74.5t75.5 52.5t87 31t94 10q183 0 275.5 -95.5t92.5 -305.5v-717h-182zM759 1243q-40 0 -79.5 17.5t-77.5 39t-73 39t-67 17.5 q-45 0 -69 -26.5t-38 -88.5h-104q5 60 21.5 109t43 83.5t63.5 53t83 18.5q42 0 82.5 -17.5t78.5 -38.5t72.5 -38.5t63.5 -17.5q45 0 68 26t38 88h105q-5 -60 -21.5 -108.5t-43 -83t-63.5 -53.5t-83 -19z"/>
<glyph glyph-name="ograve" horiz-adv-x="1182" unicode="ò" d="M301 551q0 -209 68.5 -314.5t222.5 -105.5t221.5 105.5t67.5 314.5t-68.5 312.5t-222.5 103.5t-221.5 -103.5t-67.5 -312.5zM1069 551q0 -137 -33.5 -243.5t-96 -179t-151.5 -110.5t-200 -38q-103 0 -190 38t-150.5 110.5t-99 179t-35.5 243.5q0 136 33.5 241.5t95.5 178 t151.5 110t200.5 37.5q103 0 190 -37.5t150.5 -110t99 -178t35.5 -241.5zM746 1241h-120q-35 28 -76 69.5t-79.5 85.5t-70 84.5t-47.5 67.5v21h219q16 -34 37.5 -74.5t44.5 -81t47 -78.5t45 -67v-27z"/>
<glyph glyph-name="oacute" horiz-adv-x="1182" unicode="ó" d="M301 551q0 -209 68.5 -314.5t222.5 -105.5t221.5 105.5t67.5 314.5t-68.5 312.5t-222.5 103.5t-221.5 -103.5t-67.5 -312.5zM1069 551q0 -137 -33.5 -243.5t-96 -179t-151.5 -110.5t-200 -38q-103 0 -190 38t-150.5 110.5t-99 179t-35.5 243.5q0 136 33.5 241.5t95.5 178 t151.5 110t200.5 37.5q103 0 190 -37.5t150.5 -110t99 -178t35.5 -241.5zM473 1268q22 29 45.5 67t47 78.5t44.5 81t37 74.5h219v-21q-16 -27 -47.5 -67.5t-70 -84.5t-79 -85.5t-75.5 -69.5h-121v27z"/>
<glyph glyph-name="ocircumflex" horiz-adv-x="1182" unicode="ô" d="M301 551q0 -209 68.5 -314.5t222.5 -105.5t221.5 105.5t67.5 314.5t-68.5 312.5t-222.5 103.5t-221.5 -103.5t-67.5 -312.5zM1069 551q0 -137 -33.5 -243.5t-96 -179t-151.5 -110.5t-200 -38q-103 0 -190 38t-150.5 110.5t-99 179t-35.5 243.5q0 136 33.5 241.5t95.5 178 t151.5 110t200.5 37.5q103 0 190 -37.5t150.5 -110t99 -178t35.5 -241.5zM917 1241h-121q-51 34 -105 82.5t-106 103.5q-54 -55 -107 -103.5t-104 -82.5h-121v27q26 29 60 67t67.5 78.5t63 81t45.5 74.5h192q16 -34 45.5 -74.5t63 -81t68 -78.5t59.5 -67v-27z"/>
<glyph glyph-name="otilde" horiz-adv-x="1182" unicode="õ" d="M301 551q0 -209 68.5 -314.5t222.5 -105.5t221.5 105.5t67.5 314.5t-68.5 312.5t-222.5 103.5t-221.5 -103.5t-67.5 -312.5zM1069 551q0 -137 -33.5 -243.5t-96 -179t-151.5 -110.5t-200 -38q-103 0 -190 38t-150.5 110.5t-99 179t-35.5 243.5q0 136 33.5 241.5t95.5 178 t151.5 110t200.5 37.5q103 0 190 -37.5t150.5 -110t99 -178t35.5 -241.5zM736 1243q-40 0 -79.5 17.5t-77.5 39t-73 39t-67 17.5q-45 0 -69 -26.5t-38 -88.5h-104q5 60 21.5 109t43 83.5t63.5 53t83 18.5q42 0 82.5 -17.5t78.5 -38.5t72.5 -38.5t63.5 -17.5q45 0 68 26 t38 88h105q-5 -60 -21.5 -108.5t-43 -83t-63.5 -53.5t-83 -19z"/>
<glyph glyph-name="odieresis" horiz-adv-x="1182" unicode="ö" d="M301 551q0 -209 68.5 -314.5t222.5 -105.5t221.5 105.5t67.5 314.5t-68.5 312.5t-222.5 103.5t-221.5 -103.5t-67.5 -312.5zM1069 551q0 -137 -33.5 -243.5t-96 -179t-151.5 -110.5t-200 -38q-103 0 -190 38t-150.5 110.5t-99 179t-35.5 243.5q0 136 33.5 241.5t95.5 178 t151.5 110t200.5 37.5q103 0 190 -37.5t150.5 -110t99 -178t35.5 -241.5zM675 1395q0 54 28 78t68 24q19 0 36.5 -6t30.5 -18.5t21 -31.5t8 -46q0 -53 -29 -78t-67 -25q-40 0 -68 25t-28 78zM300 1395q0 54 28 78t68 24q39 0 68 -24.5t29 -77.5t-29 -78t-68 -25 q-40 0 -68 25t-28 78z"/>
<glyph glyph-name="divide" d="M449 1071q0 35 9 58.5t24.5 38.5t36 21.5t44.5 6.5q23 0 44 -6.5t37 -21.5t25 -38.5t9 -58.5q0 -33 -9 -56.5t-25 -39t-37 -22.5t-44 -7q-24 0 -44.5 7t-36 22.5t-24.5 39t-9 56.5zM449 373q0 35 9 58.5t24.5 38.5t36 21.5t44.5 6.5q23 0 44 -6.5t37 -21.5t25 -38.5 t9 -58.5q0 -33 -9 -56.5t-25 -39t-37 -22.5t-44 -7q-24 0 -44.5 7t-36 22.5t-24.5 39t-9 56.5zM102 647v150h924v-150h-924z" unicode="÷"/>
<glyph glyph-name="oslash" horiz-adv-x="1182" unicode="ø" d="M883 551q0 159 -39 258l-398 -645q31 -17 67 -25t81 -8q154 0 221.5 105.5t67.5 314.5zM303 551q0 -84 9.5 -149.5t31.5 -116.5l397 647q-29 17 -66.5 26t-82.5 9q-154 0 -221.5 -103.5t-67.5 -312.5zM1071 551q0 -137 -33.5 -243.5t-96 -179t-151.5 -110.5t-200 -38 q-125 0 -223 53l-68 -109l-131 74l80 131q-63 72 -98 178.5t-35 243.5q0 136 33.5 241.5t95.5 178t151.5 110t200.5 37.5q63 0 119.5 -14.5t105.5 -42.5l68 108l131 -73l-80 -129q62 -73 96.5 -177.5t34.5 -238.5z"/>
<glyph glyph-name="ugrave" horiz-adv-x="1206" unicode="ù" d="M885 0l-27 147h-10q-25 -43 -59.5 -74.5t-75.5 -52t-87 -30.5t-94 -10q-91 0 -160 23t-115 72t-69.5 125t-23.5 181v717h182v-707q0 -130 53 -195t164 -65q81 0 136 26t88.5 76.5t48 124.5t14.5 170v570h182v-1098h-147zM693 1241h-120q-35 28 -76 69.5t-79.5 85.5 t-70 84.5t-47.5 67.5v21h219q16 -34 37.5 -74.5t44.5 -81t47 -78.5t45 -67v-27z"/>
<glyph glyph-name="uacute" horiz-adv-x="1206" unicode="ú" d="M885 0l-27 147h-10q-25 -43 -59.5 -74.5t-75.5 -52t-87 -30.5t-94 -10q-91 0 -160 23t-115 72t-69.5 125t-23.5 181v717h182v-707q0 -130 53 -195t164 -65q81 0 136 26t88.5 76.5t48 124.5t14.5 170v570h182v-1098h-147zM489 1268q22 29 45.5 67t47 78.5t44.5 81t37 74.5 h219v-21q-16 -27 -47.5 -67.5t-70 -84.5t-79 -85.5t-75.5 -69.5h-121v27z"/>
<glyph glyph-name="ucircumflex" horiz-adv-x="1206" unicode="û" d="M885 0l-27 147h-10q-25 -43 -59.5 -74.5t-75.5 -52t-87 -30.5t-94 -10q-91 0 -160 23t-115 72t-69.5 125t-23.5 181v717h182v-707q0 -130 53 -195t164 -65q81 0 136 26t88.5 76.5t48 124.5t14.5 170v570h182v-1098h-147zM930 1241h-121q-51 34 -105 82.5t-106 103.5 q-54 -55 -107 -103.5t-104 -82.5h-121v27q26 29 60 67t67.5 78.5t63 81t45.5 74.5h192q16 -34 45.5 -74.5t63 -81t68 -78.5t59.5 -67v-27z"/>
<glyph glyph-name="udieresis" horiz-adv-x="1206" unicode="ü" d="M885 0l-27 147h-10q-25 -43 -59.5 -74.5t-75.5 -52t-87 -30.5t-94 -10q-91 0 -160 23t-115 72t-69.5 125t-23.5 181v717h182v-707q0 -130 53 -195t164 -65q81 0 136 26t88.5 76.5t48 124.5t14.5 170v570h182v-1098h-147zM684 1395q0 54 28 78t68 24q19 0 36.5 -6 t30.5 -18.5t21 -31.5t8 -46q0 -53 -29 -78t-67 -25q-40 0 -68 25t-28 78zM309 1395q0 54 28 78t68 24q39 0 68 -24.5t29 -77.5t-29 -78t-68 -25q-40 0 -68 25t-28 78z"/>
<glyph glyph-name="yacute" horiz-adv-x="1001" unicode="ý" d="M10 1098h189l215 -613q14 -40 28.5 -84t27 -88t21.5 -85t13 -76h6q5 25 16 68t24.5 91.5t28 95.5t25.5 80l199 611h188l-434 -1241q-28 -81 -60.5 -145.5t-75.5 -109.5t-101 -69.5t-138 -24.5q-52 0 -90 5.5t-65 11.5v145q21 -5 53 -8.5t67 -3.5q48 0 83 11.5t61 33.5 t44.5 54t33.5 73l57 160zM407 1268q22 29 45.5 67t47 78.5t44.5 81t37 74.5h219v-21q-16 -27 -47.5 -67.5t-70 -84.5t-79 -85.5t-75.5 -69.5h-121v27z"/>
<glyph glyph-name="thorn" horiz-adv-x="1200" unicode="þ" d="M635 967q-76 0 -128.5 -23t-85 -70t-48 -117t-17.5 -165v-41q0 -101 13.5 -179.5t46 -132t86.5 -81t135 -27.5q135 0 198.5 109t63.5 313q0 208 -63.5 311t-200.5 103zM356 950q23 35 52 65.5t67.5 53t86.5 36t108 13.5q94 0 171 -36t131.5 -107.5t84.5 -177.5t30 -246 q0 -141 -30 -247.5t-84.5 -178.5t-131.5 -108.5t-171 -36.5q-59 0 -107 13t-86.5 34.5t-68 50.5t-52.5 61h-12q3 -34 6 -65q2 -26 4 -53.5t2 -43.5v-469h-182v2048h182v-458l-8 -148h8z"/>
<glyph glyph-name="dotlessi" horiz-adv-x="530" unicode="ı" d="M356 0h-182v1098h182v-1098z"/>
<glyph glyph-name="circumflex" horiz-adv-x="1182" unicode="ˆ" d="M922 1241h-121q-51 34 -105 82.5t-106 103.5q-54 -55 -107 -103.5t-104 -82.5h-121v27q26 29 60 67t67.5 78.5t63 81t45.5 74.5h192q16 -34 45.5 -74.5t63 -81t68 -78.5t59.5 -67v-27z"/>
<glyph glyph-name="macron" horiz-adv-x="1141" unicode="ˉ" d="M283 1391h575v-150h-575v150z"/>
<glyph glyph-name="ring" horiz-adv-x="1182" unicode="˚" d="M700 1456q0 53 -31.5 83t-80.5 30q-50 0 -81.5 -30t-31.5 -83t28.5 -83t84.5 -30q49 0 80.5 30t31.5 83zM817 1458q0 -51 -17.5 -91.5t-48 -68.5t-72.5 -42.5t-91 -14.5q-50 0 -91 14.5t-70.5 42.5t-45.5 67.5t-16 90.5t16 90.5t45.5 67.5t70.5 42.5t91 14.5 q48 0 90 -14.5t73 -42t48.5 -67t17.5 -89.5z"/>
<glyph glyph-name="tilde" horiz-adv-x="1182" unicode="˜" d="M766 1243q-40 0 -79.5 17.5t-77.5 39t-73 39t-67 17.5q-45 0 -69 -26.5t-38 -88.5h-104q5 60 21.5 109t43 83.5t63.5 53t83 18.5q42 0 82.5 -17.5t78.5 -38.5t72.5 -38.5t63.5 -17.5q45 0 68 26t38 88h105q-5 -60 -21.5 -108.5t-43 -83t-63.5 -53.5t-83 -19z"/>
<glyph glyph-name="hungarumlaut" horiz-adv-x="1182" unicode="˝" d="M586 1268q21 29 45 67t47.5 78.5t44.5 81t37 74.5h198v-21q-16 -27 -47.5 -67.5t-70 -84.5t-79 -85.5t-75.5 -69.5h-100v27zM223 1268q22 29 45.5 67t47 78.5t44.5 81t37 74.5h199v-21q-16 -27 -47.5 -67.5t-70 -84.5t-79 -85.5t-75.5 -69.5h-101v27z"/>
<glyph glyph-name="uni030F" horiz-adv-x="0" unicode="̏" d="M-688 1241h-100q-35 28 -76 69.5t-79.5 85.5t-70 84.5t-47.5 67.5v21h199q16 -35 37 -75t44.5 -80.5t47.5 -78.5t45 -67v-27zM-326 1241h-100q-35 28 -75.5 69.5t-79 85.5t-70 84.5t-47.5 67.5v21h198q16 -35 37 -75t44.5 -80.5t47.5 -78.5t45 -67v-27z"/>
<glyph glyph-name="Gamma" horiz-adv-x="1006" unicode="Γ" d="M958 1462v-166h-573v-1296h-186v1462h759z"/>
<glyph glyph-name="Pi" horiz-adv-x="1415" unicode="Π" d="M1217 0h-187v1298h-645v-1298h-186v1462h1018v-1462z"/>
<glyph glyph-name="Phi" horiz-adv-x="1571" unicode="Φ" d="M692 1143h-57q-87 0 -150.5 -30t-105.5 -82t-62 -121.5t-20 -147.5q0 -88 23 -162t68.5 -126.5t115 -82t162.5 -29.5h26v781zM879 362h26q93 0 162.5 29.5t115 82t68.5 126.5t23 162q0 78 -20.5 147.5t-62 121.5t-105 82t-150.5 30h-57v-781zM692 1483h187v-180h73 q134 0 231 -47t160 -123.5t93 -174.5t30 -200q0 -61 -12 -125.5t-38 -126t-68 -116.5t-102 -96t-139.5 -65t-180.5 -24h-47v-225h-187v225h-47q-101 0 -180.5 24t-139.5 65t-102 96t-68.5 116.5t-38.5 126t-12 125.5q0 102 30.5 200t93.5 174.5t160 123.5t230 47h74v180z "/>
<glyph glyph-name="Psi" horiz-adv-x="1571" unicode="Ψ" d="M1466 983q0 -61 -12 -124.5t-38 -123t-68 -112.5t-102 -92t-139.5 -62t-180.5 -23h-47v-446h-187v446h-47q-101 0 -180.5 22.5t-139.5 61.5t-102 91t-68.5 111.5t-38.5 122.5t-12 124v483h193v-479q0 -88 23 -158.5t68.5 -119.5t115 -75t162.5 -26h26v858h187v-858h26 q186 0 277.5 99t91.5 276v483h192v-479z"/>
<glyph glyph-name="psi" horiz-adv-x="1516" unicode="ψ" d="M854 1554v-1421q78 9 143.5 39t113 84t73.5 132t26 181q0 71 -4 135t-11.5 127t-19.5 128.5t-28 138.5h182q16 -72 28 -137.5t20 -128.5t12 -126t4 -131q0 -157 -43.5 -267t-117 -180t-171.5 -104.5t-207 -41.5v-474h-178v474q-111 4 -205 36.5t-162.5 100.5t-106.5 175 t-38 261v543h182v-551q0 -114 27 -191t72 -125.5t105 -71.5t126 -28v1423h178z"/>
<glyph glyph-name="uni0400" horiz-adv-x="1081" unicode="Ѐ" d="M958 0h-759v1462h759v-164h-573v-452h535v-162h-535v-520h573v-164zM713 1579h-120q-35 28 -76 69.5t-79.5 85.5t-70 84.5t-47.5 67.5v21h219q16 -34 37.5 -74.5t44.5 -81t47 -78.5t45 -67v-27z"/>
<glyph glyph-name="afii10023" horiz-adv-x="1081" unicode="Ё" d="M958 0h-759v1462h759v-164h-573v-452h535v-162h-535v-520h573v-164zM671 1733q0 54 28 78t68 24q19 0 36.5 -6t30.5 -18.5t21 -31.5t8 -46q0 -53 -29 -78t-67 -25q-40 0 -68 25t-28 78zM296 1733q0 54 28 78t68 24q39 0 68 -24.5t29 -77.5t-29 -78t-68 -25q-40 0 -68 25 t-28 78z"/>
<glyph glyph-name="afii10051" horiz-adv-x="1440" unicode="Ђ" d="M926 -20q-47 0 -82 6.5t-60 17.5v160q29 -9 63 -15t73 -6q32 0 64 9.5t57.5 35t42 69t16.5 112.5v133q0 115 -52.5 173t-175.5 58h-325v-733h-187v1298h-340v164h945v-164h-418v-401h346q93 0 166 -24.5t123.5 -71.5t77 -116.5t26.5 -158.5v-137q0 -105 -26.5 -182 t-74 -127.5t-113.5 -75t-146 -24.5z"/>
<glyph glyph-name="afii10052" horiz-adv-x="1006" unicode="Ѓ" d="M958 1462v-166h-573v-1296h-186v1462h759zM444 1606q22 29 45.5 67t47 78.5t44.5 81t37 74.5h219v-21q-16 -27 -47.5 -67.5t-70 -84.5t-79 -85.5t-75.5 -69.5h-121v27z"/>
<glyph glyph-name="afii10053" horiz-adv-x="1235" unicode="Є" d="M793 1319q-95 0 -175 -32.5t-140 -93.5t-98.5 -148.5t-51.5 -198.5h628v-162h-634q5 -130 37 -230.5t91 -169.5t144.5 -105t198.5 -36q89 0 169 17.5t158 40.5v-162q-39 -15 -78 -26.5t-81.5 -18.5t-91 -10.5t-107.5 -3.5q-164 0 -284 54t-198.5 153t-116.5 238t-38 308 q0 166 43.5 304t128 237t209.5 154t287 55q108 0 206 -22t177 -64l-78 -156q-63 32 -137 55t-168 23z"/>
<glyph glyph-name="afii10054" horiz-adv-x="1063" unicode="Ѕ" d="M969 391q0 -97 -34.5 -173.5t-98.5 -129.5t-156 -80.5t-207 -27.5q-111 0 -207.5 17.5t-161.5 51.5v178q34 -16 77.5 -31.5t91.5 -27.5t99 -19.5t101 -7.5q160 0 236.5 60t76.5 172q0 54 -14.5 94t-51 73.5t-97.5 65t-154 68.5q-89 35 -154.5 76.5t-108 93.5t-63 118 t-20.5 150q0 88 32 157t90 116.5t138.5 72.5t177.5 25q119 0 214 -22.5t169 -57.5l-67 -156q-65 29 -147.5 50.5t-170.5 21.5q-122 0 -189 -56.5t-67 -152.5q0 -57 15 -98.5t50 -75t92.5 -63t141.5 -62.5q91 -36 159.5 -74t114.5 -86t69.5 -111t23.5 -149z"/>
<glyph glyph-name="afii10055" horiz-adv-x="694" unicode="І" d="M612 0h-530v102l172 41v1176l-172 41v102h530v-102l-172 -41v-1176l172 -41v-102z"/>
<glyph glyph-name="afii10056" horiz-adv-x="694" unicode="Ї" d="M612 0h-530v102l172 41v1176l-172 41v102h530v-102l-172 -41v-1176l172 -41v-102zM439 1733q0 54 28 78t68 24q19 0 36.5 -6t30.5 -18.5t21 -31.5t8 -46q0 -53 -29 -78t-67 -25q-40 0 -68 25t-28 78zM64 1733q0 54 28 78t68 24q39 0 68 -24.5t29 -77.5t-29 -78t-68 -25 q-40 0 -68 25t-28 78z"/>
<glyph glyph-name="afii10057" horiz-adv-x="555" unicode="Ј" d="M-29 -389q-51 0 -89 6.5t-66 17.5v160q34 -9 73 -14.5t84 -5.5q37 0 74.5 9.5t68 34.5t49.5 69t19 112v1462h187v-1442q0 -105 -29.5 -182t-82 -127.5t-126 -75t-162.5 -24.5z"/>
<glyph glyph-name="afii10058" horiz-adv-x="1864" unicode="Љ" d="M1110 160h119q174 0 256 66t82 202q0 70 -23 118.5t-68.5 78.5t-115 43.5t-162.5 13.5h-88v-522zM1759 428q0 -97 -30 -176t-93 -135t-160 -86.5t-231 -30.5h-321v1298h-318q-15 -113 -30.5 -235t-32 -240t-33.5 -224t-33 -187q-20 -103 -46.5 -184t-66 -136.5t-94.5 -85 t-133 -29.5q-35 0 -72 7t-65 18v154q23 -13 52 -21t61 -8q48 0 79 31.5t52 80.5t34 107.5l25 112.5q12 57 28 157t35.5 231t41 288t43.5 327h659v-616h109q152 0 255.5 -33t166.5 -89.5t90.5 -132.5t27.5 -163z"/>
<glyph glyph-name="afii10059" horiz-adv-x="1909" unicode="Њ" d="M1155 160h119q174 0 256 66t82 202q0 70 -23 118.5t-68.5 78.5t-115 43.5t-162.5 13.5h-88v-522zM1804 428q0 -97 -30 -176t-93 -135t-160 -86.5t-231 -30.5h-321v682h-584v-682h-186v1462h186v-616h584v616h186v-616h109q152 0 255.5 -33t166.5 -89.5t90.5 -132.5 t27.5 -163z"/>
<glyph glyph-name="afii10060" horiz-adv-x="1440" unicode="Ћ" d="M547 897h346q93 0 166 -24.5t123.5 -71.5t77 -116.5t26.5 -158.5v-526h-186v502q0 115 -52.5 173t-175.5 58h-325v-733h-187v1298h-340v164h945v-164h-418v-401z"/>
<glyph glyph-name="afii10061" horiz-adv-x="1186" unicode="Ќ" d="M1186 0h-219l-582 741v-741h-186v1462h186v-708l565 708h207l-565 -702zM530 1606q22 29 45.5 67t47 78.5t44.5 81t37 74.5h219v-21q-16 -27 -47.5 -67.5t-70 -84.5t-79 -85.5t-75.5 -69.5h-121v27z"/>
<glyph glyph-name="uni040D" horiz-adv-x="1493" unicode="Ѝ" d="M201 1462h174v-800q0 -26 -0.5 -57t-1.5 -64.5l-2 -67t-3 -65.5q-4 -74 -8 -150h7l716 1204h213v-1462h-172v793q0 57 3 128t7 136q4 76 9 153h-8l-719 -1210h-215v1462zM852 1579h-120q-35 28 -76 69.5t-79.5 85.5t-70 84.5t-47.5 67.5v21h219q16 -34 37.5 -74.5 t44.5 -81t47 -78.5t45 -67v-27z"/>
<glyph glyph-name="afii10062" horiz-adv-x="1198" unicode="Ў" d="M1198 1462l-428 -1030q-38 -93 -79.5 -175t-97.5 -143.5t-134 -97.5t-189 -36q-51 0 -96 7.5t-82 22.5v185q37 -20 81.5 -32.5t96.5 -12.5q53 0 94 11.5t74 38t61 69.5t56 106l-530 1087h204l383 -809q5 -10 10 -22t9.5 -25t9 -24.5t8.5 -20.5h2q3 9 8.5 24.5t11 32 t11 31t8.5 21.5l311 792h197zM1008 1897q-6 -78 -30.5 -137t-71 -99.5t-117 -61t-170.5 -20.5q-103 0 -173 19.5t-114 59.5t-64.5 99.5t-25.5 139.5h170q5 -57 18.5 -93.5t38.5 -57t63 -28.5t91 -8q44 0 80.5 9.5t63.5 31t44 57.5t23 89h174z"/>
<glyph glyph-name="afii10145" horiz-adv-x="1415" unicode="Џ" d="M1217 0h-422v-385h-177v385h-419v1462h186v-1296h645v1296h187v-1462z"/>
<glyph glyph-name="afii10017" horiz-adv-x="1245" unicode="А" d="M836 618l-148 424q-6 18 -14.5 44t-17.5 56t-18 62.5t-17 63.5q-7 -31 -16 -64t-18 -63.5t-17.5 -56t-14.5 -42.5l-145 -424h426zM1055 0l-160 453h-545l-162 -453h-188l537 1468h170l538 -1468h-190z"/>
<glyph glyph-name="afii10018" horiz-adv-x="1180" unicode="Б" d="M385 160h160q174 0 256 66t82 202q0 70 -23 118.5t-68.5 78.5t-115 43.5t-162.5 13.5h-129v-522zM1075 428q0 -97 -30 -176t-93 -135t-160 -86.5t-231 -30.5h-362v1462h788v-164h-602v-452h150q152 0 255.5 -33t166.5 -89.5t90.5 -132.5t27.5 -163z"/>
<glyph glyph-name="afii10019" horiz-adv-x="1272" unicode="В" d="M385 686v-528h266q88 0 147.5 20t96 56t52.5 86.5t16 111.5q0 56 -16.5 103t-54 80.5t-99.5 52t-154 18.5h-254zM385 842h244q84 0 141 15t92 44.5t50.5 74t15.5 103.5q0 120 -77 172t-243 52h-223v-461zM199 1462h399q128 0 225.5 -19.5t163 -63t98.5 -114t33 -173.5 q0 -62 -19.5 -116t-56.5 -95t-91.5 -68.5t-123.5 -36.5v-10q69 -12 129.5 -34.5t105.5 -62t71 -99.5t26 -146q0 -100 -32.5 -178.5t-94 -133t-149.5 -83.5t-199 -29h-485v1462z"/>
<glyph glyph-name="afii10020" horiz-adv-x="1006" unicode="Г" d="M958 1462v-166h-573v-1296h-186v1462h759z"/>
<glyph glyph-name="afii10021" horiz-adv-x="1331" unicode="Д" d="M909 166v1130h-262q-4 -76 -19.5 -168.5t-38.5 -193.5t-53.5 -205.5t-65.5 -204.5t-73.5 -191.5t-77.5 -166.5h590zM1290 -385h-176v385h-924v-385h-176v551h113q47 85 90 185t81.5 208.5t71 223.5t56.5 231t38.5 229.5t18.5 218.5h613v-1296h194v-551z"/>
<glyph glyph-name="afii10022" horiz-adv-x="1081" unicode="Е" d="M958 0h-759v1462h759v-164h-573v-452h535v-162h-535v-520h573v-164z"/>
<glyph glyph-name="afii10024" horiz-adv-x="1669" unicode="Ж" d="M549 754l-531 708h205l522 -708v708h179v-708l522 708h205l-531 -708l545 -754h-211l-530 741v-741h-179v741l-530 -741h-211z"/>
<glyph glyph-name="afii10025" horiz-adv-x="1116" unicode="З" d="M977 1120q0 -73 -25.5 -133t-71 -104t-108 -72.5t-137.5 -40.5v-6q87 -11 156 -39.5t116 -73t72 -104t25 -131.5q0 -96 -33.5 -176t-101.5 -138t-170.5 -90t-239.5 -32q-110 0 -206 17t-181 62v170q43 -23 91 -41t97.5 -30t99 -18.5t95.5 -6.5q178 0 266 74t88 209 t-103.5 199.5t-289.5 64.5h-191v151h176q92 0 163 19.5t119.5 55.5t73.5 86.5t25 111.5q0 54 -18.5 95.5t-52.5 70.5t-81.5 44t-105.5 15q-110 0 -194.5 -33.5t-159.5 -87.5l-92 125q38 31 87 58t107 47.5t123.5 32.5t136.5 12q109 0 192 -27t139.5 -75.5t85 -115 t28.5 -145.5z"/>
<glyph glyph-name="afii10026" horiz-adv-x="1493" unicode="И" d="M201 1462h174v-800q0 -26 -0.5 -57t-1.5 -64.5l-2 -67t-3 -65.5q-4 -74 -8 -150h7l716 1204h213v-1462h-172v793q0 57 3 128t7 136q4 76 9 153h-8l-719 -1210h-215v1462z"/>
<glyph glyph-name="afii10027" horiz-adv-x="1493" unicode="Й" d="M201 1462h174v-800q0 -26 -0.5 -57t-1.5 -64.5l-2 -67t-3 -65.5q-4 -74 -8 -150h7l716 1204h213v-1462h-172v793q0 57 3 128t7 136q4 76 9 153h-8l-719 -1210h-215v1462zM1110 1897q-6 -78 -30.5 -137t-71 -99.5t-117 -61t-170.5 -20.5q-103 0 -173 19.5t-114 59.5 t-64.5 99.5t-25.5 139.5h170q5 -57 18.5 -93.5t38.5 -57t63 -28.5t91 -8q44 0 80.5 9.5t63.5 31t44 57.5t23 89h174z"/>
<glyph glyph-name="afii10028" horiz-adv-x="1186" unicode="К" d="M1186 0h-219l-582 741v-741h-186v1462h186v-708l565 708h207l-565 -702z"/>
<glyph glyph-name="afii10029" horiz-adv-x="1370" unicode="Л" d="M1171 0h-186v1298h-379q-15 -113 -30.5 -235t-32 -240t-33.5 -224t-33 -187q-20 -103 -46.5 -184t-66 -136.5t-94.5 -85t-133 -29.5q-35 0 -72 7t-65 18v154q23 -13 52 -21t61 -8q48 0 79 31.5t52 80.5t34 107.5l25 112.5q12 57 28 157t35.5 231t41 288t43.5 327h720 v-1462z"/>
<glyph glyph-name="afii10030" horiz-adv-x="1782" unicode="М" d="M803 0l-443 1280h-8q6 -74 10 -147q4 -63 6.5 -132.5t2.5 -126.5v-874h-172v1462h276l412 -1192h6l414 1192h276v-1462h-186v887q0 52 2 119t5 128q4 71 7 144h-8l-447 -1278h-153z"/>
<glyph glyph-name="afii10031" horiz-adv-x="1436" unicode="Н" d="M1237 0h-186v682h-666v-682h-186v1462h186v-616h666v616h186v-1462z"/>
<glyph glyph-name="afii10032" horiz-adv-x="1520" unicode="О" d="M322 733q0 -137 26 -246.5t79.5 -186t136 -117t196.5 -40.5t196.5 40.5t136 117t78.5 186t25 246.5q0 138 -25 247t-78 184.5t-135 116t-196 40.5t-197 -40.5t-137 -116t-80 -184.5t-26 -247zM1393 733q0 -169 -40.5 -308t-120.5 -238t-198.5 -153t-273.5 -54 q-163 0 -282.5 54t-198 153t-116.5 238.5t-38 309.5t38 308.5t117 236.5t199 151.5t283 53.5q155 0 272.5 -53.5t197.5 -152t120.5 -237t40.5 -309.5z"/>
<glyph glyph-name="afii10033" horiz-adv-x="1415" unicode="П" d="M1217 0h-187v1298h-645v-1298h-186v1462h1018v-1462z"/>
<glyph glyph-name="afii10034" horiz-adv-x="1180" unicode="Р" d="M385 727h129q93 0 162.5 16t115 51.5t68.5 92t23 137.5q0 142 -82 210.5t-256 68.5h-160v-576zM1075 1034q0 -91 -27.5 -175t-90.5 -148.5t-166.5 -103t-255.5 -38.5h-150v-569h-186v1462h362q134 0 231 -28.5t160 -83t93 -134.5t30 -182z"/>
<glyph glyph-name="afii10035" horiz-adv-x="1235" unicode="С" d="M793 1319q-107 0 -194 -40.5t-148.5 -116.5t-95 -185t-33.5 -246q0 -141 29.5 -250.5t88.5 -184.5t147 -114t206 -39q89 0 169 17.5t158 40.5v-162q-39 -15 -78 -26.5t-81.5 -18.5t-91 -10.5t-107.5 -3.5q-164 0 -284 54t-198.5 153t-116.5 238t-38 308q0 166 43.5 304 t128 237t209.5 154t287 55q108 0 206 -22t177 -64l-78 -156q-63 32 -137 55t-168 23z"/>
<glyph glyph-name="afii10036" horiz-adv-x="1063" unicode="Т" d="M625 0h-187v1298h-418v164h1022v-164h-417v-1298z"/>
<glyph glyph-name="afii10037" horiz-adv-x="1198" unicode="У" d="M1198 1462l-428 -1030q-38 -93 -79.5 -175t-97.5 -143.5t-134 -97.5t-189 -36q-51 0 -96 7.5t-82 22.5v185q37 -20 81.5 -32.5t96.5 -12.5q53 0 94 11.5t74 38t61 69.5t56 106l-530 1087h204l383 -809q5 -10 10 -22t9.5 -25t9 -24.5t8.5 -20.5h2q3 9 8.5 24.5t11 32 t11 31t8.5 21.5l311 792h197z"/>
<glyph glyph-name="afii10038" horiz-adv-x="1571" unicode="Ф" d="M692 1143h-57q-87 0 -150.5 -30t-105.5 -82t-62 -121.5t-20 -147.5q0 -88 23 -162t68.5 -126.5t115 -82t162.5 -29.5h26v781zM879 362h26q93 0 162.5 29.5t115 82t68.5 126.5t23 162q0 78 -20.5 147.5t-62 121.5t-105 82t-150.5 30h-57v-781zM692 1483h187v-180h73 q134 0 231 -47t160 -123.5t93 -174.5t30 -200q0 -61 -12 -125.5t-38 -126t-68 -116.5t-102 -96t-139.5 -65t-180.5 -24h-47v-225h-187v225h-47q-101 0 -180.5 24t-139.5 65t-102 96t-68.5 116.5t-38.5 126t-12 125.5q0 102 30.5 200t93.5 174.5t160 123.5t230 47h74v180z "/>
<glyph glyph-name="afii10039" horiz-adv-x="1120" unicode="Х" d="M1120 0h-211l-354 635l-367 -635h-188l453 764l-422 698h198l332 -559l334 559h190l-421 -692z"/>
<glyph glyph-name="afii10040" horiz-adv-x="1434" unicode="Ц" d="M1217 166h176v-551h-176v385h-1018v1462h186v-1296h645v1296h187v-1296z"/>
<glyph glyph-name="afii10041" horiz-adv-x="1352" unicode="Ч" d="M1153 0h-186v598q-115 -44 -212.5 -67t-195.5 -23q-93 0 -166 24.5t-123.5 72t-77 116.5t-26.5 158v583h186v-559q0 -115 52.5 -173t175.5 -58q90 0 182.5 20t204.5 60v710h186v-1462z"/>
<glyph glyph-name="afii10042" horiz-adv-x="2042" unicode="Ш" d="M1843 0h-1644v1462h186v-1296h543v1296h186v-1296h543v1296h186v-1462z"/>
<glyph glyph-name="afii10043" horiz-adv-x="2042" unicode="Щ" d="M1843 166h176v-551h-176v385h-1644v1462h186v-1296h543v1296h186v-1296h543v1296h186v-1296z"/>
<glyph glyph-name="afii10044" horiz-adv-x="1341" unicode="Ъ" d="M547 160h160q174 0 255.5 66t81.5 202q0 70 -22.5 118.5t-68.5 78.5t-115 43.5t-162 13.5h-129v-522zM1237 428q0 -97 -30 -176t-93 -135t-160 -86.5t-231 -30.5h-363v1298h-340v164h527v-616h149q152 0 255.5 -33t167 -89.5t91 -132.5t27.5 -163z"/>
<glyph glyph-name="afii10045" horiz-adv-x="1686" unicode="Ы" d="M1300 0v1462h187v-1462h-187zM385 160h160q174 0 256 66t82 202q0 70 -23 118.5t-68.5 78.5t-115 43.5t-162.5 13.5h-129v-522zM1075 428q0 -97 -30 -176t-93 -135t-160 -86.5t-231 -30.5h-362v1462h186v-616h150q152 0 255.5 -33t166.5 -89.5t90.5 -132.5t27.5 -163z "/>
<glyph glyph-name="afii10046" horiz-adv-x="1180" unicode="Ь" d="M385 160h160q174 0 256 66t82 202q0 70 -23 118.5t-68.5 78.5t-115 43.5t-162.5 13.5h-129v-522zM1075 428q0 -97 -30 -176t-93 -135t-160 -86.5t-231 -30.5h-362v1462h186v-616h150q152 0 255.5 -33t166.5 -89.5t90.5 -132.5t27.5 -163z"/>
<glyph glyph-name="afii10047" horiz-adv-x="1217" unicode="Э" d="M442 1319q-94 0 -168 -23t-137 -55l-78 156q79 42 177 64t206 22q162 0 284 -54.5t203 -151t122 -229.5t41 -290q0 -179 -41 -323t-123.5 -245t-206 -155.5t-287.5 -54.5q-58 0 -106.5 3.5t-91.5 10.5t-82 18.5t-78 26.5v162q78 -23 158 -40.5t169 -17.5 q237 0 360.5 139.5t129.5 401.5h-629v162h625q-9 111 -44.5 199t-93 149t-136 93t-173.5 32z"/>
<glyph glyph-name="afii10048" horiz-adv-x="2077" unicode="Ю" d="M920 733q0 -137 24.5 -246.5t76 -186t130 -117t186.5 -40.5q109 0 187.5 40.5t129.5 117t75 186t24 246.5q0 138 -24 247t-74.5 184.5t-129 116t-186.5 40.5q-109 0 -188 -40.5t-130.5 -116t-76 -184.5t-24.5 -247zM1950 733q0 -169 -39.5 -308t-117 -238t-192 -153 t-264.5 -54q-151 0 -263.5 50t-188.5 141.5t-116 221t-46 289.5h-338v-682h-186v1462h186v-616h342q11 146 53.5 264t118.5 201.5t185.5 128.5t254.5 45q149 0 263.5 -53.5t191.5 -152t116.5 -237t39.5 -309.5z"/>
<glyph glyph-name="afii10049" horiz-adv-x="1208" unicode="Я" d="M823 1303h-188q-74 0 -131.5 -14.5t-97 -45.5t-60 -79.5t-20.5 -116.5q0 -66 19.5 -118.5t58.5 -89.5t98.5 -57t140.5 -20h180v541zM578 604l-334 -604h-219l381 655q-55 20 -104.5 51t-87 79.5t-59.5 116.5t-22 161q0 198 126.5 298.5t377.5 100.5h373v-1462h-187v604 h-245z"/>
<glyph glyph-name="afii10065" horiz-adv-x="1087" unicode="а" d="M459 127q61 0 113 19t90 57.5t59.5 97t21.5 137.5v99l-143 -7q-90 -4 -151 -20t-97.5 -44.5t-52.5 -69t-16 -91.5q0 -92 48.5 -135t127.5 -43zM793 0l-37 152h-8q-33 -45 -66 -77.5t-72 -53.5t-87 -31t-111 -10q-69 0 -127 19.5t-100.5 60t-66.5 102t-24 145.5 q0 164 115.5 252t351.5 96l184 7v69q0 67 -14.5 112t-42 72.5t-68 39.5t-92.5 12q-83 0 -154.5 -24t-137.5 -58l-64 137q74 40 165 68t191 28q102 0 176.5 -20.5t123 -65t72.5 -113.5t24 -167v-752h-131z"/>
<glyph glyph-name="afii10066" horiz-adv-x="1167" unicode="б" d="M598 131q60 0 109 19.5t84 63.5t54 115.5t19 176.5q0 84 -13 151t-42 114.5t-74 73t-110 25.5q-61 0 -114 -24t-94.5 -58t-70 -70.5t-41.5 -62.5q0 -100 12.5 -194t45 -167.5t89.5 -118t146 -44.5zM117 659q0 181 24.5 321.5t76.5 242t133 164.5t194 88q125 27 246 51.5 t223 44.5l33 -160q-50 -8 -111.5 -19t-124 -23t-121 -24t-102.5 -22q-62 -14 -112 -47t-86 -89.5t-56.5 -139t-24.5 -195.5h13q18 29 49 59t73 54.5t95.5 40.5t117.5 16q99 0 174 -36.5t125.5 -102t75.5 -155.5t25 -198q0 -137 -34.5 -240t-96.5 -172t-149 -103.5 t-191 -34.5q-107 0 -193.5 44.5t-148 131t-94.5 213t-33 290.5z"/>
<glyph glyph-name="afii10067" horiz-adv-x="1161" unicode="в" d="M840 803q0 77 -54.5 109t-162.5 32h-267v-297h236q62 0 108 7.5t77.5 25.5t47 48t15.5 75zM870 330q0 92 -65 128t-193 36h-256v-344h260q56 0 102.5 9t80 30t52.5 55.5t19 85.5zM1014 821q0 -104 -61.5 -162.5t-168.5 -76.5v-7q56 -7 104.5 -25t84 -48.5t56 -76 t20.5 -108.5q0 -67 -23.5 -125t-74 -101t-130 -67t-192.5 -24h-455v1098h453q83 0 154 -14t122.5 -46t81 -85.5t29.5 -131.5z"/>
<glyph glyph-name="afii10068" horiz-adv-x="819" unicode="г" d="M778 944h-422v-944h-182v1098h604v-154z"/>
<glyph glyph-name="afii10069" horiz-adv-x="1120" unicode="д" d="M745 154v804h-192q-7 -103 -25 -210.5t-47 -212t-69.5 -201.5t-92.5 -180h426zM1079 -381h-174v381h-690v-381h-174v535h86q65 95 114.5 206.5t83 233t50.5 249.5t18 255h535v-944h151v-535z"/>
<glyph glyph-name="afii10070" horiz-adv-x="1096" unicode="е" d="M563 967q-114 0 -180.5 -78t-77.5 -227h492q0 68 -13.5 124.5t-42 96.5t-72.5 62t-106 22zM608 -20q-110 0 -201 37t-156.5 108t-101.5 176t-36 240q0 136 33 243t93 181.5t143.5 113.5t184.5 39q99 0 178 -35.5t134 -100t84.5 -155t29.5 -200.5v-113h-692 q5 -193 81.5 -284t227.5 -91q51 0 94.5 5t84 14.5t78.5 24t77 32.5v-162q-40 -19 -78.5 -33t-79 -23t-84 -13t-94.5 -4z"/>
<glyph glyph-name="afii10072" horiz-adv-x="1475" unicode="ж" d="M655 565v533h164v-533l416 533h197l-424 -533l462 -565h-206l-445 557v-557h-164v557l-444 -557h-207l463 565l-424 533h197z"/>
<glyph glyph-name="afii10073" horiz-adv-x="942" unicode="з" d="M369 647q61 0 111 9t86 28.5t55.5 51.5t19.5 77q0 77 -57.5 115.5t-165.5 38.5q-71 0 -135.5 -19t-139.5 -53l-63 147q40 20 78.5 34t79.5 23.5t86 14t98 4.5q86 0 158 -19t124.5 -56t81.5 -91.5t29 -124.5q0 -50 -14 -88.5t-39.5 -68t-60.5 -50t-78 -34.5v-11 q44 -14 85 -36t72.5 -55t50.5 -78t19 -107q0 -67 -26.5 -125.5t-80.5 -101.5t-137 -67.5t-196 -24.5q-109 0 -196.5 17.5t-145.5 51.5v166q31 -16 69 -31.5t81.5 -27.5t92 -19.5t99.5 -7.5q55 0 103 9t83 30t55.5 55.5t20.5 85.5q0 94 -66.5 139.5t-204.5 45.5h-129v153h97z "/>
<glyph glyph-name="afii10074" horiz-adv-x="1257" unicode="и" d="M346 1098v-668l-12 -252l516 920h233v-1098h-172v647l11 271l-514 -918h-234v1098h172z"/>
<glyph glyph-name="afii10075" horiz-adv-x="1257" unicode="й" d="M346 1098v-668l-12 -252l516 920h233v-1098h-172v647l11 271l-514 -918h-234v1098h172zM1010 1559q-6 -78 -30.5 -137t-71 -99.5t-117 -61t-170.5 -20.5q-103 0 -173 19.5t-114 59.5t-64.5 99.5t-25.5 139.5h170q5 -57 18.5 -93.5t38.5 -57t63 -28.5t91 -8q44 0 80.5 9.5 t63.5 31t44 57.5t23 89h174z"/>
<glyph glyph-name="afii10076" horiz-adv-x="1006" unicode="к" d="M762 1098h196l-415 -527l454 -571h-206l-437 557v-557h-180v1098h180v-533z"/>
<glyph glyph-name="afii10077" horiz-adv-x="1118" unicode="л" d="M944 0h-182v944h-258q-20 -259 -52 -441t-79.5 -297t-112.5 -167.5t-151 -52.5q-28 0 -52.5 3t-40.5 9v131q23 -6 50 -6q55 0 99.5 58.5t79 179t60 304t43.5 433.5h596v-1098z"/>
<glyph glyph-name="afii10078" horiz-adv-x="1470" unicode="м" d="M1296 0h-161v897q-6 -21 -14.5 -49.5t-18.5 -58t-19 -56.5t-16 -45l-264 -688h-135l-265 688q-5 13 -13.5 37.5t-18.5 54t-19 60.5t-16 57v-897h-162v1098h221l267 -697q13 -34 24 -67.5t20.5 -63.5t17 -55t11.5 -41q6 17 13 41.5t16.5 54t20.5 62t24 65.5l270 701h217 v-1098z"/>
<glyph glyph-name="afii10079" horiz-adv-x="1257" unicode="н" d="M356 1098v-455h545v455h182v-1098h-182v489h-545v-489h-182v1098h182z"/>
<glyph glyph-name="afii10080" horiz-adv-x="1182" unicode="о" d="M301 551q0 -209 68.5 -314.5t222.5 -105.5t221.5 105.5t67.5 314.5t-68.5 312.5t-222.5 103.5t-221.5 -103.5t-67.5 -312.5zM1069 551q0 -137 -33.5 -243.5t-96 -179t-151.5 -110.5t-200 -38q-103 0 -190 38t-150.5 110.5t-99 179t-35.5 243.5q0 136 33.5 241.5t95.5 178 t151.5 110t200.5 37.5q103 0 190 -37.5t150.5 -110t99 -178t35.5 -241.5z"/>
<glyph glyph-name="afii10081" horiz-adv-x="1217" unicode="п" d="M356 0h-182v1098h868v-1098h-182v944h-504v-944z"/>
<glyph glyph-name="afii10082" horiz-adv-x="1200" unicode="р" d="M635 967q-76 0 -128.5 -23t-85 -70t-48 -117t-17.5 -165v-41q0 -101 13.5 -179.5t46 -132t86.5 -81t135 -27.5q135 0 198.5 109t63.5 313q0 208 -63.5 311t-200.5 103zM670 -20q-59 0 -107 13t-86.5 34.5t-68 50.5t-52.5 61h-12q3 -34 6 -65q2 -26 4 -53.5t2 -43.5v-469 h-182v1590h148l26 -148h8q23 35 52 65.5t67.5 53t86.5 36t108 13.5q94 0 171 -36t131.5 -107.5t84.5 -177.5t30 -246q0 -141 -30 -247.5t-84.5 -178.5t-131.5 -108.5t-171 -36.5z"/>
<glyph glyph-name="afii10083" horiz-adv-x="948" unicode="с" d="M594 -20q-101 0 -189 31.5t-153 100t-102 175t-37 256.5q0 157 38 266.5t104.5 178t155.5 99.5t191 31q78 0 152.5 -17t124.5 -42l-54 -154q-23 10 -51 19.5t-58 17t-59 12t-55 4.5q-157 0 -229 -100.5t-72 -312.5q0 -211 72.5 -308.5t220.5 -97.5q81 0 146.5 18.5 t119.5 43.5v-162q-54 -29 -115.5 -44t-150.5 -15z"/>
<glyph glyph-name="afii10084" horiz-adv-x="903" unicode="т" d="M862 944h-319v-944h-183v944h-319v154h821v-154z"/>
<glyph glyph-name="afii10085" horiz-adv-x="1001" unicode="у" d="M10 1098h189l215 -613q14 -40 28.5 -84t27 -88t21.5 -85t13 -76h6q5 25 16 68t24.5 91.5t28 95.5t25.5 80l199 611h188l-434 -1241q-28 -81 -60.5 -145.5t-75.5 -109.5t-101 -69.5t-138 -24.5q-52 0 -90 5.5t-65 11.5v145q21 -5 53 -8.5t67 -3.5q48 0 83 11.5t61 33.5 t44.5 54t33.5 73l57 160z"/>
<glyph glyph-name="afii10086" horiz-adv-x="1427" unicode="ф" d="M1126 551q0 186 -77.5 288t-247.5 122v-826q172 20 248.5 124.5t76.5 291.5zM301 551q0 -187 78 -292t252 -124v828q-88 -9 -150.5 -39.5t-102.5 -82t-58.5 -124t-18.5 -166.5zM801 1114q113 -12 207.5 -54.5t162.5 -114t106 -170.5t38 -224t-35.5 -225t-102.5 -172.5 t-162 -115.5t-214 -54v-476h-170v476q-114 10 -209.5 53t-164 115t-106.5 172.5t-38 226.5q0 125 35.5 224.5t102 171t163 114t217.5 53.5v442h170v-442z"/>
<glyph glyph-name="afii10087" horiz-adv-x="1024" unicode="х" d="M408 563l-353 535h207l250 -410l250 410h207l-355 -535l373 -563h-207l-268 436l-270 -436h-207z"/>
<glyph glyph-name="afii10088" horiz-adv-x="1233" unicode="ц" d="M1202 -381h-182v381h-846v1098h182v-944h504v944h182v-944h160v-535z"/>
<glyph glyph-name="afii10089" horiz-adv-x="1196" unicode="ч" d="M336 1098v-410q0 -174 184 -174q45 0 85 7.5t78 21.5t76.5 36t80.5 50v469h182v-1098h-182v489q-44 -30 -84 -54t-82.5 -40t-89.5 -24.5t-105 -8.5q-78 0 -139 23.5t-102 65.5t-62.5 99.5t-21.5 125.5v422h182z"/>
<glyph glyph-name="afii10090" horiz-adv-x="1780" unicode="ш" d="M981 154h442v944h183v-1098h-1432v1098h182v-944h443v944h182v-944z"/>
<glyph glyph-name="afii10091" horiz-adv-x="1796" unicode="щ" d="M1765 -381h-182v381h-1409v1098h182v-944h443v944h182v-944h442v944h183v-944h159v-535z"/>
<glyph glyph-name="afii10092" horiz-adv-x="1389" unicode="ъ" d="M1098 322q0 49 -16.5 82t-49 53t-80.5 28.5t-112 8.5h-256v-344h260q55 0 101.5 8.5t80.5 29t53 53.5t19 81zM584 647h276q212 0 314 -78t102 -233q0 -77 -23.5 -139t-74 -106t-130 -67.5t-192.5 -23.5h-455v944h-360v154h543v-451z"/>
<glyph glyph-name="afii10093" horiz-adv-x="1534" unicode="ы" d="M356 494v-344h219q56 0 102.5 8.5t80 29t52.5 53.5t19 81q0 49 -16.5 82t-49 53t-80.5 28.5t-112 8.5h-215zM1360 0h-182v1098h182v-1098zM356 647h236q212 0 314 -78t102 -233q0 -77 -23.5 -139t-74 -106t-130 -67.5t-192.5 -23.5h-414v1098h182v-451z"/>
<glyph glyph-name="afii10094" horiz-adv-x="1161" unicode="ь" d="M356 494v-344h260q56 0 102.5 8.5t80 29t52.5 53.5t19 81q0 49 -16.5 82t-49 53t-80.5 28.5t-112 8.5h-256zM356 647h277q212 0 314 -78t102 -233q0 -77 -23.5 -139t-74 -106t-130 -67.5t-192.5 -23.5h-455v1098h182v-451z"/>
<glyph glyph-name="afii10095" horiz-adv-x="946" unicode="э" d="M322 -20q-89 0 -151 15t-116 44v162q54 -25 119.5 -43.5t147.5 -18.5q73 0 131 20t99 62t65 108t28 158h-477v154h475q-13 166 -86 241.5t-213 75.5q-25 0 -54.5 -4.5t-59.5 -12t-58 -17t-51 -19.5l-53 154q24 12 56 23t68 19t75 12.5t77 4.5q102 0 191.5 -31 t155.5 -99.5t104.5 -178t38.5 -266.5q0 -146 -40.5 -252t-110.5 -175t-163 -102.5t-198 -33.5z"/>
<glyph glyph-name="afii10096" horiz-adv-x="1657" unicode="ю" d="M817 551q0 -209 64 -314.5t206 -105.5q143 0 206 105.5t63 314.5t-64 312.5t-207 103.5q-142 0 -205 -103.5t-63 -312.5zM1544 551q0 -137 -32 -243.5t-92 -179t-145.5 -110.5t-191.5 -38q-98 0 -179 33t-139.5 97.5t-93.5 159.5t-42 219h-273v-489h-182v1098h182v-455 h275q10 116 46 204.5t95 148.5t139 91t179 31q98 0 181.5 -37.5t144 -110t94.5 -178t34 -241.5z"/>
<glyph glyph-name="afii10097" horiz-adv-x="1087" unicode="я" d="M266 772q0 -48 18.5 -83t51 -58t77.5 -34t99 -11h219v358h-254q-107 0 -159 -47.5t-52 -124.5zM233 0h-198l291 461q-45 12 -87 36t-74.5 62t-52.5 92t-20 125q0 78 28 138.5t78 101t119 61.5t152 21h444v-1098h-182v432h-244z"/>
<glyph glyph-name="uni0450" horiz-adv-x="1096" unicode="ѐ" d="M563 967q-114 0 -180.5 -78t-77.5 -227h492q0 68 -13.5 124.5t-42 96.5t-72.5 62t-106 22zM608 -20q-110 0 -201 37t-156.5 108t-101.5 176t-36 240q0 136 33 243t93 181.5t143.5 113.5t184.5 39q99 0 178 -35.5t134 -100t84.5 -155t29.5 -200.5v-113h-692 q5 -193 81.5 -284t227.5 -91q51 0 94.5 5t84 14.5t78.5 24t77 32.5v-162q-40 -19 -78.5 -33t-79 -23t-84 -13t-94.5 -4zM678 1241h-120q-35 28 -76 69.5t-79.5 85.5t-70 84.5t-47.5 67.5v21h219q16 -34 37.5 -74.5t44.5 -81t47 -78.5t45 -67v-27z"/>
<glyph glyph-name="afii10071" horiz-adv-x="1096" unicode="ё" d="M563 967q-114 0 -180.5 -78t-77.5 -227h492q0 68 -13.5 124.5t-42 96.5t-72.5 62t-106 22zM608 -20q-110 0 -201 37t-156.5 108t-101.5 176t-36 240q0 136 33 243t93 181.5t143.5 113.5t184.5 39q99 0 178 -35.5t134 -100t84.5 -155t29.5 -200.5v-113h-692 q5 -193 81.5 -284t227.5 -91q51 0 94.5 5t84 14.5t78.5 24t77 32.5v-162q-40 -19 -78.5 -33t-79 -23t-84 -13t-94.5 -4zM644 1395q0 54 28 78t68 24q19 0 36.5 -6t30.5 -18.5t21 -31.5t8 -46q0 -53 -29 -78t-67 -25q-40 0 -68 25t-28 78zM269 1395q0 54 28 78t68 24 q39 0 68 -24.5t29 -77.5t-29 -78t-68 -25q-40 0 -68 25t-28 78z"/>
<glyph glyph-name="afii10099" horiz-adv-x="1206" unicode="ђ" d="M752 -492q-48 0 -79.5 7t-54.5 18v148q26 -10 53 -15.5t62 -5.5q27 0 50 7.5t40.5 27t27 52t9.5 83.5v836q0 130 -52.5 195t-164.5 65q-81 0 -136 -26t-88.5 -77t-48 -125t-14.5 -170v-528h-182v1237h-156v137h156v182h182v-182h379v-137h-379v-184l-8 -144h10 q25 43 59.5 74.5t75.5 52.5t87 31t94 10q183 0 275.5 -95.5t92.5 -305.5v-834q0 -77 -17 -138.5t-53 -105t-90.5 -67t-129.5 -23.5z"/>
<glyph glyph-name="afii10100" horiz-adv-x="819" unicode="ѓ" d="M778 944h-422v-944h-182v1098h604v-154zM349 1268q22 29 45.5 67t47 78.5t44.5 81t37 74.5h219v-21q-16 -27 -47.5 -67.5t-70 -84.5t-79 -85.5t-75.5 -69.5h-121v27z"/>
<glyph glyph-name="afii10101" horiz-adv-x="948" unicode="є" d="M594 -20q-101 0 -189 31.5t-153 100t-102 175t-37 256.5q0 157 38 266.5t104.5 178t155.5 99.5t191 31q78 0 152.5 -17t124.5 -42l-54 -154q-23 10 -51 19.5t-58 17t-59 12t-55 4.5q-139 0 -212 -75.5t-87 -241.5h475v-154h-477q9 -184 82 -266t211 -82q81 0 146.5 18.5 t119.5 43.5v-162q-54 -29 -115.5 -44t-150.5 -15z"/>
<glyph glyph-name="afii10102" horiz-adv-x="924" unicode="ѕ" d="M831 301q0 -80 -29 -140t-83.5 -100.5t-131.5 -60.5t-173 -20q-109 0 -187 17.5t-137 51.5v166q31 -16 69 -31.5t80 -27.5t86.5 -19.5t88.5 -7.5q65 0 110.5 11t74 31.5t41.5 50t13 65.5q0 31 -10 56t-36.5 49.5t-72.5 49.5t-118 56t-129.5 61t-97.5 67t-61.5 85.5 t-21.5 115.5q0 70 27.5 124.5t77.5 91.5t120 56t156 19q97 0 177.5 -21t152.5 -55l-63 -147q-65 29 -133.5 50.5t-139.5 21.5q-102 0 -151 -33.5t-49 -95.5q0 -35 11.5 -61t39.5 -49t75 -46.5t117 -52.5q72 -30 128.5 -60t96.5 -67.5t61 -85.5t21 -115z"/>
<glyph glyph-name="afii10103" horiz-adv-x="530" unicode="і" d="M160 1395q0 60 30.5 87t75.5 27q22 0 41.5 -6.5t34 -20.5t23 -35.5t8.5 -51.5q0 -58 -31.5 -86.5t-75.5 -28.5q-45 0 -75.5 28t-30.5 87zM356 0h-182v1098h182v-1098z"/>
<glyph glyph-name="afii10104" horiz-adv-x="530" unicode="ї" d="M356 0h-182v1098h182v-1098zM357 1395q0 54 28 78t68 24q19 0 36.5 -6t30.5 -18.5t21 -31.5t8 -46q0 -53 -29 -78t-67 -25q-40 0 -68 25t-28 78zM-18 1395q0 54 28 78t68 24q39 0 68 -24.5t29 -77.5t-29 -78t-68 -25q-40 0 -68 25t-28 78z"/>
<glyph glyph-name="afii10105" horiz-adv-x="530" unicode="ј" d="M160 1395q0 60 30.5 87t75.5 27q22 0 41.5 -6.5t34 -20.5t23 -35.5t8.5 -51.5q0 -58 -31.5 -86.5t-75.5 -28.5q-45 0 -75.5 28t-30.5 87zM66 -492q-48 0 -79.5 7t-54.5 18v148q26 -10 53 -15.5t62 -5.5q27 0 50 7.5t40.5 27t27 52t9.5 83.5v1268h182v-1256 q0 -77 -17 -138.5t-53 -105t-90.5 -67t-129.5 -23.5z"/>
<glyph glyph-name="afii10106" horiz-adv-x="1667" unicode="љ" d="M1376 322q0 49 -16.5 82t-49 53t-80.5 28.5t-112 8.5h-215v-344h219q56 0 102.5 8.5t80 29t52.5 53.5t19 81zM903 647h236q212 0 313.5 -78t101.5 -233q0 -77 -23 -139t-73.5 -106t-130 -67.5t-192.5 -23.5h-414v944h-217q-20 -259 -52 -441t-79.5 -297t-112.5 -167.5 t-151 -52.5q-28 0 -52.5 3t-40.5 9v131q23 -6 50 -6q55 0 99.5 58.5t79 179t60 304t43.5 433.5h555v-451z"/>
<glyph glyph-name="afii10107" horiz-adv-x="1765" unicode="њ" d="M1475 322q0 49 -16.5 82t-49 53t-81 28.5t-111.5 8.5h-216v-344h220q55 0 101.5 8.5t80.5 29t53 53.5t19 81zM356 1098v-455h463v455h182v-451h236q212 0 314 -78t102 -233q0 -77 -23.5 -139t-74 -106t-130 -67.5t-192.5 -23.5h-414v489h-463v-489h-182v1098h182z"/>
<glyph glyph-name="afii10108" horiz-adv-x="1206" unicode="ћ" d="M860 0v666q0 130 -52.5 195t-164.5 65q-81 0 -136 -26t-88.5 -77t-48 -125t-14.5 -170v-528h-182v1237h-156v137h156v182h182v-182h379v-137h-379v-184l-8 -144h10q25 43 59.5 74.5t75.5 52.5t87 31t94 10q183 0 275.5 -95.5t92.5 -305.5v-676h-182z"/>
<glyph glyph-name="afii10109" horiz-adv-x="1006" unicode="ќ" d="M762 1098h196l-415 -527l454 -571h-206l-437 557v-557h-180v1098h180v-533zM401 1268q22 29 45.5 67t47 78.5t44.5 81t37 74.5h219v-21q-16 -27 -47.5 -67.5t-70 -84.5t-79 -85.5t-75.5 -69.5h-121v27z"/>
<glyph glyph-name="uni045D" horiz-adv-x="1257" unicode="ѝ" d="M346 1098v-668l-12 -252l516 920h233v-1098h-172v647l11 271l-514 -918h-234v1098h172zM732 1241h-120q-35 28 -76 69.5t-79.5 85.5t-70 84.5t-47.5 67.5v21h219q16 -34 37.5 -74.5t44.5 -81t47 -78.5t45 -67v-27z"/>
<glyph glyph-name="afii10110" horiz-adv-x="1001" unicode="ў" d="M10 1098h189l215 -613q14 -40 28.5 -84t27 -88t21.5 -85t13 -76h6q5 25 16 68t24.5 91.5t28 95.5t25.5 80l199 611h188l-434 -1241q-28 -81 -60.5 -145.5t-75.5 -109.5t-101 -69.5t-138 -24.5q-52 0 -90 5.5t-65 11.5v145q21 -5 53 -8.5t67 -3.5q48 0 83 11.5t61 33.5 t44.5 54t33.5 73l57 160zM894 1559q-6 -78 -30.5 -137t-71 -99.5t-117 -61t-170.5 -20.5q-103 0 -173 19.5t-114 59.5t-64.5 99.5t-25.5 139.5h170q5 -57 18.5 -93.5t38.5 -57t63 -28.5t91 -8q44 0 80.5 9.5t63.5 31t44 57.5t23 89h174z"/>
<glyph glyph-name="afii10193" horiz-adv-x="1217" unicode="џ" d="M356 154h504v944h182v-1098h-333v-381h-183v381h-352v1098h182v-944z"/>
<glyph glyph-name="uni0460" horiz-adv-x="2011" unicode="Ѡ" d="M1384 1317q-60 0 -107 -23t-89 -55l-76 156q59 42 130.5 64t152.5 22q119 0 210.5 -49.5t154 -141.5t94.5 -224t32 -298q0 -170 -31.5 -314.5t-96 -249.5t-163.5 -164.5t-235 -59.5q-111 0 -196 25t-158 73h-2q-75 -48 -159 -73t-194 -25q-136 0 -235 59.5t-163.5 164.5 t-96 249.5t-31.5 314.5q0 166 32 298t94.5 224t154 141.5t210.5 49.5q81 0 152.5 -22t130.5 -64l-76 -156q-41 32 -88.5 55t-107.5 23q-69 0 -125.5 -35t-96.5 -104t-61.5 -172.5t-21.5 -239.5q0 -141 23 -255.5t69 -196.5t115 -126.5t161 -44.5q57 0 116 18t105 56v445h187 v-445q46 -38 105 -56t118 -18q92 0 161.5 44.5t115.5 126.5t69 196.5t23 255.5q0 136 -22 239.5t-62 172.5t-96.5 104t-125.5 35z"/>
<glyph glyph-name="uni0461" horiz-adv-x="1647" unicode="ѡ" d="M375 0l-375 1098h188l224 -682q28 -87 47 -165.5t28 -129.5h7q7 22 17.5 51t23.5 61.5t27.5 67t29.5 66.5l119 268l-162 463h188l201 -592q12 -33 27.5 -82.5t30.5 -101t27 -97.5t17 -71h7q90 103 147 207t89.5 217t45 240.5t12.5 279.5h183q0 -163 -18.5 -307.5 t-64.5 -278t-123 -259.5t-194 -253h-192l-119 340q-12 32 -18.5 58.5t-6.5 29.5q-1 -1 -4 -10.5t-7.5 -23t-9.5 -28t-9 -24.5l-152 -342h-231z"/>
<glyph glyph-name="uni0462" horiz-adv-x="1317" unicode="Ѣ" d="M522 160h160q174 0 256 66t82 202q0 70 -23 118.5t-68.5 78.5t-115 43.5t-162.5 13.5h-129v-522zM522 846h150q152 0 255.5 -33t166.5 -89.5t90.5 -132.5t27.5 -163q0 -97 -30 -176t-93 -135t-160 -86.5t-231 -30.5h-362v1120h-316v164h316v272h186v-272h377v-164h-377 v-274z"/>
<glyph glyph-name="uni0463" horiz-adv-x="1245" unicode="ѣ" d="M440 494v-344h260q55 0 102 8.5t80.5 29t52.5 53.5t19 81q0 49 -16.5 82t-49 53t-80.5 28.5t-112 8.5h-256zM739 944h-299v-297h277q211 0 313.5 -78t102.5 -233q0 -77 -23.5 -139t-74 -106t-130 -67.5t-192.5 -23.5h-455v944h-238v154h238v221h182v-221h299v-154z"/>
<glyph glyph-name="uni0464" horiz-adv-x="1831" unicode="Ѥ" d="M1389 1319q-95 0 -175 -32.5t-140 -93.5t-98.5 -148.5t-51.5 -198.5h628v-162h-634q5 -130 37 -230.5t90.5 -169.5t144.5 -105t199 -36q89 0 169 17.5t158 40.5v-162q-39 -15 -78 -26.5t-82 -18.5t-91.5 -10.5t-106.5 -3.5q-158 0 -275.5 50t-196 142t-119.5 221.5 t-46 288.5h-336v-682h-186v1462h186v-616h342q14 143 63.5 260.5t133 201t200 129.5t265.5 46q108 0 206 -22t177 -64l-78 -156q-63 32 -137.5 55t-167.5 23z"/>
<glyph glyph-name="uni0465" horiz-adv-x="1462" unicode="ѥ" d="M1108 -20q-97 0 -181.5 29t-149 90.5t-104 158t-46.5 231.5h-271v-489h-182v1098h182v-455h275q12 128 54.5 218.5t107 147.5t147 83t176.5 26q78 0 152.5 -17t124.5 -42l-54 -154q-23 10 -51 19.5t-58 17t-59.5 12t-54.5 4.5q-140 0 -212.5 -75.5t-86.5 -241.5h475v-154 h-477q9 -184 82 -266t211 -82q82 0 147 18.5t119 43.5v-162q-53 -29 -115 -44t-151 -15z"/>
<glyph glyph-name="uni0466" horiz-adv-x="1327" unicode="Ѧ" d="M516 846h291l-53 143q-18 48 -32 86t-25 71.5t-19.5 66t-15.5 69.5q-9 -37 -17.5 -69.5t-19 -66t-23 -70t-29.5 -81.5zM748 0h-166v682h-127l-258 -682h-197l569 1462h187l571 -1462h-199l-258 682h-122v-682z"/>
<glyph glyph-name="uni0467" horiz-adv-x="1124" unicode="ѧ" d="M559 977q-5 -25 -18.5 -67.5t-31 -90.5t-36 -95t-31.5 -81h240q-14 34 -32.5 81.5t-36 95.5t-31 90t-17.5 67h-6zM678 1098l436 -1098h-188l-187 489h-96v-489h-162v489h-96l-186 -489h-189l436 1098h232z"/>
<glyph glyph-name="uni0468" horiz-adv-x="1833" unicode="Ѩ" d="M1022 846h291l-53 143q-19 48 -33 86t-24.5 71.5t-19 66t-16.5 69.5q-8 -37 -16.5 -69.5t-19 -66t-23 -70t-29.5 -81.5zM1255 0h-165v682h-129l-259 -682h-196l264 682h-385v-682h-186v1462h186v-616h449l241 616h187l571 -1462h-199l-258 682h-121v-682z"/>
<glyph glyph-name="uni0469" horiz-adv-x="1554" unicode="ѩ" d="M989 977q-5 -25 -18.5 -67t-31 -90t-36 -95.5t-31.5 -81.5h240q-14 34 -32.5 81.5t-36 95.5t-31 90t-17.5 67h-6zM1108 1098l436 -1098h-188l-187 489h-96v-489h-162v489h-96l-186 -489h-189l195 489h-279v-489h-182v1098h182v-455h340l181 455h231z"/>
<glyph glyph-name="uni046A" horiz-adv-x="1407" unicode="Ѫ" d="M702 858l330 440h-657zM20 0l123 453q24 85 51 153t69 117t104 78t157 35l-368 487v139h1097v-139l-379 -487q97 -6 161 -34t107 -77t70.5 -117.5t51.5 -154.5l122 -453h-190l-123 449q-20 72 -39 119.5t-46 76t-66.5 40t-100.5 11.5h-24v-696h-187v696h-24 q-61 0 -100.5 -11.5t-66.5 -40t-46 -76t-39 -119.5l-123 -449h-191z"/>
<glyph glyph-name="uni046B" horiz-adv-x="1264" unicode="ѫ" d="M631 643l252 301h-502zM10 0l123 340q22 61 44 111.5t55 89t84.5 63t134.5 33.5l-306 356v105h975v-105l-311 -356q83 -8 135 -32.5t85.5 -62.5t55.5 -89.5t45 -112.5l123 -340h-186l-123 336q-20 54 -38 90t-42 57.5t-58 30t-87 8.5h-4v-522h-166v522h-4q-53 0 -88 -8.5 t-59 -30t-42.5 -57.5t-38.5 -90l-122 -336h-185z"/>
<glyph glyph-name="uni046C" horiz-adv-x="1931" unicode="Ѭ" d="M1245 858l330 440h-657zM563 0l123 453q19 68 39.5 125.5t48.5 103.5h-389v-682h-186v1462h186v-616h676l-363 477v139h1098v-139l-379 -487q97 -6 161 -34t106.5 -77t70 -117.5t51.5 -154.5l123 -453h-190l-123 449q-20 72 -39 119.5t-46 76t-66.5 40t-100.5 11.5h-25 v-696h-186v696h-25q-60 0 -99.5 -11.5t-66.5 -40t-46 -76t-39 -119.5l-123 -449h-191z"/>
<glyph glyph-name="uni046D" horiz-adv-x="1698" unicode="ѭ" d="M1065 643l252 301h-502zM444 0l123 340q16 42 30.5 79.5t33.5 69.5h-275v-489h-182v1098h182v-455h523l-299 350v105h974v-105l-311 -356q83 -8 135 -32.5t85.5 -62.5t56 -89.5t45.5 -112.5l123 -340h-187l-123 336q-20 54 -38 90t-42 57.5t-58 30t-87 8.5h-4v-522h-166 v522h-4q-53 0 -87.5 -8.5t-59 -30t-42.5 -57.5t-38 -90l-123 -336h-185z"/>
<glyph glyph-name="uni046E" horiz-adv-x="1118" unicode="Ѯ" d="M481 -20q-71 0 -116 -9t-71 -25t-36 -36.5t-10 -44.5q0 -22 7 -40t25 -31t48.5 -20t77.5 -7q65 0 113.5 2t90 4t82 4t90.5 2q43 0 76 -3.5t57.5 -8.5t42 -12.5t29.5 -14.5v-182q-8 7 -23.5 16t-42.5 17t-65.5 14t-91.5 6q-49 0 -84.5 -1.5t-72.5 -3t-83 -2.5t-116 -1 q-104 0 -172 20.5t-107.5 56.5t-55.5 84t-16 103q0 60 24.5 109t75.5 84t129.5 54t186.5 19q89 0 153 19t104.5 55t59.5 88.5t19 120.5q0 71 -28.5 121.5t-80 82t-124 46t-160.5 14.5h-191v151h176q92 0 163 19.5t119.5 55.5t73.5 86t25 112q0 54 -18.5 95.5t-52.5 70.5 t-81.5 44t-105.5 15q-110 0 -194.5 -33.5t-159.5 -87.5l-92 125q59 48 142 85.5t186 54.5q-24 30 -51.5 62.5t-54.5 64t-52 60.5t-45 52v27h121q51 -34 99.5 -82.5t102.5 -104.5q26 36 55.5 71t63 63t71 45.5t79.5 17.5q31 0 54.5 -4.5t37.5 -9.5v-119q-11 5 -28 8.5 t-34 3.5q-22 0 -46 -11.5t-48 -32t-47 -48.5t-43 -61q82 -13 145 -44.5t105.5 -77.5t64 -105t21.5 -128q0 -74 -25.5 -133.5t-71 -103.5t-108 -72.5t-137.5 -40.5v-6q87 -11 156 -39.5t116 -73t72 -104t25 -131.5q0 -96 -33.5 -176t-99 -138t-163.5 -90t-227 -32z"/>
<glyph glyph-name="uni046F" horiz-adv-x="942" unicode="ѯ" d="M719 1362q31 0 54.5 -4.5t37.5 -9.5v-119q-11 5 -27.5 8.5t-33.5 3.5q-21 0 -44 -10.5t-46 -29.5t-45.5 -44.5t-41.5 -56.5q55 -14 99.5 -38.5t76 -59t49 -78.5t17.5 -97q0 -50 -14 -88.5t-39.5 -68t-60.5 -50t-78 -34.5v-11q44 -14 85 -36t72.5 -55t50.5 -78.5 t19 -106.5q0 -68 -26.5 -126t-80.5 -101t-137 -67.5t-196 -24.5q-75 0 -119.5 -7t-68 -20t-31 -32t-7.5 -42q0 -22 7 -39.5t24 -29.5t46 -18.5t73 -6.5q50 0 99.5 1.5t96 3.5t88 3.5t74.5 1.5q66 0 101.5 -11t48.5 -30v-151q-9 10 -26 17.5t-37 12.5t-42 8t-41 3 q-32 0 -74.5 -1.5t-92.5 -3t-105.5 -3t-112.5 -1.5q-88 0 -144 23t-88 58.5t-44 78.5t-12 84q0 47 17 91.5t60 79.5t115 56t182 21q55 0 105 9.5t88 31t60 56t22 85.5q0 94 -66.5 139.5t-204.5 45.5h-129v153h97q61 0 111 9t86 28.5t55.5 51.5t19.5 77q0 77 -57.5 115.5 t-165.5 38.5q-71 0 -135.5 -19t-139.5 -53l-63 147q57 28 110.5 45t118.5 25q-23 28 -47.5 57.5t-48.5 57t-46 52.5t-40 46v27h121q51 -34 100 -82.5t103 -104.5q26 36 55 71t62.5 63t71 45.5t79.5 17.5z"/>
<glyph glyph-name="uni0470" horiz-adv-x="1571" unicode="Ѱ" d="M1466 983q0 -61 -12 -124.5t-38 -123t-68 -112.5t-102 -92t-139.5 -62t-180.5 -23h-47v-446h-187v446h-47q-101 0 -180.5 22.5t-139.5 61.5t-102 91t-68.5 111.5t-38.5 122.5t-12 124v483h193v-479q0 -88 23 -158.5t68.5 -119.5t115 -75t162.5 -26h26v858h187v-858h26 q186 0 277.5 99t91.5 276v483h192v-479z"/>
<glyph glyph-name="uni0471" horiz-adv-x="1516" unicode="ѱ" d="M854 1554v-1421q78 9 143.5 39t113 84t73.5 132t26 181q0 71 -4 135t-11.5 127t-19.5 128.5t-28 138.5h182q16 -72 28 -137.5t20 -128.5t12 -126t4 -131q0 -157 -43.5 -267t-117 -180t-171.5 -104.5t-207 -41.5v-474h-178v474q-111 4 -205 36.5t-162.5 100.5t-106.5 175 t-38 261v543h182v-551q0 -114 27 -191t72 -125.5t105 -71.5t126 -28v1423h178z"/>
<glyph glyph-name="uni0472" horiz-adv-x="1520" unicode="Ѳ" d="M762 1321q-105 0 -183 -33.5t-132 -97.5t-84.5 -156t-38.5 -209h868q-8 117 -37.5 209t-82 156t-130 97.5t-180.5 33.5zM760 143q106 0 185 35.5t132.5 102.5t82 164t34.5 219h-870q6 -122 35 -219t82.5 -164t132.5 -102.5t186 -35.5zM1393 733q0 -170 -40.5 -308.5 t-120.5 -237.5t-198.5 -153t-273.5 -54q-163 0 -282.5 54t-198 153t-116.5 238.5t-38 309.5t38 308.5t117 236.5t198.5 151.5t283.5 53.5q154 0 272 -53.5t198 -152t120.5 -237t40.5 -309.5z"/>
<glyph glyph-name="uni0473" horiz-adv-x="1182" unicode="ѳ" d="M590 967q-137 0 -205 -81t-82 -245h574q-13 164 -82 245t-205 81zM592 131q141 0 209 89t78 267h-578q9 -178 79 -267t212 -89zM1069 551q0 -137 -33.5 -243.5t-96 -179t-151.5 -110.5t-200 -38q-103 0 -190 38t-150.5 110.5t-99 179t-35.5 243.5q0 136 33.5 241.5 t95.5 178t151.5 110t200.5 37.5q103 0 190 -37.5t150.5 -110t99 -178t35.5 -241.5z"/>
<glyph glyph-name="uni0474" horiz-adv-x="1217" unicode="Ѵ" d="M1174 1325q-36 0 -62.5 -18.5t-47.5 -54.5t-39 -87.5t-36 -117.5l-297 -1047h-205l-487 1462h197l295 -927q29 -91 52 -178.5t40 -166.5q14 78 35 172t47 191l141 512q31 113 61.5 191t68.5 127t89.5 70.5t126.5 21.5q35 0 69 -6.5t60 -14.5v-151q-23 9 -49.5 15.5 t-58.5 6.5z"/>
<glyph glyph-name="uni0475" horiz-adv-x="989" unicode="ѵ" d="M0 1098h188l201 -606q11 -33 27 -86t31.5 -108t28.5 -103.5t18 -73.5h6q4 25 14 72.5t22 101.5t24.5 105.5t21.5 84.5l86 320q25 94 51.5 152.5t60 91.5t77.5 45t104 12q26 0 43 -2.5t34 -7.5v-135q-11 3 -30 5.5t-37 2.5q-47 0 -76 -40t-53 -128l-224 -801h-243z"/>
<glyph glyph-name="uni0476" horiz-adv-x="1217" unicode="Ѷ" d="M1174 1325q-36 0 -62.5 -18.5t-47.5 -54.5t-39 -87.5t-36 -117.5l-297 -1047h-205l-487 1462h197l295 -927q29 -91 52 -178.5t40 -166.5q14 78 35 172t47 191l141 512q31 113 61.5 191t68.5 127t89.5 70.5t126.5 21.5q35 0 69 -6.5t60 -14.5v-151q-23 9 -49.5 15.5 t-58.5 6.5zM520 1579h-100q-35 28 -76 69.5t-79.5 85.5t-70 84.5t-47.5 67.5v21h199q16 -35 37 -75t44.5 -80.5t47.5 -78.5t45 -67v-27zM882 1579h-100q-35 28 -75.5 69.5t-79 85.5t-70 84.5t-47.5 67.5v21h198q16 -35 37 -75t44.5 -80.5t47.5 -78.5t45 -67v-27z"/>
<glyph glyph-name="uni0477" horiz-adv-x="989" unicode="ѷ" d="M0 1098h188l201 -606q11 -33 27 -86t31.5 -108t28.5 -103.5t18 -73.5h6q4 25 14 72.5t22 101.5t24.5 105.5t21.5 84.5l86 320q25 94 51.5 152.5t60 91.5t77.5 45t104 12q26 0 43 -2.5t34 -7.5v-135q-11 3 -30 5.5t-37 2.5q-47 0 -76 -40t-53 -128l-224 -801h-243z M416 1241h-100q-35 28 -76 69.5t-79.5 85.5t-70 84.5t-47.5 67.5v21h199q16 -35 37 -75t44.5 -80.5t47.5 -78.5t45 -67v-27zM778 1241h-100q-35 28 -75.5 69.5t-79 85.5t-70 84.5t-47.5 67.5v21h198q16 -35 37 -75t44.5 -80.5t47.5 -78.5t45 -67v-27z"/>
<glyph glyph-name="uni0478" horiz-adv-x="2404" unicode="Ѹ" d="M1413 1098h189l215 -613q13 -40 27.5 -84t27 -88t22 -85.5t13.5 -75.5h6q4 25 15.5 68t25 91.5t28 95.5t25.5 80l199 611h188l-434 -1241q-29 -81 -61 -145.5t-75 -109.5t-101 -69.5t-138 -24.5q-52 0 -90 5.5t-65 11.5v145q21 -5 53 -8.5t67 -3.5q48 0 83 11.5t61 33.5 t44.5 54t33.5 73l57 160zM322 733q0 -137 23.5 -246.5t72 -186t123.5 -117t178 -40.5t178 40.5t123 117t71 186t23 246.5q0 138 -23 247t-71 184.5t-122 116t-177 40.5q-104 0 -179.5 -40.5t-124 -116t-72 -184.5t-23.5 -247zM1311 733q0 -170 -38 -308.5t-113 -237.5 t-185.5 -153t-255.5 -54q-152 0 -264 54t-185.5 153t-109 238.5t-35.5 309.5t35.5 308.5t109 236.5t186 151.5t265.5 53.5q144 0 254.5 -53.5t185 -152t112.5 -237t38 -309.5z"/>
<glyph glyph-name="uni0479" horiz-adv-x="2136" unicode="ѹ" d="M301 551q0 -209 68.5 -314.5t222.5 -105.5t221.5 105.5t67.5 314.5t-68.5 312.5t-222.5 103.5t-221.5 -103.5t-67.5 -312.5zM1069 551q0 -137 -33.5 -243.5t-96 -179t-151.5 -110.5t-200 -38q-103 0 -190 38t-150.5 110.5t-99 179t-35.5 243.5q0 136 33.5 241.5t95.5 178 t151.5 110t200.5 37.5q103 0 190 -37.5t150.5 -110t99 -178t35.5 -241.5zM1145 1098h189l215 -613q14 -40 28.5 -84t27 -88t21.5 -85t13 -76h6q5 25 16 68t24.5 91.5t28 95.5t25.5 80l199 611h188l-434 -1241q-28 -81 -60.5 -145.5t-75.5 -109.5t-101 -69.5t-138 -24.5 q-52 0 -90 5.5t-65 11.5v145q21 -5 53 -8.5t67 -3.5q48 0 83 11.5t61 33.5t44.5 54t33.5 73l57 160z"/>
<glyph glyph-name="uni047A" horiz-adv-x="1599" unicode="Ѻ" d="M322 733q0 -116 22.5 -212t66 -169t107 -122t146.5 -70q17 48 50.5 67t86.5 19q49 0 83.5 -20t51.5 -66q82 21 146 70t107.5 122t66 169t22.5 212q0 115 -22.5 210.5t-66 168.5t-107.5 122t-146 71q-16 -50 -51 -70.5t-84 -20.5q-53 0 -86.5 20.5t-50.5 68.5 q-83 -22 -146.5 -70.5t-107 -121t-66 -168t-22.5 -210.5zM1475 733q0 -149 -36.5 -275t-105 -222t-167 -158.5t-222.5 -85.5q-14 -63 -51 -90t-92 -27q-59 0 -95 27t-49 90q-129 22 -228.5 84.5t-167 158.5t-102 223t-34.5 277t34.5 275.5t102 221t167 157t228.5 84.5 q13 63 49 87.5t95 24.5q55 0 92 -25.5t51 -86.5q123 -23 221.5 -85.5t167 -158t105.5 -221t37 -275.5z"/>
<glyph glyph-name="uni047B" horiz-adv-x="1305" unicode="ѻ" d="M301 551q0 -172 55.5 -274.5t178.5 -133.5q11 44 39.5 60t80.5 16q50 0 78.5 -16t40.5 -58q121 31 175.5 133t54.5 273q0 169 -55 269t-175 132q-12 -43 -40.5 -59t-78.5 -16q-52 0 -80.5 16t-39.5 61q-123 -31 -178.5 -131t-55.5 -272zM1192 551q0 -118 -28.5 -213.5 t-82 -166.5t-130 -116t-171.5 -63q-9 -57 -39 -80t-86 -23q-58 0 -87.5 22.5t-37.5 78.5q-93 18 -169.5 63t-131.5 116t-85.5 167t-30.5 215q0 117 28.5 212.5t82.5 166t131 115.5t175 63q8 57 37.5 77.5t87.5 20.5q55 0 85.5 -21t39.5 -79q91 -18 167 -63.5t130.5 -116 t84.5 -164.5t30 -211z"/>
<glyph glyph-name="uni047C" horiz-adv-x="1970" unicode="Ѽ" d="M1122 1769q0 -77 -60 -134.5t-181 -88.5v76q60 22 88 44.5t28 47.5q0 19 -15.5 28t-33.5 17t-33.5 21t-15.5 41q0 37 25 56t71 19q59 0 93 -35t34 -92zM1409 1995v-129h-16q-86 0 -158 18t-133 39t-111 39t-92 18q-46 0 -75 -22.5t-29 -75.5v-16h-133v35q0 107 62 157.5 t171 50.5q58 0 114 -18t115.5 -39t126 -39t144.5 -18h14zM1343 1317q-60 0 -107 -23t-89 -55l-76 156q59 42 130.5 64t152.5 22q119 0 210.5 -49.5t154 -141.5t94.5 -224t32 -298q0 -170 -31.5 -314.5t-96 -249.5t-163.5 -164.5t-235 -59.5q-103 0 -184 21t-150 65 q-71 -44 -151 -65t-183 -21q-136 0 -235 59.5t-163.5 164.5t-96 249.5t-31.5 314.5q0 166 32 298t94.5 224t154 141.5t210.5 49.5q81 0 152.5 -22t130.5 -64l-76 -156q-41 32 -88.5 55t-107.5 23q-69 0 -125.5 -35t-96.5 -104t-61.5 -172.5t-21.5 -239.5q0 -141 23 -255.5 t69 -196.5t115 -126.5t161 -44.5q42 0 85 9.5t82 27t72 41t56 51.5q23 -28 56 -51.5t72 -41t82 -27t85 -9.5q92 0 161.5 44.5t115.5 126.5t69 196.5t23 255.5q0 136 -22 239.5t-62 172.5t-96.5 104t-125.5 35z"/>
<glyph glyph-name="uni047D" horiz-adv-x="1616" unicode="ѽ" d="M905 1460q0 -77 -60 -134.5t-181 -88.5v76q116 41 116 92q0 13 -7.5 20.5t-18 13.5t-23.5 11t-23.5 12.5t-18 19t-7.5 29.5q0 38 25 57t71 19q59 0 93 -35t34 -92zM1192 1686v-130h-16q-86 0 -158 18t-133 39.5t-111 39.5t-92 18q-46 0 -75 -23t-29 -75v-17h-134v35 q0 108 62 158.5t172 50.5q57 0 113 -18t116 -39t126.5 -39t144.5 -18h14zM1040 -20q-81 0 -135.5 17.5t-97.5 49.5q-43 -32 -96 -49.5t-133 -17.5q-95 0 -179.5 31.5t-148 100t-100.5 175t-37 256.5q0 157 31.5 266.5t86 178t128 99.5t157.5 31q31 0 63 -4.5t62 -12.5 t56 -19t46 -23l-63 -154q-17 10 -37.5 19.5t-42 17t-43 12t-39.5 4.5q-112 0 -164.5 -101t-52.5 -312t70.5 -308.5t206.5 -97.5q73 0 130.5 26t98.5 58q22 -16 46.5 -31t53 -27t61.5 -19t74 -7q133 0 203 97.5t70 308.5t-52.5 312t-164.5 101q-18 0 -39.5 -4.5t-43 -12 t-42 -17t-37.5 -19.5l-64 154q20 12 46.5 23t56.5 19t61.5 12.5t63.5 4.5q84 0 157.5 -31t128 -99.5t86 -178t31.5 -266.5q0 -150 -37 -256.5t-100 -175t-147.5 -100t-178.5 -31.5z"/>
<glyph glyph-name="uni047E" horiz-adv-x="2011" unicode="Ѿ" d="M1384 1317q-60 0 -107 -23t-89 -55l-76 156q59 42 130.5 64t152.5 22q119 0 210.5 -49.5t154 -141.5t94.5 -224t32 -298q0 -170 -31.5 -314.5t-96 -249.5t-163.5 -164.5t-235 -59.5q-111 0 -196 25t-158 73h-2q-75 -48 -159 -73t-194 -25q-136 0 -235 59.5t-163.5 164.5 t-96 249.5t-31.5 314.5q0 166 32 298t94.5 224t154 141.5t210.5 49.5q81 0 152.5 -22t130.5 -64l-76 -156q-41 32 -88.5 55t-107.5 23q-69 0 -125.5 -35t-96.5 -104t-61.5 -172.5t-21.5 -239.5q0 -141 23 -255.5t69 -196.5t115 -126.5t161 -44.5q57 0 116 18t105 56v445h187 v-445q46 -38 105 -56t118 -18q92 0 161.5 44.5t115.5 126.5t69 196.5t23 255.5q0 136 -22 239.5t-62 172.5t-96.5 104t-125.5 35zM1419 1796v-27l-82 -172h-34l-50 103h-184l-49 -103h-35l-49 103h-184l-50 -103h-34l-80 172v27h831z"/>
<glyph glyph-name="uni047F" horiz-adv-x="1647" unicode="ѿ" d="M375 0l-375 1098h188l224 -682q28 -87 47 -165.5t28 -129.5h7q7 22 17.5 51t23.5 61.5t27.5 67t29.5 66.5l119 268l-162 463h188l201 -592q12 -33 27.5 -82.5t30.5 -101t27 -97.5t17 -71h7q90 103 147 207t89.5 217t45 240.5t12.5 279.5h183q0 -163 -18.5 -307.5 t-64.5 -278t-123 -259.5t-194 -253h-192l-119 340q-12 32 -18.5 58.5t-6.5 29.5q-1 -1 -4 -10.5t-7.5 -23t-9.5 -28t-9 -24.5l-152 -342h-231zM1210 1444v-27l-82 -172h-34l-50 103h-184l-49 -103h-35l-49 103h-184l-49 -103h-35l-80 172v27h831z"/>
<glyph glyph-name="uni0480" horiz-adv-x="1235" unicode="Ҁ" d="M793 1319q-107 0 -194 -40.5t-148.5 -116.5t-95 -185t-33.5 -246q0 -141 29.5 -250.5t88.5 -184.5t147 -114t206 -39q29 0 51.5 2t42.5 6.5t38.5 11t39.5 15.5v-670h-187v472h-16q-164 0 -284 54t-198.5 153t-116.5 237.5t-38 308.5q0 166 43.5 304t128 237t209.5 154 t287 55q108 0 206 -22t177 -64l-78 -156q-63 32 -137 55t-168 23z"/>
<glyph glyph-name="uni0481" horiz-adv-x="948" unicode="ҁ" d="M405 11.5q-88 31.5 -153 100t-102 175t-37 256.5q0 157 38 266.5t104.5 178t155.5 99.5t191 31q78 0 152.5 -17t124.5 -42l-54 -154q-23 10 -51 19.5t-58 17t-59.5 12t-54.5 4.5q-157 0 -229 -101t-72 -312t72.5 -308.5t220.5 -97.5q62 0 114 13.5t87 33.5v-678h-183v472 h-18q-101 0 -189 31.5z"/>
<glyph glyph-name="uni0482" horiz-adv-x="1247" unicode="҂" d="M588 432l284 -166l-71 -123l-285 164l-180 -313l-129 74l180 315l-283 164l70 123l287 -164l198 346l-284 164l71 125l285 -164l182 313l127 -73l-182 -316l287 -164l-74 -123l-283 164z"/>
<glyph glyph-name="uni0483" horiz-adv-x="1141" unicode="҃" d="M395 1262q-6 -44 -28 -69.5t-70 -25.5q-56 0 -76 25.5t-20 81.5q0 28 4.5 46.5t16 29.5t30 15.5t47.5 4.5h449q5 45 27.5 69.5t70.5 24.5q56 0 77 -25t21 -79q0 -57 -21.5 -77.5t-78.5 -20.5h-449z"/>
<glyph glyph-name="uni0484" horiz-adv-x="1182" unicode="҄" d="M258 1382q78 0 144.5 18t126 39.5t115.5 39.5t114 18q109 0 171 -50.5t62 -158.5v-35h-133v17q0 52 -29 75t-75 23q-42 0 -92.5 -18t-111 -39.5t-133 -39.5t-157.5 -18h-16v129h14z"/>
<glyph glyph-name="uni0485" horiz-adv-x="1182" unicode="҅" d="M481 1462q0 57 34 92t93 35q47 0 72 -19t25 -57q0 -27 -15.5 -40t-34 -21.5t-34 -17t-15.5 -27.5q0 -25 28.5 -48t88.5 -44v-76q-122 31 -182 88.5t-60 134.5z"/>
<glyph glyph-name="uni0486" horiz-adv-x="1182" unicode="҆" d="M723 1462q0 -77 -60 -134.5t-182 -88.5v76q60 21 88.5 44t28.5 48q0 13 -7.5 20.5t-18 13.5t-23.5 11t-23.5 12.5t-18 19t-7.5 29.5q0 38 25 57t71 19q59 0 93 -35t34 -92z"/>
<glyph glyph-name="uni0488" horiz-adv-x="2025" unicode="҈" d="M383 459q-3 27 -15 45t-29 28q-18 10 -41 12q-23 3 -48 3q-30 -1 -54 -3t-40 -11t-26 -27t-13 -47h-76q5 90 55 142t154 52q50 -1 88 -15t65 -40t42 -60q15 -36 18 -79h-80zM1905 459q-3 27 -15 45t-30 28t-40 12q-22 3 -48 3q-30 -1 -54 -3t-40 -11t-27 -27 q-10 -18 -13 -47h-75q5 90 55 142t154 52q49 -1 87 -15t65 -40q26 -26 42 -60q16 -36 19 -79h-80zM561 946q-3 28 -15 46t-29 26q-18 10 -41 13t-48 3q-30 0 -54 -2t-40 -12q-16 -8 -26 -26t-13 -48h-76q5 90 55 142t154 53q50 -1 88 -15t65 -40t42 -61q15 -36 18 -79h-80z M1714 946q-2 28 -14 46t-30 26q-18 10 -41 13t-48 3q-31 0 -55 -2t-40 -12q-16 -8 -26 -26t-12 -48h-76q6 90 56 142t153 53q49 -1 87 -15t66 -40q27 -26 42 -61q15 -36 18 -79h-80zM561 -41q-3 27 -15 45t-29 28q-18 10 -41 12q-23 3 -48 3q-30 -1 -54 -3t-40 -11t-26 -27 t-13 -47h-76q5 91 55 143t154 52q50 0 88 -14t65 -40t42 -62t18 -79h-80zM1714 -41q-2 27 -14 45t-30 28t-41 12q-23 3 -48 3q-31 -1 -55 -3t-40 -11t-26 -27t-12 -47h-76q6 91 56 143t153 52q49 0 87 -14t66 -40q27 -26 42 -62t18 -79h-80zM1135 -319q-3 27 -15 45t-30 28 t-41 12q-23 3 -48 3q-29 -1 -53 -3t-40 -11t-27 -27q-10 -18 -13 -47h-75q5 89 55 141t153 53q49 -1 87 -15t66 -40q27 -26 42 -60q15 -36 18 -79h-79zM1135 1231q-3 27 -15 45t-30 28t-41 12q-23 3 -48 3q-29 -1 -53 -3t-40 -11t-27 -27q-10 -18 -13 -47h-75q5 90 55 142 t153 52q49 0 87 -14q38 -13 66 -39q27 -26 42 -62t18 -79h-79z"/>
<glyph glyph-name="uni0489" horiz-adv-x="1958" unicode="҉" d="M1464 184l17 -2q20 -34 40 -74q19 -40 39 -82t38 -84t34 -83l-67 -70q-23 37 -49 77t-52 78q-26 40 -51 76t-47 66zM492 877l-17 2q-21 34 -41 74t-40 82q-20 43 -37 85q-18 42 -33 82l67 70q23 -36 49 -76t51 -79q26 -39 51 -75t48 -67zM633 45l-2 -16q-35 -21 -75 -41 t-81 -40q-42 -20 -85 -38t-83 -33l-69 68q36 23 76 49t79 51q39 26 75 51t67 47zM1325 1018l2 16q34 20 74 40t82 40t85 38t83 34l69 -68q-36 -22 -76 -48t-79 -52t-75 -51t-67 -47zM391 453l-14 -11q-39 10 -81 24t-86 30t-87 34t-82 35v97q43 -10 89 -20l92 -20 q46 -9 88 -17q44 -8 81 -13v-139zM1567 651l14 11q39 -10 81 -24t86 -30t86 -34q44 -18 83 -35v-97q-43 10 -89 20l-92 20q-46 9 -88 17q-44 8 -81 13v139zM881 1141l-11 14q10 39 24 81t30 86t34 86q18 44 35 83h97q-10 -43 -20 -89l-20 -92q-9 -46 -17 -88q-8 -44 -13 -81 h-139zM1079 -35l11 -14q-10 -39 -24 -81t-30 -86t-34 -87t-35 -82h-97q10 43 20 89l20 92q9 46 17 88q8 44 13 81h139z"/>
<glyph glyph-name="uni048A" horiz-adv-x="1511" unicode="Ҋ" d="M1139 1896q-6 -77 -30.5 -136.5t-71 -99.5t-117 -60.5t-170.5 -20.5q-103 0 -173 19.5t-114 59t-65 99t-25 139.5h170q4 -57 18 -93t39 -56.5t63 -28.5t91 -8q43 0 79.5 9t64 31t44.5 57.5t23 88.5h174zM1124 0v793q0 56 2.5 127.5t6.5 136.5q4 76 10 153h-8l-719 -1210 h-215v1462h174v-800q0 -26 -0.5 -57t-2 -64.5t-3 -67.5t-2.5 -65q-4 -74 -7 -150h7l716 1204h213v-1296h195l-143 -551h-218l166 385h-172z"/>
<glyph glyph-name="uni048B" horiz-adv-x="1276" unicode="ҋ" d="M1012 1559q-6 -78 -30.5 -137t-71 -99.5t-117 -61t-170.5 -20.5q-103 0 -173 19.5t-114 59.5t-65 99.5t-25 139.5h170q4 -57 18 -93.5t39 -57t63 -28.5t91 -8q43 0 79.5 9t64 31t44.5 58t23 89h174zM911 0v647l11 271l-514 -918h-234v1098h172v-668l-12 -252l516 920h233 v-944h183l-123 -535h-182l122 381h-172z"/>
<glyph glyph-name="uni048C" horiz-adv-x="1180" unicode="Ҍ" d="M385 160h160q174 0 256 66t82 202q0 70 -23 118.5t-68.5 78.5t-115 43.5t-162.5 13.5h-129v-522zM385 846h150q152 0 255.5 -33t166.5 -89.5t90.5 -132.5t27.5 -163q0 -97 -30 -176t-93 -135t-160 -86.5t-231 -30.5h-362v1120h-152v164h152v178h186v-178h315v-164h-315 v-274z"/>
<glyph glyph-name="uni048D" horiz-adv-x="1161" unicode="ҍ" d="M356 494v-344h260q55 0 102 8.5t80.5 29t52.5 53.5t19 81q0 49 -16.5 82t-49 53t-80.5 28.5t-112 8.5h-256zM356 1313h279v-137h-279v-529h277q211 0 313.5 -78t102.5 -233q0 -77 -23.5 -139t-74 -106t-130 -67.5t-192.5 -23.5h-455v1176h-156v137h156v243h182v-243z"/>
<glyph glyph-name="uni048E" horiz-adv-x="1180" unicode="Ҏ" d="M385 727h129q38 0 72 2.5t65 7.5l-92 133l109 76l112 -160q51 36 77 93.5t26 144.5q0 142 -82 210.5t-256 68.5h-160v-576zM1075 1034q0 -58 -11 -113.5t-34.5 -105.5t-61 -93t-91.5 -75l110 -155l-106 -78l-129 182q-93 -27 -217 -27h-150v-569h-186v1462h362 q134 0 231 -28.5t160 -83t93 -134.5t30 -182z"/>
<glyph glyph-name="uni048F" horiz-adv-x="1200" unicode="ҏ" d="M635 967q-76 0 -128.5 -23t-85 -70t-48 -117.5t-17.5 -164.5v-41q0 -101 13.5 -179.5t46 -132t86.5 -81t135 -27.5q17 0 33.5 1.5t31.5 6.5l-106 152l109 76l110 -158q84 106 84 344q0 208 -63.5 311t-200.5 103zM670 -20q-59 0 -107 12.5t-86.5 34.5t-68.5 51t-52 61 h-12q3 -34 6 -65q2 -26 4 -53.5t2 -43.5v-469h-182v1590h148l26 -148h8q22 34 51.5 65t68 53.5t86.5 36t108 13.5q94 0 170.5 -36t131.5 -107.5t85 -177.5t30 -246q0 -175 -45 -296t-127 -189l109 -154l-106 -78l-117 166q-31 -9 -63.5 -14.5t-67.5 -5.5z"/>
<glyph glyph-name="afii10050" horiz-adv-x="1006" unicode="Ґ" d="M782 1462v301h176v-467h-573v-1296h-186v1462h583z"/>
<glyph glyph-name="afii10098" horiz-adv-x="819" unicode="ґ" d="M778 961h-422v-961h-182v1098h422v319h182v-456z"/>
<glyph glyph-name="uni0492" horiz-adv-x="1006" unicode="Ғ" d="M958 1462v-166h-573v-491h336v-162h-336v-643h-186v643h-152v162h152v657h759z"/>
<glyph glyph-name="uni0493" horiz-adv-x="819" unicode="ғ" d="M174 0v481h-156v137h156v480h604v-154h-422v-326h279v-137h-279v-481h-182z"/>
<glyph glyph-name="uni0494" horiz-adv-x="1280" unicode="Ҕ" d="M508 643q-37 0 -67 -2.5t-56 -7.5v-633h-186v1462h759v-166h-573v-501q29 5 64.5 6.5t80.5 1.5q154 0 274 -46t202.5 -131.5t126 -206.5t43.5 -272q0 -170 -41 -294t-114 -205t-173.5 -120.5t-218.5 -39.5q-49 0 -88 3t-73 9t-64.5 15.5t-61.5 21.5v162q63 -23 126.5 -35 t135.5 -12q375 0 375 495q0 121 -33.5 213.5t-95 155.5t-148.5 95t-194 32z"/>
<glyph glyph-name="uni0495" horiz-adv-x="1032" unicode="ҕ" d="M553 -502q-75 0 -128 15.5t-99 44.5v161q43 -24 96 -42.5t119 -18.5q118 0 176.5 97.5t58.5 307.5q0 212 -72 313t-229 101q-26 0 -57 -5t-62 -13v-459h-182v1098h604v-154h-422v-317q29 5 58.5 7.5t60.5 2.5q102 0 191.5 -31t156 -100t104.5 -178.5t38 -266.5 q0 -150 -32 -256.5t-87.5 -174.5t-130.5 -100t-162 -32z"/>
<glyph glyph-name="uni0496" horiz-adv-x="1769" unicode="Җ" d="M1454 0l-530 741v-741h-179v741l-530 -741h-211l545 754l-531 708h205l522 -708v708h179v-708l522 708h205l-531 -708l424 -588h195v-551h-176v385h-109z"/>
<glyph glyph-name="uni0497" horiz-adv-x="1571" unicode="җ" d="M1264 0l-445 557v-557h-164v557l-444 -557h-207l463 565l-424 533h197l415 -533v533h164v-533l416 533h197l-424 -533l335 -411h197v-535h-174v381h-102z"/>
<glyph glyph-name="uni0498" horiz-adv-x="1116" unicode="Ҙ" d="M977 1120q0 -73 -25.5 -133t-71 -104t-108 -72.5t-137.5 -40.5v-6q87 -11 156 -39.5t116 -73t72 -104t25 -131.5q0 -96 -33.5 -176t-101.5 -138t-170.5 -90t-239.5 -32q-110 0 -206 17t-181 62v170q43 -23 91 -41t97.5 -30t99 -18.5t95.5 -6.5q178 0 266 74t88 209 t-103.5 199.5t-289.5 64.5h-191v151h176q92 0 163 19.5t119.5 55.5t73.5 86.5t25 111.5q0 54 -18.5 95.5t-52.5 70.5t-81.5 44t-105.5 15q-110 0 -194.5 -33.5t-159.5 -87.5l-92 125q38 31 87 58t107 47.5t123.5 32.5t136.5 12q109 0 192 -27t139.5 -75.5t85 -115 t28.5 -145.5zM547 -238q0 105 -139 238h129q26 -19 54.5 -45t52 -58t38.5 -69.5t15 -79.5q0 -90 -50.5 -142t-150.5 -52q-29 0 -61 4t-58 12v113q14 -4 36.5 -6.5t47.5 -2.5q34 0 60 21.5t26 66.5z"/>
<glyph glyph-name="uni0499" horiz-adv-x="942" unicode="ҙ" d="M369 647q61 0 111 9t86 28.5t55.5 51.5t19.5 77q0 77 -57.5 115.5t-165.5 38.5q-71 0 -135.5 -19t-139.5 -53l-63 147q40 20 78.5 34t79.5 23.5t86 14t98 4.5q86 0 158 -19t124.5 -56t81.5 -91.5t29 -124.5q0 -50 -14 -88.5t-39.5 -68t-60.5 -50t-78 -34.5v-11 q44 -14 85 -36t72.5 -55t50.5 -78t19 -107q0 -67 -26.5 -125.5t-80.5 -101.5t-137 -67.5t-196 -24.5q-109 0 -196.5 17.5t-145.5 51.5v166q31 -16 69 -31.5t81.5 -27.5t92 -19.5t99.5 -7.5q55 0 103 9t83 30t55.5 55.5t20.5 85.5q0 94 -66.5 139.5t-204.5 45.5h-129v153h97z M461 -238q0 105 -139 238h129q26 -19 54.5 -45t52 -58t38.5 -69.5t15 -79.5q0 -90 -50.5 -142t-150.5 -52q-29 0 -61 4t-58 12v113q14 -4 36.5 -6.5t47.5 -2.5q34 0 60 21.5t26 66.5z"/>
<glyph glyph-name="uni049A" horiz-adv-x="1290" unicode="Қ" d="M1077 166h183v-551h-177v385h-108l-451 698l-139 -114v-584h-186v1462h186v-731l121 168l452 563h209l-520 -637z"/>
<glyph glyph-name="uni049B" horiz-adv-x="1098" unicode="қ" d="M762 1098h196l-415 -527l331 -417h193v-535h-174v381h-102l-437 557v-557h-180v1098h180v-533z"/>
<glyph glyph-name="uni049C" horiz-adv-x="1186" unicode="Ҝ" d="M1186 0h-211l-338 500v-205h-133v356l-119 -98v-553h-186v1462h186v-762l119 164v355h133v-179l321 422h209l-520 -667z"/>
<glyph glyph-name="uni049D" horiz-adv-x="1067" unicode="ҝ" d="M463 434l-109 123v-557h-180v1098h180v-533l109 123v326h125v-185l235 269h197l-432 -490v-73l471 -535h-207l-264 295v-205h-125v344z"/>
<glyph glyph-name="uni049E" horiz-adv-x="1186" unicode="Ҟ" d="M1186 0h-211l-451 698l-139 -114v-584h-186v1120h-152v164h152v178h186v-178h213v-164h-213v-389l121 168l452 563h209l-520 -637z"/>
<glyph glyph-name="uni049F" horiz-adv-x="1016" unicode="ҟ" d="M18 1374h156v182h180v-182h379v-137h-379v-395l-16 -275h4l135 170l293 361h211l-401 -475l428 -623h-209l-336 504l-109 -82v-422h-180v1237h-156v137z"/>
<glyph glyph-name="uni04A0" horiz-adv-x="1348" unicode="Ҡ" d="M1348 0h-211l-451 698l-139 -114v-584h-187v1298h-340v164h527v-731l121 168l452 563h209l-520 -637z"/>
<glyph glyph-name="uni04A1" horiz-adv-x="1233" unicode="ҡ" d="M989 1098h197l-416 -527l455 -571h-207l-436 557v-557h-181v944h-360v154h543l-2 -2v-531z"/>
<glyph glyph-name="uni04A2" horiz-adv-x="1485" unicode="Ң" d="M1268 166h176v-551h-176v385h-187v682h-665v-682h-187v1462h187v-616h665v616h187v-1296z"/>
<glyph glyph-name="uni04A3" horiz-adv-x="1274" unicode="ң" d="M901 0v489h-545v-489h-182v1098h182v-455h545v455h182v-944h160v-535h-182v381h-160z"/>
<glyph glyph-name="uni04A4" horiz-adv-x="1628" unicode="Ҥ" d="M1268 0h-187v682h-665v-682h-187v1462h187v-616h665v616h527v-164h-340v-1298z"/>
<glyph glyph-name="uni04A5" horiz-adv-x="1452" unicode="ҥ" d="M1083 0h-182v489h-545v-489h-182v1098h182v-455h545v455h543v-154h-361v-944z"/>
<glyph glyph-name="uni04A6" horiz-adv-x="2116" unicode="Ҧ" d="M1217 795q30 5 66.5 6.5t82.5 1.5q154 0 274 -46t202.5 -131.5t125.5 -206.5t43 -272q0 -170 -41 -294t-114 -205t-173.5 -120.5t-218.5 -39.5q-49 0 -88 3t-72.5 9t-64 15.5t-61.5 21.5v162q63 -23 126 -35t136 -12q375 0 375 495q0 121 -33.5 213.5t-95.5 155.5 t-149 95t-194 32q-75 0 -126 -12v-631h-187v1298h-645v-1298h-186v1462h1018v-667z"/>
<glyph glyph-name="uni04A7" horiz-adv-x="1720" unicode="ҧ" d="M1241 -502q-75 0 -128 15.5t-99 44.5v161q43 -24 96 -42.5t119 -18.5q118 0 176.5 97.5t58.5 307.5q0 212 -72 313t-229 101q-28 0 -59 -5t-62 -13v-459h-182v944h-504v-944h-182v1098h868v-473q58 12 121 12q102 0 191.5 -31t156 -100t104.5 -178.5t38 -266.5 q0 -150 -32 -256.5t-87.5 -174.5t-130.5 -100t-162 -32z"/>
<glyph glyph-name="uni04A8" horiz-adv-x="1516" unicode="Ҩ" d="M1194 670q0 84 -11 152.5t-32 118t-51.5 76.5t-69.5 27q-41 0 -71.5 -27.5t-51 -76.5t-31 -116.5t-10.5 -147.5q0 -72 12 -138.5t32.5 -125.5t47.5 -109.5t58 -89.5q42 33 75 82t56 108.5t35 127.5t12 139zM1391 678q0 -101 -19.5 -188.5t-52 -159.5t-75 -127.5 t-87.5 -91.5q54 -25 135 -25q37 0 72 7t66 18v-170q-29 -13 -68.5 -19t-77.5 -6q-166 0 -305 98q-50 -17 -112 -25.5t-122 -8.5q-150 0 -266 53t-194.5 149t-119 231t-40.5 300q0 181 38.5 324.5t117.5 243t200 152t287 52.5q66 0 126 -11t97 -26l-53 -156q-10 5 -30 10 t-44 9.5t-49.5 7t-46.5 2.5q-118 0 -202.5 -40.5t-138.5 -117.5t-79.5 -188t-25.5 -252q0 -148 30 -257t86 -181t136 -107t180 -35q48 0 86 7q-79 105 -124.5 244t-45.5 294q0 133 27.5 229.5t75.5 158t113.5 91t141.5 29.5q75 0 141.5 -28t115.5 -89.5t77.5 -160.5 t28.5 -240z"/>
<glyph glyph-name="uni04A9" horiz-adv-x="1266" unicode="ҩ" d="M1065 -59q-69 0 -137 21t-125 58q-40 -17 -89 -28.5t-120 -11.5q-117 0 -206.5 43.5t-150.5 119t-92.5 177.5t-31.5 219q0 131 30 238t90 182.5t150 117t211 41.5q66 0 107 -8t67 -14l-41 -150q-19 5 -56 13t-79 8q-84 0 -140 -29t-89.5 -84.5t-47.5 -135.5t-14 -183 q0 -89 15 -163t48.5 -127.5t88.5 -83.5t135 -30q37 0 62 4t28 6q-57 66 -94 156t-37 209q0 94 24.5 162t67 112.5t99.5 66t122 21.5q64 0 119.5 -19.5t96.5 -62.5t64 -112t23 -168q0 -70 -15 -130t-41 -109.5t-60.5 -88t-73.5 -65.5q20 -10 47.5 -16.5t56.5 -6.5 q26 0 54.5 3t56.5 11v-147q-25 -9 -58 -12.5t-65 -3.5zM733 500q0 -53 10 -99t26 -83.5t37 -66t42 -46.5q57 40 93 115t36 182q0 103 -28 164t-89 61q-62 0 -94.5 -61t-32.5 -166z"/>
<glyph glyph-name="uni04AA" horiz-adv-x="1235" unicode="Ҫ" d="M793 1319q-107 0 -194 -40.5t-148.5 -116.5t-95 -185t-33.5 -246q0 -141 29.5 -250.5t88.5 -184.5t147 -114t206 -39q89 0 169 17.5t158 40.5v-162q-39 -15 -78 -26.5t-81.5 -18.5t-91 -10.5t-107.5 -3.5q-164 0 -284 54t-198.5 153t-116.5 238t-38 308q0 166 43.5 304 t128 237t209.5 154t287 55q108 0 206 -22t177 -64l-78 -156q-63 32 -137 55t-168 23zM778 -238q0 105 -139 238h129q26 -19 54.5 -45t52 -58t38.5 -69.5t15 -79.5q0 -90 -50.5 -142t-150.5 -52q-29 0 -61 4t-58 12v113q14 -4 36.5 -6.5t47.5 -2.5q34 0 60 21.5t26 66.5z"/>
<glyph glyph-name="uni04AB" horiz-adv-x="948" unicode="ҫ" d="M594 -20q-101 0 -189 31.5t-153 100t-102 175t-37 256.5q0 157 38 266.5t104.5 178t155.5 99.5t191 31q78 0 152.5 -17t124.5 -42l-54 -154q-23 10 -51 19.5t-58 17t-59 12t-55 4.5q-157 0 -229 -100.5t-72 -312.5q0 -211 72.5 -308.5t220.5 -97.5q81 0 146.5 18.5 t119.5 43.5v-162q-54 -29 -115.5 -44t-150.5 -15zM588 -238q0 105 -139 238h129q26 -19 54.5 -45t52 -58t38.5 -69.5t15 -79.5q0 -90 -50.5 -142t-150.5 -52q-29 0 -61 4t-58 12v113q14 -4 36.5 -6.5t47.5 -2.5q34 0 60 21.5t26 66.5z"/>
<glyph glyph-name="uni04AC" horiz-adv-x="1063" unicode="Ҭ" d="M625 166h176v-551h-176v385h-187v1298h-418v164h1022v-164h-417v-1132z"/>
<glyph glyph-name="uni04AD" horiz-adv-x="903" unicode="ҭ" d="M360 0v944h-319v154h821v-154h-319v-790h159v-535h-182v381h-160z"/>
<glyph glyph-name="uni04AE" horiz-adv-x="1079" unicode="Ү" d="M539 723l340 739h200l-446 -893v-569h-187v559l-446 903h203z"/>
<glyph glyph-name="uni04AF" horiz-adv-x="981" unicode="ү" d="M582 -492h-183v488l-399 1102h188l199 -561q16 -46 32 -96t29.5 -97t23.5 -86.5t15 -64.5h7q4 25 14.5 64.5t24 86.5t29.5 97t32 96l199 561h188l-399 -1102v-488z"/>
<glyph glyph-name="uni04B0" horiz-adv-x="1079" unicode="Ұ" d="M539 723l340 739h200l-446 -893v-61h295v-164h-295v-344h-187v344h-294v164h294v51l-446 903h203z"/>
<glyph glyph-name="uni04B1" horiz-adv-x="981" unicode="ұ" d="M582 -137v-355h-183v355h-266v137h264l-397 1098h188l199 -561q16 -46 32 -96t29.5 -97t23.5 -86.5t15 -64.5h7q4 25 14.5 64.5t24 86.5t29.5 97t32 96l199 561h188l-399 -1098h266v-137h-266z"/>
<glyph glyph-name="uni04B2" horiz-adv-x="1235" unicode="Ҳ" d="M1022 166h182v-551h-176v385h-119l-354 635l-367 -635h-188l453 764l-422 698h198l332 -559l334 559h190l-421 -692z"/>
<glyph glyph-name="uni04B3" horiz-adv-x="1085" unicode="ҳ" d="M408 563l-353 535h207l250 -410l250 410h207l-355 -535l271 -409h170v-535h-174v381h-101l-268 436l-270 -436h-207z"/>
<glyph glyph-name="uni04B4" horiz-adv-x="1673" unicode="Ҵ" d="M625 166h645v1296h186v-1296h176v-551h-176v385h-1018v1298h-418v164h1022v-164h-417v-1132z"/>
<glyph glyph-name="uni04B5" horiz-adv-x="1419" unicode="ҵ" d="M1389 -381h-183v381h-846v944h-319v154h821v-154h-319v-790h504v944h182v-944h160v-535z"/>
<glyph glyph-name="uni04B6" horiz-adv-x="1352" unicode="Ҷ" d="M1329 166v-551h-176v385h-186v598q-58 -22 -110.5 -39t-102 -28t-98 -17t-97.5 -6q-93 0 -166 24.5t-123.5 71.5t-77 116.5t-26.5 158.5v583h186v-559q0 -115 52.5 -173t175.5 -58q45 0 90 5t92 15t98 25t107 35v710h186v-1296h176z"/>
<glyph glyph-name="uni04B7" horiz-adv-x="1212" unicode="ҷ" d="M840 0v489q-44 -30 -84 -54t-82.5 -40t-89.5 -24.5t-105 -8.5q-78 0 -139 23.5t-102 65.5t-62.5 99.5t-21.5 125.5v422h182v-410q0 -174 184 -174q45 0 85 7.5t78 21.5t76.5 35.5t80.5 50.5v469h182v-944h160v-535h-183v381h-159z"/>
<glyph glyph-name="uni04B8" horiz-adv-x="1352" unicode="Ҹ" d="M592 508h-33q-93 0 -166 24.5t-123.5 71.5t-77 116.5t-26.5 158.5v583h186v-559q0 -115 52.5 -173t175.5 -58h12v344h133v-332q56 9 115 26t127 42v710h186v-1462h-186v598q-66 -26 -125.5 -44.5t-116.5 -29.5v-311h-133v295z"/>
<glyph glyph-name="uni04B9" horiz-adv-x="1196" unicode="ҹ" d="M526 362h-47q-78 0 -139 23.5t-102 65.5t-62.5 99.5t-21.5 125.5v422h182v-410q0 -174 184 -174h6v301h125v-283q47 14 92.5 38t96.5 59v469h182v-1098h-182v489q-50 -35 -94.5 -60.5t-94.5 -41.5v-256h-125v231z"/>
<glyph glyph-name="uni04BA" horiz-adv-x="1352" unicode="Һ" d="M199 1462h186v-598q115 45 212.5 67.5t195.5 22.5q93 0 166 -24.5t123.5 -71.5t77 -116t26.5 -158v-584h-187v559q0 115 -52 173.5t-175 58.5q-45 0 -90 -5t-92.5 -15t-98 -25t-106.5 -35v-711h-186v1462z"/>
<glyph glyph-name="uni04BB" horiz-adv-x="1196" unicode="һ" d="M860 0v410q0 174 -184 174q-45 0 -85 -7.5t-78 -21.5t-76.5 -36t-80.5 -50v-469h-182v1098h182v-490q44 31 84 54.5t82.5 39.5t89.5 24.5t105 8.5q78 0 139 -23.5t102 -65t62.5 -99t21.5 -125.5v-422h-182z"/>
<glyph glyph-name="uni04BC" horiz-adv-x="1655" unicode="Ҽ" d="M977 1321q-91 0 -165.5 -32.5t-129.5 -95.5t-87.5 -155.5t-39.5 -212.5h786q0 117 -18.5 209t-61.5 156t-112.5 97.5t-171.5 33.5zM358 825q10 154 55.5 276t123.5 207.5t188.5 131t251.5 45.5q153 0 260 -53.5t175 -152t99 -237t31 -309.5v-69h-987q7 -122 38.5 -219 t89.5 -164t142.5 -102.5t196.5 -35.5q128 0 231.5 22t194.5 54v-170q-42 -15 -87.5 -28t-98 -22t-114.5 -14t-138 -5q-152 0 -269.5 48.5t-199.5 138t-128 216t-55 281.5q-143 0 -220 58.5t-77 180.5q0 42 9 75t20 56h156q-6 -15 -13.5 -46t-7.5 -66q0 -97 103 -97h30z"/>
<glyph glyph-name="uni04BD" horiz-adv-x="1309" unicode="ҽ" d="M776 967q-114 0 -180.5 -78t-77.5 -227h492q0 68 -13.5 124.5t-42 96.5t-73 62t-105.5 22zM821 -20q-107 0 -196.5 35t-154.5 103t-102.5 167.5t-41.5 228.5q-133 2 -204 57.5t-71 169.5q0 39 9 70.5t18 52.5h149q-6 -14 -13 -43t-7 -63q0 -47 24.5 -71.5t73.5 -24.5h27 q14 108 52 192.5t96 143t134 89.5t166 31q99 0 178 -35.5t134 -100t84.5 -155t29.5 -200.5v-113h-692q5 -193 81.5 -284t227.5 -91q51 0 94.5 5t84 14.5t78.5 24t77 32.5v-162q-40 -19 -78.5 -33t-79 -23t-84 -13t-94.5 -4z"/>
<glyph glyph-name="uni04BE" horiz-adv-x="1655" unicode="Ҿ" d="M977 1321q-91 0 -165.5 -32.5t-129.5 -95.5t-87.5 -155.5t-39.5 -212.5h786q0 117 -18.5 209t-61.5 156t-112.5 97.5t-171.5 33.5zM358 825q10 154 55.5 276t123.5 207.5t188.5 131t251.5 45.5q153 0 260 -53.5t175 -152t99 -237t31 -309.5v-69h-987q7 -122 38.5 -219 t89.5 -164t142.5 -102.5t196.5 -35.5q128 0 231.5 22t194.5 54v-170q-37 -14 -76 -25.5t-83 -20t-94 -14t-108 -7.5v-367h-182v371q-128 16 -226 70.5t-167 142.5t-107.5 205.5t-46.5 259.5q-143 0 -220 58.5t-77 180.5q0 42 9 75t20 56h156q-6 -15 -13.5 -46t-7.5 -66 q0 -97 103 -97h30z"/>
<glyph glyph-name="uni04BF" horiz-adv-x="1309" unicode="ҿ" d="M776 967q-114 0 -180.5 -78t-77.5 -227h492q0 68 -13.5 124.5t-42 96.5t-73 62t-105.5 22zM1157 53q-66 -32 -130 -49.5t-140 -21.5v-363h-182v373q-84 17 -152.5 59t-118 108t-77.5 155t-31 200q-133 2 -204 57.5t-71 169.5q0 39 9 70.5t18 52.5h149q-6 -14 -13 -43 t-7 -63q0 -47 24.5 -71.5t73.5 -24.5h27q14 108 52 192.5t96 143t134 89.5t166 31q99 0 178 -35.5t134 -100t84.5 -155t29.5 -200.5v-113h-692q5 -193 81.5 -284t227.5 -91q51 0 94.5 5t84 14.5t78.5 24t77 32.5v-162z"/>
<glyph glyph-name="uni04C0" horiz-adv-x="694" unicode="Ӏ" d="M612 0h-530v102l172 41v1176l-172 41v102h530v-102l-172 -41v-1176l172 -41v-102z"/>
<glyph glyph-name="uni04C1" horiz-adv-x="1669" unicode="Ӂ" d="M549 754l-531 708h205l522 -708v708h179v-708l522 708h205l-531 -708l545 -754h-211l-530 741v-741h-179v741l-530 -741h-211zM1217 1897q-6 -78 -30.5 -137t-71 -99.5t-117 -61t-170.5 -20.5q-103 0 -173 19.5t-114 59.5t-64.5 99.5t-25.5 139.5h170q5 -57 18.5 -93.5 t38.5 -57t63 -28.5t91 -8q44 0 80.5 9.5t63.5 31t44 57.5t23 89h174z"/>
<glyph glyph-name="uni04C2" horiz-adv-x="1475" unicode="ӂ" d="M655 565v533h164v-533l416 533h197l-424 -533l462 -565h-206l-445 557v-557h-164v557l-444 -557h-207l463 565l-424 533h197zM1120 1559q-6 -78 -30.5 -137t-71 -99.5t-117 -61t-170.5 -20.5q-103 0 -173 19.5t-114 59.5t-64.5 99.5t-25.5 139.5h170q5 -57 18.5 -93.5 t38.5 -57t63 -28.5t91 -8q44 0 80.5 9.5t63.5 31t44 57.5t23 89h174z"/>
<glyph glyph-name="uni04C3" horiz-adv-x="1354" unicode="Ӄ" d="M582 623q-65 0 -111 -8.5t-86 -22.5v-592h-186v1462h186v-708l565 708h207l-559 -680h6q154 0 274 -42.5t202.5 -124t125.5 -199.5t43 -269q0 -170 -41 -294t-114 -205t-173.5 -120.5t-218.5 -39.5q-49 0 -88 3t-72.5 9t-64 15.5t-61.5 21.5v162q63 -23 126.5 -35 t135.5 -12q375 0 375 495q0 121 -33.5 210.5t-95.5 148.5t-149 88t-193 29z"/>
<glyph glyph-name="uni04C4" horiz-adv-x="1069" unicode="ӄ" d="M555 618q94 -5 175.5 -37t141.5 -98t94.5 -170t34.5 -252q0 -150 -31.5 -256.5t-87 -174.5t-130.5 -100t-162 -32q-76 0 -128.5 15.5t-99.5 44.5v161q44 -24 96.5 -42.5t119.5 -18.5q118 0 176.5 97.5t58.5 307.5q0 106 -17.5 181.5t-54.5 123.5t-94 70.5t-135 22.5 q-32 0 -74.5 -8t-83.5 -21v-432h-180v1098h180v-502l408 502h196z"/>
<glyph glyph-name="uni04C5" horiz-adv-x="1386" unicode="Ӆ" d="M985 0v1298h-379q-15 -113 -31 -235.5t-32.5 -240t-33 -223.5t-32.5 -187q-20 -103 -46.5 -184t-66 -136.5t-94.5 -85t-133 -29.5q-35 0 -72 7t-65 18v154q23 -13 52 -21t61 -8q48 0 79 31.5t52 80.5t34 107.5l25 112.5q12 57 28 157t35.5 231t41 288t43.5 327h720v-1296 h195l-143 -551h-217l165 385h-186z"/>
<glyph glyph-name="uni04C6" horiz-adv-x="1137" unicode="ӆ" d="M762 0v944h-258q-20 -259 -52 -441t-79.5 -297t-112.5 -167.5t-151 -52.5q-28 0 -52.5 3t-40.5 9v131q22 -6 50 -6q55 0 99.5 58.5t79 179t60 304t43.5 433.5h596v-944h182l-122 -535h-183l123 381h-182z"/>
<glyph glyph-name="uni04C7" horiz-adv-x="1436" unicode="Ӈ" d="M721 -512q-49 0 -88 3t-73 9t-64.5 15.5t-61.5 21.5v162q63 -23 126.5 -35t135.5 -12q187 0 286 120t99 367v543h-665v-682h-187v1462h187v-616h665v616h187v-1315q0 -170 -41 -294t-114 -205t-173.5 -120.5t-218.5 -39.5z"/>
<glyph glyph-name="uni04C8" horiz-adv-x="1257" unicode="ӈ" d="M672 -502q-76 0 -128.5 15.5t-99.5 44.5v161q44 -24 96.5 -42.5t118.5 -18.5q59 0 104.5 22.5t76 71t46 123.5t15.5 180v434h-545v-489h-182v1098h182v-455h545v455h182v-1037q0 -150 -31.5 -256.5t-87 -174.5t-130.5 -100t-162 -32z"/>
<glyph glyph-name="uni04C9" horiz-adv-x="1483" unicode="Ӊ" d="M1268 166h194l-143 -551h-217l166 385h-187v682h-665v-682h-187v1462h187v-616h665v616h187v-1296z"/>
<glyph glyph-name="uni04CA" horiz-adv-x="1276" unicode="ӊ" d="M901 0v489h-545v-489h-182v1098h182v-455h545v455h182v-944h183l-123 -535h-182l122 381h-182z"/>
<glyph glyph-name="uni04CB" horiz-adv-x="1352" unicode="Ӌ" d="M967 166v432q-58 -22 -110.5 -39t-102 -28t-98 -17t-97.5 -6q-93 0 -166 24.5t-123.5 71.5t-77 116.5t-26.5 158.5v583h186v-559q0 -115 52.5 -173t175.5 -58q45 0 90 5t92 15t98 25t107 35v710h186v-1462h-186v-385h-176v551h176z"/>
<glyph glyph-name="uni04CC" horiz-adv-x="1196" unicode="ӌ" d="M840 489q-44 -30 -84 -54t-82.5 -40t-89.5 -24.5t-105 -8.5q-78 0 -139 23.5t-102 65.5t-62.5 99.5t-21.5 125.5v422h182v-410q0 -174 184 -174q45 0 85 7.5t78 21.5t76.5 35.5t80.5 50.5v469h182v-1098h-160v-381h-182v535h160v335z"/>
<glyph glyph-name="uni04CD" horiz-adv-x="1798" unicode="Ӎ" d="M803 0l-443 1280h-8q5 -74 9 -147q4 -63 7 -132.5t3 -126.5v-874h-172v1462h276l412 -1192h6l414 1192h276v-1296h195l-144 -551h-217l166 385h-186v887q0 25 0.5 55.5t1.5 63t2 65.5t3 63q3 71 7 144h-8l-447 -1278h-153z"/>
<glyph glyph-name="uni04CE" horiz-adv-x="1489" unicode="ӎ" d="M1135 0v897q-6 -21 -14.5 -49.5t-18.5 -58t-19 -56.5t-16 -45l-264 -688h-135l-265 688q-5 13 -13.5 37.5t-18.5 54t-19 60.5t-16 57v-897h-162v1098h221l267 -697q13 -34 24 -67.5t20.5 -63.5t16.5 -55t12 -41q6 17 13 41.5t16.5 54t20.5 62t24 65.5l270 701h217v-944 h183l-123 -535h-182l122 381h-161z"/>
<glyph glyph-name="uni04CF" horiz-adv-x="694" unicode="ӏ" d="M612 0h-530v102l172 41v1176l-172 41v102h530v-102l-172 -41v-1176l172 -41v-102z"/>
<glyph glyph-name="uni04D0" horiz-adv-x="1245" unicode="Ӑ" d="M836 618l-148 424q-6 18 -14.5 44t-17.5 56t-18 62.5t-17 63.5q-7 -31 -16 -64t-18 -63.5t-17.5 -56t-14.5 -42.5l-145 -424h426zM1055 0l-160 453h-545l-162 -453h-188l537 1468h170l538 -1468h-190zM1006 1897q-6 -78 -30.5 -137t-71 -99.5t-117 -61t-170.5 -20.5 q-103 0 -173 19.5t-114 59.5t-64.5 99.5t-25.5 139.5h170q5 -57 18.5 -93.5t38.5 -57t63 -28.5t91 -8q44 0 80.5 9.5t63.5 31t44 57.5t23 89h174z"/>
<glyph glyph-name="uni04D1" horiz-adv-x="1087" unicode="ӑ" d="M459 127q61 0 113 19t90 57.5t59.5 97t21.5 137.5v99l-143 -7q-90 -4 -151 -20t-97.5 -44.5t-52.5 -69t-16 -91.5q0 -92 48.5 -135t127.5 -43zM793 0l-37 152h-8q-33 -45 -66 -77.5t-72 -53.5t-87 -31t-111 -10q-69 0 -127 19.5t-100.5 60t-66.5 102t-24 145.5 q0 164 115.5 252t351.5 96l184 7v69q0 67 -14.5 112t-42 72.5t-68 39.5t-92.5 12q-83 0 -154.5 -24t-137.5 -58l-64 137q74 40 165 68t191 28q102 0 176.5 -20.5t123 -65t72.5 -113.5t24 -167v-752h-131zM929 1559q-6 -78 -30.5 -137t-71 -99.5t-117 -61t-170.5 -20.5 q-103 0 -173 19.5t-114 59.5t-64.5 99.5t-25.5 139.5h170q5 -57 18.5 -93.5t38.5 -57t63 -28.5t91 -8q44 0 80.5 9.5t63.5 31t44 57.5t23 89h174z"/>
<glyph glyph-name="uni04D2" horiz-adv-x="1245" unicode="Ӓ" d="M836 618l-148 424q-6 18 -14.5 44t-17.5 56t-18 62.5t-17 63.5q-7 -31 -16 -64t-18 -63.5t-17.5 -56t-14.5 -42.5l-145 -424h426zM1055 0l-160 453h-545l-162 -453h-188l537 1468h170l538 -1468h-190zM715 1733q0 54 28 78t68 24q19 0 36.5 -6t30.5 -18.5t21 -31.5t8 -46 q0 -53 -29 -78t-67 -25q-40 0 -68 25t-28 78zM340 1733q0 54 28 78t68 24q39 0 68 -24.5t29 -77.5t-29 -78t-68 -25q-40 0 -68 25t-28 78z"/>
<glyph glyph-name="uni04D3" horiz-adv-x="1087" unicode="ӓ" d="M459 127q61 0 113 19t90 57.5t59.5 97t21.5 137.5v99l-143 -7q-90 -4 -151 -20t-97.5 -44.5t-52.5 -69t-16 -91.5q0 -92 48.5 -135t127.5 -43zM793 0l-37 152h-8q-33 -45 -66 -77.5t-72 -53.5t-87 -31t-111 -10q-69 0 -127 19.5t-100.5 60t-66.5 102t-24 145.5 q0 164 115.5 252t351.5 96l184 7v69q0 67 -14.5 112t-42 72.5t-68 39.5t-92.5 12q-83 0 -154.5 -24t-137.5 -58l-64 137q74 40 165 68t191 28q102 0 176.5 -20.5t123 -65t72.5 -113.5t24 -167v-752h-131zM648 1395q0 54 28 78t68 24q19 0 36.5 -6t30.5 -18.5t21 -31.5t8 -46 q0 -53 -29 -78t-67 -25q-40 0 -68 25t-28 78zM273 1395q0 54 28 78t68 24q39 0 68 -24.5t29 -77.5t-29 -78t-68 -25q-40 0 -68 25t-28 78z"/>
<glyph glyph-name="uni04D4" horiz-adv-x="1745" unicode="Ӕ" d="M459 618h403v680h-108zM1622 0h-760v453h-475l-203 -453h-186l655 1462h969v-164h-573v-452h534v-162h-534v-520h573v-164z"/>
<glyph glyph-name="uni04D5" horiz-adv-x="1706" unicode="ӕ" d="M1184 967q-110 0 -173.5 -78t-74.5 -227h471q0 68 -13 124.5t-40.5 96.5t-69.5 62t-100 22zM283 305q0 -92 48.5 -135t127.5 -43q61 0 113 19t90 57.5t59.5 97t21.5 137.5v99l-143 -7q-90 -4 -151 -20t-97.5 -44.5t-52.5 -69t-16 -91.5zM94 307q0 164 115.5 252t351.5 96 l184 7v69q0 67 -14.5 112t-42 72.5t-68 39.5t-92.5 12q-83 0 -154.5 -24t-137.5 -58l-64 137q74 40 165 68t191 28q131 0 214 -42.5t126 -135.5q51 85 134 131.5t186 46.5q97 0 174 -35.5t131 -100t82.5 -155t28.5 -200.5v-113h-672q5 -193 78.5 -284t220.5 -91q49 0 91.5 5 t81.5 14.5t76 24t74 32.5v-162q-39 -19 -76.5 -33t-77 -23t-82 -13t-91.5 -4q-138 0 -239 57t-163 172q-34 -54 -72 -96.5t-85.5 -72t-105.5 -45t-132 -15.5q-71 0 -132.5 19.5t-106.5 60t-71 102t-26 145.5z"/>
<glyph glyph-name="uni04D6" horiz-adv-x="1081" unicode="Ӗ" d="M958 0h-759v1462h759v-164h-573v-452h535v-162h-535v-520h573v-164zM968 1897q-6 -78 -30.5 -137t-71 -99.5t-117 -61t-170.5 -20.5q-103 0 -173 19.5t-114 59.5t-64.5 99.5t-25.5 139.5h170q5 -57 18.5 -93.5t38.5 -57t63 -28.5t91 -8q44 0 80.5 9.5t63.5 31t44 57.5 t23 89h174z"/>
<glyph glyph-name="uni04D7" horiz-adv-x="1096" unicode="ӗ" d="M563 967q-114 0 -180.5 -78t-77.5 -227h492q0 68 -13.5 124.5t-42 96.5t-72.5 62t-106 22zM608 -20q-110 0 -201 37t-156.5 108t-101.5 176t-36 240q0 136 33 243t93 181.5t143.5 113.5t184.5 39q99 0 178 -35.5t134 -100t84.5 -155t29.5 -200.5v-113h-692 q5 -193 81.5 -284t227.5 -91q51 0 94.5 5t84 14.5t78.5 24t77 32.5v-162q-40 -19 -78.5 -33t-79 -23t-84 -13t-94.5 -4zM951 1559q-6 -78 -30.5 -137t-71 -99.5t-117 -61t-170.5 -20.5q-103 0 -173 19.5t-114 59.5t-64.5 99.5t-25.5 139.5h170q5 -57 18.5 -93.5t38.5 -57 t63 -28.5t91 -8q44 0 80.5 9.5t63.5 31t44 57.5t23 89h174z"/>
<glyph glyph-name="uni04D8" horiz-adv-x="1423" unicode="Ә" d="M678 143q91 0 165.5 32.5t129 95.5t87.5 155.5t40 212.5h-787q0 -117 19 -209t61.5 -155.5t112.5 -97.5t172 -34zM633 1321q-128 0 -231.5 -22t-194.5 -54v170q42 15 87 28t97.5 22.5t115 14.5t138.5 5q160 0 282 -54t204.5 -153t124.5 -238.5t42 -310.5 q0 -174 -40.5 -312.5t-119 -235.5t-194.5 -149t-266 -52q-153 0 -260.5 53.5t-175 151.5t-98.5 236.5t-31 309.5v70h987q-7 122 -39 218.5t-89.5 163.5t-142 102.5t-196.5 35.5z"/>
<glyph glyph-name="uni04D9" horiz-adv-x="1096" unicode="ә" d="M532 131q115 0 181.5 78t77.5 227h-492q0 -68 13.5 -124.5t42 -96.5t72.5 -62t105 -22zM487 1118q110 0 201 -37t156.5 -108t102 -176t36.5 -240q0 -136 -33 -243t-93 -181.5t-143.5 -113.5t-185.5 -39q-99 0 -178 35.5t-134 100t-84.5 155t-29.5 200.5v113h693 q-5 192 -82 283t-228 91q-51 0 -94.5 -5t-83.5 -14.5t-78 -23.5t-77 -32v161q40 19 78 33t78.5 23t84 13.5t94.5 4.5z"/>
<glyph glyph-name="uni04DA" horiz-adv-x="1423" unicode="Ӛ" d="M678 143q91 0 165.5 32.5t129 95.5t87.5 155.5t40 212.5h-787q0 -117 19 -209t61.5 -155.5t112.5 -97.5t172 -34zM633 1321q-128 0 -231.5 -22t-194.5 -54v170q42 15 87 28t97.5 22.5t115 14.5t138.5 5q160 0 282 -54t204.5 -153t124.5 -238.5t42 -310.5 q0 -174 -40.5 -312.5t-119 -235.5t-194.5 -149t-266 -52q-153 0 -260.5 53.5t-175 151.5t-98.5 236.5t-31 309.5v70h987q-7 122 -39 218.5t-89.5 163.5t-142 102.5t-196.5 35.5zM752 1733q0 54 28 78t68 24q19 0 36.5 -6t30.5 -18.5t21 -31.5t8 -46q0 -53 -29 -78t-67 -25 q-40 0 -68 25t-28 78zM377 1733q0 54 28 78t68 24q39 0 68 -24.5t29 -77.5t-29 -78t-68 -25q-40 0 -68 25t-28 78z"/>
<glyph glyph-name="uni04DB" horiz-adv-x="1096" unicode="ӛ" d="M532 131q115 0 181.5 78t77.5 227h-492q0 -68 13.5 -124.5t42 -96.5t72.5 -62t105 -22zM487 1118q110 0 201 -37t156.5 -108t102 -176t36.5 -240q0 -136 -33 -243t-93 -181.5t-143.5 -113.5t-185.5 -39q-99 0 -178 35.5t-134 100t-84.5 155t-29.5 200.5v113h693 q-5 192 -82 283t-228 91q-51 0 -94.5 -5t-83.5 -14.5t-78 -23.5t-77 -32v161q40 19 78 33t78.5 23t84 13.5t94.5 4.5zM622 1395q0 54 28 78t68 24q19 0 36.5 -6t30.5 -18.5t21 -31.5t8 -46q0 -53 -29 -78t-67 -25q-40 0 -68 25t-28 78zM247 1395q0 54 28 78t68 24 q39 0 68 -24.5t29 -77.5t-29 -78t-68 -25q-40 0 -68 25t-28 78z"/>
<glyph glyph-name="uni04DC" horiz-adv-x="1669" unicode="Ӝ" d="M549 754l-531 708h205l522 -708v708h179v-708l522 708h205l-531 -708l545 -754h-211l-530 741v-741h-179v741l-530 -741h-211zM926 1733q0 54 28 78t68 24q19 0 36.5 -6t30.5 -18.5t21 -31.5t8 -46q0 -53 -29 -78t-67 -25q-40 0 -68 25t-28 78zM551 1733q0 54 28 78 t68 24q39 0 68 -24.5t29 -77.5t-29 -78t-68 -25q-40 0 -68 25t-28 78z"/>
<glyph glyph-name="uni04DD" horiz-adv-x="1475" unicode="ӝ" d="M655 565v533h164v-533l416 533h197l-424 -533l462 -565h-206l-445 557v-557h-164v557l-444 -557h-207l463 565l-424 533h197zM827 1395q0 54 28 78t68 24q19 0 36.5 -6t30.5 -18.5t21 -31.5t8 -46q0 -53 -29 -78t-67 -25q-40 0 -68 25t-28 78zM452 1395q0 54 28 78t68 24 q39 0 68 -24.5t29 -77.5t-29 -78t-68 -25q-40 0 -68 25t-28 78z"/>
<glyph glyph-name="uni04DE" horiz-adv-x="1116" unicode="Ӟ" d="M977 1120q0 -73 -25.5 -133t-71 -104t-108 -72.5t-137.5 -40.5v-6q87 -11 156 -39.5t116 -73t72 -104t25 -131.5q0 -96 -33.5 -176t-101.5 -138t-170.5 -90t-239.5 -32q-110 0 -206 17t-181 62v170q43 -23 91 -41t97.5 -30t99 -18.5t95.5 -6.5q178 0 266 74t88 209 t-103.5 199.5t-289.5 64.5h-191v151h176q92 0 163 19.5t119.5 55.5t73.5 86.5t25 111.5q0 54 -18.5 95.5t-52.5 70.5t-81.5 44t-105.5 15q-110 0 -194.5 -33.5t-159.5 -87.5l-92 125q38 31 87 58t107 47.5t123.5 32.5t136.5 12q109 0 192 -27t139.5 -75.5t85 -115 t28.5 -145.5zM617 1733q0 54 28 78t68 24q19 0 36.5 -6t30.5 -18.5t21 -31.5t8 -46q0 -53 -29 -78t-67 -25q-40 0 -68 25t-28 78zM242 1733q0 54 28 78t68 24q39 0 68 -24.5t29 -77.5t-29 -78t-68 -25q-40 0 -68 25t-28 78z"/>
<glyph glyph-name="uni04DF" horiz-adv-x="942" unicode="ӟ" d="M369 647q61 0 111 9t86 28.5t55.5 51.5t19.5 77q0 77 -57.5 115.5t-165.5 38.5q-71 0 -135.5 -19t-139.5 -53l-63 147q40 20 78.5 34t79.5 23.5t86 14t98 4.5q86 0 158 -19t124.5 -56t81.5 -91.5t29 -124.5q0 -50 -14 -88.5t-39.5 -68t-60.5 -50t-78 -34.5v-11 q44 -14 85 -36t72.5 -55t50.5 -78t19 -107q0 -67 -26.5 -125.5t-80.5 -101.5t-137 -67.5t-196 -24.5q-109 0 -196.5 17.5t-145.5 51.5v166q31 -16 69 -31.5t81.5 -27.5t92 -19.5t99.5 -7.5q55 0 103 9t83 30t55.5 55.5t20.5 85.5q0 94 -66.5 139.5t-204.5 45.5h-129v153h97z M511 1395q0 54 28 78t68 24q19 0 36.5 -6t30.5 -18.5t21 -31.5t8 -46q0 -53 -29 -78t-67 -25q-40 0 -68 25t-28 78zM136 1395q0 54 28 78t68 24q39 0 68 -24.5t29 -77.5t-29 -78t-68 -25q-40 0 -68 25t-28 78z"/>
<glyph glyph-name="uni04E0" horiz-adv-x="1116" unicode="Ӡ" d="M500 827q115 -5 208 -31.5t159 -76.5t101.5 -125.5t35.5 -177.5q0 -96 -33.5 -176t-101.5 -138t-170.5 -90t-239.5 -32q-110 0 -206 17t-181 62v170q43 -23 91 -41t97.5 -30t99 -18.5t95.5 -6.5q178 0 266 74t88 209t-103.5 199.5t-289.5 64.5h-123v151l422 465h-602v166 h829v-145z"/>
<glyph glyph-name="uni04E1" horiz-adv-x="952" unicode="ӡ" d="M424 469q95 -7 179 -39.5t146.5 -91t99 -141.5t36.5 -191q0 -110 -35.5 -201.5t-101.5 -157.5t-159 -102.5t-208 -36.5t-205.5 18t-148.5 52v166q31 -16 70 -31.5t84.5 -27.5t96.5 -19.5t105 -7.5q71 0 130.5 23t102.5 66.5t67 106t24 140.5q0 86 -27.5 148.5t-77 103.5 t-119 60.5t-153.5 19.5h-109v125l402 493h-570v154h774v-133z"/>
<glyph glyph-name="uni04E2" horiz-adv-x="1493" unicode="Ӣ" d="M201 1462h174v-800q0 -26 -0.5 -57t-1.5 -64.5l-2 -67t-3 -65.5q-4 -74 -8 -150h7l716 1204h213v-1462h-172v793q0 57 3 128t7 136q4 76 9 153h-8l-719 -1210h-215v1462zM459 1729h575v-150h-575v150z"/>
<glyph glyph-name="uni04E3" horiz-adv-x="1257" unicode="ӣ" d="M346 1098v-668l-12 -252l516 920h233v-1098h-172v647l11 271l-514 -918h-234v1098h172zM340 1391h575v-150h-575v150z"/>
<glyph glyph-name="uni04E4" horiz-adv-x="1493" unicode="Ӥ" d="M201 1462h174v-800q0 -26 -0.5 -57t-1.5 -64.5l-2 -67t-3 -65.5q-4 -74 -8 -150h7l716 1204h213v-1462h-172v793q0 57 3 128t7 136q4 76 9 153h-8l-719 -1210h-215v1462zM838 1733q0 54 28 78t68 24q19 0 36.5 -6t30.5 -18.5t21 -31.5t8 -46q0 -53 -29 -78t-67 -25 q-40 0 -68 25t-28 78zM463 1733q0 54 28 78t68 24q39 0 68 -24.5t29 -77.5t-29 -78t-68 -25q-40 0 -68 25t-28 78z"/>
<glyph glyph-name="uni04E5" horiz-adv-x="1257" unicode="ӥ" d="M346 1098v-668l-12 -252l516 920h233v-1098h-172v647l11 271l-514 -918h-234v1098h172zM719 1395q0 54 28 78t68 24q19 0 36.5 -6t30.5 -18.5t21 -31.5t8 -46q0 -53 -29 -78t-67 -25q-40 0 -68 25t-28 78zM344 1395q0 54 28 78t68 24q39 0 68 -24.5t29 -77.5t-29 -78 t-68 -25q-40 0 -68 25t-28 78z"/>
<glyph glyph-name="uni04E6" horiz-adv-x="1520" unicode="Ӧ" d="M322 733q0 -137 26 -246.5t79.5 -186t136 -117t196.5 -40.5t196.5 40.5t136 117t78.5 186t25 246.5q0 138 -25 247t-78 184.5t-135 116t-196 40.5t-197 -40.5t-137 -116t-80 -184.5t-26 -247zM1393 733q0 -169 -40.5 -308t-120.5 -238t-198.5 -153t-273.5 -54 q-163 0 -282.5 54t-198 153t-116.5 238.5t-38 309.5t38 308.5t117 236.5t199 151.5t283 53.5q155 0 272.5 -53.5t197.5 -152t120.5 -237t40.5 -309.5zM852 1733q0 54 28 78t68 24q19 0 36.5 -6t30.5 -18.5t21 -31.5t8 -46q0 -53 -29 -78t-67 -25q-40 0 -68 25t-28 78z M477 1733q0 54 28 78t68 24q39 0 68 -24.5t29 -77.5t-29 -78t-68 -25q-40 0 -68 25t-28 78z"/>
<glyph glyph-name="uni04E7" horiz-adv-x="1182" unicode="ӧ" d="M301 551q0 -209 68.5 -314.5t222.5 -105.5t221.5 105.5t67.5 314.5t-68.5 312.5t-222.5 103.5t-221.5 -103.5t-67.5 -312.5zM1069 551q0 -137 -33.5 -243.5t-96 -179t-151.5 -110.5t-200 -38q-103 0 -190 38t-150.5 110.5t-99 179t-35.5 243.5q0 136 33.5 241.5t95.5 178 t151.5 110t200.5 37.5q103 0 190 -37.5t150.5 -110t99 -178t35.5 -241.5zM675 1395q0 54 28 78t68 24q19 0 36.5 -6t30.5 -18.5t21 -31.5t8 -46q0 -53 -29 -78t-67 -25q-40 0 -68 25t-28 78zM300 1395q0 54 28 78t68 24q39 0 68 -24.5t29 -77.5t-29 -78t-68 -25 q-40 0 -68 25t-28 78z"/>
<glyph glyph-name="uni04E8" horiz-adv-x="1520" unicode="Ө" d="M762 1321q-105 0 -183 -33.5t-132 -97.5t-84.5 -156t-38.5 -209h868q-8 117 -37.5 209t-82 156t-130 97.5t-180.5 33.5zM760 143q106 0 185 35.5t132.5 102.5t82 164t34.5 219h-870q6 -122 35 -219t82.5 -164t132.5 -102.5t186 -35.5zM1393 733q0 -170 -40.5 -308.5 t-120.5 -237.5t-198.5 -153t-273.5 -54q-163 0 -282.5 54t-198 153t-116.5 238.5t-38 309.5t38 308.5t117 236.5t198.5 151.5t283.5 53.5q154 0 272 -53.5t198 -152t120.5 -237t40.5 -309.5z"/>
<glyph glyph-name="uni04E9" horiz-adv-x="1182" unicode="ө" d="M590 967q-137 0 -205 -81t-82 -245h574q-13 164 -82 245t-205 81zM592 131q141 0 209 89t78 267h-578q9 -178 79 -267t212 -89zM1069 551q0 -137 -33.5 -243.5t-96 -179t-151.5 -110.5t-200 -38q-103 0 -190 38t-150.5 110.5t-99 179t-35.5 243.5q0 136 33.5 241.5 t95.5 178t151.5 110t200.5 37.5q103 0 190 -37.5t150.5 -110t99 -178t35.5 -241.5z"/>
<glyph glyph-name="uni04EA" horiz-adv-x="1520" unicode="Ӫ" d="M762 1321q-105 0 -183 -33.5t-132 -97.5t-84.5 -156t-38.5 -209h868q-8 117 -37.5 209t-82 156t-130 97.5t-180.5 33.5zM760 143q106 0 185 35.5t132.5 102.5t82 164t34.5 219h-870q6 -122 35 -219t82.5 -164t132.5 -102.5t186 -35.5zM1393 733q0 -170 -40.5 -308.5 t-120.5 -237.5t-198.5 -153t-273.5 -54q-163 0 -282.5 54t-198 153t-116.5 238.5t-38 309.5t38 308.5t117 236.5t198.5 151.5t283.5 53.5q154 0 272 -53.5t198 -152t120.5 -237t40.5 -309.5zM852 1733q0 54 28 78t68 24q19 0 36.5 -6t30.5 -18.5t21 -31.5t8 -46 q0 -53 -29 -78t-67 -25q-40 0 -68 25t-28 78zM477 1733q0 54 28 78t68 24q39 0 68 -24.5t29 -77.5t-29 -78t-68 -25q-40 0 -68 25t-28 78z"/>
<glyph glyph-name="uni04EB" horiz-adv-x="1182" unicode="ӫ" d="M590 967q-137 0 -205 -81t-82 -245h574q-13 164 -82 245t-205 81zM592 131q141 0 209 89t78 267h-578q9 -178 79 -267t212 -89zM1069 551q0 -137 -33.5 -243.5t-96 -179t-151.5 -110.5t-200 -38q-103 0 -190 38t-150.5 110.5t-99 179t-35.5 243.5q0 136 33.5 241.5 t95.5 178t151.5 110t200.5 37.5q103 0 190 -37.5t150.5 -110t99 -178t35.5 -241.5zM682 1395q0 54 28 78t68 24q19 0 36.5 -6t30.5 -18.5t21 -31.5t8 -46q0 -53 -29 -78t-67 -25q-40 0 -68 25t-28 78zM307 1395q0 54 28 78t68 24q39 0 68 -24.5t29 -77.5t-29 -78t-68 -25 q-40 0 -68 25t-28 78z"/>
<glyph glyph-name="uni04EC" horiz-adv-x="1217" unicode="Ӭ" d="M442 1319q-94 0 -168 -23t-137 -55l-78 156q79 42 177 64t206 22q162 0 284 -54.5t203 -151t122 -229.5t41 -290q0 -179 -41 -323t-123.5 -245t-206 -155.5t-287.5 -54.5q-58 0 -106.5 3.5t-91.5 10.5t-82 18.5t-78 26.5v162q78 -23 158 -40.5t169 -17.5 q237 0 360.5 139.5t129.5 401.5h-629v162h625q-9 111 -44.5 199t-93 149t-136 93t-173.5 32zM577 1733q0 54 28 78t68 24q19 0 36.5 -6t30.5 -18.5t21 -31.5t8 -46q0 -53 -29 -78t-67 -25q-40 0 -68 25t-28 78zM202 1733q0 54 28 78t68 24q39 0 68 -24.5t29 -77.5t-29 -78 t-68 -25q-40 0 -68 25t-28 78z"/>
<glyph glyph-name="uni04ED" horiz-adv-x="946" unicode="ӭ" d="M322 -20q-89 0 -151 15t-116 44v162q54 -25 119.5 -43.5t147.5 -18.5q73 0 131 20t99 62t65 108t28 158h-477v154h475q-13 166 -86 241.5t-213 75.5q-25 0 -54.5 -4.5t-59.5 -12t-58 -17t-51 -19.5l-53 154q24 12 56 23t68 19t75 12.5t77 4.5q102 0 191.5 -31 t155.5 -99.5t104.5 -178t38.5 -266.5q0 -146 -40.5 -252t-110.5 -175t-163 -102.5t-198 -33.5zM482 1395q0 54 28 78t68 24q19 0 36.5 -6t30.5 -18.5t21 -31.5t8 -46q0 -53 -29 -78t-67 -25q-40 0 -68 25t-28 78zM107 1395q0 54 28 78t68 24q39 0 68 -24.5t29 -77.5t-29 -78 t-68 -25q-40 0 -68 25t-28 78z"/>
<glyph glyph-name="uni04EE" horiz-adv-x="1198" unicode="Ӯ" d="M1198 1462l-428 -1030q-38 -93 -79.5 -175t-97.5 -143.5t-134 -97.5t-189 -36q-51 0 -96 7.5t-82 22.5v185q37 -20 81.5 -32.5t96.5 -12.5q53 0 94 11.5t74 38t61 69.5t56 106l-530 1087h204l383 -809q5 -10 10 -22t9.5 -25t9 -24.5t8.5 -20.5h2q3 9 8.5 24.5t11 32 t11 31t8.5 21.5l311 792h197zM322 1729h575v-150h-575v150z"/>
<glyph glyph-name="uni04EF" horiz-adv-x="1001" unicode="ӯ" d="M10 1098h189l215 -613q14 -40 28.5 -84t27 -88t21.5 -85t13 -76h6q5 25 16 68t24.5 91.5t28 95.5t25.5 80l199 611h188l-434 -1241q-28 -81 -60.5 -145.5t-75.5 -109.5t-101 -69.5t-138 -24.5q-52 0 -90 5.5t-65 11.5v145q21 -5 53 -8.5t67 -3.5q48 0 83 11.5t61 33.5 t44.5 54t33.5 73l57 160zM214 1391h575v-150h-575v150z"/>
<glyph glyph-name="uni04F0" horiz-adv-x="1198" unicode="Ӱ" d="M1198 1462l-428 -1030q-38 -93 -79.5 -175t-97.5 -143.5t-134 -97.5t-189 -36q-51 0 -96 7.5t-82 22.5v185q37 -20 81.5 -32.5t96.5 -12.5q53 0 94 11.5t74 38t61 69.5t56 106l-530 1087h204l383 -809q5 -10 10 -22t9.5 -25t9 -24.5t8.5 -20.5h2q3 9 8.5 24.5t11 32 t11 31t8.5 21.5l311 792h197zM700 1733q0 54 28 78t68 24q19 0 36.5 -6t30.5 -18.5t21 -31.5t8 -46q0 -53 -29 -78t-67 -25q-40 0 -68 25t-28 78zM325 1733q0 54 28 78t68 24q39 0 68 -24.5t29 -77.5t-29 -78t-68 -25q-40 0 -68 25t-28 78z"/>
<glyph glyph-name="uni04F1" horiz-adv-x="1001" unicode="ӱ" d="M10 1098h189l215 -613q14 -40 28.5 -84t27 -88t21.5 -85t13 -76h6q5 25 16 68t24.5 91.5t28 95.5t25.5 80l199 611h188l-434 -1241q-28 -81 -60.5 -145.5t-75.5 -109.5t-101 -69.5t-138 -24.5q-52 0 -90 5.5t-65 11.5v145q21 -5 53 -8.5t67 -3.5q48 0 83 11.5t61 33.5 t44.5 54t33.5 73l57 160zM593 1395q0 54 28 78t68 24q19 0 36.5 -6t30.5 -18.5t21 -31.5t8 -46q0 -53 -29 -78t-67 -25q-40 0 -68 25t-28 78zM218 1395q0 54 28 78t68 24q39 0 68 -24.5t29 -77.5t-29 -78t-68 -25q-40 0 -68 25t-28 78z"/>
<glyph glyph-name="uni04F2" horiz-adv-x="1198" unicode="Ӳ" d="M1198 1462l-428 -1030q-38 -93 -79.5 -175t-97.5 -143.5t-134 -97.5t-189 -36q-51 0 -96 7.5t-82 22.5v185q37 -20 81.5 -32.5t96.5 -12.5q53 0 94 11.5t74 38t61 69.5t56 106l-530 1087h204l383 -809q5 -10 10 -22t9.5 -25t9 -24.5t8.5 -20.5h2q3 9 8.5 24.5t11 32 t11 31t8.5 21.5l311 792h197zM688 1606q21 29 45 67t47.5 78.5t44.5 81t37 74.5h198v-21q-16 -27 -47.5 -67.5t-70 -84.5t-79 -85.5t-75.5 -69.5h-100v27zM325 1606q22 29 45.5 67t47 78.5t44.5 81t37 74.5h199v-21q-16 -27 -47.5 -67.5t-70 -84.5t-79 -85.5t-75.5 -69.5 h-101v27z"/>
<glyph glyph-name="uni04F3" horiz-adv-x="1001" unicode="ӳ" d="M10 1098h189l215 -613q14 -40 28.5 -84t27 -88t21.5 -85t13 -76h6q5 25 16 68t24.5 91.5t28 95.5t25.5 80l199 611h188l-434 -1241q-28 -81 -60.5 -145.5t-75.5 -109.5t-101 -69.5t-138 -24.5q-52 0 -90 5.5t-65 11.5v145q21 -5 53 -8.5t67 -3.5q48 0 83 11.5t61 33.5 t44.5 54t33.5 73l57 160zM586 1268q21 29 45 67t47.5 78.5t44.5 81t37 74.5h198v-21q-16 -27 -47.5 -67.5t-70 -84.5t-79 -85.5t-75.5 -69.5h-100v27zM223 1268q22 29 45.5 67t47 78.5t44.5 81t37 74.5h199v-21q-16 -27 -47.5 -67.5t-70 -84.5t-79 -85.5t-75.5 -69.5h-101 v27z"/>
<glyph glyph-name="uni04F4" horiz-adv-x="1352" unicode="Ӵ" d="M1153 0h-186v598q-115 -44 -212.5 -67t-195.5 -23q-93 0 -166 24.5t-123.5 72t-77 116.5t-26.5 158v583h186v-559q0 -115 52.5 -173t175.5 -58q90 0 182.5 20t204.5 60v710h186v-1462zM766 1733q0 54 28 78t68 24q19 0 36.5 -6t30.5 -18.5t21 -31.5t8 -46q0 -53 -29 -78 t-67 -25q-40 0 -68 25t-28 78zM391 1733q0 54 28 78t68 24q39 0 68 -24.5t29 -77.5t-29 -78t-68 -25q-40 0 -68 25t-28 78z"/>
<glyph glyph-name="uni04F5" horiz-adv-x="1196" unicode="ӵ" d="M336 1098v-410q0 -174 184 -174q45 0 85 7.5t78 21.5t76.5 36t80.5 50v469h182v-1098h-182v489q-44 -30 -84 -54t-82.5 -40t-89.5 -24.5t-105 -8.5q-78 0 -139 23.5t-102 65.5t-62.5 99.5t-21.5 125.5v422h182zM688 1395q0 54 28 78t68 24q19 0 36.5 -6t30.5 -18.5 t21 -31.5t8 -46q0 -53 -29 -78t-67 -25q-40 0 -68 25t-28 78zM313 1395q0 54 28 78t68 24q39 0 68 -24.5t29 -77.5t-29 -78t-68 -25q-40 0 -68 25t-28 78z"/>
<glyph glyph-name="uni04F6" horiz-adv-x="1006" unicode="Ӷ" d="M958 1462v-166h-573v-1130h176v-551h-176v385h-186v1462h759z"/>
<glyph glyph-name="uni04F7" horiz-adv-x="819" unicode="ӷ" d="M174 0v1098h604v-154h-422v-790h160v-535h-182v381h-160z"/>
<glyph glyph-name="uni04F8" horiz-adv-x="1686" unicode="Ӹ" d="M1300 0v1462h187v-1462h-187zM385 160h160q174 0 256 66t82 202q0 70 -23 118.5t-68.5 78.5t-115 43.5t-162.5 13.5h-129v-522zM1075 428q0 -97 -30 -176t-93 -135t-160 -86.5t-231 -30.5h-362v1462h186v-616h150q152 0 255.5 -33t166.5 -89.5t90.5 -132.5t27.5 -163z M934 1733q0 54 28 78t68 24q19 0 36.5 -6t30.5 -18.5t21 -31.5t8 -46q0 -53 -29 -78t-67 -25q-40 0 -68 25t-28 78zM559 1733q0 54 28 78t68 24q39 0 68 -24.5t29 -77.5t-29 -78t-68 -25q-40 0 -68 25t-28 78z"/>
<glyph glyph-name="uni04F9" horiz-adv-x="1534" unicode="ӹ" d="M356 494v-344h219q56 0 102.5 8.5t80 29t52.5 53.5t19 81q0 49 -16.5 82t-49 53t-80.5 28.5t-112 8.5h-215zM1360 0h-182v1098h182v-1098zM356 647h236q212 0 314 -78t102 -233q0 -77 -23.5 -139t-74 -106t-130 -67.5t-192.5 -23.5h-414v1098h182v-451zM858 1395 q0 54 28 78t68 24q19 0 36.5 -6t30.5 -18.5t21 -31.5t8 -46q0 -53 -29 -78t-67 -25q-40 0 -68 25t-28 78zM483 1395q0 54 28 78t68 24q39 0 68 -24.5t29 -77.5t-29 -78t-68 -25q-40 0 -68 25t-28 78z"/>
<glyph glyph-name="uni04FA" horiz-adv-x="1006" unicode="Ӻ" d="M958 1462v-166h-573v-491h336v-162h-336v-643h-186v643h-152v162h152v657h759zM541 166v-295q-1 -66 -14 -117t-41.5 -86t-73 -53t-107.5 -18q-38 0 -69.5 8.5t-53.5 17.5v150q14 -7 43.5 -14t63.5 -7q46 0 71 24.5t25 73.5v316h156z"/>
<glyph glyph-name="uni04FB" horiz-adv-x="819" unicode="ӻ" d="M174 0v481h-156v137h156v480h604v-154h-422v-326h279v-137h-279v-481h-182zM512 154v-283q-1 -66 -14 -117t-41.5 -86t-73 -53t-107.5 -18q-38 0 -69.5 8.5t-53.5 17.5v150q14 -7 43.5 -14t63.5 -7q46 0 71 24.5t25 73.5v304h156z"/>
<glyph glyph-name="uni04FC" horiz-adv-x="1219" unicode="Ӽ" d="M1120 0h-211l-354 635l-367 -635h-188l453 764l-422 698h198l332 -559l334 559h190l-421 -692zM1178 166v-295q-1 -66 -14 -117t-41.5 -86t-73 -53t-107.5 -18q-38 0 -69.5 8.5t-53.5 17.5v150q14 -7 43.5 -14t63.5 -7q46 0 71 24.5t25 73.5v316h156z"/>
<glyph glyph-name="uni04FD" horiz-adv-x="1071" unicode="ӽ" d="M408 563l-353 535h207l250 -410l250 410h207l-355 -535l373 -563h-207l-268 436l-270 -436h-207zM1041 154v-283q-1 -66 -14 -117t-41.5 -86t-73 -53t-107.5 -18q-38 0 -69.5 8.5t-53.5 17.5v150q14 -7 43.5 -14t63.5 -7q46 0 71 24.5t25 73.5v304h156z"/>
<glyph glyph-name="uni04FE" horiz-adv-x="1120" unicode="Ӿ" d="M709 692l411 -692h-211l-354 635l-367 -635h-188l410 692h-289v164h276l-366 606h198l332 -559l334 559h190l-370 -606h284v-164h-290z"/>
<glyph glyph-name="uni0500" horiz-adv-x="1180" unicode="Ԁ" d="M827 682h-129q-93 0 -162 -13.5t-114.5 -43.5t-68.5 -78.5t-23 -118.5q0 -136 81.5 -202t256.5 -66h159v522zM137 428q0 87 27.5 163t91 132.5t167 89.5t255.5 33h149v616h187v-1462h-363q-134 0 -231 30.5t-160 86.5t-93 135t-30 176z"/>
<glyph glyph-name="uni0501" horiz-adv-x="1200" unicode="ԁ" d="M565 131q76 0 128.5 23t85 70t48 117.5t17.5 164.5v41q0 101 -13.5 179.5t-46 132t-86.5 81t-135 27.5q-135 0 -198.5 -109t-63.5 -313q0 -209 63.5 -311.5t200.5 -102.5zM852 147h-8q-22 -34 -51.5 -64.5t-68 -53.5t-86.5 -36t-108 -13q-93 0 -170 36t-132 107.5 t-85 177.5t-30 246q0 141 30 247.5t85 178.5t132 108.5t170 36.5q59 0 107 -13t86.5 -35t68.5 -51t52 -61h12q-3 34 -6 65q-2 26 -4 53.5t-2 43.5v436h182v-1556h-147z"/>
<glyph glyph-name="uni0502" horiz-adv-x="1780" unicode="Ԃ" d="M827 682h-129q-93 0 -162.5 -15t-115 -48.5t-68 -87t-22.5 -130.5q0 -128 63 -193t197 -65q67 0 112.5 18.5t73.5 49.5t39.5 69.5t11.5 79.5v322zM1595 848v-488q0 -81 -22.5 -150.5t-68 -120.5t-115.5 -80t-164 -29q-114 0 -190.5 48.5t-119.5 125.5 q-24 -38 -55.5 -69.5t-72.5 -54.5t-92.5 -35.5t-114.5 -12.5q-215 0 -329 105t-114 319q0 103 32.5 184.5t101.5 138.5t176.5 87t257.5 30h122v616h187v-1102q0 -112 51.5 -164.5t148.5 -52.5q44 0 80 15t61.5 43.5t39.5 68.5t14 90v488h186z"/>
<glyph glyph-name="uni0503" horiz-adv-x="1790" unicode="ԃ" d="M565 131q76 0 128.5 23t85 70t48 117t17.5 165v41q0 101 -13.5 179.5t-46 132t-86.5 81t-135 27.5q-135 0 -198.5 -109t-63.5 -313q0 -209 63.5 -311.5t200.5 -102.5zM1235 131q111 0 160 65t49 195v309h182v-319q0 -105 -23.5 -181t-69.5 -125t-115.5 -72t-160.5 -23 q-65 0 -116.5 15t-92 42t-71 64t-53.5 81h-6q-27 -41 -61 -78t-79.5 -64.5t-106 -43.5t-141.5 -16q-93 0 -170 36t-132 107.5t-85 177.5t-30 246q0 141 30 247.5t85 178.5t132 108.5t170 36.5q59 0 107 -13t86.5 -35t68 -51t52.5 -61h12q-3 34 -6 65q-2 26 -4 53t-2 44v436 h182v-1134q1 -62 8.5 -115t29.5 -92t62.5 -61.5t108.5 -22.5z"/>
<glyph glyph-name="uni0504" horiz-adv-x="1788" unicode="Ԅ" d="M809 391q0 77 -26.5 131.5t-77 89.5t-123.5 51.5t-166 16.5h-191v151h176q92 0 163 19.5t119.5 55.5t73.5 86t25 112q0 54 -18.5 95.5t-52.5 70.5t-81.5 44t-105.5 15q-110 0 -194.5 -33.5t-159.5 -87.5l-92 125q38 31 87 58t107 47.5t123.5 32.5t136.5 12q109 0 192 -27 t139.5 -75.5t85 -115t28.5 -145.5q0 -74 -25.5 -133.5t-71 -103.5t-108 -72.5t-137.5 -40.5v-6q87 -11 156 -39.5t116 -73t72 -104t25 -131.5q0 -74 12 -126t37 -84.5t64.5 -47.5t94.5 -15q111 0 160 59.5t49 188.5v457h183v-467q0 -105 -28 -181t-79 -125t-123.5 -72 t-161.5 -23q-87 0 -161 23.5t-128 73.5t-84 128t-30 186z"/>
<glyph glyph-name="uni0505" horiz-adv-x="1606" unicode="ԅ" d="M850 332q0 -39 10.5 -75.5t35 -64.5t64.5 -44.5t99 -16.5q105 0 153 65t48 195v309h182v-319q0 -105 -23.5 -181t-71 -125t-119 -72t-167.5 -23q-92 0 -164 21.5t-122 63.5t-76.5 103.5t-26.5 140.5q0 94 -66.5 139.5t-204.5 45.5h-129v153h97q61 0 111 9t86 28.5 t55.5 51.5t19.5 77q0 77 -57.5 115.5t-165.5 38.5q-71 0 -135.5 -19t-139.5 -53l-63 147q40 19 78.5 33.5t79.5 24t86 14t98 4.5q86 0 158 -19t124.5 -56t81.5 -91.5t29 -124.5q0 -50 -14 -88.5t-39.5 -68t-60.5 -50t-78 -34.5v-11q50 -9 91.5 -29.5t71.5 -51.5t47 -72 t17 -90z"/>
<glyph glyph-name="uni0506" horiz-adv-x="1221" unicode="Ԇ" d="M1004 0h-187v416q0 67 -28 117t-79.5 82.5t-126 48.5t-167.5 16h-191v151h176q92 0 163 19.5t119.5 55.5t73.5 86t25 112q0 54 -18.5 95.5t-52.5 70.5t-81.5 44t-105.5 15q-110 0 -194.5 -33.5t-159.5 -87.5l-92 125q38 31 87 58t107 47.5t123.5 32.5t136.5 12 q109 0 192 -27t139.5 -75.5t85 -115t28.5 -145.5q0 -74 -25.5 -133.5t-71 -103.5t-108 -72.5t-137.5 -40.5v-6q87 -11 156 -39.5t116 -73t72 -104t25 -131.5v-250h176v-551h-176v385z"/>
<glyph glyph-name="uni0507" horiz-adv-x="1040" unicode="ԇ" d="M668 0v299q0 94 -64.5 144.5t-202.5 50.5h-129v153h97q61 0 111 9t86 28.5t55.5 51.5t19.5 77q0 77 -57.5 115.5t-165.5 38.5q-71 0 -135.5 -19t-139.5 -53l-63 147q40 19 78.5 33.5t79.5 24t86 14t98 4.5q86 0 158 -19t124.5 -56t81.5 -91.5t29 -124.5q0 -50 -14 -88.5 t-39.5 -68t-60.5 -50t-78 -34.5v-11q44 -14 85 -36t72.5 -55t50.5 -78.5t19 -106.5v-145h160v-535h-183v381h-159z"/>
<glyph glyph-name="uni0508" horiz-adv-x="1956" unicode="Ԉ" d="M985 1298h-379q-15 -113 -31 -235.5t-32.5 -240t-33 -223.5t-32.5 -187q-20 -103 -46.5 -184t-66 -136.5t-94.5 -85t-133 -29.5q-35 0 -72 7t-65 18v154q23 -13 52 -21t61 -8q48 0 79 31.5t52 80.5t34 107.5l25 112.5q12 57 28 157t35.5 231t41 288t43.5 327h720v-1071 q0 -129 49.5 -188.5t159.5 -59.5q111 0 160 59.5t49 188.5v457h183v-467q0 -105 -28 -181t-79 -125t-123.5 -72t-161.5 -23q-87 0 -160 22t-125 70t-81 124.5t-29 184.5v917z"/>
<glyph glyph-name="uni0509" horiz-adv-x="1700" unicode="ԉ" d="M762 944h-258q-20 -259 -52 -441t-79.5 -297t-112.5 -167.5t-151 -52.5q-28 0 -52.5 3t-40.5 9v131q22 -6 50 -6q55 0 99.5 58.5t79 179t60 304t43.5 433.5h596v-707q0 -65 10.5 -114t35 -81.5t64.5 -48.5t99 -16q105 0 153 65t48 195v309h182v-319q0 -105 -23.5 -181 t-71 -125t-119 -72t-167.5 -23q-92 0 -164.5 23t-123.5 72t-78 124t-27 180v565z"/>
<glyph glyph-name="uni050A" horiz-adv-x="2021" unicode="Ԋ" d="M1237 391q0 -129 49 -188.5t160 -59.5q110 0 159.5 59.5t49.5 188.5v457h182v-467q0 -105 -28 -181t-79 -125t-123 -72t-161 -23q-88 0 -160.5 22t-124.5 70t-81 124.5t-29 184.5v301h-666v-682h-186v1462h186v-616h666v616h186v-1071z"/>
<glyph glyph-name="uni050B" horiz-adv-x="1839" unicode="ԋ" d="M356 1098v-455h545v455h182v-707q0 -65 10.5 -114t35 -81.5t64.5 -48.5t99 -16q106 0 153.5 65t47.5 195v309h182v-319q0 -105 -23.5 -181t-71 -125t-119 -72t-167.5 -23q-91 0 -164 23t-124 72t-78 124t-27 180v110h-545v-489h-182v1098h182z"/>
<glyph glyph-name="uni050C" horiz-adv-x="1475" unicode="Ԍ" d="M791 758h571v-86q0 -168 -33 -297t-104 -216.5t-182 -133t-267 -45.5q-157 0 -278 52.5t-204 150t-126 237t-43 313.5q0 172 47.5 311t138.5 236.5t224.5 150t304.5 52.5q111 0 213 -22t190 -64l-72 -162q-36 17 -77.5 32t-85.5 26.5t-90.5 18.5t-92.5 7 q-122 0 -216 -40.5t-157.5 -116.5t-96.5 -185t-33 -246q0 -130 27 -238t83 -186t141.5 -121t202.5 -43q108 0 182.5 33t121 92.5t67 142.5t20.5 183h-376v164z"/>
<glyph glyph-name="uni050D" horiz-adv-x="1249" unicode="ԍ" d="M635 586h512v-68q0 -130 -28.5 -230t-88.5 -168.5t-153 -104t-222 -35.5q-135 0 -236.5 39.5t-169.5 113t-102 179t-34 237.5q0 130 38 235.5t112.5 179.5t184 114t252.5 40q111 0 197.5 -18.5t163.5 -57.5l-62 -141q-60 29 -134 49.5t-165 20.5q-97 0 -171.5 -29 t-125 -83.5t-76.5 -133t-26 -176.5q0 -93 20.5 -170.5t63.5 -133.5t110.5 -87t161.5 -31q81 0 139 22.5t95 62.5t54.5 96t17.5 124h-328v154z"/>
<glyph glyph-name="uni050E" horiz-adv-x="1409" unicode="Ԏ" d="M625 391q0 -129 49 -188.5t160 -59.5q110 0 159 59.5t49 188.5v457h183v-467q0 -105 -28 -181t-79 -125t-123 -72t-161 -23q-88 0 -160.5 22t-125 70t-81.5 124.5t-29 184.5v917h-418v164h1022v-164h-417v-907z"/>
<glyph glyph-name="uni050F" horiz-adv-x="1298" unicode="ԏ" d="M41 944v154h821v-154h-319v-553q0 -65 10.5 -114t35 -81.5t64.5 -48.5t99 -16q105 0 152.5 65t47.5 195v309h183v-319q0 -105 -23.5 -181t-71 -125t-119 -72t-167.5 -23q-92 0 -165 23t-124 72t-78 124t-27 180v565h-319z"/>
<glyph glyph-name="uni0510" horiz-adv-x="1116" unicode="Ԑ" d="M156 1120q0 79 29.5 145.5t87 115t142 75.5t193.5 27q72 0 133.5 -12t114 -32.5t97.5 -47.5t83 -58l-92 -125q-75 54 -156 87.5t-184 33.5q-57 0 -104.5 -15t-81.5 -44t-53 -70.5t-19 -95.5q0 -62 22 -112t65.5 -86t108.5 -55.5t152 -19.5h195v-151h-191 q-93 0 -166 -16.5t-123.5 -50t-77 -84t-26.5 -117.5q0 -137 85 -208t249 -71q108 0 210 24.5t185 67.5v-170q-83 -38 -179 -56.5t-224 -18.5t-225.5 30t-163 85.5t-98.5 133.5t-33 174q0 72 24.5 133.5t72 108.5t116 77.5t155.5 41.5v6q-74 12 -134 40.5t-102 72.5 t-64.5 103.5t-22.5 133.5z"/>
<glyph glyph-name="uni0511" horiz-adv-x="942" unicode="ԑ" d="M670 647v-153h-129q-138 0 -204.5 -45.5t-66.5 -139.5q0 -51 20.5 -85.5t55.5 -55.5t83 -30t103 -9q51 0 99.5 7t92 18t82 26t68.5 31v-162q-60 -29 -147.5 -49t-202.5 -20q-110 0 -191 24t-134.5 67t-80 103t-26.5 131q0 61 20 106.5t53.5 77.5t78 52.5t92.5 33.5v11 q-43 14 -79.5 34.5t-63 50t-41.5 68t-15 88.5q0 70 29 124.5t81.5 91.5t124.5 56t158 19q90 0 171 -18.5t161 -57.5l-63 -147q-75 34 -140.5 53t-136.5 19q-102 0 -156.5 -38.5t-54.5 -115.5q0 -45 19 -77t53 -51.5t81.5 -28.5t104.5 -9h101z"/>
<glyph glyph-name="uni0512" horiz-adv-x="1370" unicode="Ԓ" d="M1171 0h-186v1298h-379q-15 -113 -30.5 -235t-32 -240t-33.5 -224t-33 -187q-20 -103 -46.5 -184t-66 -136.5t-94.5 -85t-133 -29.5q-35 0 -72 7t-65 18v154q23 -13 52 -21t61 -8q48 0 79 31.5t52 80.5t34 107.5l25 112.5q12 57 28 157t35.5 231t41 288t43.5 327h720 v-1462zM1327 166v-295q-1 -66 -14 -117t-41.5 -86t-73 -53t-107.5 -18q-38 0 -69.5 8.5t-53.5 17.5v150q14 -7 43.5 -14t63.5 -7q46 0 71 24.5t25 73.5v316h156z"/>
<glyph glyph-name="uni0513" horiz-adv-x="1118" unicode="ԓ" d="M944 0h-182v944h-258q-20 -259 -52 -441t-79.5 -297t-112.5 -167.5t-151 -52.5q-28 0 -52.5 3t-40.5 9v131q23 -6 50 -6q55 0 99.5 58.5t79 179t60 304t43.5 433.5h596v-1098zM1100 154v-283q-1 -66 -14 -117t-41.5 -86t-73 -53t-107.5 -18q-38 0 -69.5 8.5t-53.5 17.5 v150q14 -7 43.5 -14t63.5 -7q46 0 71 24.5t25 73.5v304h156z"/>
<glyph glyph-name="fraction" horiz-adv-x="266" unicode="⁄" d="M616 1462l-811 -1462h-157l811 1462h157z"/>
<glyph glyph-name="cyrillicbreve" d="M973 1559q-6 -78 -30.5 -137t-71 -99.5t-117 -61t-170.5 -20.5q-103 0 -173 19.5t-114 59.5t-64.5 99.5t-25.5 139.5h170q5 -57 18.5 -93.5t38.5 -57t63 -28.5t91 -8q44 0 80.5 9.5t63.5 31t44 57.5t23 89h174z" horiz-adv-x="1182"/>
<glyph glyph-name="foursuperior" d="M387 905v195q0 42 1.5 91.5t4.5 98.5q-5 -11 -15 -29.5t-21 -39.5t-23 -41l-21 -35l-155 -240h229zM655 778h-125v-192h-143v192h-375v111l377 579h141v-563h125v-127z" horiz-adv-x="678"/>
<glyph glyph-name="cyrillichookleft" d="M219 -238q0 105 -139 238h129q26 -19 54.5 -45t52 -58t38.5 -69.5t15 -79.5q0 -90 -50.5 -142t-150.5 -52q-29 0 -61 4t-58 12v113q14 -4 36.5 -6.5t47.5 -2.5q34 0 60 21.5t26 66.5z" horiz-adv-x="420"/>
<glyph glyph-name="cyrillicbighookUC" d="M375 166v-295q-1 -66 -14 -117t-41.5 -86t-73 -53t-107.5 -18q-38 0 -69.5 8.5t-53.5 17.5v150q14 -7 43.5 -14t63.5 -7q46 0 71 24.5t25 73.5v316h156z" horiz-adv-x="420"/>
<glyph glyph-name="cyrillicbighookLC" d="M375 154v-283q-1 -66 -14 -117t-41.5 -86t-73 -53t-107.5 -18q-38 0 -69.5 8.5t-53.5 17.5v150q14 -7 43.5 -14t63.5 -7q46 0 71 24.5t25 73.5v304h156z" horiz-adv-x="420"/>
</font>
</defs>
</svg>
