<?xml version="1.0" encoding="UTF-8" standalone="no"?>
<!DOCTYPE svg  PUBLIC '-//W3C//DTD SVG 1.1//EN'  'http://www.w3.org/Graphics/SVG/1.1/DTD/svg11.dtd'>
<svg xmlns="http://www.w3.org/2000/svg">
<defs>
<font id="DroidSans-Bold" horiz-adv-x="1128">
<font-face underline-position="-103" font-weight="700" descent="-410" panose-1="2 11 8 6 3 8 4 2 2 4" units-per-em="2048" unicode-range="U+0020-2044" bbox="-1153 -512 2578 2189" x-height="1118" underline-thickness="102" font-family="DroidSans" ascent="1638" cap-height="1462"/>
<missing-glyph horiz-adv-x="2048"/>
<glyph glyph-name=".notdef" horiz-adv-x="2048"/>
<glyph glyph-name=".null" horiz-adv-x="0"/>
<glyph glyph-name="nonmarkingreturn" horiz-adv-x="2048"/>
<glyph glyph-name="space" horiz-adv-x="532" unicode=" "/>
<glyph glyph-name="exclam" horiz-adv-x="586" unicode="!" d="M117 143q0 47 13.5 79.5t37.5 52.5t56 29t69 9q35 0 66.5 -9t55.5 -29t38 -52.5t14 -79.5q0 -45 -14 -77t-38 -53t-55.5 -30.5t-66.5 -9.5q-37 0 -69 9.5t-56 30.5t-37.5 53t-13.5 77zM416 485h-244l-51 977h346z"/>
<glyph glyph-name="quotedbl" horiz-adv-x="967" unicode='&quot;' d="M834 1462l-41 -528h-197l-41 528h279zM412 1462l-41 -528h-197l-41 528h279z"/>
<glyph glyph-name="numbersign" horiz-adv-x="1323" unicode="#" d="M539 612h196l47 232h-196zM999 844l-47 -232h258v-206h-297l-77 -406h-220l78 406h-194l-76 -406h-215l74 406h-238v206h277l47 232h-252v209h289l77 407h219l-77 -407h198l78 407h215l-78 -407h240v-209h-279z"/>
<glyph glyph-name="dollar" d="M399 1051q0 -47 26 -78.5t83 -52.5v233q-54 -6 -81.5 -30t-27.5 -72zM760 451q0 24 -6.5 42t-20.5 33t-35.5 27.5t-52.5 26.5v-252q59 9 87 39t28 84zM1061 457q0 -75 -26.5 -139t-79 -112t-130.5 -79t-180 -41v-205h-137v201q-66 2 -122 8t-105 17t-93.5 26.5 t-87.5 34.5v264q42 -21 91.5 -40t102.5 -34.5t107.5 -26.5t106.5 -14v318q-8 3 -17 7l-16 6t-14 5q-91 35 -159 73t-113.5 85t-68 104t-22.5 129q0 75 28.5 136.5t81.5 107t129 74t171 37.5v157h137v-151q87 -5 178 -25t191 -63l-101 -234q-65 26 -135.5 46.5t-132.5 25.5 v-293l39 -14q95 -35 166 -72t118 -83t70 -103t23 -133z" unicode="$"/>
<glyph glyph-name="percent" horiz-adv-x="1804" unicode="%" d="M1741 442q0 -108 -20.5 -193.5t-63.5 -144.5t-109 -90.5t-157 -31.5q-85 0 -149 31.5t-107.5 90.5t-65.5 144.5t-22 193.5t20 193t62 143.5t107 89.5t155 31q86 0 151.5 -31t109.5 -89.5t66.5 -143.5t22.5 -193zM1298 440q0 -127 22.5 -189.5t72.5 -62.5q49 0 72.5 62 t23.5 190q0 250 -96 250q-50 0 -72.5 -61.5t-22.5 -188.5zM1425 1462l-811 -1462h-239l811 1462h239zM758 1026q0 -108 -20.5 -194t-63.5 -145t-109 -90.5t-157 -31.5q-85 0 -149.5 31.5t-108 90.5t-65.5 145t-22 194t20 193t62.5 143.5t107.5 89.5t155 31q86 0 151.5 -31 t109.5 -89.5t66.5 -143.5t22.5 -193zM315 1024q0 -127 22.5 -189.5t72.5 -62.5q49 0 72.5 62t23.5 190q0 250 -96 250q-50 0 -72.5 -61.5t-22.5 -188.5z"/>
<glyph glyph-name="ampersand" horiz-adv-x="1479" unicode="&amp;" d="M731 1124q0 31 -10 52.5t-26.5 35.5t-37 20.5t-41.5 6.5q-22 0 -44.5 -6t-41 -19.5t-30 -36t-11.5 -55.5q0 -52 23 -98t63 -92q77 44 116.5 88t39.5 104zM403 424q0 -44 16 -79t44.5 -59t67 -37t83.5 -13q60 0 111 15.5t94 43.5l-309 330q-51 -42 -79 -90t-28 -111z M1475 0h-377l-97 100q-80 -55 -176.5 -87.5t-212.5 -32.5q-120 0 -217.5 30t-167 84.5t-107.5 131t-38 169.5q0 77 18.5 137.5t52.5 109.5t82.5 89t108.5 76q-38 46 -64.5 88.5t-42.5 84t-23 83t-7 86.5q0 78 30.5 139.5t85 105t130 66.5t165.5 23q86 0 158.5 -21t125 -61.5 t82.5 -100t30 -135.5q0 -69 -22.5 -126.5t-60.5 -106.5t-89.5 -90t-110.5 -76l260 -268q35 66 61.5 139t45.5 147h317q-15 -57 -35.5 -120t-47.5 -126.5t-62 -126.5t-78 -120z"/>
<glyph glyph-name="quotesingle" horiz-adv-x="545" unicode="&apos;" d="M412 1462l-41 -528h-197l-41 528h279z"/>
<glyph glyph-name="parenleft" horiz-adv-x="694" unicode="(" d="M82 561q0 125 18 246.5t55 236t93.5 220t134.5 198.5h250q-141 -193 -213 -424t-72 -475q0 -119 18 -237t54 -231t89 -219t122 -200h-248q-78 90 -134.5 193t-93.5 215.5t-55 232.5t-18 244z"/>
<glyph glyph-name="parenright" horiz-adv-x="694" unicode=")" d="M612 561q0 -124 -18 -244t-55 -232.5t-93.5 -215.5t-134.5 -193h-248q69 94 122 200t89 219t54 231t18 237q0 244 -72 475t-213 424h250q78 -93 134.5 -198.5t93.5 -220t55 -236t18 -246.5z"/>
<glyph glyph-name="asterisk" horiz-adv-x="1116" unicode="*" d="M688 1556l-41 -368l373 104l33 -252l-340 -24l223 -297l-227 -121l-156 313l-137 -311l-236 119l221 297l-338 26l39 250l365 -104l-41 368h262z"/>
<glyph glyph-name="plus" d="M455 612h-367v219h367v369h219v-369h366v-219h-366v-364h-219v364z" unicode="+"/>
<glyph glyph-name="comma" horiz-adv-x="594" unicode="," d="M459 215q-14 -54 -33.5 -115t-43 -123t-49 -123.5t-50.5 -117.5h-220q15 61 29.5 127t28 131.5t24.5 128t19 115.5h280z"/>
<glyph glyph-name="hyphen" horiz-adv-x="659" unicode="-" d="M61 424v250h537v-250h-537z"/>
<glyph glyph-name="period" horiz-adv-x="584" unicode="." d="M117 143q0 47 13.5 79.5t37.5 52.5t56 29t69 9q35 0 66.5 -9t55.5 -29t38 -52.5t14 -79.5q0 -45 -14 -77t-38 -53t-55.5 -30.5t-66.5 -9.5q-37 0 -69 9.5t-56 30.5t-37.5 53t-13.5 77z"/>
<glyph glyph-name="slash" horiz-adv-x="846" unicode="/" d="M836 1462l-545 -1462h-277l545 1462h277z"/>
<glyph glyph-name="zero" d="M371 731q0 -250 43 -376t149 -126q104 0 149.5 125t45.5 377q0 251 -45.5 377.5t-149.5 126.5q-53 0 -89.5 -32t-59.5 -95t-33 -157.5t-10 -219.5zM1065 731q0 -177 -27.5 -316t-88 -236t-156 -148t-230.5 -51q-127 0 -221 51t-156 148t-92.5 236t-30.5 316t27.5 317 t87.5 237t155 148.5t230 51.5q126 0 220 -51t157 -148t94 -237t31 -318z" unicode="0"/>
<glyph glyph-name="one" d="M817 0h-309v846q0 26 0.5 62.5t2 76t3 79.5t2.5 73q-5 -6 -17 -18t-27 -26.5t-31 -29.5t-31 -27l-168 -135l-150 186l471 375h254v-1462z" unicode="1"/>
<glyph glyph-name="two" d="M1063 0h-981v215l344 371q65 70 118 129t91 115t59 114t21 125q0 74 -44.5 115t-119.5 41q-79 0 -152 -39t-153 -111l-168 199q45 41 94 78.5t108 66.5t130 46.5t159 17.5q105 0 188.5 -29t142.5 -82.5t90.5 -129.5t31.5 -171q0 -86 -30 -164.5t-82 -154t-120.5 -150 t-146.5 -151.5l-176 -177v-14h596v-260z" unicode="2"/>
<glyph glyph-name="three" d="M1006 1135q0 -76 -24.5 -136.5t-67 -106t-100 -76t-124.5 -46.5v-6q177 -22 268 -107.5t91 -230.5q0 -96 -34.5 -177.5t-106 -141.5t-180 -93.5t-255.5 -33.5q-118 0 -222 19.5t-194 59.5v263q45 -24 95 -42t100 -30.5t98.5 -18.5t91.5 -6q86 0 143 16t91 45t48.5 69.5 t14.5 88.5q0 45 -18.5 81.5t-60 62t-108.5 39.5t-165 14h-104v217h102q92 0 153 16.5t97.5 45t51.5 66.5t15 81q0 78 -48.5 122t-153.5 44q-48 0 -89.5 -9.5t-77 -24t-65 -32t-53.5 -34.5l-156 206q42 31 91.5 57t107.5 45.5t125 30.5t143 11q108 0 196.5 -23.5t151.5 -68 t97.5 -109t34.5 -147.5z" unicode="3"/>
<glyph glyph-name="four" d="M608 543v248q0 13 0.5 37.5t1.5 55.5t2.5 64t3 63t3 52.5t2.5 32.5h-9q-18 -42 -40.5 -89t-51.5 -94l-244 -370h332zM1085 303h-176v-303h-301v303h-604v215l621 944h284v-919h176v-240z" unicode="4"/>
<glyph glyph-name="five" d="M598 934q94 0 175 -29t141 -85t94 -139.5t34 -191.5q0 -119 -37 -213.5t-109 -160t-178.5 -100.5t-244.5 -35q-55 0 -109 5t-103.5 14.5t-94 24.5t-80.5 35v267q35 -20 81 -37.5t95.5 -30t99.5 -20t95 -7.5q134 0 204 55.5t70 176.5q0 108 -68.5 164.5t-211.5 56.5 q-26 0 -55.5 -3t-58 -8t-54.5 -10.5t-45 -11.5l-123 66l55 745h772v-262h-504l-24 -287q32 7 74.5 14t109.5 7z" unicode="5"/>
<glyph glyph-name="six" d="M584 227q41 0 74.5 15.5t58 47t38 79.5t13.5 114q0 107 -44.5 168.5t-135.5 61.5q-46 0 -84 -18t-65 -47t-41.5 -65t-14.5 -73q0 -51 12.5 -101.5t38 -91t63 -65.5t87.5 -25zM76 621q0 105 11.5 209t41 199.5t80 177.5t128 142.5t186 95t253.5 34.5q21 0 46 -1t50.5 -2.5 t49.5 -4.5t43 -7v-247q-38 9 -80.5 14.5t-85.5 5.5q-135 0 -222 -33.5t-138 -93.5t-72.5 -144t-26.5 -186h12q20 36 48.5 67.5t66.5 54t85.5 35.5t106.5 13q95 0 171 -31t128.5 -90t80.5 -145t28 -197q0 -119 -33.5 -213t-95.5 -159.5t-150 -100t-198 -34.5 q-108 0 -202 38.5t-163.5 117.5t-109 199.5t-39.5 285.5z" unicode="6"/>
<glyph glyph-name="seven" d="M207 0l520 1200h-672v260h1008v-194l-533 -1266h-323z" unicode="7"/>
<glyph glyph-name="eight" d="M563 1255q-33 0 -61.5 -10t-49 -29t-32.5 -47t-12 -63q0 -42 12.5 -72.5t34 -54t50 -42t60.5 -36.5q31 16 59 35t49.5 43.5t34.5 55.5t13 71q0 35 -12 63t-33 47t-50 29t-63 10zM358 389q0 -40 13 -73.5t38.5 -57.5t63.5 -37.5t88 -13.5q105 0 157 49.5t52 130.5 q0 42 -17.5 75.5t-45 62t-62.5 52.5t-70 46l-22 14q-44 -22 -80 -47.5t-61.5 -56t-39.5 -66.5t-14 -78zM565 1481q91 0 172 -22t142 -66t97 -110t36 -155q0 -66 -20 -119.5t-55 -97t-83 -77.5t-104 -62q58 -31 113.5 -69t98.5 -85.5t69 -106.5t26 -132q0 -91 -36 -165 t-101 -126t-155.5 -80t-199.5 -28q-118 0 -210 27t-155 77t-95.5 123t-32.5 164q0 75 22 135t60 108t89 85t109 65q-49 31 -92 67.5t-74.5 81t-50 98.5t-18.5 119q0 87 36.5 152.5t98.5 110t143 66.5t170 22z" unicode="8"/>
<glyph glyph-name="nine" d="M547 1231q-41 0 -75 -15t-58.5 -46.5t-38 -80t-13.5 -114.5q0 -106 45 -168t136 -62q46 0 84 18t65 47t41.5 65t14.5 73q0 51 -12.5 101.5t-38 91t-63 65.5t-87.5 25zM1055 838q0 -105 -11.5 -209.5t-41 -199.5t-80 -177.5t-128 -142.5t-186 -94.5t-254.5 -34.5 q-21 0 -46 1t-50.5 2.5t-49.5 4t-42 6.5v248q37 -10 79.5 -15.5t86.5 -5.5q135 0 222 33.5t138 94t72.5 144.5t26.5 185h-13q-20 -36 -48 -67t-66 -54t-86 -36t-107 -13q-95 0 -171 31t-128.5 90t-80.5 145t-28 197q0 119 33.5 213t95.5 159.5t150.5 100.5t198.5 35 q108 0 202 -38.5t163 -117.5t109 -200t40 -285z" unicode="9"/>
<glyph glyph-name="colon" horiz-adv-x="584" unicode=":" d="M117 969q0 47 13.5 79.5t37.5 52.5t56 29t69 9q35 0 66.5 -9t55.5 -29t38 -52.5t14 -79.5q0 -45 -14 -77.5t-38 -53t-55.5 -30t-66.5 -9.5q-37 0 -69 9.5t-56 30t-37.5 53t-13.5 77.5zM117 143q0 47 13.5 79.5t37.5 52.5t56 29t69 9q35 0 66.5 -9t55.5 -29t38 -52.5 t14 -79.5q0 -45 -14 -77t-38 -53t-55.5 -30.5t-66.5 -9.5q-37 0 -69 9.5t-56 30.5t-37.5 53t-13.5 77z"/>
<glyph glyph-name="semicolon" horiz-adv-x="594" unicode=";" d="M117 969q0 47 13.5 79.5t37.5 52.5t56 29t69 9q35 0 66.5 -9t55.5 -29t38 -52.5t14 -79.5q0 -45 -14 -77.5t-38 -53t-55.5 -30t-66.5 -9.5q-37 0 -69 9.5t-56 30t-37.5 53t-13.5 77.5zM444 238l15 -23q-14 -54 -33.5 -115t-43 -123t-49 -123.5t-50.5 -117.5h-220 q15 61 29.5 127t28 131.5t24.5 128t19 115.5h280z"/>
<glyph glyph-name="less" d="M1040 203l-952 438v143l952 496v-240l-643 -317l643 -281v-239z" unicode="&lt;"/>
<glyph glyph-name="equal" d="M88 418v219h952v-219h-952zM88 807v217h952v-217h-952z" unicode="="/>
<glyph glyph-name="greater" d="M88 442l643 281l-643 317v240l952 -496v-143l-952 -438v239z" unicode="&gt;"/>
<glyph glyph-name="question" horiz-adv-x="940" unicode="?" d="M231 143q0 47 13.5 79.5t37.5 52.5t56.5 29t69.5 9q35 0 66.5 -9t55.5 -29t38 -52.5t14 -79.5q0 -45 -14 -77t-38 -53t-55.5 -30.5t-66.5 -9.5q-37 0 -69.5 9.5t-56.5 30.5t-37.5 53t-13.5 77zM264 485v74q0 51 10.5 92.5t32 79t55.5 73t82 73.5q42 33 71 59t47 51.5 t26 53.5t8 65q0 57 -38.5 94t-117.5 37q-69 0 -148.5 -29t-164.5 -71l-102 221q43 25 93.5 47.5t105 40t110.5 27.5t110 10q102 0 184 -24.5t139 -71.5t87.5 -114t30.5 -153q0 -63 -14 -112.5t-41.5 -92t-69 -82t-96.5 -83.5q-42 -33 -68.5 -57.5t-41.5 -46.5t-20.5 -45.5 t-5.5 -55.5v-60h-264z"/>
<glyph glyph-name="at" horiz-adv-x="1774" unicode="@" d="M711 627q0 -112 38 -161.5t101 -49.5q42 0 72.5 19.5t50 55t30 85t13.5 110.5l12 221q-20 5 -47 8t-55 3q-59 0 -100 -25t-66.5 -66t-37 -93.5t-11.5 -106.5zM1673 752q0 -95 -22.5 -188t-68.5 -166.5t-115.5 -119t-163.5 -45.5q-38 0 -71.5 9.5t-61.5 27t-48.5 41 t-31.5 51.5h-15q-19 -25 -44 -48.5t-56 -41.5t-68.5 -28.5t-81.5 -10.5q-83 0 -147.5 28.5t-108.5 81t-67 126t-23 162.5q0 103 31 189t89 148.5t141 97t186 34.5q45 0 93 -5t92.5 -13t83.5 -18t67 -20l-21 -419q-2 -22 -2 -43v-27q0 -42 6.5 -69t17 -42.5t24 -21.5t28.5 -6 q35 0 61 27t43 73t26 107.5t9 130.5q0 128 -38 228t-105.5 169t-160.5 105t-202 36q-153 0 -269.5 -51t-195 -142.5t-119 -216.5t-40.5 -274q0 -138 35 -244.5t104 -179t170 -110t233 -37.5q56 0 115 7t117.5 19t115 29t107.5 37v-192q-94 -42 -208.5 -66.5t-244.5 -24.5 q-181 0 -323.5 51.5t-240.5 148.5t-150 237.5t-52 318.5q0 124 27 237.5t78 211t124.5 177t167.5 136t207 87t242 30.5q158 0 291 -50.5t229.5 -145t150.5 -229.5t54 -304z"/>
<glyph glyph-name="A" horiz-adv-x="1331" unicode="A" d="M846 608l-94 320q-6 18 -18 59t-25.5 90.5t-25.5 99.5t-17 85q-4 -22 -10.5 -52t-15 -63.5t-17.5 -67.5t-17 -64t-14.5 -53t-9.5 -34l-93 -320h357zM1018 0l-100 348h-504l-101 -348h-313l475 1468h379l477 -1468h-313z"/>
<glyph glyph-name="B" horiz-adv-x="1315" unicode="B" d="M494 637v-381h182q61 0 102.5 14t67 40t36.5 63t11 82q0 41 -11 74.5t-37.5 57.5t-69.5 37t-107 13h-174zM494 883h161q58 0 97 10.5t63 31.5t34.5 52.5t10.5 73.5q0 84 -52.5 120.5t-166.5 36.5h-147v-325zM184 1462h428q138 0 242 -19.5t174 -63t105.5 -114 t35.5 -173.5q0 -62 -15 -116t-44 -95t-70.5 -68.5t-95.5 -36.5v-10q55 -12 102.5 -34.5t83 -62t56 -99.5t20.5 -146q0 -100 -35 -178.5t-100.5 -133t-159 -83.5t-211.5 -29h-516v1462z"/>
<glyph glyph-name="C" horiz-adv-x="1305" unicode="C" d="M805 1225q-89 0 -157.5 -34.5t-115 -99t-70.5 -157t-24 -207.5q0 -117 21.5 -208t66 -153.5t114 -95t165.5 -32.5q89 0 178.5 20t194.5 57v-260q-48 -20 -95 -34t-96 -23t-100.5 -13.5t-110.5 -4.5q-169 0 -293 54t-205 152t-120 236t-39 307q0 166 45 304.5t132 238.5 t215 155.5t294 55.5q109 0 218.5 -27.5t209.5 -75.5l-100 -252q-82 39 -165 68t-163 29z"/>
<glyph glyph-name="D" horiz-adv-x="1434" unicode="D" d="M1001 737q0 122 -24.5 210.5t-71 146.5t-114 86t-154.5 28h-143v-952h114q196 0 294.5 120t98.5 361zM1315 745q0 -185 -50.5 -324.5t-146 -233t-234 -140.5t-315.5 -47h-385v1462h428q161 0 290.5 -46t221.5 -136.5t141.5 -224.5t49.5 -310z"/>
<glyph glyph-name="E" horiz-adv-x="1147" unicode="E" d="M1026 0h-842v1462h842v-254h-532v-321h495v-254h-495v-377h532v-256z"/>
<glyph glyph-name="F" horiz-adv-x="1124" unicode="F" d="M489 0h-305v1462h838v-254h-533v-377h496v-253h-496v-578z"/>
<glyph glyph-name="G" horiz-adv-x="1483" unicode="G" d="M739 821h580v-758q-58 -19 -117 -34.5t-122.5 -26t-133 -16.5t-147.5 -6q-164 0 -290.5 48.5t-213 144t-131.5 236t-45 324.5q0 172 50 311t147.5 236.5t240 150t326.5 52.5q117 0 229 -25t205 -65l-103 -248q-68 34 -153.5 57t-179.5 23q-102 0 -183.5 -35.5 t-139.5 -100.5t-89 -157t-31 -205q0 -108 21.5 -197.5t67.5 -154.5t118.5 -101t173.5 -36q66 0 111.5 6t85.5 14v305h-277v258z"/>
<glyph glyph-name="H" horiz-adv-x="1485" unicode="H" d="M1300 0h-309v631h-497v-631h-310v1462h310v-573h497v573h309v-1462z"/>
<glyph glyph-name="I" horiz-adv-x="797" unicode="I" d="M731 0h-665v176l178 82v946l-178 82v176h665v-176l-178 -82v-946l178 -82v-176z"/>
<glyph glyph-name="J" horiz-adv-x="678" unicode="J" d="M-2 -430q-65 0 -114 6.5t-83 15.5v258q37 -8 77.5 -14t88.5 -6q46 0 85.5 10t69 34.5t46 65.5t16.5 103v1419h310v-1409q0 -126 -36.5 -217t-102 -150.5t-156.5 -87.5t-201 -28z"/>
<glyph glyph-name="K" horiz-adv-x="1298" unicode="K" d="M1298 0h-352l-336 608l-116 -86v-522h-310v1462h310v-704l122 207l334 497h344l-467 -659z"/>
<glyph glyph-name="L" horiz-adv-x="1096" unicode="L" d="M184 0v1462h310v-1206h532v-256h-842z"/>
<glyph glyph-name="M" horiz-adv-x="1870" unicode="M" d="M772 0l-321 1147h-9q6 -92 10 -178q2 -37 3.5 -76t3 -77t2 -73t0.5 -63v-680h-277v1462h422l316 -1118h6l336 1118h422v-1462h-289v692q0 26 0.5 59t1.5 70t2.5 75t2.5 74q4 84 7 175h-8l-346 -1145h-285z"/>
<glyph glyph-name="N" horiz-adv-x="1604" unicode="N" d="M1419 0h-393l-575 1106h-9q6 -77 10 -153q4 -65 6.5 -136.5t2.5 -128.5v-688h-277v1462h391l574 -1095h6q-3 76 -7 150q-1 32 -2.5 65.5t-2.5 67t-1.5 64.5t-0.5 56v692h278v-1462z"/>
<glyph glyph-name="O" horiz-adv-x="1548" unicode="O" d="M438 733q0 -115 20 -206.5t61.5 -155t104.5 -97.5t150 -34q89 0 152.5 34t104 97.5t60 155t19.5 206.5t-19.5 206.5t-60 155.5t-103.5 98t-151 34q-87 0 -151 -34t-105.5 -98t-61.5 -155.5t-20 -206.5zM1430 733q0 -169 -39.5 -308t-120.5 -238t-204.5 -153t-291.5 -54 t-291.5 54t-204 153t-120 238.5t-39.5 309.5t39.5 308.5t120.5 236.5t204.5 151.5t292.5 53.5q168 0 291 -53.5t203.5 -152t120 -237t39.5 -309.5z"/>
<glyph glyph-name="P" horiz-adv-x="1225" unicode="P" d="M1133 1006q0 -96 -29 -184t-95.5 -155t-175 -107t-268.5 -40h-71v-520h-310v1462h406q141 0 243.5 -31.5t169 -90t98.5 -143t32 -191.5zM494 774h61q131 0 197.5 52t66.5 169q0 109 -59.5 161t-186.5 52h-79v-434z"/>
<glyph glyph-name="Q" horiz-adv-x="1548" unicode="Q" d="M438 733q0 -115 20 -206.5t61.5 -155t104.5 -97.5t150 -34q89 0 152.5 34t104 97.5t60 155t19.5 206.5t-19.5 206.5t-60 155.5t-103.5 98t-151 34q-87 0 -151 -34t-105.5 -98t-61.5 -155.5t-20 -206.5zM1430 733q0 -119 -19.5 -223.5t-59 -190.5t-99 -153t-140.5 -111 l361 -403h-398l-268 330q-7 0 -13 -1q-5 -1 -10.5 -1h-9.5q-168 0 -291.5 54t-204 153t-120 238.5t-39.5 309.5t39.5 308.5t120.5 236.5t204.5 151.5t292.5 53.5q168 0 291 -53.5t203.5 -152t120 -237t39.5 -309.5z"/>
<glyph glyph-name="R" horiz-adv-x="1290" unicode="R" d="M494 561v-561h-310v1462h400q281 0 415 -108.5t134 -329.5q0 -75 -20 -136t-53.5 -108.5t-77 -83t-91.5 -59.5q111 -178 199 -318q38 -60 73.5 -117t63.5 -102t46 -72l17 -28h-344l-317 561h-135zM494 813h84q129 0 185 51.5t56 151.5q0 104 -60 148t-186 44h-79v-395z "/>
<glyph glyph-name="S" horiz-adv-x="1073" unicode="S" d="M985 406q0 -98 -33.5 -176.5t-98 -134t-158 -85.5t-214.5 -30q-106 0 -204.5 22t-182.5 66v288q48 -23 97 -44.5t99.5 -38.5t101 -27t100.5 -10q51 0 87.5 11.5t59 32t33 49t10.5 62.5q0 41 -17.5 72.5t-49 59t-76 53.5t-99.5 55q-46 24 -103 58t-107.5 84.5t-84.5 122 t-34 171.5q0 98 32.5 175.5t92.5 131t145.5 81.5t191.5 28q53 0 103.5 -7t100 -20t99.5 -32t103 -44l-100 -241q-45 21 -84 37t-76 27t-72.5 16.5t-71.5 5.5q-78 0 -119.5 -41.5t-41.5 -110.5q0 -37 12.5 -65.5t40 -53.5t71 -51t105.5 -59q75 -40 138 -81.5t108.5 -92 t70.5 -114.5t25 -150z"/>
<glyph glyph-name="T" horiz-adv-x="1124" unicode="T" d="M717 0h-309v1204h-367v258h1042v-258h-366v-1204z"/>
<glyph glyph-name="U" horiz-adv-x="1466" unicode="U" d="M1292 1462v-946q0 -114 -34.5 -212t-105 -170t-176.5 -113t-249 -41q-135 0 -238.5 38.5t-173 109.5t-105.5 170.5t-36 221.5v942h309v-919q0 -81 16 -138.5t47.5 -94t78.5 -53.5t110 -17q131 0 189.5 76t58.5 229v917h309z"/>
<glyph glyph-name="V" horiz-adv-x="1249" unicode="V" d="M936 1462h313l-456 -1462h-338l-455 1462h313l248 -880q5 -17 13.5 -57t18 -88t18.5 -96t14 -81q5 33 14 81t19 95.5t19.5 87.5t14.5 58z"/>
<glyph glyph-name="W" horiz-adv-x="1898" unicode="W" d="M1546 0h-352l-180 721q-4 15 -9.5 42t-12.5 61t-14 71t-13 72t-10.5 64.5t-6.5 47.5q-2 -18 -6.5 -47.5t-10.5 -64t-12.5 -71.5t-13 -71t-12.5 -62t-10 -44l-178 -719h-353l-352 1462h305l166 -798q3 -16 8.5 -46.5t12.5 -68.5t14.5 -80t14.5 -82t13 -74.5t9 -56.5 q3 22 8.5 56t11.5 72.5t13.5 79.5t13.5 76.5t11.5 63t8.5 39.5l203 819h272l203 -819q3 -12 8.5 -39.5t12 -63t13.5 -76.5t13.5 -79.5t12 -72.5t8.5 -56q3 22 8.5 56.5t12.5 74.5t14.5 82t14.5 80t12.5 68.5t8.5 46.5l166 798h305z"/>
<glyph glyph-name="X" horiz-adv-x="1284" unicode="X" d="M1284 0h-354l-299 553l-299 -553h-332l444 754l-413 708h342l274 -526l268 526h334l-418 -725z"/>
<glyph glyph-name="Y" horiz-adv-x="1196" unicode="Y" d="M598 860l264 602h334l-444 -893v-569h-308v559l-444 903h336z"/>
<glyph glyph-name="Z" horiz-adv-x="1104" unicode="Z" d="M1055 0h-1006v201l619 1005h-600v256h968v-200l-618 -1006h637v-256z"/>
<glyph glyph-name="bracketleft" horiz-adv-x="678" unicode="[" d="M627 -324h-484v1786h484v-211h-224v-1364h224v-211z"/>
<glyph glyph-name="backslash" horiz-adv-x="846" unicode="\" d="M289 1462l545 -1462h-277l-545 1462h277z"/>
<glyph glyph-name="bracketright" horiz-adv-x="678" unicode="]" d="M51 -113h223v1364h-223v211h484v-1786h-484v211z"/>
<glyph glyph-name="asciicircum" horiz-adv-x="1090" unicode="^" d="M8 520l438 950h144l495 -950h-239l-322 643q-69 -161 -140.5 -324t-139.5 -319h-236z"/>
<glyph glyph-name="underscore" horiz-adv-x="842" unicode="_" d="M846 -324h-850v140h850v-140z"/>
<glyph glyph-name="grave" horiz-adv-x="1182" unicode="`" d="M645 1241q-34 28 -81.5 69.5t-93.5 85.5t-84 84.5t-54 67.5v21h342q16 -34 37.5 -74.5t44.5 -81t47 -78.5t45 -67v-27h-203z"/>
<glyph glyph-name="a" horiz-adv-x="1176" unicode="a" d="M719 518l-101 -4q-61 -2 -103 -16t-67.5 -37.5t-37 -56t-11.5 -72.5q0 -70 34 -99.5t89 -29.5q42 0 78 14.5t62.5 43t41.5 70t15 95.5v92zM809 0l-59 152h-9q-33 -45 -66 -77.5t-72 -53.5t-87.5 -31t-112.5 -10q-68 0 -126 21.5t-100.5 65t-66.5 110t-24 157.5 q0 178 114 262.5t341 93.5l178 6v84q0 69 -40 102t-112 33t-140.5 -21t-137.5 -56l-99 202q84 47 186 74t214 27q209 0 320.5 -98t111.5 -298v-745h-213z"/>
<glyph glyph-name="b" horiz-adv-x="1245" unicode="b" d="M653 895q-51 0 -86.5 -18.5t-57.5 -55.5t-32 -93.5t-12 -131.5v-33q0 -81 9.5 -144t31.5 -105.5t58.5 -64.5t90.5 -22q91 0 133.5 86.5t42.5 251.5t-42.5 247.5t-135.5 82.5zM756 1139q86 0 157 -37t122 -110t79.5 -181t28.5 -250q0 -144 -28.5 -252.5t-80.5 -181.5 t-125 -110t-161 -37q-56 0 -99.5 12t-77.5 32t-59.5 45.5t-46.5 53.5h-21l-51 -123h-233v1556h305v-362q0 -33 -2 -71.5t-4 -71.5l-6 -78h12q21 35 48 65t62.5 52.5t80.5 35.5t100 13z"/>
<glyph glyph-name="c" horiz-adv-x="1022" unicode="c" d="M625 -20q-120 0 -216.5 33t-165 102.5t-105 178t-36.5 259.5q0 167 37.5 279.5t106 180.5t165 97t214.5 29q86 0 171 -21t160 -59l-88 -232q-66 29 -127 47.5t-116 18.5q-111 0 -161 -84.5t-50 -253.5q0 -168 50 -248t157 -80q87 0 158 22.5t145 57.5v-254 q-37 -18 -72 -32t-70.5 -23t-74 -13.5t-82.5 -4.5z"/>
<glyph glyph-name="d" horiz-adv-x="1245" unicode="d" d="M600 223q54 0 92 18.5t61.5 56t35 93.5t12.5 131v33q0 81 -10 144t-33 105.5t-62 64.5t-98 22q-96 0 -141 -86.5t-45 -251.5t45.5 -247.5t142.5 -82.5zM489 -20q-86 0 -157 37t-122 109.5t-79.5 180.5t-28.5 250q0 144 28.5 252.5t81 182t125.5 110.5t161 37 q54 0 99 -12.5t81 -35t64.5 -52t50.5 -64.5h10q-6 39 -11 79q-5 34 -8.5 72.5t-3.5 71.5v358h305v-1556h-233l-59 145h-13q-21 -34 -48 -64.5t-62.5 -52.5t-80 -35t-100.5 -13z"/>
<glyph glyph-name="e" horiz-adv-x="1190" unicode="e" d="M651 -20q-120 0 -221 35t-174 105.5t-113.5 178t-40.5 252.5q0 147 37 257t103.5 183.5t160 110.5t207.5 37q111 0 200.5 -33.5t152 -98.5t96 -159.5t33.5 -216.5v-148h-682q2 -64 20.5 -115.5t52 -87t81 -54.5t108.5 -19q51 0 96.5 5.5t88.5 16.5t85 27.5t86 38.5v-236 q-40 -21 -80.5 -35.5t-85.5 -24.5t-97 -14.5t-114 -4.5zM612 922q-81 0 -134.5 -57t-61.5 -179h389q-1 51 -13 94t-36 74.5t-60 49.5t-84 18z"/>
<glyph glyph-name="f" horiz-adv-x="793" unicode="f" d="M741 889h-227v-889h-305v889h-168v147l168 82v82q0 107 26 177.5t74 112.5t116 59.5t153 17.5q92 0 155 -14.5t107 -32.5l-72 -224q-31 11 -65 20t-80 9q-60 0 -84.5 -38.5t-24.5 -98.5v-70h227v-229z"/>
<glyph glyph-name="g" horiz-adv-x="1130" unicode="g" d="M395 752q0 -91 34 -141t103 -50q72 0 104 50t32 141q0 90 -31.5 143t-104.5 53q-137 0 -137 -196zM285 -158q0 -25 10.5 -48.5t34.5 -41.5t63 -28.5t96 -10.5q156 0 235 44t79 118q0 63 -49 84t-152 21h-141q-27 0 -58 -6.5t-57 -22.5t-43.5 -42.5t-17.5 -66.5z M1085 1116v-166l-163 -51q20 -34 28 -70.5t8 -78.5q0 -85 -27 -155.5t-80 -120.5t-133 -77.5t-186 -27.5q-23 0 -50 2.5t-40 5.5q-20 -17 -31.5 -35.5t-11.5 -44.5q0 -21 13 -33.5t34 -20t49 -10t58 -2.5h174q81 0 145 -18.5t108.5 -56.5t68.5 -96.5t24 -139.5 q0 -95 -38 -171.5t-113.5 -130t-187.5 -82t-259 -28.5q-114 0 -199 21.5t-142 62t-85.5 97.5t-28.5 129q0 61 21 106t56 77t79.5 52t91.5 31q-21 9 -41.5 25t-37 37t-27 46.5t-10.5 53.5q0 32 9.5 58t27.5 48.5t45 42.5t61 41q-88 38 -139.5 122t-51.5 198q0 90 28 161 t82 120.5t134 75.5t184 26q20 0 45 -2.5t49.5 -6t45.5 -7.5t33 -7h380z"/>
<glyph glyph-name="h" horiz-adv-x="1284" unicode="h" d="M1130 0h-305v653q0 121 -37.5 181.5t-115.5 60.5q-59 0 -99 -24t-64 -71t-34 -116t-10 -158v-526h-305v1556h305v-317q0 -42 -2 -88.5t-5 -85.5q-4 -46 -7 -90h16q49 87 125 125.5t172 38.5q83 0 150.5 -23.5t115.5 -73.5t74 -127.5t26 -185.5v-729z"/>
<glyph glyph-name="i" horiz-adv-x="625" unicode="i" d="M465 0h-305v1118h305v-1118zM147 1407q0 43 13 71.5t35.5 46t53 24.5t64.5 7t64 -7t52.5 -24.5t36 -46t13.5 -71.5q0 -42 -13.5 -71t-36 -46.5t-52.5 -25t-64 -7.5t-64.5 7.5t-53 25t-35.5 46.5t-13 71z"/>
<glyph glyph-name="j" horiz-adv-x="625" unicode="j" d="M147 1407q0 43 13 71.5t35.5 46t53 24.5t64.5 7t64 -7t52.5 -24.5t36 -46t13.5 -71.5q0 -42 -13.5 -71t-36 -46.5t-52.5 -25t-64 -7.5t-64.5 7.5t-53 25t-35.5 46.5t-13 71zM102 -492q-48 0 -99 7t-85 18v240q31 -10 58 -14.5t61 -4.5q25 0 47.5 7.5t39 27t26.5 52 t10 83.5v1194h305v-1239q0 -77 -19.5 -144.5t-63 -118t-112.5 -79.5t-168 -29z"/>
<glyph glyph-name="k" horiz-adv-x="1208" unicode="k" d="M453 608l112 170l273 340h344l-404 -485l430 -633h-352l-272 430l-119 -82v-348h-305v1556h305v-694l-16 -254h4z"/>
<glyph glyph-name="l" horiz-adv-x="625" unicode="l" d="M465 0h-305v1556h305v-1556z"/>
<glyph glyph-name="m" horiz-adv-x="1929" unicode="m" d="M1120 0h-305v653q0 121 -36 181.5t-113 60.5q-58 0 -96.5 -24t-61.5 -71t-33 -116t-10 -158v-526h-305v1118h233l41 -143h17q24 43 57.5 74t73.5 51t85 29.5t91 9.5q115 0 195.5 -39.5t123.5 -124.5h25q24 43 58 74t75 51t86.5 29.5t91.5 9.5q180 0 271.5 -97.5 t91.5 -312.5v-729h-306v653q0 121 -36 181.5t-113 60.5q-109 0 -155 -86.5t-46 -247.5v-561z"/>
<glyph glyph-name="n" horiz-adv-x="1284" unicode="n" d="M1130 0h-305v653q0 121 -36.5 181.5t-116.5 60.5q-60 0 -100 -24t-63.5 -71t-33.5 -116t-10 -158v-526h-305v1118h233l41 -143h17q24 43 58.5 74t75.5 51t87 29.5t94 9.5q82 0 149 -23.5t115 -73.5t74 -127.5t26 -185.5v-729z"/>
<glyph glyph-name="o" horiz-adv-x="1227" unicode="o" d="M1124 561q0 -140 -35.5 -248t-102 -182t-162 -112.5t-214.5 -38.5q-111 0 -204 38.5t-160.5 112.5t-105.5 182t-38 248q0 139 35.5 247t102 181.5t161.5 111.5t215 38q111 0 204 -38t160.5 -111.5t105.5 -181.5t38 -247zM414 561q0 -167 47 -251.5t153 -84.5 q105 0 152 85t47 251q0 167 -47 249.5t-154 82.5q-105 0 -151.5 -82.5t-46.5 -249.5z"/>
<glyph glyph-name="p" horiz-adv-x="1245" unicode="p" d="M653 895q-51 0 -86.5 -18.5t-57.5 -55.5t-32 -93.5t-12 -131.5v-33q0 -81 9.5 -144t31.5 -105.5t58.5 -64.5t90.5 -22q91 0 133.5 86.5t42.5 251.5t-42.5 247.5t-135.5 82.5zM748 -20q-55 0 -98.5 12t-77.5 32t-60 45.5t-47 53.5h-16q4 -35 8 -66q3 -26 5.5 -53.5 t2.5 -42.5v-453h-305v1610h248l43 -145h14q21 34 48 64t62.5 52.5t80.5 36t100 13.5q87 0 158 -37t122 -110t79 -181t28 -250q0 -143 -29 -251.5t-81.5 -182t-125 -110.5t-159.5 -37z"/>
<glyph glyph-name="q" horiz-adv-x="1245" unicode="q" d="M489 -20q-87 0 -158 37t-122 109.5t-79 180.5t-28 250q0 143 28.5 251.5t81 182t125.5 111t161 37.5q56 0 101 -12.5t81.5 -35t64.5 -52t50 -64.5h8l24 143h258v-1610h-305v469q0 19 2.5 47.5t4.5 55.5q3 32 6 65h-13q-20 -34 -47 -64.5t-62.5 -52.5t-80.5 -35t-101 -13z M602 219q55 0 92.5 18.5t60.5 55.5t34 93.5t12 131.5v37q0 81 -9.5 144t-33 105.5t-62 64.5t-96.5 22q-96 0 -141 -86.5t-45 -251.5q0 -168 45.5 -251t142.5 -83z"/>
<glyph glyph-name="r" horiz-adv-x="889" unicode="r" d="M743 1139q12 0 26.5 -0.5t28 -2t25 -3t17.5 -3.5v-286q-8 2 -22 4t-29.5 3.5t-30.5 2t-25 0.5q-59 0 -108.5 -15t-85 -48.5t-55 -88t-19.5 -133.5v-569h-305v1118h231l45 -168h15q24 43 52 78t62.5 59.5t78 38t99.5 13.5z"/>
<glyph glyph-name="s" horiz-adv-x="985" unicode="s" d="M905 332q0 -88 -32 -154t-91 -110t-143 -66t-188 -22q-55 0 -102 3.5t-89 11.5t-81 20t-79 30v252q42 -21 88.5 -38t92.5 -29.5t89.5 -19.5t80.5 -7q41 0 70 7.5t47.5 21t27 32t8.5 39.5t-6.5 37.5t-29.5 35t-67.5 42t-119.5 57.5q-73 33 -126.5 65.5t-88 72.5 t-51.5 91.5t-17 122.5q0 78 30 136.5t85 97.5t132.5 58.5t172.5 19.5q100 0 190 -23t185 -69l-92 -216q-76 36 -145 59t-138 23q-62 0 -89.5 -22t-27.5 -60q0 -20 7 -35.5t28 -32t59 -36t99 -47.5q71 -31 128 -61.5t98 -69.5t63 -91t22 -126z"/>
<glyph glyph-name="t" horiz-adv-x="848" unicode="t" d="M614 223q45 0 85.5 10t82.5 25v-227q-43 -22 -106.5 -36.5t-138.5 -14.5q-73 0 -136 17t-109 59.5t-72.5 114t-26.5 179.5v539h-146v129l168 102l88 236h195v-238h272v-229h-272v-539q0 -65 32 -96t84 -31z"/>
<glyph glyph-name="u" horiz-adv-x="1284" unicode="u" d="M891 0l-41 143h-16q-25 -43 -59.5 -73.5t-75.5 -50.5t-87 -29.5t-94 -9.5q-82 0 -149 23.5t-115 73.5t-74 127t-26 185v729h305v-653q0 -121 36.5 -181.5t116.5 -60.5q60 0 100 24t63.5 71t33.5 116t10 158v526h305v-1118h-233z"/>
<glyph glyph-name="v" horiz-adv-x="1104" unicode="v" d="M395 0l-395 1118h319l185 -637q17 -57 29.5 -118.5t15.5 -110.5h6q3 53 15.5 112.5t29.5 116.5l184 637h320l-395 -1118h-314z"/>
<glyph glyph-name="w" horiz-adv-x="1651" unicode="w" d="M1014 0l-86 391q-4 17 -10.5 48.5t-14.5 71t-16.5 84t-17.5 88.5q-20 103 -44 222h-6q-23 -119 -42 -223q-8 -44 -16.5 -89t-16.5 -84.5t-14.5 -71.5t-10.5 -50l-90 -387h-328l-301 1118h303l113 -495q9 -39 18.5 -93.5t18 -110t15.5 -105t11 -78.5h6q1 19 4.5 49.5 t8.5 65.5t10.5 71.5t11 68.5t10 56.5t7.5 34.5l122 536h336l117 -536q5 -22 13 -68t16.5 -98.5t14.5 -102t7 -77.5h6q3 25 10.5 74t16.5 105.5t19.5 112.5t19.5 95l117 495h299l-305 -1118h-332z"/>
<glyph glyph-name="x" horiz-adv-x="1122" unicode="x" d="M389 571l-360 547h346l186 -336l189 336h346l-365 -547l381 -571h-346l-205 362l-205 -362h-346z"/>
<glyph glyph-name="y" horiz-adv-x="1104" unicode="y" d="M0 1118h334l180 -629q16 -52 23.5 -111t9.5 -106h6q2 23 5.5 51t8.5 57t11.5 57.5t13.5 51.5l176 629h336l-442 -1261q-62 -177 -169 -263t-268 -86q-52 0 -90 5.5t-65 11.5v242q21 -5 53 -9t67 -4q48 0 82 13t58.5 36.5t42 56.5t30.5 74l19 56z"/>
<glyph glyph-name="z" horiz-adv-x="936" unicode="z" d="M877 0h-822v180l457 705h-426v233h772v-198l-442 -687h461v-233z"/>
<glyph glyph-name="braceleft" horiz-adv-x="745" unicode="{" d="M221.5 408q-65.5 41 -190.5 41v239q62 0 110.5 9.5t81.5 31t48.5 53.5t15.5 74v10v318q0 74 19 126.5t68.5 86t134.5 49.5t216 16v-225q-40 -1 -72.5 -7t-55 -21.5t-34.5 -42.5t-12 -70v-299q-6 -187 -234 -222v-12q115 -17 174.5 -70.5t59.5 -141.5v-9v-299 q0 -43 12 -70t34.5 -42.5t55 -21.5t72.5 -7v-226q-131 0 -216 16t-134.5 49.5t-68.5 86.5t-19 127v315q0 97 -65.5 138z"/>
<glyph glyph-name="bar" d="M455 1550h219v-2015h-219v2015z" unicode="|"/>
<glyph glyph-name="braceright" horiz-adv-x="745" unicode="}" d="M469 -45q0 -74 -19 -127t-68.5 -86.5t-134.5 -49.5t-216 -16v226q40 1 72 7t54.5 21.5t35 42.5t12.5 70v299v9q0 88 59.5 141.5t173.5 70.5v12q-227 35 -233 222v299q0 43 -12.5 70t-35 42.5t-54.5 21.5t-72 7v225q131 0 216 -16t134.5 -49.5t68.5 -86t19 -126.5v-318v-6 q0 -44 15.5 -77t48.5 -54.5t81.5 -31t110.5 -9.5v-239q-125 0 -190.5 -41t-65.5 -138v-315z"/>
<glyph glyph-name="asciitilde" d="M528 616q-37 16 -65.5 27t-52 17.5t-44.5 9t-44 2.5q-29 0 -60 -9.5t-61 -26t-58.5 -38.5t-54.5 -47v231q51 54 114.5 81.5t141.5 27.5q30 0 55.5 -2.5t54 -9.5t63.5 -19.5t83 -32.5q38 -16 66.5 -26.5t52.5 -17t45 -9t43 -2.5q29 0 60 9.5t61 25.5t58.5 38.5t53.5 47.5 v-231q-101 -109 -256 -109q-30 0 -55.5 2.5t-54 9t-63.5 19t-83 32.5z" unicode="~"/>
<glyph glyph-name="nonbreakingspace" horiz-adv-x="532" unicode=" "/>
<glyph glyph-name="exclamdown" horiz-adv-x="586" unicode="¡" d="M467 948q0 -47 -13.5 -79.5t-37.5 -52.5t-56 -29t-69 -9q-35 0 -66.5 9t-55.5 29t-38 52.5t-14 79.5q0 45 14 77.5t38 53t55.5 30t66.5 9.5q37 0 69 -9.5t56 -30t37.5 -53t13.5 -77.5zM168 606h244l51 -975h-346z"/>
<glyph glyph-name="cent" d="M543 -20v206q-92 13 -166 50.5t-126 104t-80 166t-28 236.5q0 141 28 242.5t80.5 169.5t126.5 105.5t165 50.5v172h178v-164q38 -1 76 -6.5t73.5 -13.5t67 -18t55.5 -21l-86 -226q-21 10 -47.5 19.5t-54.5 17t-55.5 12t-51.5 4.5q-66 0 -112 -20t-75.5 -61.5t-42.5 -105 t-13 -150.5q0 -171 57 -250.5t186 -79.5q76 0 146.5 18.5t120.5 42.5v-239q-51 -29 -113 -44.5t-131 -17.5v-200h-178z" unicode="¢"/>
<glyph glyph-name="sterling" d="M680 1483q110 0 199.5 -24t169.5 -58l-93 -230q-71 29 -129.5 46.5t-121.5 17.5q-67 0 -104.5 -38.5t-37.5 -133.5v-193h334v-219h-334v-143q0 -55 -13.5 -95.5t-35.5 -69.5t-48.5 -49t-53.5 -34h678v-260h-1008v248q42 18 75.5 39t57 50t35.5 70t12 99v145h-178v219h178 v195q0 113 31.5 192.5t87 129.5t132 73t167.5 23z" unicode="£"/>
<glyph glyph-name="currency" d="M375 723q0 -39 15 -73.5t40.5 -60t59.5 -40t73 -14.5q40 0 75 14.5t61.5 40t41.5 60t15 73.5q0 40 -15 74.5t-41.5 60t-61.5 40.5t-75 15q-39 0 -73 -15t-59.5 -40.5t-40.5 -60t-15 -74.5zM168 723q0 54 14 103.5t39 93.5l-129 127l148 147l127 -127q43 25 94 39t102 14 q54 0 102 -13.5t95 -41.5l127 129l149 -143l-129 -129q25 -42 39.5 -93.5t14.5 -105.5q0 -56 -14 -105t-40 -94l125 -125l-145 -145l-127 125q-44 -23 -93.5 -37t-103.5 -14q-56 0 -105.5 12.5t-92.5 38.5l-125 -123l-146 145l127 125q-53 91 -53 197z" unicode="¤"/>
<glyph glyph-name="yen" d="M565 860l244 602h313l-362 -747h194v-178h-245v-138h245v-178h-245v-221h-287v221h-248v178h248v138h-248v178h191l-357 747h316z" unicode="¥"/>
<glyph glyph-name="brokenbar" d="M455 350h219v-815h-219v815zM455 1550h219v-815h-219v815z" unicode="¦"/>
<glyph glyph-name="section" horiz-adv-x="995" unicode="§" d="M344 827q0 -63 56.5 -111.5t174.5 -99.5l15 -6q15 11 29 25.5t25 32.5t17.5 40t6.5 48q0 32 -10.5 59t-36.5 52.5t-71.5 50t-115.5 49.5q-18 -7 -34 -20.5t-28.5 -31.5t-20 -40t-7.5 -48zM121 805q0 44 10.5 81.5t29 69t42.5 56.5t51 43q-63 40 -98 99t-35 134 q0 65 29 118.5t82.5 91.5t128 58.5t165.5 20.5q102 0 190 -23.5t173 -60.5l-82 -190q-68 32 -138.5 57.5t-148.5 25.5q-81 0 -118 -23t-37 -71q0 -25 12 -46t38 -40.5t66.5 -39t96.5 -42.5q71 -28 129.5 -62t100 -75.5t64.5 -92t23 -112.5q0 -100 -34.5 -161.5t-90.5 -98.5 q62 -40 93.5 -92.5t31.5 -126.5t-31 -133.5t-88 -101.5t-138.5 -65t-182.5 -23q-110 0 -194.5 20.5t-154.5 58.5v207q39 -20 84 -37.5t91 -31t90.5 -21.5t83.5 -8q56 0 93 9t59.5 25t32 37t9.5 46t-7.5 44.5t-30 38.5t-63 40t-106.5 49q-76 32 -136 64t-101 72.5t-62.5 91.5 t-21.5 120z"/>
<glyph glyph-name="dieresis" horiz-adv-x="1182" unicode="¨" d="M651 1405q0 35 11 60.5t30 42t45 24.5t56 8q28 0 53.5 -8t45 -24.5t31 -42t11.5 -60.5q0 -34 -11.5 -59t-31 -41.5t-45 -24.5t-53.5 -8q-60 0 -101 33t-41 100zM248 1405q0 35 11 60.5t29.5 42t44 24.5t54.5 8t54.5 -8t44.5 -24.5t30.5 -42t11.5 -60.5q0 -34 -11.5 -59 t-30.5 -41.5t-44.5 -24.5t-54.5 -8t-54.5 8t-44 24.5t-29.5 41.5t-11 59z"/>
<glyph glyph-name="copyright" horiz-adv-x="1704" unicode="©" d="M242 731q0 -127 48 -238t130.5 -193.5t193.5 -130.5t238 -48t238 48t193.5 130.5t130.5 193.5t48 238t-48 238t-130.5 193.5t-193.5 130.5t-238 48t-238 -48t-193.5 -130.5t-130.5 -193.5t-48 -238zM100 731q0 104 27 200t75.5 179.5t117.5 152.5t152.5 117.5t179.5 75.5 t200 27t200 -27t179.5 -75.5t152.5 -117.5t117.5 -152.5t75.5 -179.5t27 -200t-27 -200t-75.5 -179.5t-117.5 -152t-152.5 -117.5t-179.5 -75.5t-200 -26.5t-200 26.5t-179.5 75.5t-152.5 117.5t-117.5 152t-75.5 179.5t-27 200zM895 1010q-97 0 -150 -74t-53 -205 q0 -135 48 -207.5t155 -72.5q57 0 123 15t123 44v-191q-57 -27 -116 -42t-136 -15q-107 0 -187 34t-133.5 96t-80.5 148.5t-27 192.5q0 103 26 188.5t78.5 147t131.5 95.5t184 34q83 0 160 -22t145 -56l-74 -168q-113 58 -217 58z"/>
<glyph glyph-name="ordfeminine" horiz-adv-x="743" unicode="ª" d="M373 1081q-38 -3 -61.5 -13t-37 -24.5t-18 -31.5t-4.5 -35q0 -38 19 -56t46 -18q32 0 57.5 11t43.5 30.5t27.5 47t9.5 59.5v36zM520 764l-31 110q-40 -58 -96.5 -90t-124.5 -32q-50 0 -90.5 13.5t-69.5 41t-45 69.5t-16 99q0 60 21.5 101.5t62 68t100 40t134.5 17.5l90 4 q0 63 -29.5 90t-83.5 27q-40 0 -89 -17t-101 -44l-66 135q62 32 136 57t165 25q68 0 118.5 -19.5t83.5 -55t49.5 -86t16.5 -112.5v-442h-135z"/>
<glyph glyph-name="guillemotleft" horiz-adv-x="1198" unicode="«" d="M588 573l309 455l219 -119l-217 -348l217 -348l-219 -119l-309 453v26zM82 573l309 455l219 -119l-217 -348l217 -348l-219 -119l-309 453v26z"/>
<glyph glyph-name="logicalnot" d="M1040 248h-219v364h-733v219h952v-583z" unicode="¬"/>
<glyph glyph-name="uni00AD" horiz-adv-x="659" unicode="­" d="M61 424v250h537v-250h-537z"/>
<glyph glyph-name="registered" horiz-adv-x="1704" unicode="®" d="M242 731q0 -127 48 -238t130.5 -193.5t193.5 -130.5t238 -48t238 48t193.5 130.5t130.5 193.5t48 238t-48 238t-130.5 193.5t-193.5 130.5t-238 48t-238 -48t-193.5 -130.5t-130.5 -193.5t-48 -238zM100 731q0 104 27 200t75.5 179.5t117.5 152.5t152.5 117.5t179.5 75.5 t200 27t200 -27t179.5 -75.5t152.5 -117.5t117.5 -152.5t75.5 -179.5t27 -200t-27 -200t-75.5 -179.5t-117.5 -152t-152.5 -117.5t-179.5 -75.5t-200 -26.5t-200 26.5t-179.5 75.5t-152.5 117.5t-117.5 152t-75.5 179.5t-27 200zM772 778h31q66 0 94.5 28.5t28.5 94.5 q0 35 -7.5 58t-23 36.5t-39 19t-55.5 5.5h-29v-242zM1157 905q0 -94 -38.5 -149t-104.5 -84l237 -400h-254l-178 338h-47v-338h-229v916h264q182 0 266 -70t84 -213z"/>
<glyph glyph-name="overscore" horiz-adv-x="1024" unicode="¯" d="M1030 1556h-1036v201h1036v-201z"/>
<glyph glyph-name="degree" horiz-adv-x="877" unicode="°" d="M283 1137q0 -31 12 -59t33 -49t49.5 -33.5t60.5 -12.5t60.5 12.5t49.5 33.5t33.5 49t12.5 59q0 32 -12.5 60.5t-33.5 50t-49.5 34t-60.5 12.5t-60.5 -12.5t-49.5 -34t-33 -50t-12 -60.5zM92 1137q0 71 27 134t74 110t110 74.5t135 27.5t135.5 -27.5t110 -74.5t73.5 -110 t27 -134q0 -72 -27 -135t-73.5 -109.5t-110 -73t-135.5 -26.5t-135 26.5t-110 73t-74 109.5t-27 135z"/>
<glyph glyph-name="plusminus" d="M88 0v219h952v-219h-952zM455 674h-367v219h367v369h219v-369h366v-219h-366v-365h-219v365z" unicode="±"/>
<glyph glyph-name="twosuperior" horiz-adv-x="776" unicode="²" d="M702 586h-647v168l224 219q46 45 76.5 78t49 60t26 50.5t7.5 50.5q0 38 -24 58t-64 20t-83.5 -20.5t-96.5 -67.5l-123 152q65 57 146 93t190 36q66 0 120.5 -16.5t93 -48t60 -78t21.5 -107.5q0 -46 -12.5 -86.5t-39.5 -81.5t-69 -85.5t-102 -98.5l-105 -95h352v-200z"/>
<glyph glyph-name="threesuperior" horiz-adv-x="776" unicode="³" d="M666 1249q0 -69 -40.5 -119t-129.5 -79v-13q51 -10 88 -31t61.5 -48.5t36.5 -60.5t12 -69q0 -121 -88 -190.5t-274 -69.5q-76 0 -142 17.5t-131 52.5v190q66 -40 132 -65t139 -25q74 0 108.5 27t34.5 80q0 21 -8 40t-27 33.5t-51 23.5t-80 9h-112v160h92q52 0 84 9 t50 24.5t24 35t6 40.5q0 38 -25 63t-76 25q-47 0 -89 -19t-99 -59l-101 141q62 47 137.5 78t178.5 31q62 0 115 -16.5t91.5 -46.5t60.5 -73t22 -96z"/>
<glyph glyph-name="acute" horiz-adv-x="1182" unicode="´" d="M332 1241v27q21 29 45 67t47.5 78.5t44.5 81t37 74.5h342v-21q-11 -18 -32 -42.5t-48 -52.5t-58 -57.5t-62.5 -57.5t-60.5 -53t-52 -44h-203z"/>
<glyph glyph-name="mu" horiz-adv-x="1290" unicode="µ" d="M465 465q0 -121 37.5 -181.5t118.5 -60.5q58 0 97 24t63 71t34 116t10 158v526h305v-1118h-233l-43 150h-12q-35 -85 -87.5 -127.5t-127.5 -42.5q-54 0 -99 23t-73 67q2 -42 5 -85q2 -37 3.5 -79t1.5 -78v-320h-305v1610h305v-653z"/>
<glyph glyph-name="paragraph" horiz-adv-x="1341" unicode="¶" d="M1167 -260h-161v1616h-166v-1616h-162v819q-61 -18 -146 -18q-95 0 -172.5 25.5t-132 84.5t-84.5 155t-30 236q0 147 32.5 245.5t92 158.5t142.5 85t183 25h604v-1816z"/>
<glyph glyph-name="periodcentered" horiz-adv-x="584" unicode="·" d="M117 723q0 47 13.5 79.5t37.5 52.5t56 29t69 9q35 0 66.5 -9t55.5 -29t38 -52.5t14 -79.5q0 -45 -14 -77.5t-38 -53t-55.5 -30t-66.5 -9.5q-37 0 -69 9.5t-56 30t-37.5 53t-13.5 77.5z"/>
<glyph glyph-name="cedilla" horiz-adv-x="420" unicode="¸" d="M418 -250q0 -57 -15.5 -102t-51.5 -76t-95.5 -47.5t-146.5 -16.5q-45 0 -81 6t-65 15v168q15 -4 33.5 -7.5t38 -6.5t38 -5t33.5 -2q29 0 50.5 13.5t21.5 48.5q0 37 -37 65.5t-129 42.5l78 154h193l-27 -61q31 -10 60 -27t51.5 -40.5t36.5 -54t14 -67.5z"/>
<glyph glyph-name="onesuperior" horiz-adv-x="776" unicode="¹" d="M584 586h-238v446q0 20 0.5 50.5t2 61.5t3 57t2.5 38q-6 -8 -15.5 -18.5t-20 -21.5t-21 -21t-18.5 -17l-78 -61l-109 127l301 235h191v-876z"/>
<glyph glyph-name="ordmasculine" horiz-adv-x="754" unicode="º" d="M260 1116q0 -100 27.5 -150.5t89.5 -50.5q60 0 87.5 50.5t27.5 150.5t-27.5 149.5t-87.5 49.5q-62 0 -89.5 -49.5t-27.5 -149.5zM696 1116q0 -87 -22.5 -154.5t-64.5 -114t-101 -71t-133 -24.5q-69 0 -127.5 24.5t-101 71t-66 114t-23.5 154.5t22.5 154.5t64 114 t101 70.5t134.5 24q68 0 125.5 -24t100.5 -70.5t67 -114t24 -154.5z"/>
<glyph glyph-name="guillemotright" horiz-adv-x="1198" unicode="»" d="M612 547l-309 -453l-219 119l217 348l-217 348l219 119l309 -455v-26zM1118 547l-309 -453l-219 119l217 348l-217 348l219 119l309 -455v-26z"/>
<glyph glyph-name="onequarter" horiz-adv-x="1804" unicode="¼" d="M1370 1462l-811 -1462h-239l811 1462h239zM538 586h-238v446q0 20 0.5 50.5t2 61.5t3 57t2.5 38q-6 -8 -15.5 -18.5t-20 -21.5t-21 -21t-18.5 -17l-78 -61l-109 127l301 235h191v-876zM1319 320v164q0 42 1.5 88.5t4.5 95.5q-5 -13 -14.5 -34.5t-20.5 -44t-22 -43.5 t-20 -35l-127 -191h198zM1682 152h-125v-151h-238v151h-383v154l385 577h236v-563h125v-168z"/>
<glyph glyph-name="onehalf" horiz-adv-x="1804" unicode="½" d="M1370 1462l-811 -1462h-239l811 1462h239zM538 586h-238v446q0 20 0.5 50.5t2 61.5t3 57t2.5 38q-6 -8 -15.5 -18.5t-20 -21.5t-21 -21t-18.5 -17l-78 -61l-109 127l301 235h191v-876zM1716 1h-647v168l224 219q46 45 76.5 78t49 60t26 50.5t7.5 50.5q0 38 -24 58t-64 20 t-83.5 -20.5t-96.5 -67.5l-123 152q65 57 146 93t190 36q66 0 120.5 -16.5t93 -48t60 -78t21.5 -107.5q0 -46 -12.5 -86.5t-39.5 -81.5t-69 -85.5t-102 -98.5l-105 -95h352v-200z"/>
<glyph glyph-name="threequarters" horiz-adv-x="1804" unicode="¾" d="M1441 1462l-811 -1462h-239l811 1462h239zM1349 320v164q0 42 1.5 88.5t4.5 95.5q-5 -13 -14.5 -34.5t-20.5 -44t-22 -43.5t-20 -35l-127 -191h198zM1712 152h-125v-151h-238v151h-383v154l385 577h236v-563h125v-168zM697 1249q0 -69 -40.5 -119t-129.5 -79v-13 q51 -10 88 -31t61.5 -48.5t36.5 -60.5t12 -69q0 -121 -88 -190.5t-274 -69.5q-76 0 -142 17.5t-131 52.5v190q66 -40 132 -65t139 -25q74 0 108.5 27t34.5 80q0 21 -8 40t-27 33.5t-51 23.5t-80 9h-112v160h92q52 0 84 9t50 24.5t24 35t6 40.5q0 38 -25 63t-76 25 q-47 0 -89 -19t-99 -59l-101 141q62 47 137.5 78t178.5 31q62 0 115 -16.5t91.5 -46.5t60.5 -73t22 -96z"/>
<glyph glyph-name="questiondown" horiz-adv-x="940" unicode="¿" d="M719 948q0 -47 -13.5 -79.5t-37.5 -52.5t-56 -29t-69 -9q-35 0 -66.5 9t-55.5 29t-38 52.5t-14 79.5q0 45 14 77.5t38 53t55.5 30t66.5 9.5q37 0 69 -9.5t56 -30t37.5 -53t13.5 -77.5zM686 606v-74q0 -51 -10.5 -92.5t-32 -79t-55.5 -72.5t-82 -73q-42 -33 -71 -59 t-47 -51.5t-26 -53.5t-8 -65q0 -57 39 -94t117 -37q69 0 149 29.5t164 70.5l103 -221q-43 -26 -94 -48.5t-105.5 -39.5t-110.5 -27t-110 -10q-102 0 -183.5 24.5t-138.5 71t-87.5 114t-30.5 152.5q0 63 13.5 112.5t41.5 92t69.5 82.5t96.5 84q41 33 67.5 57.5t41.5 46.5 t20.5 46t5.5 55v59h264z"/>
<glyph glyph-name="Agrave" horiz-adv-x="1331" unicode="À" d="M846 608l-94 320q-6 18 -18 59t-25.5 90.5t-25.5 99.5t-17 85q-4 -22 -10.5 -52t-15 -63.5t-17.5 -67.5t-17 -64t-14.5 -53t-9.5 -34l-93 -320h357zM1018 0l-100 348h-504l-101 -348h-313l475 1468h379l477 -1468h-313zM632 1579q-34 28 -81.5 69.5t-93.5 85.5t-84 84.5 t-54 67.5v21h342q16 -34 37.5 -74.5t44.5 -81t47 -78.5t45 -67v-27h-203z"/>
<glyph glyph-name="Aacute" horiz-adv-x="1331" unicode="Á" d="M846 608l-94 320q-6 18 -18 59t-25.5 90.5t-25.5 99.5t-17 85q-4 -22 -10.5 -52t-15 -63.5t-17.5 -67.5t-17 -64t-14.5 -53t-9.5 -34l-93 -320h357zM1018 0l-100 348h-504l-101 -348h-313l475 1468h379l477 -1468h-313zM494 1579v27q21 29 45 67t47.5 78.5t44.5 81 t37 74.5h342v-21q-11 -18 -32 -42.5t-48 -52.5t-58 -57.5t-62.5 -57.5t-60.5 -53t-52 -44h-203z"/>
<glyph glyph-name="Acircumflex" horiz-adv-x="1331" unicode="Â" d="M846 608l-94 320q-6 18 -18 59t-25.5 90.5t-25.5 99.5t-17 85q-4 -22 -10.5 -52t-15 -63.5t-17.5 -67.5t-17 -64t-14.5 -53t-9.5 -34l-93 -320h357zM1018 0l-100 348h-504l-101 -348h-313l475 1468h379l477 -1468h-313zM879 1579q-51 34 -106 77t-107 99 q-54 -56 -106 -99t-103 -77h-203v27q26 29 57.5 67t64 78.5t62.5 81t52 74.5h356q21 -34 51 -74.5t62.5 -81t65 -78.5t57.5 -67v-27h-203z"/>
<glyph glyph-name="Atilde" horiz-adv-x="1331" unicode="Ã" d="M846 608l-94 320q-6 18 -18 59t-25.5 90.5t-25.5 99.5t-17 85q-4 -22 -10.5 -52t-15 -63.5t-17.5 -67.5t-17 -64t-14.5 -53t-9.5 -34l-93 -320h357zM1018 0l-100 348h-504l-101 -348h-313l475 1468h379l477 -1468h-313zM504 1684q-31 0 -49.5 -26.5t-30.5 -80.5h-149 q6 80 26 138t52.5 96t76.5 56.5t97 18.5q41 0 80 -16t77.5 -35.5t76 -36t73.5 -16.5q31 0 49 26t31 80h149q-6 -79 -26.5 -137t-53.5 -96.5t-76.5 -57t-95.5 -18.5q-40 0 -80 16.5t-78 36t-75.5 36t-73.5 16.5z"/>
<glyph glyph-name="Adieresis" horiz-adv-x="1331" unicode="Ä" d="M846 608l-94 320q-6 18 -18 59t-25.5 90.5t-25.5 99.5t-17 85q-4 -22 -10.5 -52t-15 -63.5t-17.5 -67.5t-17 -64t-14.5 -53t-9.5 -34l-93 -320h357zM1018 0l-100 348h-504l-101 -348h-313l475 1468h379l477 -1468h-313zM727 1743q0 35 11 60.5t30 42t45 24.5t56 8 q28 0 53.5 -8t45 -24.5t31 -42t11.5 -60.5q0 -34 -11.5 -59t-31 -41.5t-45 -24.5t-53.5 -8q-60 0 -101 33t-41 100zM324 1743q0 35 11 60.5t29.5 42t44 24.5t54.5 8t54.5 -8t44.5 -24.5t30.5 -42t11.5 -60.5q0 -34 -11.5 -59t-30.5 -41.5t-44.5 -24.5t-54.5 -8t-54.5 8 t-44 24.5t-29.5 41.5t-11 59z"/>
<glyph glyph-name="Aring" horiz-adv-x="1331" unicode="Å" d="M846 608l-94 320q-6 18 -18 59t-25.5 90.5t-25.5 99.5t-17 85q-4 -22 -10.5 -52t-15 -63.5t-17.5 -67.5t-17 -64t-14.5 -53t-9.5 -34l-93 -320h357zM1018 0l-100 348h-504l-101 -348h-313l475 1468h379l477 -1468h-313zM760 1565q0 45 -27 70.5t-69 25.5t-69 -25.5 t-27 -70.5t24 -71t72 -26q42 0 69 26t27 71zM918 1567q0 -56 -19.5 -100.5t-54 -75.5t-80.5 -47.5t-100 -16.5q-55 0 -101 16.5t-78.5 47t-50.5 75t-18 99.5t18 99t50.5 74.5t78.5 47t101 16.5q53 0 99 -16.5t80.5 -47t54.5 -74t20 -97.5z"/>
<glyph glyph-name="AE" horiz-adv-x="1888" unicode="Æ" d="M578 608h348v590h-97zM1767 0h-841v348h-461l-150 -348h-315l655 1462h1112v-254h-532v-321h496v-254h-496v-377h532v-256z"/>
<glyph glyph-name="Ccedilla" horiz-adv-x="1305" unicode="Ç" d="M805 1225q-89 0 -157.5 -34.5t-115 -99t-70.5 -157t-24 -207.5q0 -117 21.5 -208t66 -153.5t114 -95t165.5 -32.5q89 0 178.5 20t194.5 57v-260q-48 -20 -95 -34t-96 -23t-100.5 -13.5t-110.5 -4.5q-169 0 -293 54t-205 152t-120 236t-39 307q0 166 45 304.5t132 238.5 t215 155.5t294 55.5q109 0 218.5 -27.5t209.5 -75.5l-100 -252q-82 39 -165 68t-163 29zM926 -250q0 -57 -15.5 -102t-51.5 -76t-95.5 -47.5t-146.5 -16.5q-45 0 -81 6t-65 15v168q15 -4 33.5 -7.5t38 -6.5t38 -5t33.5 -2q29 0 50.5 13.5t21.5 48.5q0 37 -37 65.5t-129 42.5 l78 154h193l-27 -61q31 -10 60 -27t51.5 -40.5t36.5 -54t14 -67.5z"/>
<glyph glyph-name="Egrave" horiz-adv-x="1147" unicode="È" d="M1026 0h-842v1462h842v-254h-532v-321h495v-254h-495v-377h532v-256zM572 1579q-34 28 -81.5 69.5t-93.5 85.5t-84 84.5t-54 67.5v21h342q16 -34 37.5 -74.5t44.5 -81t47 -78.5t45 -67v-27h-203z"/>
<glyph glyph-name="Eacute" horiz-adv-x="1147" unicode="É" d="M1026 0h-842v1462h842v-254h-532v-321h495v-254h-495v-377h532v-256zM424 1579v27q21 29 45 67t47.5 78.5t44.5 81t37 74.5h342v-21q-11 -18 -32 -42.5t-48 -52.5t-58 -57.5t-62.5 -57.5t-60.5 -53t-52 -44h-203z"/>
<glyph glyph-name="Ecircumflex" horiz-adv-x="1147" unicode="Ê" d="M1026 0h-842v1462h842v-254h-532v-321h495v-254h-495v-377h532v-256zM832 1579q-51 34 -106 77t-107 99q-54 -56 -106 -99t-103 -77h-203v27q26 29 57.5 67t64 78.5t62.5 81t52 74.5h356q21 -34 51 -74.5t62.5 -81t65 -78.5t57.5 -67v-27h-203z"/>
<glyph glyph-name="Edieresis" horiz-adv-x="1147" unicode="Ë" d="M1026 0h-842v1462h842v-254h-532v-321h495v-254h-495v-377h532v-256zM676 1743q0 35 11 60.5t30 42t45 24.5t56 8q28 0 53.5 -8t45 -24.5t31 -42t11.5 -60.5q0 -34 -11.5 -59t-31 -41.5t-45 -24.5t-53.5 -8q-60 0 -101 33t-41 100zM273 1743q0 35 11 60.5t29.5 42 t44 24.5t54.5 8t54.5 -8t44.5 -24.5t30.5 -42t11.5 -60.5q0 -34 -11.5 -59t-30.5 -41.5t-44.5 -24.5t-54.5 -8t-54.5 8t-44 24.5t-29.5 41.5t-11 59z"/>
<glyph glyph-name="Igrave" horiz-adv-x="797" unicode="Ì" d="M731 0h-665v176l178 82v946l-178 82v176h665v-176l-178 -82v-946l178 -82v-176zM355 1579q-34 28 -81.5 69.5t-93.5 85.5t-84 84.5t-54 67.5v21h342q16 -34 37.5 -74.5t44.5 -81t47 -78.5t45 -67v-27h-203z"/>
<glyph glyph-name="Iacute" horiz-adv-x="797" unicode="Í" d="M731 0h-665v176l178 82v946l-178 82v176h665v-176l-178 -82v-946l178 -82v-176zM237 1579v27q21 29 45 67t47.5 78.5t44.5 81t37 74.5h342v-21q-11 -18 -32 -42.5t-48 -52.5t-58 -57.5t-62.5 -57.5t-60.5 -53t-52 -44h-203z"/>
<glyph glyph-name="Icircumflex" horiz-adv-x="797" unicode="Î" d="M731 0h-665v176l178 82v946l-178 82v176h665v-176l-178 -82v-946l178 -82v-176zM609 1579q-51 34 -106 77t-107 99q-54 -56 -106 -99t-103 -77h-203v27q26 29 57.5 67t64 78.5t62.5 81t52 74.5h356q21 -34 51 -74.5t62.5 -81t65 -78.5t57.5 -67v-27h-203z"/>
<glyph glyph-name="Idieresis" horiz-adv-x="797" unicode="Ï" d="M731 0h-665v176l178 82v946l-178 82v176h665v-176l-178 -82v-946l178 -82v-176zM457 1743q0 35 11 60.5t30 42t45 24.5t56 8q28 0 53.5 -8t45 -24.5t31 -42t11.5 -60.5q0 -34 -11.5 -59t-31 -41.5t-45 -24.5t-53.5 -8q-60 0 -101 33t-41 100zM54 1743q0 35 11 60.5 t29.5 42t44 24.5t54.5 8t54.5 -8t44.5 -24.5t30.5 -42t11.5 -60.5q0 -34 -11.5 -59t-30.5 -41.5t-44.5 -24.5t-54.5 -8t-54.5 8t-44 24.5t-29.5 41.5t-11 59z"/>
<glyph glyph-name="Eth" horiz-adv-x="1434" unicode="Ð" d="M1001 737q0 122 -24.5 210.5t-71 146.5t-114 86t-154.5 28h-143v-358h237v-254h-237v-340h114q196 0 294.5 120t98.5 361zM47 850h137v612h428q161 0 290.5 -46t221.5 -136.5t141.5 -224.5t49.5 -310q0 -185 -50.5 -324.5t-146 -233t-234 -140.5t-315.5 -47h-385v596 h-137v254z"/>
<glyph glyph-name="Ntilde" horiz-adv-x="1604" unicode="Ñ" d="M1419 0h-393l-575 1106h-9q6 -77 10 -153q4 -65 6.5 -136.5t2.5 -128.5v-688h-277v1462h391l574 -1095h6q-3 76 -7 150q-1 32 -2.5 65.5t-2.5 67t-1.5 64.5t-0.5 56v692h278v-1462zM623 1684q-31 0 -49.5 -26.5t-30.5 -80.5h-149q6 80 26 138t52.5 96t76.5 56.5t97 18.5 q41 0 80 -16t77.5 -35.5t76 -36t73.5 -16.5q31 0 49 26t31 80h149q-6 -79 -26.5 -137t-53.5 -96.5t-76.5 -57t-95.5 -18.5q-40 0 -80 16.5t-78 36t-75.5 36t-73.5 16.5z"/>
<glyph glyph-name="Ograve" horiz-adv-x="1548" unicode="Ò" d="M438 733q0 -115 20 -206.5t61.5 -155t104.5 -97.5t150 -34q89 0 152.5 34t104 97.5t60 155t19.5 206.5t-19.5 206.5t-60 155.5t-103.5 98t-151 34q-87 0 -151 -34t-105.5 -98t-61.5 -155.5t-20 -206.5zM1430 733q0 -169 -39.5 -308t-120.5 -238t-204.5 -153t-291.5 -54 t-291.5 54t-204 153t-120 238.5t-39.5 309.5t39.5 308.5t120.5 236.5t204.5 151.5t292.5 53.5q168 0 291 -53.5t203.5 -152t120 -237t39.5 -309.5zM729 1579q-34 28 -81.5 69.5t-93.5 85.5t-84 84.5t-54 67.5v21h342q16 -34 37.5 -74.5t44.5 -81t47 -78.5t45 -67v-27h-203z "/>
<glyph glyph-name="Oacute" horiz-adv-x="1548" unicode="Ó" d="M438 733q0 -115 20 -206.5t61.5 -155t104.5 -97.5t150 -34q89 0 152.5 34t104 97.5t60 155t19.5 206.5t-19.5 206.5t-60 155.5t-103.5 98t-151 34q-87 0 -151 -34t-105.5 -98t-61.5 -155.5t-20 -206.5zM1430 733q0 -169 -39.5 -308t-120.5 -238t-204.5 -153t-291.5 -54 t-291.5 54t-204 153t-120 238.5t-39.5 309.5t39.5 308.5t120.5 236.5t204.5 151.5t292.5 53.5q168 0 291 -53.5t203.5 -152t120 -237t39.5 -309.5zM590 1579v27q21 29 45 67t47.5 78.5t44.5 81t37 74.5h342v-21q-11 -18 -32 -42.5t-48 -52.5t-58 -57.5t-62.5 -57.5 t-60.5 -53t-52 -44h-203z"/>
<glyph glyph-name="Ocircumflex" horiz-adv-x="1548" unicode="Ô" d="M438 733q0 -115 20 -206.5t61.5 -155t104.5 -97.5t150 -34q89 0 152.5 34t104 97.5t60 155t19.5 206.5t-19.5 206.5t-60 155.5t-103.5 98t-151 34q-87 0 -151 -34t-105.5 -98t-61.5 -155.5t-20 -206.5zM1430 733q0 -169 -39.5 -308t-120.5 -238t-204.5 -153t-291.5 -54 t-291.5 54t-204 153t-120 238.5t-39.5 309.5t39.5 308.5t120.5 236.5t204.5 151.5t292.5 53.5q168 0 291 -53.5t203.5 -152t120 -237t39.5 -309.5zM975 1579q-51 34 -106 77t-107 99q-54 -56 -106 -99t-103 -77h-203v27q26 29 57.5 67t64 78.5t62.5 81t52 74.5h356 q21 -34 51 -74.5t62.5 -81t65 -78.5t57.5 -67v-27h-203z"/>
<glyph glyph-name="Otilde" horiz-adv-x="1548" unicode="Õ" d="M438 733q0 -115 20 -206.5t61.5 -155t104.5 -97.5t150 -34q89 0 152.5 34t104 97.5t60 155t19.5 206.5t-19.5 206.5t-60 155.5t-103.5 98t-151 34q-87 0 -151 -34t-105.5 -98t-61.5 -155.5t-20 -206.5zM1430 733q0 -169 -39.5 -308t-120.5 -238t-204.5 -153t-291.5 -54 t-291.5 54t-204 153t-120 238.5t-39.5 309.5t39.5 308.5t120.5 236.5t204.5 151.5t292.5 53.5q168 0 291 -53.5t203.5 -152t120 -237t39.5 -309.5zM612 1684q-31 0 -49.5 -26.5t-30.5 -80.5h-149q6 80 26 138t52.5 96t76.5 56.5t97 18.5q41 0 80 -16t77.5 -35.5t76 -36 t73.5 -16.5q31 0 49 26t31 80h149q-6 -79 -26.5 -137t-53.5 -96.5t-76.5 -57t-95.5 -18.5q-40 0 -80 16.5t-78 36t-75.5 36t-73.5 16.5z"/>
<glyph glyph-name="Odieresis" horiz-adv-x="1548" unicode="Ö" d="M438 733q0 -115 20 -206.5t61.5 -155t104.5 -97.5t150 -34q89 0 152.5 34t104 97.5t60 155t19.5 206.5t-19.5 206.5t-60 155.5t-103.5 98t-151 34q-87 0 -151 -34t-105.5 -98t-61.5 -155.5t-20 -206.5zM1430 733q0 -169 -39.5 -308t-120.5 -238t-204.5 -153t-291.5 -54 t-291.5 54t-204 153t-120 238.5t-39.5 309.5t39.5 308.5t120.5 236.5t204.5 151.5t292.5 53.5q168 0 291 -53.5t203.5 -152t120 -237t39.5 -309.5zM831 1743q0 35 11 60.5t30 42t45 24.5t56 8q28 0 53.5 -8t45 -24.5t31 -42t11.5 -60.5q0 -34 -11.5 -59t-31 -41.5t-45 -24.5 t-53.5 -8q-60 0 -101 33t-41 100zM428 1743q0 35 11 60.5t29.5 42t44 24.5t54.5 8t54.5 -8t44.5 -24.5t30.5 -42t11.5 -60.5q0 -34 -11.5 -59t-30.5 -41.5t-44.5 -24.5t-54.5 -8t-54.5 8t-44 24.5t-29.5 41.5t-11 59z"/>
<glyph glyph-name="multiply" d="M408 723l-299 301l151 154l301 -299l305 299l154 -150l-305 -305l301 -303l-150 -152l-305 301l-301 -299l-149 152z" unicode="×"/>
<glyph glyph-name="Oslash" horiz-adv-x="1548" unicode="Ø" d="M1110 733q0 171 -43 287l-455 -741q34 -19 74 -29t88 -10q89 0 152.5 34t104 97.5t60 155t19.5 206.5zM438 733q0 -180 47 -295l457 746q-69 43 -166 43q-87 0 -151 -34t-105.5 -98t-61.5 -155.5t-20 -206.5zM1430 733q0 -169 -39.5 -308t-120.5 -238t-204.5 -153 t-291.5 -54q-179 0 -307 61l-72 -117l-168 94l82 134q-97 100 -143.5 248t-46.5 335q0 170 39.5 308.5t120.5 236.5t204.5 151.5t292.5 53.5q91 0 168.5 -16.5t142.5 -47.5l70 111l166 -96l-80 -129q94 -99 140.5 -244.5t46.5 -329.5z"/>
<glyph glyph-name="Ugrave" horiz-adv-x="1466" unicode="Ù" d="M1292 1462v-946q0 -114 -34.5 -212t-105 -170t-176.5 -113t-249 -41q-135 0 -238.5 38.5t-173 109.5t-105.5 170.5t-36 221.5v942h309v-919q0 -81 16 -138.5t47.5 -94t78.5 -53.5t110 -17q131 0 189.5 76t58.5 229v917h309zM706 1579q-34 28 -81.5 69.5t-93.5 85.5 t-84 84.5t-54 67.5v21h342q16 -34 37.5 -74.5t44.5 -81t47 -78.5t45 -67v-27h-203z"/>
<glyph glyph-name="Uacute" horiz-adv-x="1466" unicode="Ú" d="M1292 1462v-946q0 -114 -34.5 -212t-105 -170t-176.5 -113t-249 -41q-135 0 -238.5 38.5t-173 109.5t-105.5 170.5t-36 221.5v942h309v-919q0 -81 16 -138.5t47.5 -94t78.5 -53.5t110 -17q131 0 189.5 76t58.5 229v917h309zM570 1579v27q21 29 45 67t47.5 78.5t44.5 81 t37 74.5h342v-21q-11 -18 -32 -42.5t-48 -52.5t-58 -57.5t-62.5 -57.5t-60.5 -53t-52 -44h-203z"/>
<glyph glyph-name="Ucircumflex" horiz-adv-x="1466" unicode="Û" d="M1292 1462v-946q0 -114 -34.5 -212t-105 -170t-176.5 -113t-249 -41q-135 0 -238.5 38.5t-173 109.5t-105.5 170.5t-36 221.5v942h309v-919q0 -81 16 -138.5t47.5 -94t78.5 -53.5t110 -17q131 0 189.5 76t58.5 229v917h309zM942 1579q-51 34 -106 77t-107 99 q-54 -56 -106 -99t-103 -77h-203v27q26 29 57.5 67t64 78.5t62.5 81t52 74.5h356q21 -34 51 -74.5t62.5 -81t65 -78.5t57.5 -67v-27h-203z"/>
<glyph glyph-name="Udieresis" horiz-adv-x="1466" unicode="Ü" d="M1292 1462v-946q0 -114 -34.5 -212t-105 -170t-176.5 -113t-249 -41q-135 0 -238.5 38.5t-173 109.5t-105.5 170.5t-36 221.5v942h309v-919q0 -81 16 -138.5t47.5 -94t78.5 -53.5t110 -17q131 0 189.5 76t58.5 229v917h309zM796 1743q0 35 11 60.5t30 42t45 24.5t56 8 q28 0 53.5 -8t45 -24.5t31 -42t11.5 -60.5q0 -34 -11.5 -59t-31 -41.5t-45 -24.5t-53.5 -8q-60 0 -101 33t-41 100zM393 1743q0 35 11 60.5t29.5 42t44 24.5t54.5 8t54.5 -8t44.5 -24.5t30.5 -42t11.5 -60.5q0 -34 -11.5 -59t-30.5 -41.5t-44.5 -24.5t-54.5 -8t-54.5 8 t-44 24.5t-29.5 41.5t-11 59z"/>
<glyph glyph-name="Yacute" horiz-adv-x="1196" unicode="Ý" d="M598 860l264 602h334l-444 -893v-569h-308v559l-444 903h336zM422 1579v27q21 29 45 67t47.5 78.5t44.5 81t37 74.5h342v-21q-11 -18 -32 -42.5t-48 -52.5t-58 -57.5t-62.5 -57.5t-60.5 -53t-52 -44h-203z"/>
<glyph glyph-name="Thorn" horiz-adv-x="1225" unicode="Þ" d="M494 543h84q121 0 181 52.5t60 174.5q0 108 -53 159.5t-168 51.5h-104v-438zM1133 770q0 -94 -25.5 -180t-84 -152t-154 -105.5t-236.5 -39.5h-139v-293h-310v1462h310v-229h161q124 0 214 -33t148.5 -93.5t87 -146t28.5 -190.5z"/>
<glyph glyph-name="germandbls" horiz-adv-x="1395" unicode="ß" d="M1188 1241q0 -64 -21.5 -112.5t-53 -86.5t-69 -67t-69 -53t-53 -45t-21.5 -43q0 -20 12.5 -37t39 -37t67.5 -45.5t98 -63.5q49 -31 87 -63.5t64.5 -71t40 -84.5t13.5 -106q0 -172 -117 -259t-344 -87q-98 0 -170.5 14.5t-132.5 48.5v242q24 -16 58.5 -31.5t72.5 -27.5 t78 -19.5t74 -7.5q80 0 124 30.5t44 92.5q0 27 -7 48t-27.5 42t-57.5 45.5t-97 58.5q-63 36 -105.5 68t-69 63.5t-37.5 66t-11 74.5q0 53 20.5 92t51.5 70t67.5 57t67.5 52.5t51.5 57.5t20.5 71q0 63 -50 102t-147 39q-108 0 -161.5 -48.5t-53.5 -152.5v-1128h-305v1139 q0 109 37 189.5t105.5 133.5t164.5 79t213 26q115 0 209 -21.5t160.5 -63t102.5 -102.5t36 -139z"/>
<glyph glyph-name="agrave" horiz-adv-x="1176" unicode="à" d="M719 518l-101 -4q-61 -2 -103 -16t-67.5 -37.5t-37 -56t-11.5 -72.5q0 -70 34 -99.5t89 -29.5q42 0 78 14.5t62.5 43t41.5 70t15 95.5v92zM809 0l-59 152h-9q-33 -45 -66 -77.5t-72 -53.5t-87.5 -31t-112.5 -10q-68 0 -126 21.5t-100.5 65t-66.5 110t-24 157.5 q0 178 114 262.5t341 93.5l178 6v84q0 69 -40 102t-112 33t-140.5 -21t-137.5 -56l-99 202q84 47 186 74t214 27q209 0 320.5 -98t111.5 -298v-745h-213zM552 1241q-34 28 -81.5 69.5t-93.5 85.5t-84 84.5t-54 67.5v21h342q16 -34 37.5 -74.5t44.5 -81t47 -78.5t45 -67v-27 h-203z"/>
<glyph glyph-name="aacute" horiz-adv-x="1176" unicode="á" d="M719 518l-101 -4q-61 -2 -103 -16t-67.5 -37.5t-37 -56t-11.5 -72.5q0 -70 34 -99.5t89 -29.5q42 0 78 14.5t62.5 43t41.5 70t15 95.5v92zM809 0l-59 152h-9q-33 -45 -66 -77.5t-72 -53.5t-87.5 -31t-112.5 -10q-68 0 -126 21.5t-100.5 65t-66.5 110t-24 157.5 q0 178 114 262.5t341 93.5l178 6v84q0 69 -40 102t-112 33t-140.5 -21t-137.5 -56l-99 202q84 47 186 74t214 27q209 0 320.5 -98t111.5 -298v-745h-213zM441 1241v27q21 29 45 67t47.5 78.5t44.5 81t37 74.5h342v-21q-11 -18 -32 -42.5t-48 -52.5t-58 -57.5t-62.5 -57.5 t-60.5 -53t-52 -44h-203z"/>
<glyph glyph-name="acircumflex" horiz-adv-x="1176" unicode="â" d="M719 518l-101 -4q-61 -2 -103 -16t-67.5 -37.5t-37 -56t-11.5 -72.5q0 -70 34 -99.5t89 -29.5q42 0 78 14.5t62.5 43t41.5 70t15 95.5v92zM809 0l-59 152h-9q-33 -45 -66 -77.5t-72 -53.5t-87.5 -31t-112.5 -10q-68 0 -126 21.5t-100.5 65t-66.5 110t-24 157.5 q0 178 114 262.5t341 93.5l178 6v84q0 69 -40 102t-112 33t-140.5 -21t-137.5 -56l-99 202q84 47 186 74t214 27q209 0 320.5 -98t111.5 -298v-745h-213zM801 1240q-51 34 -106 77t-107 99q-54 -56 -106 -99t-103 -77h-203v27q26 29 57.5 67t64 78.5t62.5 81t52 74.5h356 q21 -34 51 -74.5t62.5 -81t65 -78.5t57.5 -67v-27h-203z"/>
<glyph glyph-name="atilde" horiz-adv-x="1176" unicode="ã" d="M719 518l-101 -4q-61 -2 -103 -16t-67.5 -37.5t-37 -56t-11.5 -72.5q0 -70 34 -99.5t89 -29.5q42 0 78 14.5t62.5 43t41.5 70t15 95.5v92zM809 0l-59 152h-9q-33 -45 -66 -77.5t-72 -53.5t-87.5 -31t-112.5 -10q-68 0 -126 21.5t-100.5 65t-66.5 110t-24 157.5 q0 178 114 262.5t341 93.5l178 6v84q0 69 -40 102t-112 33t-140.5 -21t-137.5 -56l-99 202q84 47 186 74t214 27q209 0 320.5 -98t111.5 -298v-745h-213zM425 1346q-31 0 -49.5 -26.5t-30.5 -80.5h-149q6 80 26 138t52.5 96t76.5 56.5t97 18.5q41 0 80 -16t77.5 -35.5 t76 -36t73.5 -16.5q31 0 49 26t31 80h149q-6 -79 -26.5 -137t-53.5 -96.5t-76.5 -57t-95.5 -18.5q-40 0 -80 16.5t-78 36t-75.5 36t-73.5 16.5z"/>
<glyph glyph-name="adieresis" horiz-adv-x="1176" unicode="ä" d="M719 518l-101 -4q-61 -2 -103 -16t-67.5 -37.5t-37 -56t-11.5 -72.5q0 -70 34 -99.5t89 -29.5q42 0 78 14.5t62.5 43t41.5 70t15 95.5v92zM809 0l-59 152h-9q-33 -45 -66 -77.5t-72 -53.5t-87.5 -31t-112.5 -10q-68 0 -126 21.5t-100.5 65t-66.5 110t-24 157.5 q0 178 114 262.5t341 93.5l178 6v84q0 69 -40 102t-112 33t-140.5 -21t-137.5 -56l-99 202q84 47 186 74t214 27q209 0 320.5 -98t111.5 -298v-745h-213zM657 1405q0 35 11 60.5t30 42t45 24.5t56 8q28 0 53.5 -8t45 -24.5t31 -42t11.5 -60.5q0 -34 -11.5 -59t-31 -41.5 t-45 -24.5t-53.5 -8q-60 0 -101 33t-41 100zM254 1405q0 35 11 60.5t29.5 42t44 24.5t54.5 8t54.5 -8t44.5 -24.5t30.5 -42t11.5 -60.5q0 -34 -11.5 -59t-30.5 -41.5t-44.5 -24.5t-54.5 -8t-54.5 8t-44 24.5t-29.5 41.5t-11 59z"/>
<glyph glyph-name="aring" horiz-adv-x="1176" unicode="å" d="M719 518l-101 -4q-61 -2 -103 -16t-67.5 -37.5t-37 -56t-11.5 -72.5q0 -70 34 -99.5t89 -29.5q42 0 78 14.5t62.5 43t41.5 70t15 95.5v92zM809 0l-59 152h-9q-33 -45 -66 -77.5t-72 -53.5t-87.5 -31t-112.5 -10q-68 0 -126 21.5t-100.5 65t-66.5 110t-24 157.5 q0 178 114 262.5t341 93.5l178 6v84q0 69 -40 102t-112 33t-140.5 -21t-137.5 -56l-99 202q84 47 186 74t214 27q209 0 320.5 -98t111.5 -298v-745h-213zM684 1477q0 45 -27 70.5t-69 25.5t-69 -25.5t-27 -70.5t24 -71t72 -26q42 0 69 26t27 71zM842 1479 q0 -56 -19.5 -100.5t-54 -75.5t-80.5 -47.5t-100 -16.5q-55 0 -101 16.5t-78.5 47t-50.5 75t-18 99.5t18 99t50.5 74.5t78.5 47t101 16.5q53 0 99 -16.5t80.5 -47t54.5 -74t20 -97.5z"/>
<glyph glyph-name="ae" horiz-adv-x="1806" unicode="æ" d="M1229 922q-82 0 -135.5 -57t-61.5 -179h389q-1 51 -13 94t-35.5 74.5t-59.5 49.5t-84 18zM719 518l-101 -4q-61 -2 -103 -16t-67.5 -37.5t-37 -56t-11.5 -72.5q0 -70 34 -99.5t89 -29.5q42 0 78 14.5t62.5 43t41.5 70t15 95.5v92zM1268 -20q-131 0 -238 50.5t-176 155.5 q-43 -54 -85 -92.5t-91 -64t-110.5 -37.5t-143.5 -12q-68 0 -129.5 21.5t-108 65t-73.5 110t-27 157.5q0 178 114 262.5t341 93.5l178 6v84q0 69 -40 102t-112 33t-140.5 -21t-137.5 -56l-99 202q84 47 186 74t214 27q214 0 323 -131q126 129 314 129q111 0 200.5 -33.5 t151.5 -98.5t95.5 -159.5t33.5 -216.5v-148h-682q2 -64 20.5 -115.5t52 -87t81 -54.5t108.5 -19q94 0 181.5 21.5t175.5 66.5v-236q-40 -21 -80.5 -35.5t-85.5 -24.5t-97 -14.5t-114 -4.5z"/>
<glyph glyph-name="ccedilla" horiz-adv-x="1022" unicode="ç" d="M625 -20q-120 0 -216.5 33t-165 102.5t-105 178t-36.5 259.5q0 167 37.5 279.5t106 180.5t165 97t214.5 29q86 0 171 -21t160 -59l-88 -232q-66 29 -127 47.5t-116 18.5q-111 0 -161 -84.5t-50 -253.5q0 -168 50 -248t157 -80q87 0 158 22.5t145 57.5v-254 q-37 -18 -72 -32t-70.5 -23t-74 -13.5t-82.5 -4.5zM778 -250q0 -57 -15.5 -102t-51.5 -76t-95.5 -47.5t-146.5 -16.5q-45 0 -81 6t-65 15v168q15 -4 33.5 -7.5t38 -6.5t38 -5t33.5 -2q29 0 50.5 13.5t21.5 48.5q0 37 -37 65.5t-129 42.5l78 154h193l-27 -61q31 -10 60 -27 t51.5 -40.5t36.5 -54t14 -67.5z"/>
<glyph glyph-name="egrave" horiz-adv-x="1190" unicode="è" d="M651 -20q-120 0 -221 35t-174 105.5t-113.5 178t-40.5 252.5q0 147 37 257t103.5 183.5t160 110.5t207.5 37q111 0 200.5 -33.5t152 -98.5t96 -159.5t33.5 -216.5v-148h-682q2 -64 20.5 -115.5t52 -87t81 -54.5t108.5 -19q51 0 96.5 5.5t88.5 16.5t85 27.5t86 38.5v-236 q-40 -21 -80.5 -35.5t-85.5 -24.5t-97 -14.5t-114 -4.5zM612 922q-81 0 -134.5 -57t-61.5 -179h389q-1 51 -13 94t-36 74.5t-60 49.5t-84 18zM578 1241q-34 28 -81.5 69.5t-93.5 85.5t-84 84.5t-54 67.5v21h342q16 -34 37.5 -74.5t44.5 -81t47 -78.5t45 -67v-27h-203z"/>
<glyph glyph-name="eacute" horiz-adv-x="1190" unicode="é" d="M651 -20q-120 0 -221 35t-174 105.5t-113.5 178t-40.5 252.5q0 147 37 257t103.5 183.5t160 110.5t207.5 37q111 0 200.5 -33.5t152 -98.5t96 -159.5t33.5 -216.5v-148h-682q2 -64 20.5 -115.5t52 -87t81 -54.5t108.5 -19q51 0 96.5 5.5t88.5 16.5t85 27.5t86 38.5v-236 q-40 -21 -80.5 -35.5t-85.5 -24.5t-97 -14.5t-114 -4.5zM612 922q-81 0 -134.5 -57t-61.5 -179h389q-1 51 -13 94t-36 74.5t-60 49.5t-84 18zM447 1241v27q21 29 45 67t47.5 78.5t44.5 81t37 74.5h342v-21q-11 -18 -32 -42.5t-48 -52.5t-58 -57.5t-62.5 -57.5t-60.5 -53 t-52 -44h-203z"/>
<glyph glyph-name="ecircumflex" horiz-adv-x="1190" unicode="ê" d="M651 -20q-120 0 -221 35t-174 105.5t-113.5 178t-40.5 252.5q0 147 37 257t103.5 183.5t160 110.5t207.5 37q111 0 200.5 -33.5t152 -98.5t96 -159.5t33.5 -216.5v-148h-682q2 -64 20.5 -115.5t52 -87t81 -54.5t108.5 -19q51 0 96.5 5.5t88.5 16.5t85 27.5t86 38.5v-236 q-40 -21 -80.5 -35.5t-85.5 -24.5t-97 -14.5t-114 -4.5zM612 922q-81 0 -134.5 -57t-61.5 -179h389q-1 51 -13 94t-36 74.5t-60 49.5t-84 18zM819 1241q-51 34 -106 77t-107 99q-54 -56 -106 -99t-103 -77h-203v27q26 29 57.5 67t64 78.5t62.5 81t52 74.5h356 q21 -34 51 -74.5t62.5 -81t65 -78.5t57.5 -67v-27h-203z"/>
<glyph glyph-name="edieresis" horiz-adv-x="1190" unicode="ë" d="M651 -20q-120 0 -221 35t-174 105.5t-113.5 178t-40.5 252.5q0 147 37 257t103.5 183.5t160 110.5t207.5 37q111 0 200.5 -33.5t152 -98.5t96 -159.5t33.5 -216.5v-148h-682q2 -64 20.5 -115.5t52 -87t81 -54.5t108.5 -19q51 0 96.5 5.5t88.5 16.5t85 27.5t86 38.5v-236 q-40 -21 -80.5 -35.5t-85.5 -24.5t-97 -14.5t-114 -4.5zM612 922q-81 0 -134.5 -57t-61.5 -179h389q-1 51 -13 94t-36 74.5t-60 49.5t-84 18zM669 1405q0 35 11 60.5t30 42t45 24.5t56 8q28 0 53.5 -8t45 -24.5t31 -42t11.5 -60.5q0 -34 -11.5 -59t-31 -41.5t-45 -24.5 t-53.5 -8q-60 0 -101 33t-41 100zM266 1405q0 35 11 60.5t29.5 42t44 24.5t54.5 8t54.5 -8t44.5 -24.5t30.5 -42t11.5 -60.5q0 -34 -11.5 -59t-30.5 -41.5t-44.5 -24.5t-54.5 -8t-54.5 8t-44 24.5t-29.5 41.5t-11 59z"/>
<glyph glyph-name="igrave" horiz-adv-x="625" unicode="ì" d="M465 0h-305v1118h305v-1118zM269 1241q-34 28 -81.5 69.5t-93.5 85.5t-84 84.5t-54 67.5v21h342q16 -34 37.5 -74.5t44.5 -81t47 -78.5t45 -67v-27h-203z"/>
<glyph glyph-name="iacute" horiz-adv-x="625" unicode="í" d="M465 0h-305v1118h305v-1118zM145 1241v27q21 29 45 67t47.5 78.5t44.5 81t37 74.5h342v-21q-11 -18 -32 -42.5t-48 -52.5t-58 -57.5t-62.5 -57.5t-60.5 -53t-52 -44h-203z"/>
<glyph glyph-name="icircumflex" horiz-adv-x="625" unicode="î" d="M465 0h-305v1118h305v-1118zM521 1241q-51 34 -106 77t-107 99q-54 -56 -106 -99t-103 -77h-203v27q26 29 57.5 67t64 78.5t62.5 81t52 74.5h356q21 -34 51 -74.5t62.5 -81t65 -78.5t57.5 -67v-27h-203z"/>
<glyph glyph-name="idieresis" horiz-adv-x="625" unicode="ï" d="M465 0h-305v1118h305v-1118zM371 1405q0 35 11 60.5t30 42t45 24.5t56 8q28 0 53.5 -8t45 -24.5t31 -42t11.5 -60.5q0 -34 -11.5 -59t-31 -41.5t-45 -24.5t-53.5 -8q-60 0 -101 33t-41 100zM-32 1405q0 35 11 60.5t29.5 42t44 24.5t54.5 8t54.5 -8t44.5 -24.5t30.5 -42 t11.5 -60.5q0 -34 -11.5 -59t-30.5 -41.5t-44.5 -24.5t-54.5 -8t-54.5 8t-44 24.5t-29.5 41.5t-11 59z"/>
<glyph glyph-name="eth" horiz-adv-x="1182" unicode="ð" d="M784 532q0 47 -11.5 90t-36 76t-62 52.5t-88.5 19.5q-108 0 -154.5 -70.5t-46.5 -212.5q0 -63 11.5 -115t36 -89t62.5 -57.5t91 -20.5q106 0 152 81.5t46 245.5zM457 1309q-34 21 -73 45t-81 47l96 170q73 -34 137 -68.5t121 -72.5l226 139l100 -154l-174 -106 q72 -69 126 -147t89.5 -169t53.5 -195t18 -225q0 -142 -36 -252t-103 -186t-162 -115.5t-213 -39.5q-111 0 -204 34t-160.5 99t-105.5 159.5t-38 216.5t32.5 216t91 158.5t140 98t178.5 33.5q96 0 164 -31.5t100 -80.5l21 2q-28 88 -78.5 165.5t-116.5 133.5l-231 -144 l-101 156z"/>
<glyph glyph-name="ntilde" horiz-adv-x="1284" unicode="ñ" d="M1130 0h-305v653q0 121 -36.5 181.5t-116.5 60.5q-60 0 -100 -24t-63.5 -71t-33.5 -116t-10 -158v-526h-305v1118h233l41 -143h17q24 43 58.5 74t75.5 51t87 29.5t94 9.5q82 0 149 -23.5t115 -73.5t74 -127.5t26 -185.5v-729zM477 1346q-31 0 -49.5 -26.5t-30.5 -80.5 h-149q6 80 26 138t52.5 96t76.5 56.5t97 18.5q41 0 80 -16t77.5 -35.5t76 -36t73.5 -16.5q31 0 49 26t31 80h149q-6 -79 -26.5 -137t-53.5 -96.5t-76.5 -57t-95.5 -18.5q-40 0 -80 16.5t-78 36t-75.5 36t-73.5 16.5z"/>
<glyph glyph-name="ograve" horiz-adv-x="1227" unicode="ò" d="M1124 561q0 -140 -35.5 -248t-102 -182t-162 -112.5t-214.5 -38.5q-111 0 -204 38.5t-160.5 112.5t-105.5 182t-38 248q0 139 35.5 247t102 181.5t161.5 111.5t215 38q111 0 204 -38t160.5 -111.5t105.5 -181.5t38 -247zM414 561q0 -167 47 -251.5t153 -84.5 q105 0 152 85t47 251q0 167 -47 249.5t-154 82.5q-105 0 -151.5 -82.5t-46.5 -249.5zM585 1241q-34 28 -81.5 69.5t-93.5 85.5t-84 84.5t-54 67.5v21h342q16 -34 37.5 -74.5t44.5 -81t47 -78.5t45 -67v-27h-203z"/>
<glyph glyph-name="oacute" horiz-adv-x="1227" unicode="ó" d="M1124 561q0 -140 -35.5 -248t-102 -182t-162 -112.5t-214.5 -38.5q-111 0 -204 38.5t-160.5 112.5t-105.5 182t-38 248q0 139 35.5 247t102 181.5t161.5 111.5t215 38q111 0 204 -38t160.5 -111.5t105.5 -181.5t38 -247zM414 561q0 -167 47 -251.5t153 -84.5 q105 0 152 85t47 251q0 167 -47 249.5t-154 82.5q-105 0 -151.5 -82.5t-46.5 -249.5zM434 1241v27q21 29 45 67t47.5 78.5t44.5 81t37 74.5h342v-21q-11 -18 -32 -42.5t-48 -52.5t-58 -57.5t-62.5 -57.5t-60.5 -53t-52 -44h-203z"/>
<glyph glyph-name="ocircumflex" horiz-adv-x="1227" unicode="ô" d="M1124 561q0 -140 -35.5 -248t-102 -182t-162 -112.5t-214.5 -38.5q-111 0 -204 38.5t-160.5 112.5t-105.5 182t-38 248q0 139 35.5 247t102 181.5t161.5 111.5t215 38q111 0 204 -38t160.5 -111.5t105.5 -181.5t38 -247zM414 561q0 -167 47 -251.5t153 -84.5 q105 0 152 85t47 251q0 167 -47 249.5t-154 82.5q-105 0 -151.5 -82.5t-46.5 -249.5zM821 1241q-51 34 -106 77t-107 99q-54 -56 -106 -99t-103 -77h-203v27q26 29 57.5 67t64 78.5t62.5 81t52 74.5h356q21 -34 51 -74.5t62.5 -81t65 -78.5t57.5 -67v-27h-203z"/>
<glyph glyph-name="otilde" horiz-adv-x="1227" unicode="õ" d="M1124 561q0 -140 -35.5 -248t-102 -182t-162 -112.5t-214.5 -38.5q-111 0 -204 38.5t-160.5 112.5t-105.5 182t-38 248q0 139 35.5 247t102 181.5t161.5 111.5t215 38q111 0 204 -38t160.5 -111.5t105.5 -181.5t38 -247zM414 561q0 -167 47 -251.5t153 -84.5 q105 0 152 85t47 251q0 167 -47 249.5t-154 82.5q-105 0 -151.5 -82.5t-46.5 -249.5zM444 1346q-31 0 -49.5 -26.5t-30.5 -80.5h-149q6 80 26 138t52.5 96t76.5 56.5t97 18.5q41 0 80 -16t77.5 -35.5t76 -36t73.5 -16.5q31 0 49 26t31 80h149q-6 -79 -26.5 -137t-53.5 -96.5 t-76.5 -57t-95.5 -18.5q-40 0 -80 16.5t-78 36t-75.5 36t-73.5 16.5z"/>
<glyph glyph-name="odieresis" horiz-adv-x="1227" unicode="ö" d="M1124 561q0 -140 -35.5 -248t-102 -182t-162 -112.5t-214.5 -38.5q-111 0 -204 38.5t-160.5 112.5t-105.5 182t-38 248q0 139 35.5 247t102 181.5t161.5 111.5t215 38q111 0 204 -38t160.5 -111.5t105.5 -181.5t38 -247zM414 561q0 -167 47 -251.5t153 -84.5 q105 0 152 85t47 251q0 167 -47 249.5t-154 82.5q-105 0 -151.5 -82.5t-46.5 -249.5zM669 1405q0 35 11 60.5t30 42t45 24.5t56 8q28 0 53.5 -8t45 -24.5t31 -42t11.5 -60.5q0 -34 -11.5 -59t-31 -41.5t-45 -24.5t-53.5 -8q-60 0 -101 33t-41 100zM266 1405q0 35 11 60.5 t29.5 42t44 24.5t54.5 8t54.5 -8t44.5 -24.5t30.5 -42t11.5 -60.5q0 -34 -11.5 -59t-30.5 -41.5t-44.5 -24.5t-54.5 -8t-54.5 8t-44 24.5t-29.5 41.5t-11 59z"/>
<glyph glyph-name="divide" d="M424 1071q0 42 11 71t30 47t44.5 26t53.5 8t53 -8t44 -26t30.5 -47t11.5 -71q0 -40 -11.5 -68.5t-30.5 -47t-44 -27t-53 -8.5t-53.5 8.5t-44.5 27t-30 47t-11 68.5zM424 373q0 42 11 71t30 46.5t44.5 25.5t53.5 8t53 -8t44 -25.5t30.5 -46.5t11.5 -71q0 -40 -11.5 -69 t-30.5 -47.5t-44 -27t-53 -8.5t-53.5 8.5t-44.5 27t-30 47.5t-11 69zM88 612v219h952v-219h-952z" unicode="÷"/>
<glyph glyph-name="oslash" horiz-adv-x="1227" unicode="ø" d="M813 561q0 64 -6 113l-268 -434q17 -8 35.5 -11.5t39.5 -3.5q105 0 152 85t47 251zM414 561q0 -86 12 -151l283 458q-40 25 -97 25q-105 0 -151.5 -82.5t-46.5 -249.5zM1124 561q0 -140 -35.5 -248t-102 -182t-162 -112.5t-214.5 -38.5q-57 0 -109 10t-100 28l-57 -94 l-162 90l68 111q-69 74 -108.5 183.5t-39.5 252.5q0 139 35.5 247t102 181.5t161.5 111.5t215 38q62 0 119.5 -13t108.5 -36l49 79l160 -96l-62 -98q63 -72 98 -176.5t35 -237.5z"/>
<glyph glyph-name="ugrave" horiz-adv-x="1284" unicode="ù" d="M891 0l-41 143h-16q-25 -43 -59.5 -73.5t-75.5 -50.5t-87 -29.5t-94 -9.5q-82 0 -149 23.5t-115 73.5t-74 127t-26 185v729h305v-653q0 -121 36.5 -181.5t116.5 -60.5q60 0 100 24t63.5 71t33.5 116t10 158v526h305v-1118h-233zM583 1241q-34 28 -81.5 69.5t-93.5 85.5 t-84 84.5t-54 67.5v21h342q16 -34 37.5 -74.5t44.5 -81t47 -78.5t45 -67v-27h-203z"/>
<glyph glyph-name="uacute" horiz-adv-x="1284" unicode="ú" d="M891 0l-41 143h-16q-25 -43 -59.5 -73.5t-75.5 -50.5t-87 -29.5t-94 -9.5q-82 0 -149 23.5t-115 73.5t-74 127t-26 185v729h305v-653q0 -121 36.5 -181.5t116.5 -60.5q60 0 100 24t63.5 71t33.5 116t10 158v526h305v-1118h-233zM461 1241v27q21 29 45 67t47.5 78.5 t44.5 81t37 74.5h342v-21q-11 -18 -32 -42.5t-48 -52.5t-58 -57.5t-62.5 -57.5t-60.5 -53t-52 -44h-203z"/>
<glyph glyph-name="ucircumflex" horiz-adv-x="1284" unicode="û" d="M891 0l-41 143h-16q-25 -43 -59.5 -73.5t-75.5 -50.5t-87 -29.5t-94 -9.5q-82 0 -149 23.5t-115 73.5t-74 127t-26 185v729h305v-653q0 -121 36.5 -181.5t116.5 -60.5q60 0 100 24t63.5 71t33.5 116t10 158v526h305v-1118h-233zM842 1241q-51 34 -106 77t-107 99 q-54 -56 -106 -99t-103 -77h-203v27q26 29 57.5 67t64 78.5t62.5 81t52 74.5h356q21 -34 51 -74.5t62.5 -81t65 -78.5t57.5 -67v-27h-203z"/>
<glyph glyph-name="udieresis" horiz-adv-x="1284" unicode="ü" d="M891 0l-41 143h-16q-25 -43 -59.5 -73.5t-75.5 -50.5t-87 -29.5t-94 -9.5q-82 0 -149 23.5t-115 73.5t-74 127t-26 185v729h305v-653q0 -121 36.5 -181.5t116.5 -60.5q60 0 100 24t63.5 71t33.5 116t10 158v526h305v-1118h-233zM698 1405q0 35 11 60.5t30 42t45 24.5 t56 8q28 0 53.5 -8t45 -24.5t31 -42t11.5 -60.5q0 -34 -11.5 -59t-31 -41.5t-45 -24.5t-53.5 -8q-60 0 -101 33t-41 100zM295 1405q0 35 11 60.5t29.5 42t44 24.5t54.5 8t54.5 -8t44.5 -24.5t30.5 -42t11.5 -60.5q0 -34 -11.5 -59t-30.5 -41.5t-44.5 -24.5t-54.5 -8t-54.5 8 t-44 24.5t-29.5 41.5t-11 59z"/>
<glyph glyph-name="yacute" horiz-adv-x="1104" unicode="ý" d="M0 1118h334l180 -629q16 -52 23.5 -111t9.5 -106h6q2 23 5.5 51t8.5 57t11.5 57.5t13.5 51.5l176 629h336l-442 -1261q-62 -177 -169 -263t-268 -86q-52 0 -90 5.5t-65 11.5v242q21 -5 53 -9t67 -4q48 0 82 13t58.5 36.5t42 56.5t30.5 74l19 56zM393 1241v27q21 29 45 67 t47.5 78.5t44.5 81t37 74.5h342v-21q-11 -18 -32 -42.5t-48 -52.5t-58 -57.5t-62.5 -57.5t-60.5 -53t-52 -44h-203z"/>
<glyph glyph-name="thorn" horiz-adv-x="1245" unicode="þ" d="M653 895q-51 0 -86.5 -18.5t-57.5 -55.5t-32 -93.5t-12 -131.5v-33q0 -81 9.5 -144t31.5 -105.5t58.5 -64.5t90.5 -22q91 0 133.5 86.5t42.5 251.5t-42.5 247.5t-135.5 82.5zM465 973q20 35 47.5 65t63.5 52.5t80.5 35.5t99.5 13q86 0 157 -37t122 -110t79.5 -181 t28.5 -250q0 -143 -28 -251.5t-79 -182t-122 -110.5t-158 -37q-55 0 -100 10.5t-80.5 29.5t-62.5 44t-48 53h-14q3 -32 7 -62q3 -26 5 -52t2 -42v-453h-305v2048h305v-391q0 -24 -2 -57t-5 -63q-4 -35 -7 -72h14z"/>
<glyph glyph-name="dotlessi" horiz-adv-x="625" unicode="ı" d="M465 0h-305v1118h305v-1118z"/>
<glyph glyph-name="circumflex" horiz-adv-x="1182" unicode="ˆ" d="M801 1241q-51 34 -106 77t-107 99q-54 -56 -106 -99t-103 -77h-203v27q26 29 57.5 67t64 78.5t62.5 81t52 74.5h356q21 -34 51 -74.5t62.5 -81t65 -78.5t57.5 -67v-27h-203z"/>
<glyph glyph-name="macron" horiz-adv-x="1141" unicode="ˉ" d="M262 1452h617v-211h-617v211z"/>
<glyph glyph-name="ring" horiz-adv-x="1182" unicode="˚" d="M684 1477q0 45 -27 70.5t-69 25.5t-69 -25.5t-27 -70.5t24 -71t72 -26q42 0 69 26t27 71zM842 1479q0 -56 -19.5 -100.5t-54 -75.5t-80.5 -47.5t-100 -16.5q-55 0 -101 16.5t-78.5 47t-50.5 75t-18 99.5t18 99t50.5 74.5t78.5 47t101 16.5q53 0 99 -16.5t80.5 -47 t54.5 -74t20 -97.5z"/>
<glyph glyph-name="tilde" horiz-adv-x="1182" unicode="˜" d="M426 1346q-31 0 -49.5 -26.5t-30.5 -80.5h-149q6 80 26 138t52.5 96t76.5 56.5t97 18.5q41 0 80 -16t77.5 -35.5t76 -36t73.5 -16.5q31 0 49 26t31 80h149q-6 -79 -26.5 -137t-53.5 -96.5t-76.5 -57t-95.5 -18.5q-40 0 -80 16.5t-78 36t-75.5 36t-73.5 16.5z"/>
<glyph glyph-name="hungarumlaut" horiz-adv-x="1182" unicode="˝" d="M553 1241v27q21 29 45 67t47.5 78.5t44.5 81t37 74.5h301v-21q-11 -18 -32 -42.5t-48 -52.5t-58 -57.5t-62.5 -57.5t-60.5 -53t-52 -44h-162zM156 1241v27q21 29 45 67t47.5 78.5t44.5 81t37 74.5h301v-21q-11 -18 -32 -42.5t-48 -52.5t-58.5 -57.5t-62.5 -57.5 t-60.5 -53t-52.5 -44h-161z"/>
<glyph glyph-name="uni030F" horiz-adv-x="0" unicode="̏" d="M-840 1241q-23 18 -52 43.5t-60.5 53.5t-62.5 57.5t-58 57.5t-48 52.5t-32 42.5v21h301q16 -34 37 -74.5t44.5 -81t47.5 -78.5t45 -67v-27h-162zM-442 1241q-23 18 -52.5 43.5t-60.5 53.5t-62.5 57.5t-58.5 57.5t-48 52.5t-32 42.5v21h301q16 -34 37 -74.5t44.5 -81 t47.5 -78.5t45 -67v-27h-161z"/>
<glyph glyph-name="Gamma" horiz-adv-x="1067" unicode="Γ" d="M1026 1462v-256h-532v-1206h-310v1462h842z"/>
<glyph glyph-name="Pi" horiz-adv-x="1444" unicode="Π" d="M1260 0h-310v1204h-456v-1204h-310v1462h1076v-1462z"/>
<glyph glyph-name="Phi" horiz-adv-x="1679" unicode="Φ" d="M700 1061h-36q-72 0 -125 -24.5t-87.5 -66t-51.5 -96t-17 -114.5q0 -67 19 -125t57 -100.5t95 -66.5t134 -24h12v617zM700 -20v225h-20q-110 0 -196.5 24t-151.5 65t-111 96t-74.5 116.5t-41.5 126t-13 125.5q0 102 33 200t101.5 174.5t174 123.5t250.5 47h49v180h279 v-180h49q145 0 250.5 -47t174 -123.5t101.5 -174.5t33 -200q0 -61 -13 -125.5t-41.5 -126t-74 -116.5t-111 -96t-152 -65t-196.5 -24h-20v-225h-279zM979 444h12q77 0 134 24t95 66.5t57 100.5t19 125q0 60 -16.5 114.5t-51 96t-87.5 66t-125 24.5h-37v-617z"/>
<glyph glyph-name="Psi" horiz-adv-x="1712" unicode="Ψ" d="M1604 983q0 -130 -30.5 -231.5t-98 -171.5t-174.5 -107t-259 -37h-47v-436h-278v436h-47q-152 0 -259 36t-174 105.5t-97.5 170.5t-30.5 231v483h290v-479q0 -88 19.5 -145.5t56.5 -91t91 -47t124 -13.5h27v776h278v-776h27q62 0 115.5 12.5t92.5 45.5t61 90t22 145v483 h291v-479z"/>
<glyph glyph-name="psi" horiz-adv-x="1663" unicode="ψ" d="M977 1554v-1337q74 8 128 29.5t89.5 63t52.5 107t17 161.5q0 135 -22.5 266.5t-57.5 273.5h282q41 -144 59.5 -275.5t18.5 -267.5q0 -157 -44 -267t-120.5 -180t-180 -104.5t-222.5 -41.5v-474h-283v474q-120 4 -221.5 36.5t-174.5 100.5t-114 175t-41 261v563h291v-571 q0 -87 13.5 -147.5t44 -99.5t80 -59t122.5 -26v1339h283z"/>
<glyph glyph-name="uni0400" horiz-adv-x="1147" unicode="Ѐ" d="M1026 0h-842v1462h842v-254h-532v-321h495v-254h-495v-377h532v-256zM572 1579q-34 28 -81.5 69.5t-93.5 85.5t-84 84.5t-54 67.5v21h342q16 -34 37.5 -74.5t44.5 -81t47 -78.5t45 -67v-27h-203z"/>
<glyph glyph-name="afii10023" horiz-adv-x="1147" unicode="Ё" d="M1026 0h-842v1462h842v-254h-532v-321h495v-254h-495v-377h532v-256zM676 1743q0 35 11 60.5t30 42t45 24.5t56 8q28 0 53.5 -8t45 -24.5t31 -42t11.5 -60.5q0 -34 -11.5 -59t-31 -41.5t-45 -24.5t-53.5 -8q-60 0 -101 33t-41 100zM273 1743q0 35 11 60.5t29.5 42 t44 24.5t54.5 8t54.5 -8t44.5 -24.5t30.5 -42t11.5 -60.5q0 -34 -11.5 -59t-30.5 -41.5t-44.5 -24.5t-54.5 -8t-54.5 8t-44 24.5t-29.5 41.5t-11 59z"/>
<glyph glyph-name="afii10051" horiz-adv-x="1567" unicode="Ђ" d="M1051 -18q-53 0 -105 9t-98 29v256q46 -20 90.5 -31.5t81.5 -11.5q25 0 48.5 4t41.5 20t28.5 46.5t10.5 83.5v127q0 89 -35 124.5t-115 35.5h-282v-674h-309v1204h-367v258h1032v-258h-356v-272h303q104 0 185 -26.5t137.5 -77.5t86 -124.5t29.5 -166.5v-129 q0 -209 -102.5 -317.5t-304.5 -108.5z"/>
<glyph glyph-name="afii10052" horiz-adv-x="1067" unicode="Ѓ" d="M1026 1462v-256h-532v-1206h-310v1462h842zM424 1579v27q21 29 45 67t47.5 78.5t44.5 81t37 74.5h342v-21q-11 -18 -32 -42.5t-48 -52.5t-58 -57.5t-62.5 -57.5t-60.5 -53t-52 -44h-203z"/>
<glyph glyph-name="afii10053" horiz-adv-x="1305" unicode="Є" d="M805 1225q-75 0 -137 -24.5t-108.5 -70.5t-75.5 -113t-38 -153h551v-254h-553q11 -179 102 -275.5t259 -96.5q89 0 178.5 20t194.5 57v-260q-48 -20 -95 -34t-96 -23t-100.5 -13.5t-110.5 -4.5q-169 0 -293 54t-205 152t-120 236t-39 307q0 166 45 304.5t132 238.5 t215 155.5t294 55.5q109 0 218.5 -27.5t209.5 -75.5l-100 -252q-82 39 -165 68t-163 29z"/>
<glyph glyph-name="afii10054" horiz-adv-x="1073" unicode="Ѕ" d="M985 406q0 -98 -33.5 -176.5t-98 -134t-158 -85.5t-214.5 -30q-106 0 -204.5 22t-182.5 66v288q48 -23 97 -44.5t99.5 -38.5t101 -27t100.5 -10q51 0 87.5 11.5t59 32t33 49t10.5 62.5q0 41 -17.5 72.5t-49 59t-76 53.5t-99.5 55q-46 24 -103 58t-107.5 84.5t-84.5 122 t-34 171.5q0 98 32.5 175.5t92.5 131t145.5 81.5t191.5 28q53 0 103.5 -7t100 -20t99.5 -32t103 -44l-100 -241q-45 21 -84 37t-76 27t-72.5 16.5t-71.5 5.5q-78 0 -119.5 -41.5t-41.5 -110.5q0 -37 12.5 -65.5t40 -53.5t71 -51t105.5 -59q75 -40 138 -81.5t108.5 -92 t70.5 -114.5t25 -150z"/>
<glyph glyph-name="afii10055" horiz-adv-x="797" unicode="І" d="M731 0h-665v176l178 82v946l-178 82v176h665v-176l-178 -82v-946l178 -82v-176z"/>
<glyph glyph-name="afii10056" horiz-adv-x="797" unicode="Ї" d="M731 0h-665v176l178 82v946l-178 82v176h665v-176l-178 -82v-946l178 -82v-176zM457 1743q0 35 11 60.5t30 42t45 24.5t56 8q28 0 53.5 -8t45 -24.5t31 -42t11.5 -60.5q0 -34 -11.5 -59t-31 -41.5t-45 -24.5t-53.5 -8q-60 0 -101 33t-41 100zM54 1743q0 35 11 60.5 t29.5 42t44 24.5t54.5 8t54.5 -8t44.5 -24.5t30.5 -42t11.5 -60.5q0 -34 -11.5 -59t-30.5 -41.5t-44.5 -24.5t-54.5 -8t-54.5 8t-44 24.5t-29.5 41.5t-11 59z"/>
<glyph glyph-name="afii10057" horiz-adv-x="678" unicode="Ј" d="M-2 -430q-65 0 -114 6.5t-83 15.5v258q37 -8 77.5 -14t88.5 -6q46 0 85.5 10t69 34.5t46 65.5t16.5 103v1419h310v-1409q0 -126 -36.5 -217t-102 -150.5t-156.5 -87.5t-201 -28z"/>
<glyph glyph-name="afii10058" horiz-adv-x="1964" unicode="Љ" d="M1233 254h84q56 0 100.5 10.5t76 34.5t48.5 63t17 95q0 58 -18.5 95t-52.5 58t-82.5 29t-109.5 8h-63v-393zM1233 901h108q137 0 237 -33t165.5 -92t97 -140.5t31.5 -178.5q0 -108 -32.5 -193t-101 -143.5t-173.5 -89.5t-250 -31h-391v1204h-250q-12 -94 -26 -206 t-29 -223.5t-31.5 -214t-32.5 -179.5q-20 -96 -49 -170.5t-74 -126t-110.5 -78t-157.5 -26.5q-42 0 -79 5.5t-69 16.5v254q26 -9 52 -14.5t57 -5.5q30 0 52 14t40 48t33 91t31 143q9 50 24.5 142t34 214.5t39 269t39.5 304.5h815v-561z"/>
<glyph glyph-name="afii10059" horiz-adv-x="1970" unicode="Њ" d="M1239 254h84q56 0 101 10.5t76.5 34.5t48 63t16.5 95q0 58 -18.5 95t-52.5 58t-82.5 29t-108.5 8h-64v-393zM1878 457q0 -108 -32.5 -193t-101 -143.5t-173.5 -89.5t-250 -31h-391v631h-436v-631h-310v1462h310v-573h436v573h309v-561h109q137 0 236.5 -33t165 -92 t97 -140.5t31.5 -178.5z"/>
<glyph glyph-name="afii10060" horiz-adv-x="1567" unicode="Ћ" d="M1149 0v514q0 89 -35 124.5t-115 35.5h-282v-674h-309v1204h-367v258h1032v-258h-356v-272h303q104 0 185 -26.5t137.5 -77.5t86 -124.5t29.5 -166.5v-537h-309z"/>
<glyph glyph-name="afii10061" horiz-adv-x="1294" unicode="Ќ" d="M1294 0h-352l-448 741v-741h-310v1462h310v-708l442 708h330l-451 -702zM498 1579v27q21 29 45 67t47.5 78.5t44.5 81t37 74.5h342v-21q-11 -18 -32 -42.5t-48 -52.5t-58 -57.5t-62.5 -57.5t-60.5 -53t-52 -44h-203z"/>
<glyph glyph-name="uni040D" horiz-adv-x="1604" unicode="Ѝ" d="M184 1462h279v-692q0 -25 -0.5 -56t-1.5 -64.5l-2 -67t-3 -65.5q-4 -74 -7 -150h6l594 1095h370v-1462h-276v688q0 57 2.5 128.5t6.5 136.5q4 76 9 153h-8l-596 -1106h-373v1462zM749 1579q-34 28 -81.5 69.5t-93.5 85.5t-84 84.5t-54 67.5v21h342q16 -34 37.5 -74.5 t44.5 -81t47 -78.5t45 -67v-27h-203z"/>
<glyph glyph-name="afii10062" horiz-adv-x="1255" unicode="Ў" d="M1255 1462l-424 -1034q-43 -105 -88 -188.5t-106.5 -141t-145.5 -88t-204 -30.5q-51 0 -109.5 7.5t-109.5 22.5v266q49 -20 107.5 -28t111.5 -8q51 0 86.5 13t60.5 36.5t42 55t30 67.5l-506 1050h328l276 -631q7 -15 16 -36.5t17 -43t14.5 -39.5t7.5 -26h11q2 9 6 27.5 t10 39.5t12.5 41.5t12.5 34.5l225 633h319zM1110 1937q-8 -80 -36.5 -146t-86 -113t-148 -73t-222.5 -26q-136 0 -225.5 25t-143.5 71.5t-78.5 112.5t-30.5 149h273q5 -57 18.5 -93t38.5 -56.5t63 -28.5t91 -8q44 0 80.5 9t63.5 31t44 57.5t23 88.5h276z"/>
<glyph glyph-name="afii10145" horiz-adv-x="1444" unicode="Џ" d="M1260 0h-388v-426h-299v426h-389v1462h310v-1204h456v1204h310v-1462z"/>
<glyph glyph-name="afii10017" horiz-adv-x="1331" unicode="А" d="M846 608l-94 320q-6 18 -18 59t-25.5 90.5t-25.5 99.5t-17 85q-4 -22 -10.5 -52t-15 -63.5t-17.5 -67.5t-17 -64t-14.5 -53t-9.5 -34l-93 -320h357zM1018 0l-100 348h-504l-101 -348h-313l475 1468h379l477 -1468h-313z"/>
<glyph glyph-name="afii10018" horiz-adv-x="1225" unicode="Б" d="M494 254h84q56 0 100.5 10.5t76 34.5t48 63t16.5 95q0 58 -18 95t-52 58t-82.5 29t-109.5 8h-63v-393zM494 901h108q137 0 237 -33t165.5 -92t97 -140.5t31.5 -178.5q0 -108 -32.5 -193t-101 -143.5t-173.5 -89.5t-251 -31h-391v1462h842v-256h-532v-305z"/>
<glyph glyph-name="afii10019" horiz-adv-x="1315" unicode="В" d="M494 637v-381h182q61 0 102.5 14t67 40t36.5 63t11 82q0 41 -11 74.5t-37.5 57.5t-69.5 37t-107 13h-174zM494 883h161q58 0 97 10.5t63 31.5t34.5 52.5t10.5 73.5q0 84 -52.5 120.5t-166.5 36.5h-147v-325zM184 1462h428q138 0 242 -19.5t174 -63t105.5 -114 t35.5 -173.5q0 -62 -15 -116t-44 -95t-70.5 -68.5t-95.5 -36.5v-10q55 -12 102.5 -34.5t83 -62t56 -99.5t20.5 -146q0 -100 -35 -178.5t-100.5 -133t-159 -83.5t-211.5 -29h-516v1462z"/>
<glyph glyph-name="afii10020" horiz-adv-x="1067" unicode="Г" d="M1026 1462v-256h-532v-1206h-310v1462h842z"/>
<glyph glyph-name="afii10021" horiz-adv-x="1483" unicode="Д" d="M723 1204q-15 -106 -41 -226.5t-61.5 -244t-79 -245t-92.5 -230.5h489v946h-215zM10 258h113q57 114 110.5 240.5t99 273t82.5 317.5t62 373h770v-1204h195v-684h-299v426h-834v-426h-299v684z"/>
<glyph glyph-name="afii10022" horiz-adv-x="1147" unicode="Е" d="M1026 0h-842v1462h842v-254h-532v-321h495v-254h-495v-377h532v-256z"/>
<glyph glyph-name="afii10024" horiz-adv-x="1849" unicode="Ж" d="M479 760l-450 702h319l432 -708v708h289v-708l432 708h320l-451 -702l479 -760h-331l-449 741v-741h-289v741l-448 -741h-332z"/>
<glyph glyph-name="afii10025" horiz-adv-x="1245" unicode="З" d="M1112 1120q0 -73 -25.5 -133t-71 -104t-108 -72.5t-137.5 -40.5v-6q92 -10 164 -38.5t121.5 -73t75.5 -104t26 -132.5q0 -96 -37 -176t-110 -138t-179.5 -90t-246.5 -32q-155 0 -273 20.5t-205 58.5v260q43 -23 95.5 -41t107 -30t108.5 -18.5t101 -6.5q174 0 253 56 t79 159q0 53 -28.5 90.5t-81.5 62.5t-128 36.5t-168 11.5h-118v242h104q112 0 185.5 13t117 37.5t61 59.5t17.5 80q0 75 -59 119.5t-174 44.5q-101 0 -187 -32.5t-162 -86.5l-135 207q52 37 107.5 66.5t119.5 50.5t139.5 32t166.5 11q114 0 204.5 -27t152.5 -75.5t95 -115 t33 -145.5z"/>
<glyph glyph-name="afii10026" horiz-adv-x="1604" unicode="И" d="M184 1462h279v-692q0 -25 -0.5 -56t-1.5 -64.5l-2 -67t-3 -65.5q-4 -74 -7 -150h6l594 1095h370v-1462h-276v688q0 57 2.5 128.5t6.5 136.5q4 76 9 153h-8l-596 -1106h-373v1462z"/>
<glyph glyph-name="afii10027" horiz-adv-x="1604" unicode="Й" d="M184 1462h279v-692q0 -25 -0.5 -56t-1.5 -64.5l-2 -67t-3 -65.5q-4 -74 -7 -150h6l594 1095h370v-1462h-276v688q0 57 2.5 128.5t6.5 136.5q4 76 9 153h-8l-596 -1106h-373v1462zM1274 1937q-8 -80 -36.5 -146t-86 -113t-148 -73t-222.5 -26q-136 0 -225.5 25 t-143.5 71.5t-78.5 112.5t-30.5 149h273q5 -57 18.5 -93t38.5 -56.5t63 -28.5t91 -8q44 0 80.5 9t63.5 31t44 57.5t23 88.5h276z"/>
<glyph glyph-name="afii10028" horiz-adv-x="1294" unicode="К" d="M1294 0h-352l-448 741v-741h-310v1462h310v-708l442 708h330l-451 -702z"/>
<glyph glyph-name="afii10029" horiz-adv-x="1444" unicode="Л" d="M1260 0h-310v1204h-276q-12 -94 -26 -206t-29 -223.5t-31.5 -214t-32.5 -179.5q-20 -96 -49 -170.5t-74 -126t-110.5 -78t-157.5 -26.5q-42 0 -79 5.5t-69 16.5v254q26 -9 52 -14.5t57 -5.5q30 0 52 14t40 48t33 91t31 143q9 50 24.5 142t34 214.5t39 269t39.5 304.5h842 v-1462z"/>
<glyph glyph-name="afii10030" horiz-adv-x="1870" unicode="М" d="M772 0l-321 1147h-9q6 -92 10 -178q2 -37 3.5 -76t3 -77t2 -73t0.5 -63v-680h-277v1462h422l316 -1118h6l336 1118h422v-1462h-289v692q0 26 0.5 59t1.5 70t2.5 75t2.5 74q4 84 7 175h-8l-346 -1145h-285z"/>
<glyph glyph-name="afii10031" horiz-adv-x="1485" unicode="Н" d="M1300 0h-309v631h-497v-631h-310v1462h310v-573h497v573h309v-1462z"/>
<glyph glyph-name="afii10032" horiz-adv-x="1548" unicode="О" d="M438 733q0 -115 20 -206.5t61.5 -155t104.5 -97.5t150 -34q89 0 152.5 34t104 97.5t60 155t19.5 206.5t-19.5 206.5t-60 155.5t-103.5 98t-151 34q-87 0 -151 -34t-105.5 -98t-61.5 -155.5t-20 -206.5zM1430 733q0 -169 -39.5 -308t-120.5 -238t-204.5 -153t-291.5 -54 t-291.5 54t-204 153t-120 238.5t-39.5 309.5t39.5 308.5t120.5 236.5t204.5 151.5t292.5 53.5q168 0 291 -53.5t203.5 -152t120 -237t39.5 -309.5z"/>
<glyph glyph-name="afii10033" horiz-adv-x="1444" unicode="П" d="M1260 0h-310v1204h-456v-1204h-310v1462h1076v-1462z"/>
<glyph glyph-name="afii10034" horiz-adv-x="1225" unicode="Р" d="M1133 1006q0 -96 -29 -184t-95.5 -155t-175 -107t-268.5 -40h-71v-520h-310v1462h406q141 0 243.5 -31.5t169 -90t98.5 -143t32 -191.5zM494 774h61q131 0 197.5 52t66.5 169q0 109 -59.5 161t-186.5 52h-79v-434z"/>
<glyph glyph-name="afii10035" horiz-adv-x="1305" unicode="С" d="M805 1225q-89 0 -157.5 -34.5t-115 -99t-70.5 -157t-24 -207.5q0 -117 21.5 -208t66 -153.5t114 -95t165.5 -32.5q89 0 178.5 20t194.5 57v-260q-48 -20 -95 -34t-96 -23t-100.5 -13.5t-110.5 -4.5q-169 0 -293 54t-205 152t-120 236t-39 307q0 166 45 304.5t132 238.5 t215 155.5t294 55.5q109 0 218.5 -27.5t209.5 -75.5l-100 -252q-82 39 -165 68t-163 29z"/>
<glyph glyph-name="afii10036" horiz-adv-x="1124" unicode="Т" d="M717 0h-309v1204h-367v258h1042v-258h-366v-1204z"/>
<glyph glyph-name="afii10037" horiz-adv-x="1255" unicode="У" d="M1255 1462l-424 -1034q-43 -105 -88 -188.5t-106.5 -141t-145.5 -88t-204 -30.5q-51 0 -109.5 7.5t-109.5 22.5v266q49 -20 107.5 -28t111.5 -8q51 0 86.5 13t60.5 36.5t42 55t30 67.5l-506 1050h328l276 -631q7 -15 16 -36.5t17 -43t14.5 -39.5t7.5 -26h11q2 9 6 27.5 t10 39.5t12.5 41.5t12.5 34.5l225 633h319z"/>
<glyph glyph-name="afii10038" horiz-adv-x="1679" unicode="Ф" d="M700 1061h-36q-72 0 -125 -24.5t-87.5 -66t-51.5 -96t-17 -114.5q0 -67 19 -125t57 -100.5t95 -66.5t134 -24h12v617zM700 -20v225h-20q-110 0 -196.5 24t-151.5 65t-111 96t-74.5 116.5t-41.5 126t-13 125.5q0 102 33 200t101.5 174.5t174 123.5t250.5 47h49v180h279 v-180h49q145 0 250.5 -47t174 -123.5t101.5 -174.5t33 -200q0 -61 -13 -125.5t-41.5 -126t-74 -116.5t-111 -96t-152 -65t-196.5 -24h-20v-225h-279zM979 444h12q77 0 134 24t95 66.5t57 100.5t19 125q0 60 -16.5 114.5t-51 96t-87.5 66t-125 24.5h-37v-617z"/>
<glyph glyph-name="afii10039" horiz-adv-x="1284" unicode="Х" d="M1284 0h-354l-299 553l-299 -553h-332l444 754l-413 708h342l274 -526l268 526h334l-418 -725z"/>
<glyph glyph-name="afii10040" horiz-adv-x="1518" unicode="Ц" d="M1260 246h217v-672h-299v426h-994v1462h310v-1204h456v1204h310v-1216z"/>
<glyph glyph-name="afii10041" horiz-adv-x="1409" unicode="Ч" d="M1225 0h-310v565q-58 -22 -111 -39t-103 -28t-98.5 -17t-98.5 -6q-93 0 -166.5 25.5t-124 74t-77.5 120t-27 163.5v604h309v-516q0 -106 42 -159.5t142 -53.5q74 0 148.5 18.5t164.5 55.5v655h310v-1462z"/>
<glyph glyph-name="afii10042" horiz-adv-x="2126" unicode="Ш" d="M1219 258h413v1204h310v-1462h-1758v1462h310v-1204h413v1204h312v-1204z"/>
<glyph glyph-name="afii10043" horiz-adv-x="2200" unicode="Щ" d="M1219 258h413v1204h310v-1216h217v-672h-299v426h-1676v1462h310v-1204h413v1204h312v-1204z"/>
<glyph glyph-name="afii10044" horiz-adv-x="1407" unicode="Ъ" d="M676 254h84q56 0 100.5 10.5t76 34.5t48 63t16.5 95q0 58 -18 95t-52 58t-82.5 29t-109.5 8h-63v-393zM1315 457q0 -108 -32.5 -193t-101 -143.5t-173.5 -89.5t-250 -31h-391v1204h-367v258h676v-561h108q137 0 237 -33t165.5 -92t97 -140.5t31.5 -178.5z"/>
<glyph glyph-name="afii10045" horiz-adv-x="1774" unicode="Ы" d="M1589 0h-309v1462h309v-1462zM494 254h84q56 0 100.5 10.5t76 34.5t48 63t16.5 95q0 58 -18 95t-52 58t-82.5 29t-109.5 8h-63v-393zM1133 457q0 -108 -32.5 -193t-101 -143.5t-173.5 -89.5t-251 -31h-391v1462h310v-561h108q137 0 237 -33t165.5 -92t97 -140.5 t31.5 -178.5z"/>
<glyph glyph-name="afii10046" horiz-adv-x="1225" unicode="Ь" d="M494 254h84q56 0 100.5 10.5t76 34.5t48 63t16.5 95q0 58 -18 95t-52 58t-82.5 29t-109.5 8h-63v-393zM1133 457q0 -108 -32.5 -193t-101 -143.5t-173.5 -89.5t-251 -31h-391v1462h310v-561h108q137 0 237 -33t165.5 -92t97 -140.5t31.5 -178.5z"/>
<glyph glyph-name="afii10047" horiz-adv-x="1276" unicode="Э" d="M510 1225q-88 0 -173 -28t-167 -67l-98 250q100 48 212 75.5t240 27.5q151 0 268.5 -50.5t198.5 -147.5t123.5 -237t42.5 -319q0 -169 -39 -307t-120 -236t-204.5 -152t-293.5 -54q-58 0 -110 4.5t-101 13.5t-96 23t-95 34v260q105 -37 194.5 -57t178.5 -20 q168 0 260 92.5t100 279.5h-552v254h550q-3 86 -26.5 153t-64.5 113t-99 70.5t-129 24.5z"/>
<glyph glyph-name="afii10048" horiz-adv-x="2109" unicode="Ю" d="M1081 733q0 -115 17.5 -206.5t54 -155t92 -97.5t131.5 -34q78 0 133.5 34t91.5 97.5t53 155t17 206.5t-17 206.5t-52.5 155.5t-91 98t-132.5 34q-76 0 -132 -34t-93 -98t-54.5 -155.5t-17.5 -206.5zM1991 733q0 -169 -37 -308t-113 -238t-191.5 -153t-273.5 -54 q-145 0 -254.5 46t-185.5 131t-118.5 205.5t-53.5 268.5h-270v-631h-310v1462h310v-573h276q15 137 60 247t120 187.5t182 119.5t246 42q157 0 272.5 -53.5t191 -152t112.5 -237t37 -309.5z"/>
<glyph glyph-name="afii10049" horiz-adv-x="1280" unicode="Я" d="M786 1208h-122q-96 0 -148.5 -43t-52.5 -143q0 -97 50.5 -153t156.5 -56h116v395zM664 561l-330 -561h-344l409 655q-44 19 -88.5 50t-80 79t-58 114.5t-22.5 156.5q0 204 137 305.5t407 101.5h402v-1462h-310v561h-122z"/>
<glyph glyph-name="afii10065" horiz-adv-x="1176" unicode="а" d="M719 518l-101 -4q-61 -2 -103 -16t-67.5 -37.5t-37 -56t-11.5 -72.5q0 -70 34 -99.5t89 -29.5q42 0 78 14.5t62.5 43t41.5 70t15 95.5v92zM809 0l-59 152h-9q-33 -45 -66 -77.5t-72 -53.5t-87.5 -31t-112.5 -10q-68 0 -126 21.5t-100.5 65t-66.5 110t-24 157.5 q0 178 114 262.5t341 93.5l178 6v84q0 69 -40 102t-112 33t-140.5 -21t-137.5 -56l-99 202q84 47 186 74t214 27q209 0 320.5 -98t111.5 -298v-745h-213z"/>
<glyph glyph-name="afii10066" horiz-adv-x="1255" unicode="б" d="M631 227q42 0 76.5 15.5t59.5 50.5t38.5 92t13.5 141q0 67 -9.5 121t-29.5 91.5t-52.5 58t-78.5 20.5q-43 0 -81.5 -19t-69.5 -46t-53 -56.5t-31 -50.5q0 -79 10.5 -154.5t35 -134t66.5 -94t105 -35.5zM102 670q0 185 31.5 328.5t100.5 247t177 168.5t261 93 q102 19 206.5 34.5t217.5 31.5l34 -266q-49 -6 -105.5 -14.5t-113.5 -17t-110 -17t-96 -15.5q-71 -12 -123.5 -32.5t-88.5 -61t-55 -107t-24 -170.5h12q17 29 44 59t65 54.5t86.5 40.5t107.5 16q92 0 166.5 -31t126.5 -92t80 -152.5t28 -213.5q0 -143 -37.5 -250.5 t-105.5 -179t-163 -107.5t-210 -36q-117 0 -211.5 45t-161 133t-103 216.5t-36.5 295.5z"/>
<glyph glyph-name="afii10067" horiz-adv-x="1257" unicode="в" d="M821 801q0 102 -137 102h-219v-221h188q84 0 126 28t42 91zM850 350q0 66 -44 95.5t-132 29.5h-209v-264h213q38 0 69.5 7.5t54 24.5t35.5 43.5t13 63.5zM1130 825q0 -90 -56 -153.5t-167 -81.5v-8q59 -7 106.5 -27.5t81 -53t52 -74.5t18.5 -93q0 -72 -26 -133.5 t-82 -106t-144 -69.5t-213 -25h-540v1118h538q93 0 172 -15t137 -49.5t90.5 -90.5t32.5 -138z"/>
<glyph glyph-name="afii10068" horiz-adv-x="918" unicode="г" d="M870 1118v-229h-405v-889h-305v1118h710z"/>
<glyph glyph-name="afii10069" horiz-adv-x="1296" unicode="д" d="M1268 -401h-275v401h-690v-401h-274v624h94q55 85 97.5 188.5t73 218.5t50.5 239t31 249h729v-895h164v-624zM799 223v666h-168q-25 -186 -68.5 -353t-120.5 -313h357z"/>
<glyph glyph-name="afii10070" horiz-adv-x="1190" unicode="е" d="M651 -20q-120 0 -221 35t-174 105.5t-113.5 178t-40.5 252.5q0 147 37 257t103.5 183.5t160 110.5t207.5 37q111 0 200.5 -33.5t152 -98.5t96 -159.5t33.5 -216.5v-148h-682q2 -64 20.5 -115.5t52 -87t81 -54.5t108.5 -19q51 0 96.5 5.5t88.5 16.5t85 27.5t86 38.5v-236 q-40 -21 -80.5 -35.5t-85.5 -24.5t-97 -14.5t-114 -4.5zM612 922q-81 0 -134.5 -57t-61.5 -179h389q-1 51 -13 94t-36 74.5t-60 49.5t-84 18z"/>
<glyph glyph-name="afii10072" horiz-adv-x="1726" unicode="ж" d="M721 575v543h285v-543l366 543h316l-381 -536l419 -582h-325l-395 567v-567h-285v567l-395 -567h-326l420 582l-381 536h315z"/>
<glyph glyph-name="afii10073" horiz-adv-x="1075" unicode="з" d="M422 688q131 0 201.5 25t70.5 92q0 54 -47 81t-155 27q-36 0 -76.5 -5t-81.5 -14t-81 -22t-77 -30l-90 213q45 18 93.5 33.5t103.5 27t117.5 17.5t136.5 6q84 0 162 -17.5t137.5 -54t95 -92.5t35.5 -133q0 -101 -57 -160.5t-152 -85.5v-10q50 -13 93.5 -32t76 -49 t51 -73.5t18.5 -105.5q0 -69 -31 -132t-95 -110.5t-161.5 -75.5t-230.5 -28q-127 0 -229.5 17.5t-171.5 51.5v252q32 -16 71 -31.5t84 -27.5t95 -19.5t102 -7.5q57 0 106.5 6.5t85.5 22t57 40t21 60.5q0 68 -66.5 100.5t-205.5 32.5h-102v211h96z"/>
<glyph glyph-name="afii10074" horiz-adv-x="1413" unicode="и" d="M455 1118v-434q0 -35 -3 -92t-8 -113q-5 -65 -12 -137l455 776h366v-1118h-295v438q0 42 3.5 99t7.5 110q4 62 10 127l-453 -774h-366v1118h295z"/>
<glyph glyph-name="afii10075" horiz-adv-x="1413" unicode="й" d="M455 1118v-434q0 -35 -3 -92t-8 -113q-5 -65 -12 -137l455 776h366v-1118h-295v438q0 42 3.5 99t7.5 110q4 62 10 127l-453 -774h-366v1118h295zM1188 1599q-8 -80 -36.5 -146t-86 -113t-148 -73t-222.5 -26q-136 0 -225.5 25t-143.5 71.5t-78.5 112.5t-30.5 149h273 q5 -57 18.5 -93t38.5 -56.5t63 -28.5t91 -8q44 0 80.5 9t63.5 31t44 57.5t23 88.5h276z"/>
<glyph glyph-name="afii10076" horiz-adv-x="1206" unicode="к" d="M831 1118h336l-381 -536l420 -582h-346l-395 567v-567h-305v1118h305v-543z"/>
<glyph glyph-name="afii10077" horiz-adv-x="1260" unicode="л" d="M1100 0h-305v889h-220q-21 -246 -49.5 -419t-74 -281.5t-112.5 -158.5t-165 -50q-106 0 -174 32v244q22 -9 47 -14.5t51 -5.5q24 0 46 15t42.5 53t38 102t34 162t30.5 233.5t26 316.5h785v-1118z"/>
<glyph glyph-name="afii10078" horiz-adv-x="1688" unicode="м" d="M1528 0h-285v881q-5 -21 -14.5 -62.5t-23 -94t-30.5 -111t-38 -113.5l-185 -500h-217l-186 504q-20 54 -36 109.5t-29 106.5t-23 93t-17 68v-881h-284v1118h426l174 -477q20 -54 34.5 -109.5t24 -103t15.5 -83.5t8 -52q4 18 10.5 53.5t17 82t25 99.5t33.5 105l178 485 h422v-1118z"/>
<glyph glyph-name="afii10079" horiz-adv-x="1294" unicode="н" d="M465 1118v-430h364v430h306v-1118h-306v461h-364v-461h-305v1118h305z"/>
<glyph glyph-name="afii10080" horiz-adv-x="1227" unicode="о" d="M1124 561q0 -140 -35.5 -248t-102 -182t-162 -112.5t-214.5 -38.5q-111 0 -204 38.5t-160.5 112.5t-105.5 182t-38 248q0 139 35.5 247t102 181.5t161.5 111.5t215 38q111 0 204 -38t160.5 -111.5t105.5 -181.5t38 -247zM414 561q0 -167 47 -251.5t153 -84.5 q105 0 152 85t47 251q0 167 -47 249.5t-154 82.5q-105 0 -151.5 -82.5t-46.5 -249.5z"/>
<glyph glyph-name="afii10081" horiz-adv-x="1274" unicode="п" d="M1114 1118v-1118h-305v889h-344v-889h-305v1118h954z"/>
<glyph glyph-name="afii10082" horiz-adv-x="1245" unicode="р" d="M653 895q-51 0 -86.5 -18.5t-57.5 -55.5t-32 -93.5t-12 -131.5v-33q0 -81 9.5 -144t31.5 -105.5t58.5 -64.5t90.5 -22q91 0 133.5 86.5t42.5 251.5t-42.5 247.5t-135.5 82.5zM748 -20q-55 0 -98.5 12t-77.5 32t-60 45.5t-47 53.5h-16q4 -35 8 -66q3 -26 5.5 -53.5 t2.5 -42.5v-453h-305v1610h248l43 -145h14q21 34 48 64t62.5 52.5t80.5 36t100 13.5q87 0 158 -37t122 -110t79 -181t28 -250q0 -143 -29 -251.5t-81.5 -182t-125 -110.5t-159.5 -37z"/>
<glyph glyph-name="afii10083" horiz-adv-x="1022" unicode="с" d="M625 -20q-120 0 -216.5 33t-165 102.5t-105 178t-36.5 259.5q0 167 37.5 279.5t106 180.5t165 97t214.5 29q86 0 171 -21t160 -59l-88 -232q-66 29 -127 47.5t-116 18.5q-111 0 -161 -84.5t-50 -253.5q0 -168 50 -248t157 -80q87 0 158 22.5t145 57.5v-254 q-37 -18 -72 -32t-70.5 -23t-74 -13.5t-82.5 -4.5z"/>
<glyph glyph-name="afii10084" horiz-adv-x="1071" unicode="т" d="M1024 1118v-229h-336v-889h-305v889h-336v229h977z"/>
<glyph glyph-name="afii10085" horiz-adv-x="1104" unicode="у" d="M0 1118h334l180 -629q16 -52 23.5 -111t9.5 -106h6q2 23 5.5 51t8.5 57t11.5 57.5t13.5 51.5l176 629h336l-442 -1261q-62 -177 -169 -263t-268 -86q-52 0 -90 5.5t-65 11.5v242q21 -5 53 -9t67 -4q48 0 82 13t58.5 36.5t42 56.5t30.5 74l19 56z"/>
<glyph glyph-name="afii10086" horiz-adv-x="1626" unicode="ф" d="M1210 559q0 67 -17.5 124t-50.5 100.5t-80 71t-106 36.5v-668q61 9 108 37t79.5 71.5t49.5 101.5t17 126zM416 559q0 -68 17.5 -126t50.5 -101.5t81 -71.5t109 -37v672q-60 -9 -108 -38t-81 -73t-51 -101t-18 -124zM956 1124q138 -12 244 -58t178 -119.5t109 -172 t37 -215.5t-35.5 -216t-106.5 -172.5t-177.5 -120t-248.5 -58.5v-484h-282v484q-137 13 -243.5 59.5t-179.5 120.5t-111 172t-38 215q0 120 34.5 219.5t105 173t178 118t254.5 54.5v432h282v-432z"/>
<glyph glyph-name="afii10087" horiz-adv-x="1122" unicode="х" d="M389 571l-360 547h346l186 -336l189 336h346l-365 -547l381 -571h-346l-205 362l-205 -362h-346z"/>
<glyph glyph-name="afii10088" horiz-adv-x="1348" unicode="ц" d="M1155 223h164v-624h-275v401h-884v1118h305v-889h385v889h305v-895z"/>
<glyph glyph-name="afii10089" horiz-adv-x="1282" unicode="ч" d="M428 1118v-420q0 -72 32 -103.5t85 -31.5q75 0 140.5 20t131.5 52v483h305v-1118h-305v444q-33 -19 -70.5 -37.5t-80 -32.5t-90 -23t-101.5 -9q-81 0 -146 22.5t-110.5 67.5t-70.5 112.5t-25 157.5v416h305z"/>
<glyph glyph-name="afii10090" horiz-adv-x="1923" unicode="ш" d="M1763 0h-1603v1118h305v-889h344v889h305v-889h344v889h305v-1118z"/>
<glyph glyph-name="afii10091" horiz-adv-x="1956" unicode="щ" d="M1763 223h164v-624h-274v401h-1493v1118h305v-889h344v889h305v-889h344v889h305v-895z"/>
<glyph glyph-name="afii10092" horiz-adv-x="1403" unicode="ъ" d="M1016 352q0 65 -44 94t-132 29h-178v-264h182q38 0 69.5 7.5t54 24.5t35.5 44t13 65zM662 1118v-432h196q237 0 350 -81.5t113 -248.5q0 -81 -26 -147t-82 -112.5t-144 -71.5t-213 -25h-500v889h-356v229h662z"/>
<glyph glyph-name="afii10093" horiz-adv-x="1679" unicode="ы" d="M1520 0h-306v1118h306v-1118zM758 352q0 65 -44 94t-132 29h-117v-264h121q38 0 69.5 7.5t54 24.5t35.5 44t13 65zM465 686h135q236 0 349.5 -81.5t113.5 -248.5q0 -81 -26 -147t-82 -112.5t-144 -71.5t-213 -25h-438v1118h305v-432z"/>
<glyph glyph-name="afii10094" horiz-adv-x="1206" unicode="ь" d="M819 352q0 65 -44 94t-132 29h-178v-264h182q76 0 124 32.5t48 108.5zM465 686h197q236 0 349 -81.5t113 -248.5q0 -81 -26 -147t-82 -112.5t-144 -71.5t-213 -25h-499v1118h305v-432z"/>
<glyph glyph-name="afii10095" horiz-adv-x="997" unicode="э" d="M393 -20q-99 0 -175 16t-144 53v238q66 -34 139 -57t154 -23q92 0 148.5 60t64.5 196h-361v203h361q-13 247 -187 247q-63 0 -121 -19t-106 -44l-86 209q30 15 67 29t80 25.5t90 18.5t97 7q102 0 190 -27.5t152.5 -93t101.5 -174.5t37 -273q0 -151 -33.5 -262.5 t-97.5 -184.5t-157.5 -108.5t-213.5 -35.5z"/>
<glyph glyph-name="afii10096" horiz-adv-x="1745" unicode="ю" d="M973 561q0 -167 42 -251.5t138 -84.5q94 0 136 84.5t42 251.5t-42 249.5t-138 82.5q-94 0 -136 -82.5t-42 -249.5zM1642 561q0 -140 -34 -248t-98 -182t-155.5 -112.5t-205.5 -38.5q-97 0 -180 29t-145.5 88.5t-103 150t-54.5 213.5h-201v-461h-305v1118h305v-430h205 q15 109 55.5 193t103 141.5t145 87t181.5 29.5q106 0 195.5 -38t154 -111.5t101 -181.5t36.5 -247z"/>
<glyph glyph-name="afii10097" horiz-adv-x="1153" unicode="я" d="M381 770q0 -71 46 -110t120 -39h141v282h-174q-34 0 -59 -10.5t-41.5 -29t-24.5 -42.5t-8 -51zM330 0h-330l289 449q-43 18 -81 47t-66 69.5t-44 92t-16 114.5q0 84 31 148.5t87 108.5t134 66.5t172 22.5h487v-1118h-305v416h-119z"/>
<glyph glyph-name="uni0450" horiz-adv-x="1190" unicode="ѐ" d="M651 -20q-120 0 -221 35t-174 105.5t-113.5 178t-40.5 252.5q0 147 37 257t103.5 183.5t160 110.5t207.5 37q111 0 200.5 -33.5t152 -98.5t96 -159.5t33.5 -216.5v-148h-682q2 -64 20.5 -115.5t52 -87t81 -54.5t108.5 -19q51 0 96.5 5.5t88.5 16.5t85 27.5t86 38.5v-236 q-40 -21 -80.5 -35.5t-85.5 -24.5t-97 -14.5t-114 -4.5zM612 922q-81 0 -134.5 -57t-61.5 -179h389q-1 51 -13 94t-36 74.5t-60 49.5t-84 18zM578 1241q-34 28 -81.5 69.5t-93.5 85.5t-84 84.5t-54 67.5v21h342q16 -34 37.5 -74.5t44.5 -81t47 -78.5t45 -67v-27h-203z"/>
<glyph glyph-name="afii10071" horiz-adv-x="1190" unicode="ё" d="M651 -20q-120 0 -221 35t-174 105.5t-113.5 178t-40.5 252.5q0 147 37 257t103.5 183.5t160 110.5t207.5 37q111 0 200.5 -33.5t152 -98.5t96 -159.5t33.5 -216.5v-148h-682q2 -64 20.5 -115.5t52 -87t81 -54.5t108.5 -19q51 0 96.5 5.5t88.5 16.5t85 27.5t86 38.5v-236 q-40 -21 -80.5 -35.5t-85.5 -24.5t-97 -14.5t-114 -4.5zM612 922q-81 0 -134.5 -57t-61.5 -179h389q-1 51 -13 94t-36 74.5t-60 49.5t-84 18zM669 1405q0 35 11 60.5t30 42t45 24.5t56 8q28 0 53.5 -8t45 -24.5t31 -42t11.5 -60.5q0 -34 -11.5 -59t-31 -41.5t-45 -24.5 t-53.5 -8q-60 0 -101 33t-41 100zM266 1405q0 35 11 60.5t29.5 42t44 24.5t54.5 8t54.5 -8t44.5 -24.5t30.5 -42t11.5 -60.5q0 -34 -11.5 -59t-30.5 -41.5t-44.5 -24.5t-54.5 -8t-54.5 8t-44 24.5t-29.5 41.5t-11 59z"/>
<glyph glyph-name="afii10099" horiz-adv-x="1284" unicode="ђ" d="M768 -492q-48 0 -99 7t-85 18v240q31 -10 57.5 -14.5t60.5 -4.5q26 0 48 7.5t39 27t26.5 52t9.5 83.5v690q0 110 -39.5 165t-113.5 55q-59 0 -99 -24.5t-64 -71.5t-34 -115.5t-10 -157.5v-465h-305v1196h-156v199h156v161h305v-161h315v-199h-315v-18q0 -42 -2 -88.5 t-5 -85.5l-7 -91h16q49 87 125 125.5t172 38.5q83 0 150.5 -23.5t115.5 -73.5t74 -127.5t26 -184.5v-789q0 -77 -19.5 -144.5t-63 -118t-112.5 -79.5t-167 -29z"/>
<glyph glyph-name="afii10100" horiz-adv-x="918" unicode="ѓ" d="M870 1118v-229h-405v-889h-305v1118h710zM340 1241v27q21 29 45 67t47.5 78.5t44.5 81t37 74.5h342v-21q-11 -18 -32 -42.5t-48 -52.5t-58 -57.5t-62.5 -57.5t-60.5 -53t-52 -44h-203z"/>
<glyph glyph-name="afii10101" horiz-adv-x="1022" unicode="є" d="M625 -20q-120 0 -216.5 33t-165 102.5t-105 178t-36.5 259.5q0 167 37.5 279.5t106 180.5t165 97t214.5 29q86 0 171 -19.5t160 -54.5l-88 -217q-66 29 -127 47t-116 18q-93 0 -143 -61t-64 -186h360v-203h-360q12 -131 61 -193.5t142 -62.5q87 0 158 22.5t145 57.5v-234 q-68 -37 -139 -55t-160 -18z"/>
<glyph glyph-name="afii10102" horiz-adv-x="985" unicode="ѕ" d="M905 332q0 -88 -32 -154t-91 -110t-143 -66t-188 -22q-55 0 -102 3.5t-89 11.5t-81 20t-79 30v252q42 -21 88.5 -38t92.5 -29.5t89.5 -19.5t80.5 -7q41 0 70 7.5t47.5 21t27 32t8.5 39.5t-6.5 37.5t-29.5 35t-67.5 42t-119.5 57.5q-73 33 -126.5 65.5t-88 72.5 t-51.5 91.5t-17 122.5q0 78 30 136.5t85 97.5t132.5 58.5t172.5 19.5q100 0 190 -23t185 -69l-92 -216q-76 36 -145 59t-138 23q-62 0 -89.5 -22t-27.5 -60q0 -20 7 -35.5t28 -32t59 -36t99 -47.5q71 -31 128 -61.5t98 -69.5t63 -91t22 -126z"/>
<glyph glyph-name="afii10103" horiz-adv-x="625" unicode="і" d="M465 0h-305v1118h305v-1118zM147 1407q0 43 13 71.5t35.5 46t53 24.5t64.5 7t64 -7t52.5 -24.5t36 -46t13.5 -71.5q0 -42 -13.5 -71t-36 -46.5t-52.5 -25t-64 -7.5t-64.5 7.5t-53 25t-35.5 46.5t-13 71z"/>
<glyph glyph-name="afii10104" horiz-adv-x="625" unicode="ї" d="M465 0h-305v1118h305v-1118zM371 1405q0 35 11 60.5t30 42t45 24.5t56 8q28 0 53.5 -8t45 -24.5t31 -42t11.5 -60.5q0 -34 -11.5 -59t-31 -41.5t-45 -24.5t-53.5 -8q-60 0 -101 33t-41 100zM-32 1405q0 35 11 60.5t29.5 42t44 24.5t54.5 8t54.5 -8t44.5 -24.5t30.5 -42 t11.5 -60.5q0 -34 -11.5 -59t-30.5 -41.5t-44.5 -24.5t-54.5 -8t-54.5 8t-44 24.5t-29.5 41.5t-11 59z"/>
<glyph glyph-name="afii10105" horiz-adv-x="625" unicode="ј" d="M147 1407q0 43 13 71.5t35.5 46t53 24.5t64.5 7t64 -7t52.5 -24.5t36 -46t13.5 -71.5q0 -42 -13.5 -71t-36 -46.5t-52.5 -25t-64 -7.5t-64.5 7.5t-53 25t-35.5 46.5t-13 71zM102 -492q-48 0 -99 7t-85 18v240q31 -10 58 -14.5t61 -4.5q25 0 47.5 7.5t39 27t26.5 52 t10 83.5v1194h305v-1239q0 -77 -19.5 -144.5t-63 -118t-112.5 -79.5t-168 -29z"/>
<glyph glyph-name="afii10106" horiz-adv-x="1767" unicode="љ" d="M1380 352q0 65 -44 94t-132 29h-117v-264h121q76 0 124 32.5t48 108.5zM782 0v889h-207q-21 -246 -49.5 -419t-74 -281.5t-112.5 -158.5t-165 -50q-106 0 -174 32v244q22 -9 47 -14.5t51 -5.5q24 0 46 15t42.5 53t38 102t34 162t30.5 233.5t26 316.5h772v-432h136 q236 0 349.5 -81.5t113.5 -248.5q0 -81 -26 -147t-82.5 -112.5t-144.5 -71.5t-212 -25h-439z"/>
<glyph glyph-name="afii10107" horiz-adv-x="1767" unicode="њ" d="M1380 352q0 65 -44 94t-132 29h-117v-264h121q76 0 124 32.5t48 108.5zM1087 686h136q236 0 349.5 -81.5t113.5 -248.5q0 -81 -26 -147t-82.5 -112.5t-144.5 -71.5t-212 -25h-439v461h-317v-461h-305v1118h305v-430h317v430h305v-432z"/>
<glyph glyph-name="afii10108" horiz-adv-x="1284" unicode="ћ" d="M1130 0h-305v592q0 121 -37.5 181.5t-115.5 60.5q-59 0 -99 -24.5t-64 -71.5t-34 -115.5t-10 -157.5v-465h-305v1196h-156v199h156v161h305v-161h315v-199h-315v-18q0 -42 -2 -88.5t-5 -85.5l-7 -91h16q49 87 125 125.5t172 38.5q83 0 150.5 -23.5t115.5 -73.5t74 -127.5 t26 -184.5v-668z"/>
<glyph glyph-name="afii10109" horiz-adv-x="1206" unicode="ќ" d="M831 1118h336l-381 -536l420 -582h-346l-395 567v-567h-305v1118h305v-543zM486 1241v27q21 29 45 67t47.5 78.5t44.5 81t37 74.5h342v-21q-11 -18 -32 -42.5t-48 -52.5t-58 -57.5t-62.5 -57.5t-60.5 -53t-52 -44h-203z"/>
<glyph glyph-name="uni045D" horiz-adv-x="1413" unicode="ѝ" d="M455 1118v-434q0 -35 -3 -92t-8 -113q-5 -65 -12 -137l455 776h366v-1118h-295v438q0 42 3.5 99t7.5 110q4 62 10 127l-453 -774h-366v1118h295zM638 1241q-34 28 -81.5 69.5t-93.5 85.5t-84 84.5t-54 67.5v21h342q16 -34 37.5 -74.5t44.5 -81t47 -78.5t45 -67v-27h-203z "/>
<glyph glyph-name="afii10110" horiz-adv-x="1104" unicode="ў" d="M0 1118h334l180 -629q16 -52 23.5 -111t9.5 -106h6q2 23 5.5 51t8.5 57t11.5 57.5t13.5 51.5l176 629h336l-442 -1261q-62 -177 -169 -263t-268 -86q-52 0 -90 5.5t-65 11.5v242q21 -5 53 -9t67 -4q48 0 82 13t58.5 36.5t42 56.5t30.5 74l19 56zM1035 1599 q-8 -80 -36.5 -146t-86 -113t-148 -73t-222.5 -26q-136 0 -225.5 25t-143.5 71.5t-78.5 112.5t-30.5 149h273q5 -57 18.5 -93t38.5 -56.5t63 -28.5t91 -8q44 0 80.5 9t63.5 31t44 57.5t23 88.5h276z"/>
<glyph glyph-name="afii10193" horiz-adv-x="1315" unicode="џ" d="M160 0v1118h305v-889h385v889h305v-1118h-360v-401h-275v401h-360z"/>
<glyph glyph-name="uni0460" horiz-adv-x="2146" unicode="Ѡ" d="M1452 1235q-30 0 -58 -8t-52.5 -19.5t-46.5 -25t-40 -25.5l-108 215q30 23 68 43t79.5 34.5t84.5 23t83 8.5q137 0 242.5 -49t177.5 -141.5t109 -224.5t37 -298q0 -170 -35.5 -314.5t-109.5 -249.5t-187.5 -164.5t-268.5 -59.5q-111 0 -196.5 36t-159.5 111 q-73 -75 -157.5 -111t-194.5 -36q-155 0 -268.5 59.5t-187 164.5t-109 249.5t-35.5 314.5q0 166 37 298t108.5 224.5t177 141.5t242.5 49q40 0 83 -8.5t85 -23t79.5 -34.5t67.5 -43l-108 -215q-18 12 -39.5 25.5t-46.5 25t-53 19.5t-58 8q-61 0 -111 -29.5t-85.5 -88.5 t-54.5 -146.5t-19 -204.5q0 -121 21 -217t62.5 -162.5t104 -101.5t146.5 -35q45 0 83 19.5t72 49.5v396h310v-396q66 -69 166 -69q84 0 146.5 35t104 101.5t62 162.5t20.5 217q0 117 -19 204.5t-54.5 146.5t-85 88.5t-111.5 29.5z"/>
<glyph glyph-name="uni0461" horiz-adv-x="1751" unicode="ѡ" d="M401 0l-395 1118h320l184 -637q17 -57 29.5 -118.5t15.5 -110.5h6q2 26 8.5 55t16 58.5t20.5 59t21 56.5l100 273l-127 364h313l191 -620q7 -23 15.5 -54t16.5 -62.5t16 -61t13 -50.5h9q51 77 87.5 164.5t59 190.5t33 225t10.5 268h307q0 -166 -18.5 -313t-65 -283 t-125 -264.5t-198.5 -257.5h-275l-133 381l-141 -381h-314z"/>
<glyph glyph-name="uni0462" horiz-adv-x="1296" unicode="Ѣ" d="M565 254h84q56 0 101 10.5t76.5 34.5t48 63t16.5 95q0 58 -18 95t-52 58t-82.5 29t-109.5 8h-64v-393zM565 1124v-223h109q137 0 236.5 -33t165 -92t97 -140.5t31.5 -178.5q0 -108 -32.5 -193t-101 -143.5t-173.5 -89.5t-250 -31h-391v1124h-256v230h256v202h309v-202 h295v-230h-295z"/>
<glyph glyph-name="uni0463" horiz-adv-x="1305" unicode="ѣ" d="M918 352q0 65 -44.5 94t-132.5 29h-178v-264h182q38 0 69.5 7.5t54.5 24.5t36 44t13 65zM563 889v-203h197q236 0 349.5 -81.5t113.5 -248.5q0 -81 -26 -147t-82 -112.5t-144 -71.5t-213 -25h-500v889h-258v229h258v201h305v-201h297v-229h-297z"/>
<glyph glyph-name="uni0464" horiz-adv-x="1864" unicode="Ѥ" d="M1556 631h-552q5 -84 30.5 -156t71 -124.5t110 -82.5t148.5 -30q89 0 178.5 20t194.5 57v-260q-48 -20 -95 -34t-96 -23t-100.5 -13.5t-110.5 -4.5q-157 0 -275 46t-199 131t-125.5 205.5t-55.5 268.5h-186v-631h-310v1462h310v-573h194q20 134 73.5 243.5t139 187.5 t202 120.5t261.5 42.5q109 0 218.5 -27.5t209.5 -75.5l-100 -252q-82 39 -165 68t-163 29q-75 0 -137 -22.5t-108 -65t-75 -105t-38 -143.5h550v-258z"/>
<glyph glyph-name="uni0465" horiz-adv-x="1577" unicode="ѥ" d="M1184 -20q-217 0 -345 117.5t-153 363.5h-221v-461h-305v1118h305v-430h221q13 128 54.5 214.5t104.5 139t144 75t174 22.5q50 0 97 -7t90 -18.5t80 -25.5t67 -29l-86 -209q-48 25 -106 44t-121 19q-88 0 -134 -57.5t-53 -167.5h361v-227h-361q4 -69 20.5 -117.5t44 -79 t65 -44t83.5 -13.5q81 0 154 23t139 57v-238q-68 -37 -144 -53t-175 -16z"/>
<glyph glyph-name="uni0466" horiz-adv-x="1413" unicode="Ѧ" d="M588 868h237l-28 90q-9 27 -22.5 68t-26.5 86.5t-24.5 90.5t-16.5 79q-6 -33 -17 -78t-24.5 -91.5t-26 -87.5t-21.5 -67zM1112 0l-209 631h-59v-631h-273v631h-61l-207 -631h-303l516 1468h379l518 -1468h-301z"/>
<glyph glyph-name="uni0467" horiz-adv-x="1249" unicode="ѧ" d="M520 629h211l-24 67q-5 13 -16.5 45.5t-24 70.5t-24.5 76.5t-17 63.5q-6 -24 -17.5 -62t-24 -77t-23 -72t-15.5 -45zM805 422h-47v-422h-264v422h-50l-151 -422h-293l440 1118h367l442 -1118h-293z"/>
<glyph glyph-name="uni0468" horiz-adv-x="1935" unicode="Ѩ" d="M1143 868h215l-19 60q-5 18 -17.5 59t-27 90.5t-27 99.5t-18.5 85q-3 -22 -10 -52t-16 -63.5t-18.5 -67.5t-18 -64t-15.5 -53t-10 -34zM494 889h368l197 579h379l497 -1468h-313l-192 631h-44v-631h-272v631h-45l-192 -631h-314l213 631h-282v-631h-310v1462h310v-573z "/>
<glyph glyph-name="uni0469" horiz-adv-x="1786" unicode="ѩ" d="M1249 670q-7 21 -20 55t-26 71.5t-24.5 74t-17.5 61.5q-5 -24 -16.5 -60.5t-25 -74.5t-26 -72.5t-20.5 -54.5h176zM424 1118v-430h383l170 430h366l443 -1118h-293l-168 463h-31v-463h-264v463h-33l-168 -463h-292l180 461h-293v-461h-264v1118h264z"/>
<glyph glyph-name="uni046A" horiz-adv-x="1565" unicode="Ѫ" d="M782 891l213 313h-424zM41 0l139 453q27 89 59 156t72 115.5t89 80t110 49.5l-334 469v139h1219v-139l-342 -469q60 -18 109.5 -49.5t90 -80t72.5 -115.5t59 -156l140 -453h-312l-106 385q-15 55 -31.5 96t-36 70t-44 47t-56.5 27v-625h-307v625q-34 -9 -59 -27 t-45 -46.5t-36.5 -69.5t-31.5 -97l-107 -385h-311z"/>
<glyph glyph-name="uni046B" horiz-adv-x="1214" unicode="ѫ" d="M608 686l150 225h-297zM20 0l107 346q37 125 94.5 197t140.5 104l-258 365v106h1014v-106l-262 -367q82 -32 137.5 -104t93.5 -195l107 -346h-258l-82 295q-11 38 -22 65t-24 45t-29 28.5t-36 15.5v-449h-264v451q-23 -5 -40.5 -15t-31 -28t-25 -45.5t-22.5 -67.5 l-81 -295h-259z"/>
<glyph glyph-name="uni046C" horiz-adv-x="2116" unicode="Ѭ" d="M1333 891l213 313h-424zM592 0l139 453q16 51 33 95.5t37 82.5h-307v-631h-310v1462h310v-573h542l-309 434v139h1219v-139l-342 -469q60 -18 109.5 -49.5t90 -80t72.5 -115.5t59 -156l140 -453h-312l-106 385q-15 55 -31.5 95.5t-36 69t-44 46.5t-56.5 27v-623h-307v625 q-34 -9 -59 -27t-45 -46.5t-36.5 -69.5t-31.5 -97l-107 -385h-311z"/>
<glyph glyph-name="uni046D" horiz-adv-x="1741" unicode="ѭ" d="M1135 686l149 225h-297zM547 0l106 346q19 62 43 115h-272v-461h-264v1118h264v-430h436l-229 324v106h1014v-106l-263 -367q82 -32 138 -104t94 -195l106 -346h-258l-82 295q-10 38 -21.5 65t-24.5 45t-28.5 28.5t-35.5 15.5v-449h-264v451q-23 -5 -40.5 -15t-31.5 -28 t-25 -45.5t-22 -67.5l-82 -295h-258z"/>
<glyph glyph-name="uni046E" horiz-adv-x="1212" unicode="Ѯ" d="M895 1776q45 0 73 -6t42 -11v-151q-11 5 -34 8.5t-48 3.5q-47 0 -91.5 -43t-82.5 -111q78 -17 138.5 -49t102 -77t63 -100.5t21.5 -119.5q0 -73 -25.5 -133t-71 -104t-108 -72.5t-137.5 -40.5v-6q92 -10 164 -38.5t121.5 -73t75.5 -104t26 -132.5q0 -96 -37 -176 t-109.5 -138t-179.5 -90t-247 -32q-67 0 -108.5 -5.5t-63.5 -17.5t-29.5 -30.5t-7.5 -43.5q0 -38 27.5 -63t99.5 -25q50 0 91 1.5t77 3.5t69 3.5t66 1.5q66 0 101.5 -11t48.5 -30v-229q-9 10 -26 17.5t-37 13t-42 8t-41 2.5q-31 0 -74 -1.5t-93 -3t-105.5 -2.5t-112.5 -1 q-88 0 -154 25t-109.5 68t-65 101t-21.5 125q0 74 21.5 135.5t72.5 106t136.5 69.5t213.5 25q174 0 253 56t79 159q0 53 -28.5 90.5t-81.5 62.5t-127.5 36.5t-167.5 11.5h-119v242h104q112 0 185.5 13t117 37.5t61 59.5t17.5 80q0 75 -59 119.5t-174 44.5 q-100 0 -186.5 -32.5t-161.5 -86.5l-136 207q39 27 78.5 50.5t83 42t92 32.5t103.5 22q-24 32 -52 65.5t-56.5 66.5t-55 63.5t-47.5 54.5v27h184q51 -34 100 -82.5t103 -103.5q26 35 56 73t66.5 69.5t80.5 52t98 20.5z"/>
<glyph glyph-name="uni046F" horiz-adv-x="1075" unicode="ѯ" d="M422 688q131 0 201.5 25t70.5 92q0 54 -47 81t-155 27q-36 0 -76.5 -5t-81.5 -14t-81 -22t-77 -30l-90 213q54 21 111.5 38.5t126.5 28.5q-22 27 -46 54.5t-46.5 54t-43.5 50.5t-38 44v27h184q51 -34 100 -82.5t103 -104.5q26 36 55.5 74t66 69.5t80.5 51.5t99 20 q45 0 72.5 -5.5t41.5 -10.5v-152q-11 5 -34 9t-48 4q-38 0 -76.5 -30t-70.5 -81q52 -15 96.5 -38.5t77.5 -57.5t51.5 -78t18.5 -98q0 -101 -57 -160.5t-152 -85.5v-10q50 -13 93.5 -32t76 -49t51 -73.5t18.5 -105.5q0 -69 -31 -132t-95 -110.5t-161.5 -75.5t-230.5 -28 q-60 0 -97 -6.5t-57 -19.5t-27 -31t-7 -40q0 -48 33.5 -68t113.5 -20q50 0 84.5 1.5t63 3.5t55 3.5t59.5 1.5q66 0 102 -11t48 -30v-229q-9 10 -26 17.5t-37 13t-41.5 8t-40.5 2.5q-63 0 -146.5 -4t-198.5 -4q-88 0 -150.5 22t-102 62t-58 96.5t-18.5 126.5q0 78 21.5 140.5 t71 107t132 68.5t203.5 24q124 0 182.5 33.5t58.5 95.5q0 68 -66.5 100.5t-205.5 32.5h-102v211h96z"/>
<glyph glyph-name="uni0470" horiz-adv-x="1712" unicode="Ѱ" d="M1604 983q0 -130 -30.5 -231.5t-98 -171.5t-174.5 -107t-259 -37h-47v-436h-278v436h-47q-152 0 -259 36t-174 105.5t-97.5 170.5t-30.5 231v483h290v-479q0 -88 19.5 -145.5t56.5 -91t91 -47t124 -13.5h27v776h278v-776h27q62 0 115.5 12.5t92.5 45.5t61 90t22 145v483 h291v-479z"/>
<glyph glyph-name="uni0471" horiz-adv-x="1663" unicode="ѱ" d="M977 1554v-1337q74 8 128 29.5t89.5 63t52.5 107t17 161.5q0 135 -22.5 266.5t-57.5 273.5h282q41 -144 59.5 -275.5t18.5 -267.5q0 -157 -44 -267t-120.5 -180t-180 -104.5t-222.5 -41.5v-474h-283v474q-120 4 -221.5 36.5t-174.5 100.5t-114 175t-41 261v563h291v-571 q0 -87 13.5 -147.5t44 -99.5t80 -59t122.5 -26v1339h283z"/>
<glyph glyph-name="uni0472" horiz-adv-x="1548" unicode="Ѳ" d="M776 1227q-73 0 -129 -23.5t-97 -68.5t-66.5 -109.5t-37.5 -146.5h654q-11 82 -36 146.5t-64.5 109.5t-95.5 68.5t-128 23.5zM774 240q77 0 135 26t98.5 74.5t64 119.5t32.5 161h-662q9 -90 33.5 -161t65.5 -119.5t99 -74.5t134 -26zM1430 733q0 -169 -39.5 -308 t-120.5 -238t-204.5 -153t-291.5 -54t-291.5 54t-204 153t-120 238.5t-39.5 309.5t39.5 308.5t120.5 236.5t204.5 151.5t292.5 53.5q168 0 291 -53.5t203.5 -152t120 -237t39.5 -309.5z"/>
<glyph glyph-name="uni0473" horiz-adv-x="1227" unicode="ѳ" d="M612 893q-86 0 -133 -56.5t-61 -168.5h389q-12 112 -59.5 168.5t-135.5 56.5zM614 225q87 0 134 58t59 174h-389q14 -116 61 -174t135 -58zM1124 561q0 -140 -35.5 -248t-102 -182t-162 -112.5t-214.5 -38.5q-111 0 -204 38.5t-160.5 112.5t-105.5 182t-38 248 q0 139 35.5 247t102 181.5t161.5 111.5t215 38q111 0 204 -38t160.5 -111.5t105.5 -181.5t38 -247z"/>
<glyph glyph-name="uni0474" horiz-adv-x="1386" unicode="Ѵ" d="M1264 1217q-29 0 -51 -12t-39.5 -36t-32 -59.5t-29.5 -81.5l-319 -1028h-338l-455 1462h313l256 -909q10 -45 18 -83t14.5 -73t12 -69.5t11.5 -73.5q5 38 10 74.5t12 72.5t16 73.5t21 78.5l141 510q27 98 57.5 174.5t71.5 129t95 80.5t129 28q66 0 113.5 -12.5 t72.5 -26.5v-242q-20 9 -46.5 16t-53.5 7z"/>
<glyph glyph-name="uni0475" horiz-adv-x="1178" unicode="ѵ" d="M0 1118h319l181 -626q18 -65 32 -128t19 -114h4q5 51 17 110.5t30 124.5l92 320q22 79 49 139t65.5 100.5t91 61t124.5 20.5q25 0 67.5 -6.5t79.5 -21.5v-236q-24 11 -44 15t-37 4q-22 0 -39 -9t-30 -23t-21.5 -31.5t-14.5 -35.5l-276 -782h-312z"/>
<glyph glyph-name="uni0476" horiz-adv-x="1386" unicode="Ѷ" d="M1264 1217q-29 0 -51 -12t-39.5 -36t-32 -59.5t-29.5 -81.5l-319 -1028h-338l-455 1462h313l256 -909q10 -45 18 -83t14.5 -73t12 -69.5t11.5 -73.5q5 38 10 74.5t12 72.5t16 73.5t21 78.5l141 510q27 98 57.5 174.5t71.5 129t95 80.5t129 28q66 0 113.5 -12.5 t72.5 -26.5v-242q-20 9 -46.5 16t-53.5 7zM438 1579q-23 18 -52 43.5t-60.5 53.5t-62.5 57.5t-58 57.5t-48 52.5t-32 42.5v21h301q16 -34 37 -74.5t44.5 -81t47.5 -78.5t45 -67v-27h-162zM836 1579q-23 18 -52.5 43.5t-60.5 53.5t-62.5 57.5t-58.5 57.5t-48 52.5t-32 42.5 v21h301q16 -34 37 -74.5t44.5 -81t47.5 -78.5t45 -67v-27h-161z"/>
<glyph glyph-name="uni0477" horiz-adv-x="1178" unicode="ѷ" d="M0 1118h319l181 -626q18 -65 32 -128t19 -114h4q5 51 17 110.5t30 124.5l92 320q22 79 49 139t65.5 100.5t91 61t124.5 20.5q25 0 67.5 -6.5t79.5 -21.5v-236q-24 11 -44 15t-37 4q-22 0 -39 -9t-30 -23t-21.5 -31.5t-14.5 -35.5l-276 -782h-312zM356 1241 q-23 18 -52 43.5t-60.5 53.5t-62.5 57.5t-58 57.5t-48 52.5t-32 42.5v21h301q16 -34 37 -74.5t44.5 -81t47.5 -78.5t45 -67v-27h-162zM754 1241q-23 18 -52.5 43.5t-60.5 53.5t-62.5 57.5t-58.5 57.5t-48 52.5t-32 42.5v21h301q16 -34 37 -74.5t44.5 -81t47.5 -78.5t45 -67 v-27h-161z"/>
<glyph glyph-name="uni0478" horiz-adv-x="2578" unicode="Ѹ" d="M1475 1118h333l181 -629q15 -52 22.5 -111t9.5 -106h7q2 23 5.5 51t8.5 57t11 57.5t13 51.5l177 629h335l-442 -1261q-62 -177 -168.5 -263t-267.5 -86q-53 0 -90.5 5.5t-65.5 11.5v242q22 -5 54 -9t67 -4q48 0 82 13t58.5 36.5t41.5 56.5t31 74l18 56zM438 733 q0 -115 15 -206.5t50.5 -155t94 -97.5t145.5 -34q89 0 147.5 34t94 97.5t50 155t14.5 206.5t-14.5 206.5t-49.5 155.5t-93.5 98t-146.5 34q-87 0 -146 -34t-95 -98t-51 -155.5t-15 -206.5zM1368 733q0 -169 -34.5 -308t-109.5 -238t-194 -153t-287 -54t-286.5 54t-193.5 153 t-109.5 238.5t-34.5 309.5t34.5 308.5t109.5 236.5t194 151.5t288 53.5q168 0 286 -53.5t193 -152t109.5 -237t34.5 -309.5z"/>
<glyph glyph-name="uni0479" horiz-adv-x="2238" unicode="ѹ" d="M1135 1118h333l181 -629q15 -52 22.5 -111t9.5 -106h7q2 23 5.5 51t8.5 57t11 57.5t13 51.5l177 629h335l-442 -1261q-62 -177 -168.5 -263t-267.5 -86q-53 0 -90.5 5.5t-65.5 11.5v242q22 -5 54 -9t67 -4q48 0 82 13t58.5 36.5t41.5 56.5t31 74l18 56zM1124 561 q0 -140 -35.5 -248t-102 -182t-162 -112.5t-214.5 -38.5q-111 0 -204 38.5t-160.5 112.5t-105.5 182t-38 248q0 139 35.5 247t102 181.5t161.5 111.5t215 38q111 0 204 -38t160.5 -111.5t105.5 -181.5t38 -247zM414 561q0 -167 47 -251.5t153 -84.5q105 0 152 85t47 251 q0 167 -47 249.5t-154 82.5q-105 0 -151.5 -82.5t-46.5 -249.5z"/>
<glyph glyph-name="uni047A" horiz-adv-x="1630" unicode="Ѻ" d="M438 733q0 -95 15 -174.5t46.5 -140t79.5 -102t113 -60.5q19 42 50.5 57t74.5 15q40 0 71.5 -15t51.5 -57q65 19 112.5 60.5t78.5 102t46 140t15 174.5q0 189 -59.5 312t-188.5 163q-18 -38 -51 -56.5t-76 -18.5q-45 0 -77.5 18.5t-51.5 56.5q-129 -40 -189.5 -163 t-60.5 -312zM1511 733q0 -152 -33.5 -279.5t-102 -223.5t-173 -157.5t-246.5 -82.5q-15 -57 -50.5 -86t-88.5 -29q-112 0 -139 115q-144 19 -249 80.5t-174 158t-102.5 225t-33.5 281.5t33.5 280.5t102.5 223t175 156.5t250 80q17 66 51 88t86 22q50 0 84 -22t51 -88 q143 -19 248 -80t174 -157t103 -224t34 -281z"/>
<glyph glyph-name="uni047B" horiz-adv-x="1350" unicode="ѻ" d="M414 561q0 -62 8.5 -115.5t25.5 -96.5t43.5 -73.5t63.5 -46.5q17 39 42.5 60.5t76.5 21.5q49 0 74.5 -22.5t42.5 -61.5q75 31 110 119t35 215q0 61 -8 113t-25 93.5t-43 71.5t-61 46q-8 -23 -18 -42t-24.5 -32.5t-34.5 -21t-48 -7.5q-57 0 -84.5 28t-42.5 75 q-69 -34 -101 -118.5t-32 -205.5zM1247 561q0 -121 -30.5 -217t-88 -166.5t-139.5 -115t-186 -62.5q-9 -53 -43.5 -82t-85.5 -29q-54 0 -88 29.5t-43 83.5q-98 18 -179.5 62t-139.5 114t-90 166t-32 217q0 122 30.5 218.5t88 167.5t141 115t189.5 60q11 47 43.5 64.5 t79.5 17.5q43 0 75.5 -17.5t45.5 -64.5q101 -16 184 -60t142.5 -114.5t92.5 -167.5t33 -219z"/>
<glyph glyph-name="uni047C" horiz-adv-x="2146" unicode="Ѽ" d="M1153 1739q1 -51 -24 -94t-68 -75.5t-99 -52t-118 -22.5v86q30 8 52 20.5t36.5 26.5t21.5 28.5t7 26.5q0 20 -18.5 28.5t-41 17t-41 21t-18.5 40.5q0 53 39 82t110 29q78 0 120 -45t42 -117zM1425 2068v-194h-16q-74 0 -132 8t-103.5 20t-81 26t-66 26t-57 20t-54.5 8 q-46 0 -67.5 -25.5t-32.5 -84.5h-182v49q0 93 26.5 146.5t67.5 80.5t90 34t94 7q58 0 114 -19t115.5 -41.5t126 -41.5t144.5 -19h14zM1452 1235q-30 0 -58 -8t-52.5 -19.5t-46.5 -25t-40 -25.5l-88 215q60 47 137.5 78t157.5 31q137 0 242.5 -49t177.5 -141.5t109 -224.5 t37 -298q0 -170 -35.5 -314.5t-109.5 -249.5t-187.5 -164.5t-268.5 -59.5q-111 0 -195.5 39t-158.5 114q-74 -75 -158.5 -114t-195.5 -39q-155 0 -268.5 59.5t-187 164.5t-109 249.5t-35.5 314.5q0 166 37 298t108.5 224.5t177 141.5t242.5 49q81 0 158 -31t137 -78 l-88 -215q-18 12 -39.5 25.5t-46.5 25t-53 19.5t-58 8q-61 0 -111 -29.5t-85.5 -88.5t-54.5 -146.5t-19 -204.5q0 -121 20.5 -217.5t60.5 -164t98 -103t134 -35.5q50 0 97 16.5t90 45t80.5 67t68.5 82.5q31 -44 68.5 -82.5t80.5 -67t90 -45t97 -16.5q76 0 134.5 35.5t98 103 t60 164t20.5 217.5q0 117 -19 204.5t-54.5 146.5t-85 88.5t-111.5 29.5z"/>
<glyph glyph-name="uni047D" horiz-adv-x="1782" unicode="ѽ" d="M1026 1423q1 -51 -24 -94t-68 -75t-99 -51.5t-118 -22.5v86q30 8 52 20t36.5 26t21.5 29t7 27q0 19 -18.5 28t-41 17t-41 21t-18.5 41q0 52 39 81t110 29q78 0 120 -44.5t42 -117.5zM1298 1753v-194h-16q-74 0 -132 8t-103.5 20t-81 26t-66 26t-57 20t-54.5 8 q-46 0 -67.5 -26t-32.5 -85h-182v50q0 62 12.5 105.5t33 73.5t48.5 47.5t58.5 27t63 12t62.5 2.5q58 0 114 -19t115.5 -41.5t126 -41.5t144.5 -19h14zM604 -20q-120 0 -213 35.5t-157.5 108.5t-98 184.5t-33.5 262.5q0 164 37 273t101.5 174.5t153 93t190.5 27.5 q77 0 144.5 -15.5t127.5 -44.5l-86 -209q-15 7 -31 14.5t-35.5 14t-43.5 10.5t-56 4q-44 0 -78.5 -19.5t-58.5 -61t-36.5 -106t-12.5 -155.5q0 -97 16 -166t44.5 -113t67.5 -64.5t85 -20.5q80 0 143.5 39t116.5 96q26 -28 55 -53t61 -43t68 -28.5t76 -10.5q46 0 85 20.5 t67.5 64.5t44.5 113t16 166q0 91 -12.5 155.5t-36.5 106t-58.5 61t-78.5 19.5q-31 0 -55.5 -4t-44 -10.5t-35.5 -14t-31 -14.5l-86 209q60 29 127.5 44.5t144.5 15.5q102 0 190 -27.5t152.5 -93t101.5 -174.5t37 -273q0 -151 -33.5 -262.5t-97.5 -184.5t-157 -108.5 t-213 -35.5q-98 0 -168 33t-119 79q-25 -23 -54.5 -43.5t-64.5 -35.5t-77 -24t-91 -9z"/>
<glyph glyph-name="uni047E" horiz-adv-x="2146" unicode="Ѿ" d="M1487 1858v-89l-82 -172h-55l-50 103h-153l-49 -103h-56l-49 103h-153l-49 -103h-56l-80 172v89h832zM1452 1235q-30 0 -58 -8t-52.5 -19.5t-46.5 -25t-40 -25.5l-88 215q60 47 137.5 78t157.5 31q137 0 242.5 -49t177.5 -141.5t109 -224.5t37 -298q0 -170 -35.5 -314.5 t-109.5 -249.5t-187.5 -164.5t-268.5 -59.5q-111 0 -195.5 39t-158.5 114q-74 -75 -158.5 -114t-195.5 -39q-155 0 -268.5 59.5t-187 164.5t-109 249.5t-35.5 314.5q0 166 37 298t108.5 224.5t177 141.5t242.5 49q81 0 158 -31t137 -78l-88 -215q-18 12 -39.5 25.5t-46.5 25 t-53 19.5t-58 8q-61 0 -111 -29.5t-85.5 -88.5t-54.5 -146.5t-19 -204.5q0 -121 21 -217t62.5 -162.5t104 -101.5t146.5 -35q45 0 83 21.5t72 52.5v391h310v-381q34 -35 75 -59.5t91 -24.5q84 0 146.5 35t104 101.5t62 162.5t20.5 217q0 117 -19 204.5t-54.5 146.5t-85 88.5 t-111.5 29.5z"/>
<glyph glyph-name="uni047F" horiz-adv-x="1751" unicode="ѿ" d="M1262 1444v-88l-82 -172h-56l-49 102h-153l-50 -102h-55l-49 102h-154l-49 -102h-55l-80 172v88h832zM401 0l-395 1118h320l184 -637q17 -57 29.5 -118.5t15.5 -110.5h6q2 26 8.5 55t16 58.5t20.5 59t21 56.5l100 273l-127 364h313l191 -620q7 -23 15.5 -54t16.5 -62.5 t16 -61t13 -50.5h9q51 77 87.5 164.5t59 190.5t33 225t10.5 268h307q0 -166 -18.5 -313t-65 -283t-125 -264.5t-198.5 -257.5h-275l-133 381l-141 -381h-314z"/>
<glyph glyph-name="uni0480" horiz-adv-x="1305" unicode="Ҁ" d="M483 34q-124 54 -205 152t-120 236t-39 307q0 166 45 304.5t132 238.5t215 155.5t294 55.5q109 0 218.5 -27.5t209.5 -75.5l-100 -252q-82 39 -165 68t-163 29q-89 0 -157.5 -34.5t-115 -99t-70.5 -157t-24 -207.5q0 -117 21.5 -208t66 -153.5t114 -95t165.5 -32.5 q65 0 139.5 10.5t140.5 25.5v-766h-309v472q-169 0 -293 54z"/>
<glyph glyph-name="uni0481" horiz-adv-x="1022" unicode="ҁ" d="M364 30.5q-83 37.5 -141.5 107t-89.5 172.5t-31 243q0 167 37.5 279.5t106 180.5t165 97t214.5 29q86 0 171 -21t160 -59l-88 -232q-66 29 -127 47.5t-116 18.5q-111 0 -161 -84.5t-50 -253.5q0 -164 58.5 -246t158.5 -82q75 0 126.5 11t98.5 26v-756h-305v476 q-104 9 -187 46.5z"/>
<glyph glyph-name="uni0482" horiz-adv-x="1247" unicode="҂" d="M588 432l284 -166l-71 -123l-285 164l-180 -313l-129 74l180 315l-283 164l70 123l287 -164l198 346l-284 164l71 125l285 -164l182 313l127 -73l-182 -316l287 -164l-74 -123l-283 164z"/>
<glyph glyph-name="uni0483" horiz-adv-x="1141" unicode="҃" d="M395 1241q-6 -43 -33 -68.5t-75 -25.5q-56 0 -81.5 35.5t-25.5 91.5t26 86.5t83 30.5h459q5 45 32.5 69.5t75.5 24.5q56 0 82.5 -30.5t26.5 -84.5q0 -57 -27 -93t-84 -36h-459z"/>
<glyph glyph-name="uni0484" horiz-adv-x="1182" unicode="҄" d="M258 1436q78 0 144.5 19t126 41.5t115.5 41t114 18.5q45 0 94.5 -7t90 -34t67 -80.5t26.5 -146.5v-49h-182q-11 59 -32.5 85t-67.5 26q-28 0 -54.5 -8t-57 -20t-66 -26.5t-81 -26.5t-103.5 -20t-132 -8h-16v195h14z"/>
<glyph glyph-name="uni0485" horiz-adv-x="1182" unicode="҅" d="M461 1462q0 73 42 117.5t120 44.5q71 0 110 -29t39 -82q0 -27 -18.5 -40t-41 -21t-41 -17t-18.5 -28q0 -12 7 -27t21.5 -29t36.5 -26t52 -20v-86q-61 3 -117.5 22.5t-99 51.5t-68 75t-24.5 94z"/>
<glyph glyph-name="uni0486" horiz-adv-x="1182" unicode="҆" d="M770 1462q1 -51 -24 -94t-68 -75t-99 -51.5t-118 -22.5v86q30 8 52 20t36.5 26t21.5 29t7 27q0 19 -18.5 28t-41 17t-41 21t-18.5 40q0 53 39 82t110 29q78 0 120 -44.5t42 -117.5z"/>
<glyph glyph-name="uni0488" horiz-adv-x="2025" unicode="҈" d="M250 653q49 0 87.5 -14.5t65.5 -40t42 -61t18 -78.5h-80q-3 29 -14.5 46t-29.5 26.5t-41 12.5t-48 3q-31 0 -54.5 -2.5t-40 -11.5t-26 -26.5t-12.5 -47.5h-76q5 90 55.5 142t153.5 52zM1772 653q49 0 87 -14.5t65 -40t42.5 -61t18.5 -78.5h-80q-3 29 -15 46t-30 26.5 t-40.5 12.5t-47.5 3q-31 0 -54.5 -2.5t-40 -11.5t-26.5 -26.5t-13 -47.5h-75q5 90 55 142t154 52zM428 1141q49 0 87.5 -14.5t65.5 -40t42 -61.5t18 -79h-80q-3 29 -14.5 46t-29.5 26.5t-40.5 12.5t-48.5 3q-31 0 -54.5 -2.5t-40 -11.5t-26 -26.5t-12.5 -47.5h-76 q5 90 55.5 142.5t153.5 52.5zM1581 1141q49 0 87.5 -14.5t65.5 -40t42 -61.5t18 -79h-80q-3 29 -14.5 46t-29.5 26.5t-40.5 12.5t-48.5 3q-31 0 -54.5 -2.5t-40 -11.5t-26 -26.5t-12.5 -47.5h-76q5 90 55.5 142.5t153.5 52.5zM428 154q49 0 87.5 -14.5t65.5 -40t42 -61.5 t18 -79h-80q-3 28 -14.5 45.5t-29.5 27t-40.5 12.5t-48.5 3q-31 0 -54.5 -2.5t-40 -11.5t-26 -26.5t-12.5 -47.5h-76q5 90 55.5 142.5t153.5 52.5zM1581 154q49 0 87.5 -14.5t65.5 -40t42 -61.5t18 -79h-80q-3 28 -14.5 45.5t-29.5 27t-40.5 12.5t-48.5 3q-31 0 -54.5 -2.5 t-40 -11.5t-26 -26.5t-12.5 -47.5h-76q5 90 55.5 142.5t153.5 52.5zM1001 -125q50 0 88 -14.5t65 -40t42 -61t18 -78.5h-79q-3 28 -15 45.5t-30 27t-40.5 12.5t-48.5 3q-30 0 -53.5 -2.5t-40 -11.5t-26.5 -26.5t-13 -47.5h-75q5 89 55 141.5t153 52.5zM1001 1425 q50 0 88 -14t65 -39.5t42 -61.5t18 -79h-79q-3 29 -15 46t-30 26.5t-40.5 12.5t-48.5 3q-30 0 -53.5 -2.5t-40 -11.5t-26.5 -26.5t-13 -47.5h-75q5 90 55 142t153 52z"/>
<glyph glyph-name="uni0489" horiz-adv-x="1958" unicode="҉" d="M1481 182q20 -34 40.5 -74t40 -82t37.5 -84.5t33 -82.5l-67 -70q-23 37 -49 76.5t-52 78.5t-51 75.5t-47 66.5l98 98zM475 879q-20 35 -40 74.5t-39.5 81.5t-38 84.5t-33.5 82.5l67 70q23 -37 48.5 -76.5t51.5 -78.5t51.5 -75.5t47.5 -66.5l-98 -98zM631 29 q-34 -20 -74 -40.5t-82 -40t-85 -38t-83 -33.5l-69 68q37 23 76.5 48.5t78.5 51.5t75.5 51t66.5 47l98 -98zM1327 1034q35 20 74.5 40.5t81.5 40t85 38t83 33.5l69 -68q-37 -23 -76.5 -48.5t-78.5 -51.5t-75.5 -51t-66.5 -47l-98 98zM377 442q-39 10 -81.5 24t-86 30 t-86.5 33.5t-82 35.5v97q42 -10 88.5 -20.5t92 -19.5t89 -17t80.5 -13v-139zM1581 662q38 -10 80.5 -24t86 -30t87 -33.5t82.5 -35.5v-97q-42 10 -88.5 20.5t-92 19.5t-89 17t-80.5 13v139zM870 1155q10 38 24 80.5t30 86t33.5 87t35.5 82.5h97q-10 -42 -20.5 -88.5 t-19.5 -92t-17 -89t-13 -80.5h-139zM1090 -49q-10 -39 -24 -81.5t-30 -86t-33.5 -86.5t-35.5 -82h-97q10 42 20.5 88.5t19.5 92t17 89t13 80.5h139z"/>
<glyph glyph-name="uni048A" horiz-adv-x="1794" unicode="Ҋ" d="M1286 1937q-8 -80 -36.5 -146t-86 -113t-148 -73t-222.5 -26q-136 0 -225.5 25t-143.5 71.5t-78.5 112.5t-30.5 149h273q5 -57 18.5 -93t38.5 -56.5t63 -28.5t91 -8q44 0 80 9t63.5 31t44.5 57.5t23 88.5h276zM184 1462h279v-692q0 -25 -0.5 -56t-1.5 -64.5l-2 -67 t-3 -65.5q-4 -74 -7 -150h6l594 1095h370v-1196h334l-178 -692h-344l188 426h-276v688q0 57 2.5 128.5t6.5 136.5q4 76 9 153h-8l-596 -1106h-373v1462z"/>
<glyph glyph-name="uni048B" horiz-adv-x="1581" unicode="ҋ" d="M1192 1599q-9 -80 -37.5 -146t-86 -113t-148 -73t-222.5 -26q-136 0 -225 25t-143 71.5t-78.5 112.5t-30.5 149h273q5 -57 18.5 -93t38.5 -56.5t63 -28.5t91 -8q44 0 80 9t63 31t44.5 57.5t22.5 88.5h277zM455 1118v-434q0 -35 -3 -92t-8 -113q-5 -65 -12 -137l455 776 h366v-895h299l-145 -624h-291l137 401h-295v438q0 42 3.5 99t7.5 110q4 62 10 127l-453 -774h-366v1118h295z"/>
<glyph glyph-name="uni048C" horiz-adv-x="1180" unicode="Ҍ" d="M494 254h84q56 0 100.5 10.5t76 34.5t48 63t16.5 95q0 58 -18 95t-52 58t-82.5 29t-109.5 8h-63v-393zM494 1311h237v-254h-237v-156h108q137 0 237 -33t165.5 -92t97 -140.5t31.5 -178.5q0 -108 -32.5 -193t-101 -143.5t-173.5 -89.5t-251 -31h-391v1057h-137v254h137 v151h310v-151z"/>
<glyph glyph-name="uni048D" horiz-adv-x="1206" unicode="ҍ" d="M819 352q0 65 -44 94t-132 29h-178v-264h182q76 0 124 32.5t48 108.5zM4 1333h156v223h305v-223h315v-198h-315v-449h197q236 0 349 -81.5t113 -248.5q0 -81 -26 -147t-82 -112.5t-144 -71.5t-213 -25h-499v1135h-156v198z"/>
<glyph glyph-name="uni048E" horiz-adv-x="1225" unicode="Ҏ" d="M494 774h61h22.5t22.5 2l-57 82l153 111l82 -117q41 53 41 143q0 109 -59.5 161t-186.5 52h-79v-434zM1133 1006q0 -58 -10.5 -114t-33.5 -106.5t-58.5 -94t-86.5 -77.5l88 -125l-151 -112l-115 164q-45 -11 -94.5 -16t-106.5 -5h-71v-520h-310v1462h406 q141 0 243.5 -31.5t169 -90t98.5 -143t32 -191.5z"/>
<glyph glyph-name="uni048F" horiz-adv-x="1245" unicode="ҏ" d="M653 895q-51 0 -86.5 -18.5t-57.5 -55.5t-32 -93.5t-12 -131.5v-33q0 -81 9.5 -144t31.5 -105.5t58.5 -64.5t90.5 -22h15.5t15.5 2l-88 127l154 111l61 -88q18 77 18 186q0 165 -42.5 247.5t-135.5 82.5zM748 -20q-55 0 -98.5 12t-77.5 32t-60 45.5t-47 53.5h-16 q4 -35 8 -66q3 -26 5.5 -53.5t2.5 -42.5v-453h-305v1610h248l43 -145h14q21 34 48 64t62.5 52.5t80.5 36t100 13.5q87 0 158 -37t122 -110t79 -181t28 -250q0 -159 -35.5 -273.5t-97.5 -189.5l86 -123l-152 -112l-92 133q-25 -8 -51 -12t-53 -4z"/>
<glyph glyph-name="afii10050" horiz-adv-x="1108" unicode="Ґ" d="M494 0h-310v1462h615v310h268v-566h-573v-1206z"/>
<glyph glyph-name="afii10098" horiz-adv-x="987" unicode="ґ" d="M465 0h-305v1118h479v305h274v-534h-448v-889z"/>
<glyph glyph-name="uni0492" horiz-adv-x="1063" unicode="Ғ" d="M1022 1462v-254h-528v-358h319v-254h-319v-596h-310v596h-137v254h137v612h838z"/>
<glyph glyph-name="uni0493" horiz-adv-x="944" unicode="ғ" d="M897 1118v-248h-451v-217h271v-235h-271v-418h-305v418h-137v235h137v465h756z"/>
<glyph glyph-name="uni0494" horiz-adv-x="1421" unicode="Ҕ" d="M604 537q-25 0 -53 -3.5t-57 -9.5v-524h-310v1462h838v-254h-528v-401q65 8 124.5 10t108.5 2q66 0 136 -14.5t135.5 -47t124 -84.5t102 -127.5t69 -175.5t25.5 -229q0 -162 -45 -284.5t-120 -204t-173 -123t-205 -41.5q-55 0 -99 2.5t-82 8.5t-72.5 15t-69.5 21v272 q63 -23 126 -35t136 -12q66 0 121.5 28.5t95 79t62 120.5t22.5 153q0 89 -18.5 152.5t-50.5 107.5t-73.5 71t-87 41.5t-92.5 19t-90 4.5z"/>
<glyph glyph-name="uni0495" horiz-adv-x="1182" unicode="ҕ" d="M1100 68q0 -149 -39.5 -256.5t-107 -177t-157 -103t-190.5 -33.5q-65 0 -128 11t-128 40v263q23 -12 49.5 -22t55 -17t57 -11t53.5 -4q51 0 95 17.5t76.5 55.5t51.5 97.5t19 143.5q0 68 -16 124.5t-49.5 96.5t-85.5 62t-124 22q-26 0 -67 -6v-371h-305v1118h755v-248 h-450v-241q34 6 69.5 9t67.5 3q101 0 191 -36.5t158.5 -108.5t108.5 -179t40 -249z"/>
<glyph glyph-name="uni0496" horiz-adv-x="2025" unicode="Җ" d="M479 760l-450 702h319l432 -708v708h289v-708l432 708h320l-451 -702l311 -494h304v-692h-299v426h-168l-449 741v-741h-289v741l-448 -741h-332z"/>
<glyph glyph-name="uni0497" horiz-adv-x="1847" unicode="җ" d="M721 575v543h285v-543l366 543h316l-381 -536l258 -359h254v-624h-275v401h-143l-395 567v-567h-285v567l-395 -567h-326l420 582l-381 536h315z"/>
<glyph glyph-name="uni0498" horiz-adv-x="1245" unicode="Ҙ" d="M1112 1120q0 -73 -25.5 -133t-71 -104t-108 -72.5t-137.5 -40.5v-6q92 -10 164 -38.5t121.5 -73t75.5 -104t26 -132.5q0 -96 -37 -176t-110 -138t-179.5 -90t-246.5 -32q-155 0 -273 20.5t-205 58.5v260q43 -23 95.5 -41t107 -30t108.5 -18.5t101 -6.5q174 0 253 56 t79 159q0 53 -28.5 90.5t-81.5 62.5t-128 36.5t-168 11.5h-118v242h104q112 0 185.5 13t117 37.5t61 59.5t17.5 80q0 75 -59 119.5t-174 44.5q-101 0 -187 -32.5t-162 -86.5l-135 207q52 37 107.5 66.5t119.5 50.5t139.5 32t166.5 11q114 0 204.5 -27t152.5 -75.5t95 -115 t33 -145.5zM639 -227q0 52 -39 106.5t-109 120.5h179q38 -28 70.5 -56t57 -59.5t38.5 -67.5t14 -79q0 -51 -17.5 -93t-50 -72.5t-79 -47.5t-103.5 -17q-50 0 -87 7t-69 16v178q20 -6 51.5 -12t63.5 -6q35 0 57.5 20t22.5 62z"/>
<glyph glyph-name="uni0499" horiz-adv-x="1075" unicode="ҙ" d="M422 688q131 0 201.5 25t70.5 92q0 54 -47 81t-155 27q-36 0 -76.5 -5t-81.5 -14t-81 -22t-77 -30l-90 213q45 18 93.5 33.5t103.5 27t117.5 17.5t136.5 6q84 0 162 -17.5t137.5 -54t95 -92.5t35.5 -133q0 -101 -57 -160.5t-152 -85.5v-10q50 -13 93.5 -32t76 -49 t51 -73.5t18.5 -105.5q0 -69 -31 -132t-95 -110.5t-161.5 -75.5t-230.5 -28q-127 0 -229.5 17.5t-171.5 51.5v252q32 -16 71 -31.5t84 -27.5t95 -19.5t102 -7.5q57 0 106.5 6.5t85.5 22t57 40t21 60.5q0 68 -66.5 100.5t-205.5 32.5h-102v211h96zM527 -227q0 52 -39 106.5 t-109 120.5h179q38 -28 70.5 -56t57 -59.5t38.5 -67.5t14 -79q0 -51 -17.5 -93t-50 -72.5t-79 -47.5t-103.5 -17q-50 0 -87 7t-69 16v178q20 -6 51.5 -12t63.5 -6q35 0 57.5 20t22.5 62z"/>
<glyph glyph-name="uni049A" horiz-adv-x="1466" unicode="Қ" d="M1141 266h284v-692h-299v426h-180l-336 608l-116 -86v-522h-310v1462h310v-704l122 207l334 497h344l-467 -659z"/>
<glyph glyph-name="uni049B" horiz-adv-x="1284" unicode="қ" d="M840 0l-396 567v-567h-284v1118h284v-543l367 543h315l-381 -536l259 -359h251v-624h-274v401h-141z"/>
<glyph glyph-name="uni049C" horiz-adv-x="1298" unicode="Ҝ" d="M1298 0h-352l-194 352v-159h-134v401l-8 14l-116 -86v-522h-310v1462h310v-704l124 209v354h134v-156l198 297h344l-467 -659z"/>
<glyph glyph-name="uni049D" horiz-adv-x="1165" unicode="ҝ" d="M160 1118h284v-543l84 123v316h125v-129l158 233h315l-381 -536l420 -582h-325l-187 266v-176h-125v356l-84 121v-567h-284v1118z"/>
<glyph glyph-name="uni049E" horiz-adv-x="1255" unicode="Ҟ" d="M4 1327h137v135h310v-135h137v-254h-137v-315l122 207l334 497h344l-467 -659l471 -803h-352l-336 608l-116 -86v-522h-310v1073h-137v254z"/>
<glyph glyph-name="uni049F" horiz-adv-x="1208" unicode="ҟ" d="M4 1395h156v161h305v-161h315v-199h-315v-334l-16 -254h4l112 170l273 340h344l-404 -485l430 -633h-352l-272 430l-119 -82v-348h-305v1196h-156v199z"/>
<glyph glyph-name="uni04A0" horiz-adv-x="1440" unicode="Ҡ" d="M0 1462h635v-704l123 207l334 497h344l-467 -659l471 -803h-353l-335 608l-117 -86v-522h-309v1204h-326v258z"/>
<glyph glyph-name="uni04A1" horiz-adv-x="1362" unicode="ҡ" d="M0 1118h641v-543l367 543h315l-381 -536l420 -582h-326l-395 567v-567h-285v889h-356v229z"/>
<glyph glyph-name="uni04A2" horiz-adv-x="1640" unicode="Ң" d="M1300 266h299v-692h-299v426h-309v631h-497v-631h-310v1462h310v-573h497v573h309v-1196z"/>
<glyph glyph-name="uni04A3" horiz-adv-x="1440" unicode="ң" d="M465 1118v-430h364v430h306v-895h276v-624h-274v401h-308v461h-364v-461h-305v1118h305z"/>
<glyph glyph-name="uni04A4" horiz-adv-x="1626" unicode="Ҥ" d="M1626 1204h-326v-1204h-309v631h-497v-631h-310v1462h310v-573h497v573h635v-258z"/>
<glyph glyph-name="uni04A5" horiz-adv-x="1491" unicode="ҥ" d="M465 1118v-430h364v430h662v-229h-356v-889h-306v461h-364v-461h-305v1118h305z"/>
<glyph glyph-name="uni04A6" horiz-adv-x="2222" unicode="Ҧ" d="M1260 803q75 11 143.5 13.5t124.5 2.5q67 0 136.5 -14.5t135 -47t124 -84.5t102 -127.5t69 -175.5t25.5 -229q0 -162 -45 -284.5t-120 -204t-173 -123t-205 -41.5q-55 0 -99 2.5t-82.5 8.5t-72.5 15t-70 21v272q63 -23 126.5 -35t136.5 -12q66 0 121.5 28.5t95 79 t62 120.5t22.5 153q0 89 -18.5 152.5t-50.5 107.5t-73.5 71t-87 41.5t-92.5 19t-90 4.5q-32 0 -69.5 -6t-75.5 -15v-516h-310v1204h-456v-1204h-310v1462h1076v-659z"/>
<glyph glyph-name="uni04A7" horiz-adv-x="1769" unicode="ҧ" d="M1688 68q0 -149 -39.5 -256.5t-107 -177t-157 -103t-190.5 -33.5q-65 0 -128 11t-128 40v263q22 -12 49 -22t55.5 -17t57 -11t53.5 -4q51 0 95 17.5t76.5 55.5t51.5 97.5t19 143.5q0 68 -16 124.5t-49.5 96.5t-85.5 62t-124 22h-6v-377h-305v889h-344v-889h-305v1118h954 v-481q19 2 38 3t38 1q101 0 191 -36.5t158.5 -108.5t108.5 -179t40 -249z"/>
<glyph glyph-name="uni04A8" horiz-adv-x="1509" unicode="Ҩ" d="M1126 670q0 108 -24 170.5t-78 62.5q-25 0 -45 -16t-33.5 -46t-20.5 -72.5t-7 -94.5q0 -122 28 -209.5t66 -136.5q21 23 41 57t36.5 77.5t26.5 96t10 111.5zM1403 678q0 -104 -20 -184.5t-49 -141t-62.5 -104t-59.5 -72.5q22 -8 50.5 -12t54.5 -4q37 0 68.5 5.5 t62.5 16.5v-241q-15 -6 -36 -11t-44.5 -8t-47 -4.5t-42.5 -1.5q-166 0 -305 98q-50 -17 -112 -25.5t-122 -8.5q-150 0 -266 53t-194.5 149t-119 231t-40.5 300q0 181 38 324.5t117 243t200.5 152t287.5 52.5q33 0 69 -4t69.5 -10t62.5 -13.5t47 -15.5l-78 -240 q-35 11 -77 20t-93 9q-88 0 -150.5 -35t-102.5 -100.5t-58.5 -159.5t-18.5 -213q0 -123 22 -213.5t63 -150t99.5 -88.5t131.5 -29q9 0 18 1t12 3q-26 31 -51 77.5t-44.5 104t-31.5 124.5t-12 138q0 116 26.5 200t76 138.5t119.5 80.5t157 26q75 0 145 -24.5t123 -79 t85 -141.5t32 -212z"/>
<glyph glyph-name="uni04A9" horiz-adv-x="1292" unicode="ҩ" d="M952 508q0 57 -18.5 93t-59.5 36q-79 0 -79 -131q0 -68 20 -120.5t55 -92.5q38 29 60 82.5t22 132.5zM1194 508q0 -68 -11.5 -124t-31 -100t-45.5 -77t-55 -55q14 -4 26.5 -5.5t34.5 -1.5q26 0 53 4t58 13v-211q-26 -9 -64.5 -16t-83.5 -7q-71 0 -138.5 23t-123.5 63 q-43 -15 -95 -24.5t-124 -9.5q-112 0 -203 40.5t-155 115.5t-99 181.5t-35 237.5q0 125 30.5 231.5t94.5 185t163 123t235 44.5q24 0 52.5 -3.5t56.5 -9t54.5 -13t47.5 -15.5l-68 -228q-28 8 -66.5 16.5t-76.5 8.5q-60 0 -101 -23t-66.5 -67.5t-36.5 -110t-11 -149.5 q0 -86 14 -147t38.5 -99.5t58.5 -56t73 -17.5q9 0 17.5 1t13.5 3q-15 28 -28.5 56.5t-23 62.5t-15 74.5t-5.5 91.5q0 167 80.5 255.5t240.5 88.5q63 0 121 -20t102 -62t70.5 -108.5t26.5 -159.5z"/>
<glyph glyph-name="uni04AA" horiz-adv-x="1305" unicode="Ҫ" d="M805 1225q-89 0 -157.5 -34.5t-115 -99t-70.5 -157t-24 -207.5q0 -117 21.5 -208t66 -153.5t114 -95t165.5 -32.5q89 0 178.5 20t194.5 57v-260q-48 -20 -95 -34t-96 -23t-100.5 -13.5t-110.5 -4.5q-169 0 -293 54t-205 152t-120 236t-39 307q0 166 45 304.5t132 238.5 t215 155.5t294 55.5q109 0 218.5 -27.5t209.5 -75.5l-100 -252q-82 39 -165 68t-163 29zM764 -227q0 52 -39 106.5t-109 120.5h179q38 -28 70.5 -56t57 -59.5t38.5 -67.5t14 -79q0 -51 -17.5 -93t-50 -72.5t-79 -47.5t-103.5 -17q-50 0 -87 7t-69 16v178q20 -6 51.5 -12 t63.5 -6q35 0 57.5 20t22.5 62z"/>
<glyph glyph-name="uni04AB" horiz-adv-x="1022" unicode="ҫ" d="M625 -20q-120 0 -216.5 33t-165 102.5t-105 178t-36.5 259.5q0 167 37.5 279.5t106 180.5t165 97t214.5 29q86 0 171 -21t160 -59l-88 -232q-66 29 -127 47.5t-116 18.5q-111 0 -161 -84.5t-50 -253.5q0 -168 50 -248t157 -80q87 0 158 22.5t145 57.5v-254 q-37 -18 -72 -32t-70.5 -23t-74 -13.5t-82.5 -4.5zM600 -227q0 52 -39 106.5t-109 120.5h179q38 -28 70.5 -56t57 -59.5t38.5 -67.5t14 -79q0 -51 -17.5 -93t-50 -72.5t-79 -47.5t-103.5 -17q-50 0 -87 7t-69 16v178q20 -6 51.5 -12t63.5 -6q35 0 57.5 20t22.5 62z"/>
<glyph glyph-name="uni04AC" horiz-adv-x="1124" unicode="Ҭ" d="M717 266h299v-692h-299v426h-309v1204h-367v258h1042v-258h-366v-938z"/>
<glyph glyph-name="uni04AD" horiz-adv-x="1071" unicode="ҭ" d="M1024 1118v-229h-336v-666h275v-624h-275v401h-305v889h-336v229h977z"/>
<glyph glyph-name="uni04AE" horiz-adv-x="1196" unicode="Ү" d="M598 860l264 602h334l-444 -893v-569h-308v559l-444 903h336z"/>
<glyph glyph-name="uni04AF" horiz-adv-x="1114" unicode="ү" d="M711 -492h-308v492l-403 1118h336l176 -575q7 -31 12 -57.5t9.5 -51t9 -47.5t8.5 -49h12q5 26 9 49t8.5 47.5t9.5 51t12 57.5l178 575h334l-403 -1118v-492z"/>
<glyph glyph-name="uni04B0" horiz-adv-x="1196" unicode="Ұ" d="M598 860l264 602h334l-444 -893v-41h297v-258h-297v-270h-308v270h-299v258h299v31l-444 903h336z"/>
<glyph glyph-name="uni04B1" horiz-adv-x="1114" unicode="ұ" d="M987 0v-229h-276v-263h-308v263h-278v229h278l-403 1118h336l176 -575q7 -31 12 -57.5t9.5 -51t9 -47.5t8.5 -49h12q5 26 9 49t8.5 47.5t9.5 51t12 57.5l178 575h334l-403 -1118h276z"/>
<glyph glyph-name="uni04B2" horiz-adv-x="1444" unicode="Ҳ" d="M1120 266h283v-692h-299v426h-174l-299 553l-299 -553h-332l444 754l-413 708h342l274 -526l268 526h334l-418 -725z"/>
<glyph glyph-name="uni04B3" horiz-adv-x="1249" unicode="ҳ" d="M389 571l-360 547h346l186 -336l189 336h346l-365 -547l232 -348h258v-624h-275v401h-180l-205 362l-205 -362h-346z"/>
<glyph glyph-name="uni04B4" horiz-adv-x="1823" unicode="Ҵ" d="M408 0v1204h-367v258h1001v-258h-325v-946h457v1204h309v-1196h299v-692h-299v426h-1075z"/>
<glyph glyph-name="uni04B5" horiz-adv-x="1559" unicode="ҵ" d="M860 1118v-229h-254v-660h344v889h305v-895h275v-624h-275v401h-954v889h-254v229h813z"/>
<glyph glyph-name="uni04B6" horiz-adv-x="1565" unicode="Ҷ" d="M1225 266h299v-692h-299v426h-310v565q-58 -22 -111 -39t-103 -28t-98.5 -17t-98.5 -6q-93 0 -166.5 25.5t-124 74t-77.5 120t-27 163.5v604h309v-516q0 -106 42 -159.5t142 -53.5q74 0 148.5 18.5t164.5 55.5v655h310v-1196z"/>
<glyph glyph-name="uni04B7" horiz-adv-x="1425" unicode="ҷ" d="M428 1118v-420q0 -72 32 -103.5t85 -31.5q75 0 140.5 20t131.5 52v483h305v-895h275v-624h-275v401h-305v444q-33 -19 -70.5 -37.5t-80 -32.5t-90 -23t-101.5 -9q-81 0 -146 22.5t-110.5 67.5t-70.5 112.5t-25 157.5v416h305z"/>
<glyph glyph-name="uni04B8" horiz-adv-x="1409" unicode="Ҹ" d="M600 481q-49 -6 -96 -6q-93 0 -166.5 25.5t-124 74t-77.5 120t-27 163.5v604h309v-516q0 -106 41 -159.5t141 -53.5v328h133v-313q42 9 86.5 23t95.5 36v655h310v-1462h-310v565q-49 -18 -93.5 -33t-88.5 -26v-334h-133v309z"/>
<glyph glyph-name="uni04B9" horiz-adv-x="1282" unicode="ҹ" d="M557 346q-20 -3 -40 -3.5t-42 -0.5q-81 0 -146 22.5t-110.5 67.5t-70.5 112.5t-25 157.5v416h305v-420q0 -72 32 -103.5t85 -31.5h12v256h125v-237q34 9 67.5 22.5t67.5 30.5v483h305v-1118h-305v444q-31 -18 -64.5 -34.5t-70.5 -30.5v-250h-125v217z"/>
<glyph glyph-name="uni04BA" horiz-adv-x="1409" unicode="Һ" d="M184 1462h310v-565q58 22 111 39t103 28t98.5 17t98.5 6q93 0 166.5 -25t124 -74t77.5 -120.5t27 -163.5v-604h-309v516q0 106 -42 159.5t-142 53.5q-73 0 -148 -18t-165 -56v-655h-310v1462z"/>
<glyph glyph-name="uni04BB" horiz-adv-x="1303" unicode="һ" d="M854 0v420q0 72 -32 103.5t-85 31.5q-75 0 -140.5 -20t-131.5 -52v-483h-305v1118h305v-444q33 19 70.5 37.5t80 32.5t90 23t101.5 9q81 0 146 -22.5t110.5 -67.5t70.5 -112.5t25 -157.5v-416h-305z"/>
<glyph glyph-name="uni04BC" horiz-adv-x="1860" unicode="Ҽ" d="M1042 1227q-70 0 -127.5 -22.5t-100.5 -65.5t-68.5 -106t-30.5 -144h659q0 80 -17 142.5t-56 106t-102.5 66.5t-156.5 23zM1087 238q78 0 157.5 16t151.5 40t130.5 52.5t93.5 52.5v-278q-42 -27 -94 -52.5t-118 -45t-148 -31.5t-185 -12q-155 0 -276 46t-207.5 131 t-137 205.5t-63.5 268.5h-63q-81 0 -142.5 18t-103 51.5t-62 81.5t-20.5 109q0 59 14 111t39 94h234q-3 -6 -7.5 -19t-9 -30t-7.5 -35.5t-3 -34.5q0 -18 4.5 -34t16 -28t30 -19t45.5 -7h41q18 139 68 249.5t131.5 187.5t193.5 118t252 41q177 0 301 -55.5t202.5 -158 t114.5 -247t36 -322.5v-71h-985q5 -92 31 -165t72.5 -123.5t114.5 -77.5t158 -27z"/>
<glyph glyph-name="uni04BD" horiz-adv-x="1413" unicode="ҽ" d="M836 922q-82 0 -135.5 -57t-61.5 -179h389q-1 51 -13 94t-35.5 74.5t-59.5 49.5t-84 18zM334 686q16 113 58.5 198t107.5 141.5t149.5 85t184.5 28.5q111 0 200 -33.5t151.5 -98.5t96 -159.5t33.5 -216.5v-148h-682q2 -64 20.5 -115.5t52 -87t81 -54.5t108.5 -19 q101 0 185 22t171 66v-236q-40 -21 -80.5 -35.5t-85.5 -24.5t-97 -14.5t-114 -4.5q-114 0 -209.5 30.5t-167 93t-115.5 157t-54 222.5q-77 0 -138 12.5t-103 39.5t-64.5 69.5t-22.5 102.5q0 45 11 89t30 76h205q-14 -31 -19.5 -58t-5.5 -50q0 -37 22 -57.5t74 -20.5h17z"/>
<glyph glyph-name="uni04BE" horiz-adv-x="1860" unicode="Ҿ" d="M1042 1227q-70 0 -127.5 -22.5t-100.5 -65.5t-68.5 -106t-30.5 -144h659q0 80 -17 142.5t-56 106t-102.5 66.5t-156.5 23zM1087 238q89 0 171 17t152 41.5t124 52.5t86 50v-268q-34 -22 -75 -44.5t-90.5 -42t-109 -34.5t-131.5 -22v-414h-299v420q-118 21 -210.5 75.5 t-158.5 136.5t-105 189.5t-50 235.5h-63q-81 0 -142.5 18t-103 51.5t-62 81.5t-20.5 109q0 59 14 111t39 94h234q-3 -6 -7.5 -19t-9 -30t-7.5 -35.5t-3 -34.5q0 -18 4.5 -34t16 -28t30 -19t45.5 -7h41q18 139 68 249.5t131.5 187.5t193.5 118t252 41q177 0 301 -55.5 t202.5 -158t114.5 -247t36 -322.5v-71h-985q5 -92 31 -165t72.5 -123.5t114.5 -77.5t158 -27z"/>
<glyph glyph-name="uni04BF" horiz-adv-x="1413" unicode="ҿ" d="M836 922q-82 0 -135.5 -57t-61.5 -179h389q-1 51 -13 94t-35.5 74.5t-59.5 49.5t-84 18zM334 686q16 113 58.5 198t107.5 141.5t149.5 85t184.5 28.5q111 0 200 -33.5t151.5 -98.5t96 -159.5t33.5 -216.5v-148h-682q2 -64 20.5 -115.5t52 -87t81 -54.5t108.5 -19 q101 0 185 22t171 66v-236q-61 -32 -124.5 -50t-143.5 -25v-385h-274v399q-81 19 -147.5 58.5t-116 100t-79.5 142t-38 184.5q-77 0 -138 12.5t-103 39.5t-64.5 69.5t-22.5 102.5q0 45 11 89t30 76h205q-14 -31 -19.5 -58t-5.5 -50q0 -37 22 -57.5t74 -20.5h17z"/>
<glyph glyph-name="uni04C0" horiz-adv-x="797" unicode="Ӏ" d="M731 0h-665v176l178 82v946l-178 82v176h665v-176l-178 -82v-946l178 -82v-176z"/>
<glyph glyph-name="uni04C1" horiz-adv-x="1849" unicode="Ӂ" d="M479 760l-450 702h319l432 -708v708h289v-708l432 708h320l-451 -702l479 -760h-331l-449 741v-741h-289v741l-448 -741h-332zM1409 1937q-8 -80 -36.5 -146t-86 -113t-148 -73t-222.5 -26q-136 0 -225.5 25t-143.5 71.5t-78.5 112.5t-30.5 149h273q5 -57 18.5 -93 t38.5 -56.5t63 -28.5t91 -8q44 0 80.5 9t63.5 31t44 57.5t23 88.5h276z"/>
<glyph glyph-name="uni04C2" horiz-adv-x="1726" unicode="ӂ" d="M721 575v543h285v-543l366 543h316l-381 -536l419 -582h-325l-395 567v-567h-285v567l-395 -567h-326l420 582l-381 536h315zM1347 1599q-8 -80 -36.5 -146t-86 -113t-148 -73t-222.5 -26q-136 0 -225.5 25t-143.5 71.5t-78.5 112.5t-30.5 149h273q5 -57 18.5 -93 t38.5 -56.5t63 -28.5t91 -8q44 0 80.5 9t63.5 31t44 57.5t23 88.5h276z"/>
<glyph glyph-name="uni04C3" horiz-adv-x="1475" unicode="Ӄ" d="M657 537q-35 0 -77.5 -7t-85.5 -18v-512h-310v1462h310v-704l122 207l334 497h344l-503 -688h4q57 0 122 -11t129 -38t123 -73t104 -116.5t72 -167.5t27 -227q0 -162 -45 -284.5t-120 -204t-173 -123t-205 -41.5q-55 0 -99 2.5t-82 8.5t-72.5 15t-69.5 21v272 q63 -23 126.5 -35t135.5 -12q66 0 121.5 28.5t95 79t62 120.5t22.5 153q0 89 -18.5 152.5t-50.5 107.5t-73.5 71t-87 41.5t-92.5 19t-90 4.5z"/>
<glyph glyph-name="uni04C4" horiz-adv-x="1292" unicode="ӄ" d="M1210 68q0 -149 -39.5 -256.5t-106.5 -177t-156.5 -103t-190.5 -33.5q-65 0 -128 11t-128 40v263q22 -12 49 -22t55.5 -17t57 -11t53.5 -4q51 0 95 17.5t76.5 55.5t51.5 97.5t19 143.5q0 68 -16 124.5t-49.5 96.5t-85.5 62t-124 22q-15 0 -38.5 -2t-48.5 -6.5t-49 -10.5 t-42 -14v-344h-305v1118h305v-493l373 493h344l-437 -500q95 -5 179.5 -41t148 -103.5t100.5 -168.5t37 -237z"/>
<glyph glyph-name="uni04C5" horiz-adv-x="1634" unicode="Ӆ" d="M1260 266h333l-178 -692h-344l189 426h-310v1204h-276q-12 -94 -26 -206t-29 -223.5t-31.5 -214t-32.5 -179.5q-20 -96 -49 -170.5t-74 -126t-110.5 -78t-157.5 -26.5q-42 0 -79 5.5t-69 16.5v254q26 -9 52 -14.5t57 -5.5q30 0 52 14t40 48t33 91t31 143q9 50 24.5 142 t34 214.5t39 269t39.5 304.5h842v-1196z"/>
<glyph glyph-name="uni04C6" horiz-adv-x="1427" unicode="ӆ" d="M1100 223h299l-146 -624h-290l137 401h-305v889h-220q-21 -246 -49.5 -419t-74 -281.5t-112.5 -158.5t-165 -50q-106 0 -174 32v244q22 -9 47 -14.5t51 -5.5q24 0 46 15t42.5 53t38 102t34 162t30.5 233.5t26 316.5h785v-895z"/>
<glyph glyph-name="uni04C7" horiz-adv-x="1485" unicode="Ӈ" d="M1300 90q0 -132 -37.5 -242.5t-107.5 -190.5t-170.5 -124.5t-226.5 -44.5q-100 0 -176.5 11t-147.5 36v272q32 -11 63.5 -20t66.5 -15t74 -9t85 -3q65 0 115 26t84 73.5t51.5 115t17.5 150.5v506h-497v-631h-310v1462h310v-573h497v573h309v-1372z"/>
<glyph glyph-name="uni04C8" horiz-adv-x="1294" unicode="ӈ" d="M465 1118v-430h364v430h306v-1095q0 -132 -37.5 -231t-103.5 -164t-157 -97.5t-198 -32.5q-38 0 -71.5 3t-64.5 9.5t-60.5 17.5t-61.5 26v262q54 -28 113.5 -43t111.5 -15q49 0 89 16t69 51t46 89.5t19 132.5v414h-364v-461h-305v1118h305z"/>
<glyph glyph-name="uni04C9" horiz-adv-x="1675" unicode="Ӊ" d="M1300 266h334l-178 -692h-344l188 426h-309v631h-497v-631h-310v1462h310v-573h497v573h309v-1196z"/>
<glyph glyph-name="uni04CA" horiz-adv-x="1462" unicode="ӊ" d="M465 1118v-430h364v430h306v-895h299l-146 -624h-291l138 401h-306v461h-364v-461h-305v1118h305z"/>
<glyph glyph-name="uni04CB" horiz-adv-x="1409" unicode="Ӌ" d="M1225 0h-258v-426h-299v692h247v299q-58 -22 -111 -39t-103 -28t-98.5 -17t-98.5 -6q-93 0 -166.5 25.5t-124 74t-77.5 120t-27 163.5v604h309v-516q0 -106 42 -159.5t142 -53.5q74 0 148.5 18.5t164.5 55.5v655h310v-1462z"/>
<glyph glyph-name="uni04CC" horiz-adv-x="1282" unicode="ӌ" d="M428 1118v-420q0 -72 32 -103.5t85 -31.5q75 0 140.5 20t131.5 52v483h305v-1118h-260v-401h-274v624h229v221q-33 -19 -70.5 -37.5t-80 -32.5t-90 -23t-101.5 -9q-81 0 -146 22.5t-110.5 67.5t-70.5 112.5t-25 157.5v416h305z"/>
<glyph glyph-name="uni04CD" horiz-adv-x="2060" unicode="Ӎ" d="M772 0l-321 1147h-9q6 -92 10 -178q2 -37 3.5 -76t3 -77t2 -73t0.5 -63v-680h-277v1462h422l316 -1118h6l336 1118h422v-1196h333l-178 -692h-344l189 426h-289v692q0 26 0.5 59t1.5 70t2.5 75t2.5 74q4 84 7 175h-8l-346 -1145h-285z"/>
<glyph glyph-name="uni04CE" horiz-adv-x="1855" unicode="ӎ" d="M1528 223h299l-146 -624h-290l137 401h-285v881q-5 -21 -14.5 -62.5t-23 -94t-30.5 -111t-38 -113.5l-185 -500h-217l-186 504q-20 54 -36 109.5t-29 106.5t-23 93t-17 68v-881h-284v1118h426l174 -477q20 -54 34.5 -109.5t24 -103t15.5 -83.5t8 -52q4 18 10.5 53.5 t17 82t25 99.5t33.5 105l178 485h422v-895z"/>
<glyph glyph-name="uni04CF" horiz-adv-x="797" unicode="ӏ" d="M731 0h-665v176l178 82v946l-178 82v176h665v-176l-178 -82v-946l178 -82v-176z"/>
<glyph glyph-name="uni04D0" horiz-adv-x="1331" unicode="Ӑ" d="M846 608l-94 320q-6 18 -18 59t-25.5 90.5t-25.5 99.5t-17 85q-4 -22 -10.5 -52t-15 -63.5t-17.5 -67.5t-17 -64t-14.5 -53t-9.5 -34l-93 -320h357zM1018 0l-100 348h-504l-101 -348h-313l475 1468h379l477 -1468h-313zM1151 1937q-8 -80 -36.5 -146t-86 -113t-148 -73 t-222.5 -26q-136 0 -225.5 25t-143.5 71.5t-78.5 112.5t-30.5 149h273q5 -57 18.5 -93t38.5 -56.5t63 -28.5t91 -8q44 0 80.5 9t63.5 31t44 57.5t23 88.5h276z"/>
<glyph glyph-name="uni04D1" horiz-adv-x="1176" unicode="ӑ" d="M719 518l-101 -4q-61 -2 -103 -16t-67.5 -37.5t-37 -56t-11.5 -72.5q0 -70 34 -99.5t89 -29.5q42 0 78 14.5t62.5 43t41.5 70t15 95.5v92zM809 0l-59 152h-9q-33 -45 -66 -77.5t-72 -53.5t-87.5 -31t-112.5 -10q-68 0 -126 21.5t-100.5 65t-66.5 110t-24 157.5 q0 178 114 262.5t341 93.5l178 6v84q0 69 -40 102t-112 33t-140.5 -21t-137.5 -56l-99 202q84 47 186 74t214 27q209 0 320.5 -98t111.5 -298v-745h-213zM1093 1599q-8 -80 -36.5 -146t-86 -113t-148 -73t-222.5 -26q-136 0 -225.5 25t-143.5 71.5t-78.5 112.5t-30.5 149 h273q5 -57 18.5 -93t38.5 -56.5t63 -28.5t91 -8q44 0 80.5 9t63.5 31t44 57.5t23 88.5h276z"/>
<glyph glyph-name="uni04D2" horiz-adv-x="1331" unicode="Ӓ" d="M846 608l-94 320q-6 18 -18 59t-25.5 90.5t-25.5 99.5t-17 85q-4 -22 -10.5 -52t-15 -63.5t-17.5 -67.5t-17 -64t-14.5 -53t-9.5 -34l-93 -320h357zM1018 0l-100 348h-504l-101 -348h-313l475 1468h379l477 -1468h-313zM727 1743q0 35 11 60.5t30 42t45 24.5t56 8 q28 0 53.5 -8t45 -24.5t31 -42t11.5 -60.5q0 -34 -11.5 -59t-31 -41.5t-45 -24.5t-53.5 -8q-60 0 -101 33t-41 100zM324 1743q0 35 11 60.5t29.5 42t44 24.5t54.5 8t54.5 -8t44.5 -24.5t30.5 -42t11.5 -60.5q0 -34 -11.5 -59t-30.5 -41.5t-44.5 -24.5t-54.5 -8t-54.5 8 t-44 24.5t-29.5 41.5t-11 59z"/>
<glyph glyph-name="uni04D3" horiz-adv-x="1176" unicode="ӓ" d="M719 518l-101 -4q-61 -2 -103 -16t-67.5 -37.5t-37 -56t-11.5 -72.5q0 -70 34 -99.5t89 -29.5q42 0 78 14.5t62.5 43t41.5 70t15 95.5v92zM809 0l-59 152h-9q-33 -45 -66 -77.5t-72 -53.5t-87.5 -31t-112.5 -10q-68 0 -126 21.5t-100.5 65t-66.5 110t-24 157.5 q0 178 114 262.5t341 93.5l178 6v84q0 69 -40 102t-112 33t-140.5 -21t-137.5 -56l-99 202q84 47 186 74t214 27q209 0 320.5 -98t111.5 -298v-745h-213zM657 1405q0 35 11 60.5t30 42t45 24.5t56 8q28 0 53.5 -8t45 -24.5t31 -42t11.5 -60.5q0 -34 -11.5 -59t-31 -41.5 t-45 -24.5t-53.5 -8q-60 0 -101 33t-41 100zM254 1405q0 35 11 60.5t29.5 42t44 24.5t54.5 8t54.5 -8t44.5 -24.5t30.5 -42t11.5 -60.5q0 -34 -11.5 -59t-30.5 -41.5t-44.5 -24.5t-54.5 -8t-54.5 8t-44 24.5t-29.5 41.5t-11 59z"/>
<glyph glyph-name="uni04D4" horiz-adv-x="1888" unicode="Ӕ" d="M578 608h348v590h-97zM1767 0h-841v348h-461l-150 -348h-315l655 1462h1112v-254h-532v-321h496v-254h-496v-377h532v-256z"/>
<glyph glyph-name="uni04D5" horiz-adv-x="1806" unicode="ӕ" d="M1229 922q-82 0 -135.5 -57t-61.5 -179h389q-1 51 -13 94t-35.5 74.5t-59.5 49.5t-84 18zM719 518l-101 -4q-61 -2 -103 -16t-67.5 -37.5t-37 -56t-11.5 -72.5q0 -70 34 -99.5t89 -29.5q42 0 78 14.5t62.5 43t41.5 70t15 95.5v92zM1268 -20q-131 0 -238 50.5t-176 155.5 q-43 -54 -85 -92.5t-91 -64t-110.5 -37.5t-143.5 -12q-68 0 -129.5 21.5t-108 65t-73.5 110t-27 157.5q0 178 114 262.5t341 93.5l178 6v84q0 69 -40 102t-112 33t-140.5 -21t-137.5 -56l-99 202q84 47 186 74t214 27q214 0 323 -131q126 129 314 129q111 0 200.5 -33.5 t151.5 -98.5t95.5 -159.5t33.5 -216.5v-148h-682q2 -64 20.5 -115.5t52 -87t81 -54.5t108.5 -19q94 0 181.5 21.5t175.5 66.5v-236q-40 -21 -80.5 -35.5t-85.5 -24.5t-97 -14.5t-114 -4.5z"/>
<glyph glyph-name="uni04D6" horiz-adv-x="1147" unicode="Ӗ" d="M1026 0h-842v1462h842v-254h-532v-321h495v-254h-495v-377h532v-256zM1079 1937q-8 -80 -36.5 -146t-86 -113t-148 -73t-222.5 -26q-136 0 -225.5 25t-143.5 71.5t-78.5 112.5t-30.5 149h273q5 -57 18.5 -93t38.5 -56.5t63 -28.5t91 -8q44 0 80.5 9t63.5 31t44 57.5 t23 88.5h276z"/>
<glyph glyph-name="uni04D7" horiz-adv-x="1190" unicode="ӗ" d="M651 -20q-120 0 -221 35t-174 105.5t-113.5 178t-40.5 252.5q0 147 37 257t103.5 183.5t160 110.5t207.5 37q111 0 200.5 -33.5t152 -98.5t96 -159.5t33.5 -216.5v-148h-682q2 -64 20.5 -115.5t52 -87t81 -54.5t108.5 -19q51 0 96.5 5.5t88.5 16.5t85 27.5t86 38.5v-236 q-40 -21 -80.5 -35.5t-85.5 -24.5t-97 -14.5t-114 -4.5zM612 922q-81 0 -134.5 -57t-61.5 -179h389q-1 51 -13 94t-36 74.5t-60 49.5t-84 18zM1100 1599q-8 -80 -36.5 -146t-86 -113t-148 -73t-222.5 -26q-136 0 -225.5 25t-143.5 71.5t-78.5 112.5t-30.5 149h273 q5 -57 18.5 -93t38.5 -56.5t63 -28.5t91 -8q44 0 80.5 9t63.5 31t44 57.5t23 88.5h276z"/>
<glyph glyph-name="uni04D8" horiz-adv-x="1591" unicode="Ә" d="M817 238q70 0 128 22t100.5 65t68 106t31.5 144h-660q0 -80 17 -142.5t56 -106t102.5 -66t156.5 -22.5zM772 1227q-88 0 -170 -17t-152 -42t-124 -53t-86 -50v268q42 27 93.5 54t117.5 49t148 35.5t185 13.5q168 0 297 -54t216 -153t131.5 -238.5t44.5 -310.5 q0 -174 -43 -312.5t-126 -235.5t-205.5 -149t-281.5 -52q-177 0 -301 55.5t-202 158t-114 247t-36 321.5v72h985q-5 92 -31 165t-73 123.5t-115 77.5t-158 27z"/>
<glyph glyph-name="uni04D9" horiz-adv-x="1194" unicode="ә" d="M543 1139q120 0 221 -35t174 -106t113.5 -178.5t40.5 -252.5q0 -147 -37 -257t-103.5 -183.5t-160 -110t-207.5 -36.5q-111 0 -200.5 33.5t-152 98t-96 159t-33.5 216.5v148h682q-2 65 -20.5 116t-52 86.5t-81 54.5t-108.5 19q-51 0 -96.5 -5.5t-88.5 -16t-85 -27 t-86 -39.5v236q40 21 80.5 36t85.5 24.5t97 14.5t114 5zM582 197q81 0 134.5 56.5t61.5 178.5h-389q1 -51 13 -94t36 -74.5t60 -49t84 -17.5z"/>
<glyph glyph-name="uni04DA" horiz-adv-x="1591" unicode="Ӛ" d="M817 238q70 0 128 22t100.5 65t68 106t31.5 144h-660q0 -80 17 -142.5t56 -106t102.5 -66t156.5 -22.5zM772 1227q-88 0 -170 -17t-152 -42t-124 -53t-86 -50v268q42 27 93.5 54t117.5 49t148 35.5t185 13.5q168 0 297 -54t216 -153t131.5 -238.5t44.5 -310.5 q0 -174 -43 -312.5t-126 -235.5t-205.5 -149t-281.5 -52q-177 0 -301 55.5t-202 158t-114 247t-36 321.5v72h985q-5 92 -31 165t-73 123.5t-115 77.5t-158 27zM868 1743q0 35 11 60.5t30 42t45 24.5t56 8q28 0 53.5 -8t45 -24.5t31 -42t11.5 -60.5q0 -34 -11.5 -59 t-31 -41.5t-45 -24.5t-53.5 -8q-60 0 -101 33t-41 100zM465 1743q0 35 11 60.5t29.5 42t44 24.5t54.5 8t54.5 -8t44.5 -24.5t30.5 -42t11.5 -60.5q0 -34 -11.5 -59t-30.5 -41.5t-44.5 -24.5t-54.5 -8t-54.5 8t-44 24.5t-29.5 41.5t-11 59z"/>
<glyph glyph-name="uni04DB" horiz-adv-x="1194" unicode="ӛ" d="M543 1139q120 0 221 -35t174 -106t113.5 -178.5t40.5 -252.5q0 -147 -37 -257t-103.5 -183.5t-160 -110t-207.5 -36.5q-111 0 -200.5 33.5t-152 98t-96 159t-33.5 216.5v148h682q-2 65 -20.5 116t-52 86.5t-81 54.5t-108.5 19q-51 0 -96.5 -5.5t-88.5 -16t-85 -27 t-86 -39.5v236q40 21 80.5 36t85.5 24.5t97 14.5t114 5zM582 197q81 0 134.5 56.5t61.5 178.5h-389q1 -51 13 -94t36 -74.5t60 -49t84 -17.5zM659 1405q0 35 11 60.5t30 42t45 24.5t56 8q28 0 53.5 -8t45 -24.5t31 -42t11.5 -60.5q0 -34 -11.5 -59t-31 -41.5t-45 -24.5 t-53.5 -8q-60 0 -101 33t-41 100zM256 1405q0 35 11 60.5t29.5 42t44 24.5t54.5 8t54.5 -8t44.5 -24.5t30.5 -42t11.5 -60.5q0 -34 -11.5 -59t-30.5 -41.5t-44.5 -24.5t-54.5 -8t-54.5 8t-44 24.5t-29.5 41.5t-11 59z"/>
<glyph glyph-name="uni04DC" horiz-adv-x="1849" unicode="Ӝ" d="M479 760l-450 702h319l432 -708v708h289v-708l432 708h320l-451 -702l479 -760h-331l-449 741v-741h-289v741l-448 -741h-332zM985 1743q0 35 11 60.5t30 42t45 24.5t56 8q28 0 53.5 -8t45 -24.5t31 -42t11.5 -60.5q0 -34 -11.5 -59t-31 -41.5t-45 -24.5t-53.5 -8 q-60 0 -101 33t-41 100zM582 1743q0 35 11 60.5t29.5 42t44 24.5t54.5 8t54.5 -8t44.5 -24.5t30.5 -42t11.5 -60.5q0 -34 -11.5 -59t-30.5 -41.5t-44.5 -24.5t-54.5 -8t-54.5 8t-44 24.5t-29.5 41.5t-11 59z"/>
<glyph glyph-name="uni04DD" horiz-adv-x="1726" unicode="ӝ" d="M721 575v543h285v-543l366 543h316l-381 -536l419 -582h-325l-395 567v-567h-285v567l-395 -567h-326l420 582l-381 536h315zM923 1405q0 35 11 60.5t30 42t45 24.5t56 8q28 0 53.5 -8t45 -24.5t31 -42t11.5 -60.5q0 -34 -11.5 -59t-31 -41.5t-45 -24.5t-53.5 -8 q-60 0 -101 33t-41 100zM520 1405q0 35 11 60.5t29.5 42t44 24.5t54.5 8t54.5 -8t44.5 -24.5t30.5 -42t11.5 -60.5q0 -34 -11.5 -59t-30.5 -41.5t-44.5 -24.5t-54.5 -8t-54.5 8t-44 24.5t-29.5 41.5t-11 59z"/>
<glyph glyph-name="uni04DE" horiz-adv-x="1245" unicode="Ӟ" d="M1112 1120q0 -73 -25.5 -133t-71 -104t-108 -72.5t-137.5 -40.5v-6q92 -10 164 -38.5t121.5 -73t75.5 -104t26 -132.5q0 -96 -37 -176t-110 -138t-179.5 -90t-246.5 -32q-155 0 -273 20.5t-205 58.5v260q43 -23 95.5 -41t107 -30t108.5 -18.5t101 -6.5q174 0 253 56 t79 159q0 53 -28.5 90.5t-81.5 62.5t-128 36.5t-168 11.5h-118v242h104q112 0 185.5 13t117 37.5t61 59.5t17.5 80q0 75 -59 119.5t-174 44.5q-101 0 -187 -32.5t-162 -86.5l-135 207q52 37 107.5 66.5t119.5 50.5t139.5 32t166.5 11q114 0 204.5 -27t152.5 -75.5t95 -115 t33 -145.5zM644 1743q0 35 11 60.5t30 42t45 24.5t56 8q28 0 53.5 -8t45 -24.5t31 -42t11.5 -60.5q0 -34 -11.5 -59t-31 -41.5t-45 -24.5t-53.5 -8q-60 0 -101 33t-41 100zM241 1743q0 35 11 60.5t29.5 42t44 24.5t54.5 8t54.5 -8t44.5 -24.5t30.5 -42t11.5 -60.5 q0 -34 -11.5 -59t-30.5 -41.5t-44.5 -24.5t-54.5 -8t-54.5 8t-44 24.5t-29.5 41.5t-11 59z"/>
<glyph glyph-name="uni04DF" horiz-adv-x="1075" unicode="ӟ" d="M422 688q131 0 201.5 25t70.5 92q0 54 -47 81t-155 27q-36 0 -76.5 -5t-81.5 -14t-81 -22t-77 -30l-90 213q45 18 93.5 33.5t103.5 27t117.5 17.5t136.5 6q84 0 162 -17.5t137.5 -54t95 -92.5t35.5 -133q0 -101 -57 -160.5t-152 -85.5v-10q50 -13 93.5 -32t76 -49 t51 -73.5t18.5 -105.5q0 -69 -31 -132t-95 -110.5t-161.5 -75.5t-230.5 -28q-127 0 -229.5 17.5t-171.5 51.5v252q32 -16 71 -31.5t84 -27.5t95 -19.5t102 -7.5q57 0 106.5 6.5t85.5 22t57 40t21 60.5q0 68 -66.5 100.5t-205.5 32.5h-102v211h96zM568 1405q0 35 11 60.5 t30 42t45 24.5t56 8q28 0 53.5 -8t45 -24.5t31 -42t11.5 -60.5q0 -34 -11.5 -59t-31 -41.5t-45 -24.5t-53.5 -8q-60 0 -101 33t-41 100zM165 1405q0 35 11 60.5t29.5 42t44 24.5t54.5 8t54.5 -8t44.5 -24.5t30.5 -42t11.5 -60.5q0 -34 -11.5 -59t-30.5 -41.5t-44.5 -24.5 t-54.5 -8t-54.5 8t-44 24.5t-29.5 41.5t-11 59z"/>
<glyph glyph-name="uni04E0" d="M283 858l313 348h-490v256h877v-198l-381 -410q104 -7 187 -40.5t140.5 -89t88.5 -131t31 -167.5q0 -96 -34.5 -177.5t-106 -141.5t-180 -93.5t-255.5 -33.5q-118 0 -222 19.5t-194 59.5v263q45 -24 95 -42t100 -30.5t98.5 -18.5t91.5 -6q86 0 143 16t91 45t48.5 69.5 t14.5 88.5q0 45 -18.5 81.5t-60 62t-108.5 39.5t-165 14h-104v217z" unicode="Ӡ"/>
<glyph glyph-name="uni04E1" d="M283 502l366 383h-551v233h906v-198l-406 -422q124 -12 210 -58t139.5 -114.5t77.5 -154.5t24 -179q0 -99 -34.5 -187t-106 -154t-180 -104.5t-255.5 -38.5q-236 0 -416 80v262q45 -24 95 -42t100 -30t98.5 -18t91.5 -6q86 0 143 20.5t91 56t48.5 82t14.5 97.5 q0 56 -16.5 106t-56.5 87.5t-108 59.5t-171 22h-104v217z" unicode="ӡ"/>
<glyph glyph-name="uni04E2" horiz-adv-x="1604" unicode="Ӣ" d="M184 1462h279v-692q0 -25 -0.5 -56t-1.5 -64.5l-2 -67t-3 -65.5q-4 -74 -7 -150h6l594 1095h370v-1462h-276v688q0 57 2.5 128.5t6.5 136.5q4 76 9 153h-8l-596 -1106h-373v1462zM493 1790h617v-211h-617v211z"/>
<glyph glyph-name="uni04E3" horiz-adv-x="1413" unicode="ӣ" d="M455 1118v-434q0 -35 -3 -92t-8 -113q-5 -65 -12 -137l455 776h366v-1118h-295v438q0 42 3.5 99t7.5 110q4 62 10 127l-453 -774h-366v1118h295zM399 1452h617v-211h-617v211z"/>
<glyph glyph-name="uni04E4" horiz-adv-x="1604" unicode="Ӥ" d="M184 1462h279v-692q0 -25 -0.5 -56t-1.5 -64.5l-2 -67t-3 -65.5q-4 -74 -7 -150h6l594 1095h370v-1462h-276v688q0 57 2.5 128.5t6.5 136.5q4 76 9 153h-8l-596 -1106h-373v1462zM862 1743q0 35 11 60.5t30 42t45 24.5t56 8q28 0 53.5 -8t45 -24.5t31 -42t11.5 -60.5 q0 -34 -11.5 -59t-31 -41.5t-45 -24.5t-53.5 -8q-60 0 -101 33t-41 100zM459 1743q0 35 11 60.5t29.5 42t44 24.5t54.5 8t54.5 -8t44.5 -24.5t30.5 -42t11.5 -60.5q0 -34 -11.5 -59t-30.5 -41.5t-44.5 -24.5t-54.5 -8t-54.5 8t-44 24.5t-29.5 41.5t-11 59z"/>
<glyph glyph-name="uni04E5" horiz-adv-x="1413" unicode="ӥ" d="M455 1118v-434q0 -35 -3 -92t-8 -113q-5 -65 -12 -137l455 776h366v-1118h-295v438q0 42 3.5 99t7.5 110q4 62 10 127l-453 -774h-366v1118h295zM768 1405q0 35 11 60.5t30 42t45 24.5t56 8q28 0 53.5 -8t45 -24.5t31 -42t11.5 -60.5q0 -34 -11.5 -59t-31 -41.5 t-45 -24.5t-53.5 -8q-60 0 -101 33t-41 100zM365 1405q0 35 11 60.5t29.5 42t44 24.5t54.5 8t54.5 -8t44.5 -24.5t30.5 -42t11.5 -60.5q0 -34 -11.5 -59t-30.5 -41.5t-44.5 -24.5t-54.5 -8t-54.5 8t-44 24.5t-29.5 41.5t-11 59z"/>
<glyph glyph-name="uni04E6" horiz-adv-x="1548" unicode="Ӧ" d="M438 733q0 -115 20 -206.5t61.5 -155t104.5 -97.5t150 -34q89 0 152.5 34t104 97.5t60 155t19.5 206.5t-19.5 206.5t-60 155.5t-103.5 98t-151 34q-87 0 -151 -34t-105.5 -98t-61.5 -155.5t-20 -206.5zM1430 733q0 -169 -39.5 -308t-120.5 -238t-204.5 -153t-291.5 -54 t-291.5 54t-204 153t-120 238.5t-39.5 309.5t39.5 308.5t120.5 236.5t204.5 151.5t292.5 53.5q168 0 291 -53.5t203.5 -152t120 -237t39.5 -309.5zM831 1743q0 35 11 60.5t30 42t45 24.5t56 8q28 0 53.5 -8t45 -24.5t31 -42t11.5 -60.5q0 -34 -11.5 -59t-31 -41.5t-45 -24.5 t-53.5 -8q-60 0 -101 33t-41 100zM428 1743q0 35 11 60.5t29.5 42t44 24.5t54.5 8t54.5 -8t44.5 -24.5t30.5 -42t11.5 -60.5q0 -34 -11.5 -59t-30.5 -41.5t-44.5 -24.5t-54.5 -8t-54.5 8t-44 24.5t-29.5 41.5t-11 59z"/>
<glyph glyph-name="uni04E7" horiz-adv-x="1227" unicode="ӧ" d="M1124 561q0 -140 -35.5 -248t-102 -182t-162 -112.5t-214.5 -38.5q-111 0 -204 38.5t-160.5 112.5t-105.5 182t-38 248q0 139 35.5 247t102 181.5t161.5 111.5t215 38q111 0 204 -38t160.5 -111.5t105.5 -181.5t38 -247zM414 561q0 -167 47 -251.5t153 -84.5 q105 0 152 85t47 251q0 167 -47 249.5t-154 82.5q-105 0 -151.5 -82.5t-46.5 -249.5zM669 1405q0 35 11 60.5t30 42t45 24.5t56 8q28 0 53.5 -8t45 -24.5t31 -42t11.5 -60.5q0 -34 -11.5 -59t-31 -41.5t-45 -24.5t-53.5 -8q-60 0 -101 33t-41 100zM266 1405q0 35 11 60.5 t29.5 42t44 24.5t54.5 8t54.5 -8t44.5 -24.5t30.5 -42t11.5 -60.5q0 -34 -11.5 -59t-30.5 -41.5t-44.5 -24.5t-54.5 -8t-54.5 8t-44 24.5t-29.5 41.5t-11 59z"/>
<glyph glyph-name="uni04E8" horiz-adv-x="1548" unicode="Ө" d="M776 1227q-73 0 -129 -23.5t-97 -68.5t-66.5 -109.5t-37.5 -146.5h654q-11 82 -36 146.5t-64.5 109.5t-95.5 68.5t-128 23.5zM774 240q77 0 135 26t98.5 74.5t64 119.5t32.5 161h-662q9 -90 33.5 -161t65.5 -119.5t99 -74.5t134 -26zM1430 733q0 -169 -39.5 -308 t-120.5 -238t-204.5 -153t-291.5 -54t-291.5 54t-204 153t-120 238.5t-39.5 309.5t39.5 308.5t120.5 236.5t204.5 151.5t292.5 53.5q168 0 291 -53.5t203.5 -152t120 -237t39.5 -309.5z"/>
<glyph glyph-name="uni04E9" horiz-adv-x="1227" unicode="ө" d="M612 893q-86 0 -133 -56.5t-61 -168.5h389q-12 112 -59.5 168.5t-135.5 56.5zM614 225q87 0 134 58t59 174h-389q14 -116 61 -174t135 -58zM1124 561q0 -140 -35.5 -248t-102 -182t-162 -112.5t-214.5 -38.5q-111 0 -204 38.5t-160.5 112.5t-105.5 182t-38 248 q0 139 35.5 247t102 181.5t161.5 111.5t215 38q111 0 204 -38t160.5 -111.5t105.5 -181.5t38 -247z"/>
<glyph glyph-name="uni04EA" horiz-adv-x="1548" unicode="Ӫ" d="M776 1227q-73 0 -129 -23.5t-97 -68.5t-66.5 -109.5t-37.5 -146.5h654q-11 82 -36 146.5t-64.5 109.5t-95.5 68.5t-128 23.5zM774 240q77 0 135 26t98.5 74.5t64 119.5t32.5 161h-662q9 -90 33.5 -161t65.5 -119.5t99 -74.5t134 -26zM1430 733q0 -169 -39.5 -308 t-120.5 -238t-204.5 -153t-291.5 -54t-291.5 54t-204 153t-120 238.5t-39.5 309.5t39.5 308.5t120.5 236.5t204.5 151.5t292.5 53.5q168 0 291 -53.5t203.5 -152t120 -237t39.5 -309.5zM831 1743q0 35 11 60.5t30 42t45 24.5t56 8q28 0 53.5 -8t45 -24.5t31 -42t11.5 -60.5 q0 -34 -11.5 -59t-31 -41.5t-45 -24.5t-53.5 -8q-60 0 -101 33t-41 100zM428 1743q0 35 11 60.5t29.5 42t44 24.5t54.5 8t54.5 -8t44.5 -24.5t30.5 -42t11.5 -60.5q0 -34 -11.5 -59t-30.5 -41.5t-44.5 -24.5t-54.5 -8t-54.5 8t-44 24.5t-29.5 41.5t-11 59z"/>
<glyph glyph-name="uni04EB" horiz-adv-x="1227" unicode="ӫ" d="M612 893q-86 0 -133 -56.5t-61 -168.5h389q-12 112 -59.5 168.5t-135.5 56.5zM614 225q87 0 134 58t59 174h-389q14 -116 61 -174t135 -58zM1124 561q0 -140 -35.5 -248t-102 -182t-162 -112.5t-214.5 -38.5q-111 0 -204 38.5t-160.5 112.5t-105.5 182t-38 248 q0 139 35.5 247t102 181.5t161.5 111.5t215 38q111 0 204 -38t160.5 -111.5t105.5 -181.5t38 -247zM674 1405q0 35 11 60.5t30 42t45 24.5t56 8q28 0 53.5 -8t45 -24.5t31 -42t11.5 -60.5q0 -34 -11.5 -59t-31 -41.5t-45 -24.5t-53.5 -8q-60 0 -101 33t-41 100zM271 1405 q0 35 11 60.5t29.5 42t44 24.5t54.5 8t54.5 -8t44.5 -24.5t30.5 -42t11.5 -60.5q0 -34 -11.5 -59t-30.5 -41.5t-44.5 -24.5t-54.5 -8t-54.5 8t-44 24.5t-29.5 41.5t-11 59z"/>
<glyph glyph-name="uni04EC" horiz-adv-x="1276" unicode="Ӭ" d="M510 1225q-88 0 -173 -28t-167 -67l-98 250q100 48 212 75.5t240 27.5q151 0 268.5 -50.5t198.5 -147.5t123.5 -237t42.5 -319q0 -169 -39 -307t-120 -236t-204.5 -152t-293.5 -54q-58 0 -110 4.5t-101 13.5t-96 23t-95 34v260q105 -37 194.5 -57t178.5 -20 q168 0 260 92.5t100 279.5h-552v254h550q-3 86 -26.5 153t-64.5 113t-99 70.5t-129 24.5zM617 1743q0 35 11 60.5t30 42t45 24.5t56 8q28 0 53.5 -8t45 -24.5t31 -42t11.5 -60.5q0 -34 -11.5 -59t-31 -41.5t-45 -24.5t-53.5 -8q-60 0 -101 33t-41 100zM214 1743 q0 35 11 60.5t29.5 42t44 24.5t54.5 8t54.5 -8t44.5 -24.5t30.5 -42t11.5 -60.5q0 -34 -11.5 -59t-30.5 -41.5t-44.5 -24.5t-54.5 -8t-54.5 8t-44 24.5t-29.5 41.5t-11 59z"/>
<glyph glyph-name="uni04ED" horiz-adv-x="997" unicode="ӭ" d="M393 -20q-99 0 -175 16t-144 53v238q66 -34 139 -57t154 -23q92 0 148.5 60t64.5 196h-361v203h361q-13 247 -187 247q-63 0 -121 -19t-106 -44l-86 209q30 15 67 29t80 25.5t90 18.5t97 7q102 0 190 -27.5t152.5 -93t101.5 -174.5t37 -273q0 -151 -33.5 -262.5 t-97.5 -184.5t-157.5 -108.5t-213.5 -35.5zM513 1405q0 35 11 60.5t30 42t45 24.5t56 8q28 0 53.5 -8t45 -24.5t31 -42t11.5 -60.5q0 -34 -11.5 -59t-31 -41.5t-45 -24.5t-53.5 -8q-60 0 -101 33t-41 100zM110 1405q0 35 11 60.5t29.5 42t44 24.5t54.5 8t54.5 -8t44.5 -24.5 t30.5 -42t11.5 -60.5q0 -34 -11.5 -59t-30.5 -41.5t-44.5 -24.5t-54.5 -8t-54.5 8t-44 24.5t-29.5 41.5t-11 59z"/>
<glyph glyph-name="uni04EE" horiz-adv-x="1255" unicode="Ӯ" d="M1255 1462l-424 -1034q-43 -105 -88 -188.5t-106.5 -141t-145.5 -88t-204 -30.5q-51 0 -109.5 7.5t-109.5 22.5v266q49 -20 107.5 -28t111.5 -8q51 0 86.5 13t60.5 36.5t42 55t30 67.5l-506 1050h328l276 -631q7 -15 16 -36.5t17 -43t14.5 -39.5t7.5 -26h11q2 9 6 27.5 t10 39.5t12.5 41.5t12.5 34.5l225 633h319zM332 1790h617v-211h-617v211z"/>
<glyph glyph-name="uni04EF" horiz-adv-x="1104" unicode="ӯ" d="M0 1118h334l180 -629q16 -52 23.5 -111t9.5 -106h6q2 23 5.5 51t8.5 57t11.5 57.5t13.5 51.5l176 629h336l-442 -1261q-62 -177 -169 -263t-268 -86q-52 0 -90 5.5t-65 11.5v242q21 -5 53 -9t67 -4q48 0 82 13t58.5 36.5t42 56.5t30.5 74l19 56zM255 1452h617v-211h-617 v211z"/>
<glyph glyph-name="uni04F0" horiz-adv-x="1255" unicode="Ӱ" d="M1255 1462l-424 -1034q-43 -105 -88 -188.5t-106.5 -141t-145.5 -88t-204 -30.5q-51 0 -109.5 7.5t-109.5 22.5v266q49 -20 107.5 -28t111.5 -8q51 0 86.5 13t60.5 36.5t42 55t30 67.5l-506 1050h328l276 -631q7 -15 16 -36.5t17 -43t14.5 -39.5t7.5 -26h11q2 9 6 27.5 t10 39.5t12.5 41.5t12.5 34.5l225 633h319zM710 1743q0 35 11 60.5t30 42t45 24.5t56 8q28 0 53.5 -8t45 -24.5t31 -42t11.5 -60.5q0 -34 -11.5 -59t-31 -41.5t-45 -24.5t-53.5 -8q-60 0 -101 33t-41 100zM307 1743q0 35 11 60.5t29.5 42t44 24.5t54.5 8t54.5 -8t44.5 -24.5 t30.5 -42t11.5 -60.5q0 -34 -11.5 -59t-30.5 -41.5t-44.5 -24.5t-54.5 -8t-54.5 8t-44 24.5t-29.5 41.5t-11 59z"/>
<glyph glyph-name="uni04F1" horiz-adv-x="1104" unicode="ӱ" d="M0 1118h334l180 -629q16 -52 23.5 -111t9.5 -106h6q2 23 5.5 51t8.5 57t11.5 57.5t13.5 51.5l176 629h336l-442 -1261q-62 -177 -169 -263t-268 -86q-52 0 -90 5.5t-65 11.5v242q21 -5 53 -9t67 -4q48 0 82 13t58.5 36.5t42 56.5t30.5 74l19 56zM623 1405q0 35 11 60.5 t30 42t45 24.5t56 8q28 0 53.5 -8t45 -24.5t31 -42t11.5 -60.5q0 -34 -11.5 -59t-31 -41.5t-45 -24.5t-53.5 -8q-60 0 -101 33t-41 100zM220 1405q0 35 11 60.5t29.5 42t44 24.5t54.5 8t54.5 -8t44.5 -24.5t30.5 -42t11.5 -60.5q0 -34 -11.5 -59t-30.5 -41.5t-44.5 -24.5 t-54.5 -8t-54.5 8t-44 24.5t-29.5 41.5t-11 59z"/>
<glyph glyph-name="uni04F2" horiz-adv-x="1255" unicode="Ӳ" d="M1255 1462l-424 -1034q-43 -105 -88 -188.5t-106.5 -141t-145.5 -88t-204 -30.5q-51 0 -109.5 7.5t-109.5 22.5v266q49 -20 107.5 -28t111.5 -8q51 0 86.5 13t60.5 36.5t42 55t30 67.5l-506 1050h328l276 -631q7 -15 16 -36.5t17 -43t14.5 -39.5t7.5 -26h11q2 9 6 27.5 t10 39.5t12.5 41.5t12.5 34.5l225 633h319zM696 1579v27q21 29 45 67t47.5 78.5t44.5 81t37 74.5h301v-21q-11 -18 -32 -42.5t-48 -52.5t-58 -57.5t-62.5 -57.5t-60.5 -53t-52 -44h-162zM299 1579v27q21 29 45 67t47.5 78.5t44.5 81t37 74.5h301v-21q-11 -18 -32 -42.5 t-48 -52.5t-58.5 -57.5t-62.5 -57.5t-60.5 -53t-52.5 -44h-161z"/>
<glyph glyph-name="uni04F3" horiz-adv-x="1104" unicode="ӳ" d="M0 1118h334l180 -629q16 -52 23.5 -111t9.5 -106h6q2 23 5.5 51t8.5 57t11.5 57.5t13.5 51.5l176 629h336l-442 -1261q-62 -177 -169 -263t-268 -86q-52 0 -90 5.5t-65 11.5v242q21 -5 53 -9t67 -4q48 0 82 13t58.5 36.5t42 56.5t30.5 74l19 56zM614 1241v27q21 29 45 67 t47.5 78.5t44.5 81t37 74.5h301v-21q-11 -18 -32 -42.5t-48 -52.5t-58 -57.5t-62.5 -57.5t-60.5 -53t-52 -44h-162zM217 1241v27q21 29 45 67t47.5 78.5t44.5 81t37 74.5h301v-21q-11 -18 -32 -42.5t-48 -52.5t-58.5 -57.5t-62.5 -57.5t-60.5 -53t-52.5 -44h-161z"/>
<glyph glyph-name="uni04F4" horiz-adv-x="1409" unicode="Ӵ" d="M1225 0h-310v565q-58 -22 -111 -39t-103 -28t-98.5 -17t-98.5 -6q-93 0 -166.5 25.5t-124 74t-77.5 120t-27 163.5v604h309v-516q0 -106 42 -159.5t142 -53.5q74 0 148.5 18.5t164.5 55.5v655h310v-1462zM731 1743q0 35 11 60.5t30 42t45 24.5t56 8q28 0 53.5 -8 t45 -24.5t31 -42t11.5 -60.5q0 -34 -11.5 -59t-31 -41.5t-45 -24.5t-53.5 -8q-60 0 -101 33t-41 100zM328 1743q0 35 11 60.5t29.5 42t44 24.5t54.5 8t54.5 -8t44.5 -24.5t30.5 -42t11.5 -60.5q0 -34 -11.5 -59t-30.5 -41.5t-44.5 -24.5t-54.5 -8t-54.5 8t-44 24.5 t-29.5 41.5t-11 59z"/>
<glyph glyph-name="uni04F5" horiz-adv-x="1282" unicode="ӵ" d="M428 1118v-420q0 -72 32 -103.5t85 -31.5q75 0 140.5 20t131.5 52v483h305v-1118h-305v444q-33 -19 -70.5 -37.5t-80 -32.5t-90 -23t-101.5 -9q-81 0 -146 22.5t-110.5 67.5t-70.5 112.5t-25 157.5v416h305zM692 1405q0 35 11 60.5t30 42t45 24.5t56 8q28 0 53.5 -8 t45 -24.5t31 -42t11.5 -60.5q0 -34 -11.5 -59t-31 -41.5t-45 -24.5t-53.5 -8q-60 0 -101 33t-41 100zM289 1405q0 35 11 60.5t29.5 42t44 24.5t54.5 8t54.5 -8t44.5 -24.5t30.5 -42t11.5 -60.5q0 -34 -11.5 -59t-30.5 -41.5t-44.5 -24.5t-54.5 -8t-54.5 8t-44 24.5 t-29.5 41.5t-11 59z"/>
<glyph glyph-name="uni04F6" horiz-adv-x="1063" unicode="Ӷ" d="M184 0v1462h838v-254h-528v-942h299v-692h-299v426h-310z"/>
<glyph glyph-name="uni04F7" horiz-adv-x="963" unicode="ӷ" d="M160 0v1118h755v-248h-450v-647h274v-624h-274v401h-305z"/>
<glyph glyph-name="uni04F8" horiz-adv-x="1774" unicode="Ӹ" d="M1589 0h-309v1462h309v-1462zM494 254h84q56 0 100.5 10.5t76 34.5t48 63t16.5 95q0 58 -18 95t-52 58t-82.5 29t-109.5 8h-63v-393zM1133 457q0 -108 -32.5 -193t-101 -143.5t-173.5 -89.5t-251 -31h-391v1462h310v-561h108q137 0 237 -33t165.5 -92t97 -140.5 t31.5 -178.5zM944 1743q0 35 11 60.5t30 42t45 24.5t56 8q28 0 53.5 -8t45 -24.5t31 -42t11.5 -60.5q0 -34 -11.5 -59t-31 -41.5t-45 -24.5t-53.5 -8q-60 0 -101 33t-41 100zM541 1743q0 35 11 60.5t29.5 42t44 24.5t54.5 8t54.5 -8t44.5 -24.5t30.5 -42t11.5 -60.5 q0 -34 -11.5 -59t-30.5 -41.5t-44.5 -24.5t-54.5 -8t-54.5 8t-44 24.5t-29.5 41.5t-11 59z"/>
<glyph glyph-name="uni04F9" horiz-adv-x="1679" unicode="ӹ" d="M1520 0h-306v1118h306v-1118zM758 352q0 65 -44 94t-132 29h-117v-264h121q38 0 69.5 7.5t54 24.5t35.5 44t13 65zM465 686h135q236 0 349.5 -81.5t113.5 -248.5q0 -81 -26 -147t-82 -112.5t-144 -71.5t-213 -25h-438v1118h305v-432zM909 1405q0 35 11 60.5t30 42 t45 24.5t56 8q28 0 53.5 -8t45 -24.5t31 -42t11.5 -60.5q0 -34 -11.5 -59t-31 -41.5t-45 -24.5t-53.5 -8q-60 0 -101 33t-41 100zM506 1405q0 35 11 60.5t29.5 42t44 24.5t54.5 8t54.5 -8t44.5 -24.5t30.5 -42t11.5 -60.5q0 -34 -11.5 -59t-30.5 -41.5t-44.5 -24.5t-54.5 -8 t-54.5 8t-44 24.5t-29.5 41.5t-11 59z"/>
<glyph glyph-name="uni04FA" horiz-adv-x="1063" unicode="Ӻ" d="M1022 1462v-254h-528v-358h319v-254h-319v-596h-310v596h-137v254h137v612h838zM437 -496q-24 0 -49.5 2t-50 5.5t-46.5 8t-39 9.5v240q31 -10 58 -14.5t61 -4.5q26 0 48 7.5t39 27t26.5 52t9.5 83.5v383h295v-428q0 -77 -19.5 -144.5t-62 -118t-109 -79.5t-161.5 -29z "/>
<glyph glyph-name="uni04FB" horiz-adv-x="944" unicode="ӻ" d="M897 1118v-248h-451v-217h271v-235h-271v-418h-305v418h-137v235h137v465h756zM389 -496q-24 0 -49.5 2t-50 5.5t-46.5 8t-39 9.5v240q31 -10 58 -14.5t61 -4.5q26 0 48 7.5t39 27t26.5 52t9.5 83.5v342h295v-387q0 -77 -19.5 -144.5t-62 -118t-109 -79.5t-161.5 -29z "/>
<glyph glyph-name="uni04FC" horiz-adv-x="1434" unicode="Ӽ" d="M1284 0h-354l-299 553l-299 -553h-332l444 754l-413 708h342l274 -526l268 526h334l-418 -725zM1041 -496q-24 0 -49.5 2t-50 5.5t-46.5 8t-39 9.5v240q31 -10 58 -14.5t61 -4.5q26 0 48 7.5t39 27t26.5 52t9.5 83.5v383h295v-428q0 -77 -19.5 -144.5t-62 -118 t-109 -79.5t-161.5 -29z"/>
<glyph glyph-name="uni04FD" horiz-adv-x="1260" unicode="ӽ" d="M389 571l-360 547h346l186 -336l189 336h346l-365 -547l381 -571h-346l-205 362l-205 -362h-346zM879 -496q-24 0 -49.5 2t-50 5.5t-46.5 8t-39 9.5v240q31 -10 58 -14.5t61 -4.5q26 0 48 7.5t39 27t26.5 52t9.5 83.5v342h295v-387q0 -77 -19.5 -144.5t-62 -118 t-109 -79.5t-161.5 -29z"/>
<glyph glyph-name="uni04FE" horiz-adv-x="1284" unicode="Ӿ" d="M903 618l381 -618h-354l-299 553l-299 -553h-332l365 618h-254v254h264l-344 590h342l274 -526l268 526h334l-340 -590h254v-254h-260z"/>
<glyph glyph-name="uni0500" horiz-adv-x="1225" unicode="Ԁ" d="M731 647h-63q-61 0 -109.5 -8t-82.5 -29t-52 -58t-18 -95q0 -56 16.5 -95t48 -63t76 -34.5t100.5 -10.5h84v393zM92 457q0 97 31.5 178.5t97 140.5t165.5 92t237 33h108v561h309v-1462h-391q-145 0 -250 31t-173.5 89.5t-101 143.5t-32.5 193z"/>
<glyph glyph-name="uni0501" horiz-adv-x="1245" unicode="ԁ" d="M600 223q54 0 92 18.5t61.5 56t35 93.5t12.5 131v33q0 81 -10 144t-33 105.5t-62 64.5t-98 22q-96 0 -141 -86.5t-45 -251.5t45.5 -247.5t142.5 -82.5zM489 -20q-86 0 -157 37t-122 109.5t-79.5 180.5t-28.5 250q0 144 28.5 252.5t81 182t125.5 110.5t161 37 q54 0 99 -12.5t81 -35t64.5 -52t50.5 -64.5h10q-6 39 -11 79q-5 34 -8.5 72.5t-3.5 71.5v358h305v-1556h-233l-59 145h-13q-21 -34 -48 -64.5t-62.5 -52.5t-80 -35t-100.5 -13z"/>
<glyph glyph-name="uni0502" horiz-adv-x="1815" unicode="Ԃ" d="M731 647h-63q-61 0 -109.5 -10t-82.5 -35t-52 -65.5t-18 -102.5q0 -53 12 -90.5t33.5 -61.5t51.5 -35t66 -11q72 0 117 31.5t45 92.5v287zM92 438q0 97 31.5 181.5t97 147t165.5 98.5t237 36h108v561h309v-1095q3 -66 37.5 -98.5t110.5 -32.5q78 0 112.5 51t34.5 164v397 h305v-467q0 -105 -32 -181t-91 -125t-142.5 -72t-186.5 -23q-50 0 -99.5 10t-93 28t-78 44t-53.5 57q-42 -63 -124.5 -100t-200.5 -37q-112 0 -196 31t-139.5 89.5t-83.5 143t-28 192.5z"/>
<glyph glyph-name="uni0503" horiz-adv-x="1839" unicode="ԃ" d="M600 223q54 0 92 18.5t61.5 56t35 93.5t12.5 131v33q0 81 -10 144t-33 105.5t-62 64.5t-98 22q-96 0 -141 -86.5t-45 -251.5t45.5 -247.5t142.5 -82.5zM598 -20q-117 0 -209.5 37t-156 109.5t-97 180.5t-33.5 250q0 144 28.5 252.5t81 182t125.5 110.5t161 37 q54 0 99 -12.5t81 -35t64.5 -52t50.5 -64.5h10q-6 39 -11 79q-5 34 -8.5 72.5t-3.5 71.5v358h305v-1175q0 -75 37 -110t115 -35t112.5 51t34.5 164v249h302v-319q0 -105 -31.5 -181t-90 -125t-141.5 -72t-186 -23q-61 0 -108.5 8t-85.5 24.5t-68.5 42.5t-59.5 62 q-24 -30 -62 -55t-82 -43.5t-89.5 -28.5t-83.5 -10z"/>
<glyph glyph-name="uni0504" horiz-adv-x="1788" unicode="Ԅ" d="M971 1135q0 -76 -24 -136.5t-66.5 -106t-100.5 -76t-125 -46.5v-6q177 -22 268 -107.5t91 -230.5q0 -37 5.5 -71.5t21 -61t44.5 -42t76 -15.5q79 0 113.5 51t34.5 164v397h305v-467q0 -105 -32 -181t-91.5 -125t-143 -72t-186.5 -23q-224 0 -340 114t-116 332 q0 45 -18.5 84.5t-60.5 68.5t-109 45.5t-165 16.5h-157v217h155q92 0 153.5 16.5t98 45t51.5 66.5t15 81q0 78 -49 122t-154 44q-48 0 -89.5 -9.5t-77 -24t-65 -32t-53.5 -34.5l-155 206q41 31 90.5 57t107.5 45.5t125 30.5t144 11q108 0 196.5 -23.5t151 -68t97 -109 t34.5 -147.5z"/>
<glyph glyph-name="uni0505" horiz-adv-x="1741" unicode="ԅ" d="M414 688q131 0 201.5 25t70.5 92q0 54 -47.5 81t-155.5 27q-36 0 -76 -5t-81 -14t-81 -22t-77 -30l-90 213q45 18 93.5 33.5t103.5 27t117.5 17.5t135.5 6q85 0 162.5 -17.5t137 -54t95 -92.5t35.5 -133q0 -101 -56.5 -160.5t-151.5 -85.5v-10q114 -19 175.5 -75 t61.5 -153q0 -57 36.5 -89.5t115.5 -32.5q78 0 112.5 51t34.5 164v249h301v-319q0 -105 -31.5 -181t-90 -125t-141 -72t-185.5 -23q-102 0 -186 18.5t-144 55t-93.5 92t-33.5 128.5q0 53 -18.5 91.5t-53 63.5t-83 36.5t-107.5 11.5h-144v211h138z"/>
<glyph glyph-name="uni0506" horiz-adv-x="1354" unicode="Ԇ" d="M971 1135q0 -76 -24 -136.5t-66.5 -106t-100.5 -76t-125 -46.5v-6q177 -22 268 -107.5t91 -230.5v-160h299v-692h-299v426h-309v426q0 45 -18.5 84.5t-60.5 68.5t-109 45.5t-165 16.5h-157v217h155q92 0 153.5 16.5t98 45t51.5 66.5t15 81q0 78 -49 122t-154 44 q-48 0 -89.5 -9.5t-77 -24t-65 -32t-53.5 -34.5l-155 206q41 31 90.5 57t107.5 45.5t125 30.5t144 11q108 0 196.5 -23.5t151 -68t97 -109t34.5 -147.5z"/>
<glyph glyph-name="uni0507" horiz-adv-x="1292" unicode="ԇ" d="M414 688q131 0 201.5 25t70.5 92q0 54 -47.5 81t-155.5 27q-36 0 -76 -5t-81 -14t-81 -22t-77 -30l-90 213q45 18 93.5 33.5t103.5 27t117.5 17.5t135.5 6q85 0 162.5 -17.5t137 -54t95 -92.5t35.5 -133q0 -101 -56.5 -160.5t-151.5 -85.5v-10q50 -13 93.5 -32t76 -49 t51 -73.5t18.5 -105.5v-103h275v-624h-275v401h-297v326q0 78 -66.5 114.5t-205.5 36.5h-144v211h138z"/>
<glyph glyph-name="uni0508" horiz-adv-x="2034" unicode="Ԉ" d="M1260 375q2 -72 36 -105.5t111 -33.5q78 0 112.5 51t34.5 164v397h306v-467q0 -105 -32 -181t-91.5 -125t-143 -72t-186.5 -23q-100 0 -184 21.5t-145 69t-94.5 122.5t-33.5 182v829h-276q-12 -94 -26 -206t-29 -223.5t-31.5 -214t-32.5 -179.5q-20 -96 -49 -170.5 t-74 -126t-110.5 -78t-157.5 -26.5q-42 0 -79 5.5t-69 16.5v254q26 -9 52 -14.5t57 -5.5q30 0 52 14t40 48t33 91t31 143q9 50 24.5 142t34 214.5t39 269t39.5 304.5h842v-1087z"/>
<glyph glyph-name="uni0509" horiz-adv-x="1853" unicode="ԉ" d="M1100 377q0 -74 36.5 -107.5t114.5 -33.5q79 0 113.5 51t34.5 164v249h301v-319q0 -105 -31.5 -181t-90 -125t-141.5 -72t-186 -23q-101 0 -185 21.5t-144 69t-93.5 123t-33.5 183.5v512h-220q-21 -246 -49.5 -419t-74 -281.5t-112.5 -158.5t-165 -50q-106 0 -174 32v244 q22 -9 47 -14.5t51 -5.5q24 0 46 15t42.5 53t38 102t34 162t30.5 233.5t26 316.5h785v-741z"/>
<glyph glyph-name="uni050A" horiz-adv-x="2075" unicode="Ԋ" d="M1300 381q0 -75 34.5 -110t113.5 -35q78 0 112.5 51t34.5 164v397h306v-467q0 -105 -32 -181t-91.5 -125t-143 -72t-186.5 -23q-100 0 -184 21.5t-144.5 69t-94 122t-34.5 180.5v258h-497v-631h-310v1462h310v-573h497v573h309v-1081z"/>
<glyph glyph-name="uni050B" horiz-adv-x="1888" unicode="ԋ" d="M465 1118v-430h364v430h306v-743q2 -72 38 -105.5t113 -33.5q79 0 113.5 51t34.5 164v249h301v-319q0 -105 -31.5 -181t-90 -125t-141.5 -72t-186 -23q-100 0 -184 21.5t-144.5 69t-94 122.5t-34.5 182v86h-364v-461h-305v1118h305z"/>
<glyph glyph-name="uni050C" horiz-adv-x="1556" unicode="Ԍ" d="M739 821h699v-123q0 -152 -31.5 -283t-104.5 -228t-192.5 -152t-294.5 -55q-163 0 -292.5 48.5t-219 144t-137 236t-47.5 324.5q0 172 49.5 311t144 236.5t231 150t310.5 52.5q131 0 246.5 -30t214.5 -77l-107 -250q-34 17 -73.5 34.5t-85 32t-97.5 23.5t-110 9 q-104 0 -180 -38.5t-126 -105.5t-74 -158t-24 -196q0 -108 21.5 -197.5t67.5 -154.5t118.5 -101t173.5 -36q88 0 145 30t90.5 77t45.5 100.5t12 102.5v15h-373v258z"/>
<glyph glyph-name="uni050D" horiz-adv-x="1317" unicode="ԍ" d="M641 664h573v-93q0 -78 -10.5 -152.5t-35.5 -140t-66 -120.5t-102 -94.5t-143.5 -61.5t-190.5 -22q-131 0 -235.5 37t-177.5 109t-112 178.5t-39 246.5q0 144 39.5 253.5t114.5 184t184.5 112.5t249.5 38q113 0 216.5 -24.5t180.5 -61.5l-92 -234q-25 13 -59.5 26.5 t-74 24t-81.5 17t-82 6.5q-84 0 -139 -25.5t-87.5 -71.5t-46 -109.5t-13.5 -139.5q0 -72 12.5 -131.5t41.5 -103t76 -67.5t115 -24t115 18.5t76 49t42 69t13 78.5h-262v228z"/>
<glyph glyph-name="uni050E" horiz-adv-x="1491" unicode="Ԏ" d="M717 381q0 -75 34.5 -110t112.5 -35q79 0 113.5 51t34.5 164v397h305v-467q0 -105 -32 -181t-91.5 -125t-143 -72t-186.5 -23q-100 0 -184 21.5t-144.5 69t-94 122t-33.5 180.5v831h-367v258h1042v-258h-366v-823z"/>
<glyph glyph-name="uni050F" horiz-adv-x="1442" unicode="ԏ" d="M1024 1118v-229h-336v-508q0 -75 36.5 -110t115.5 -35q78 0 112.5 51t34.5 164v249h301v-319q0 -105 -31.5 -181t-90 -125t-141 -72t-185.5 -23q-101 0 -184.5 21.5t-144 69t-94 122.5t-34.5 182v514h-336v229h977z"/>
<glyph glyph-name="uni0510" horiz-adv-x="1245" unicode="Ԑ" d="M133 1120q0 79 36 145.5t102.5 115t160 75.5t207.5 27q87 0 158 -9t132.5 -27t115.5 -45.5t106 -64.5l-135 -229q-76 54 -162 86.5t-186 32.5q-116 0 -175 -40.5t-59 -115.5q0 -45 17.5 -80t61 -59.5t117 -37.5t185.5 -13h105v-242h-119q-93 0 -168 -11.5t-128 -36.5 t-81.5 -62.5t-28.5 -90.5q0 -103 75.5 -151.5t227.5 -48.5q58 0 118 6.5t117.5 18.5t110 30t95.5 41v-275q-87 -38 -205 -58.5t-272 -20.5q-140 0 -247 32t-180 90t-110 138t-37 176q0 73 26 132.5t75.5 104t121.5 73t164 38.5v6q-75 12 -137.5 40.5t-108 72.5t-71 104 t-25.5 133z"/>
<glyph glyph-name="uni0511" horiz-adv-x="1077" unicode="ԑ" d="M778 688v-211h-145q-136 0 -195 -36.5t-59 -104.5q0 -28 13 -50t41 -38t72.5 -24.5t106.5 -8.5q61 0 116.5 7.5t104.5 19.5t90.5 27.5t73.5 31.5v-244q-72 -35 -174.5 -56t-232.5 -21q-135 0 -232 23.5t-159.5 66t-91.5 103.5t-29 136q0 62 19.5 107t55 77.5t86 52.5 t111.5 32v10q-108 25 -160.5 91.5t-52.5 166.5q0 80 36.5 135.5t99 90.5t146 51t177.5 16q54 0 109 -6t107 -17t99.5 -26.5t87.5 -34.5l-81 -213q-67 31 -143 51t-163 20q-46 0 -83.5 -5.5t-63.5 -18t-40.5 -32t-14.5 -48.5q0 -66 57 -93.5t180 -27.5h131z"/>
<glyph glyph-name="uni0512" horiz-adv-x="1595" unicode="Ԓ" d="M1260 0h-310v1204h-276q-12 -94 -26 -206t-29 -223.5t-31.5 -214t-32.5 -179.5q-20 -96 -49 -170.5t-74 -126t-110.5 -78t-157.5 -26.5q-42 0 -79 5.5t-69 16.5v254q26 -9 52 -14.5t57 -5.5q30 0 52 14t40 48t33 91t31 143q9 50 24.5 142t34 214.5t39 269t39.5 304.5h842 v-1462zM1202 -496q-24 0 -49.5 2t-50 5.5t-46.5 8t-39 9.5v240q31 -10 58 -14.5t61 -4.5q26 0 48 7.5t39 27t26.5 52t9.5 83.5v383h295v-428q0 -77 -19.5 -144.5t-62 -118t-109 -79.5t-161.5 -29z"/>
<glyph glyph-name="uni0513" horiz-adv-x="1423" unicode="ԓ" d="M1100 0h-305v889h-220q-21 -246 -49.5 -419t-74 -281.5t-112.5 -158.5t-165 -50q-106 0 -174 32v244q22 -9 47 -14.5t51 -5.5q24 0 46 15t42.5 53t38 102t34 162t30.5 233.5t26 316.5h785v-1118zM1043 -496q-24 0 -49.5 2t-50 5.5t-46.5 8t-39 9.5v240q31 -10 58 -14.5 t61 -4.5q26 0 48 7.5t39 27t26.5 52t9.5 83.5v342h295v-387q0 -77 -19.5 -144.5t-62 -118t-109 -79.5t-161.5 -29z"/>
<glyph glyph-name="fraction" horiz-adv-x="266" unicode="⁄" d="M657 1462l-811 -1462h-239l811 1462h239z"/>
<glyph glyph-name="cyrillicbreve" d="M1075 1599q-8 -80 -36.5 -146t-86 -113t-148 -73t-222.5 -26q-136 0 -225.5 25t-143.5 71.5t-78.5 112.5t-30.5 149h273q5 -57 18.5 -93t38.5 -56.5t63 -28.5t91 -8q44 0 80.5 9t63.5 31t44 57.5t23 88.5h276z" horiz-adv-x="1182"/>
<glyph glyph-name="foursuperior" d="M395 905v164q0 42 1.5 88.5t4.5 95.5q-5 -13 -14.5 -34.5t-20.5 -44t-22 -43.5t-20 -35l-127 -191h198zM758 737h-125v-151h-238v151h-383v154l385 577h236v-563h125v-168z" horiz-adv-x="776"/>
<glyph glyph-name="cyrillichookleft" d="M205 -227q0 52 -39 106.5t-109 120.5h179q38 -28 70.5 -56t57 -59.5t38.5 -67.5t14 -79q0 -51 -17.5 -93t-50 -72.5t-79 -47.5t-103.5 -17q-50 0 -87 7t-69 16v178q20 -6 51.5 -12t63.5 -6q35 0 57.5 20t22.5 62z" horiz-adv-x="422"/>
<glyph glyph-name="cyrillicbighookUC" d="M201 -496q-24 0 -49.5 2t-50 5.5t-46.5 8t-39 9.5v240q31 -10 58 -14.5t61 -4.5q26 0 48 7.5t39 27t26.5 52t9.5 83.5v383h295v-428q0 -77 -19.5 -144.5t-62 -118t-109 -79.5t-161.5 -29z" horiz-adv-x="598"/>
<glyph glyph-name="cyrillicbighookLC" d="M201 -496q-24 0 -49.5 2t-50 5.5t-46.5 8t-39 9.5v240q31 -10 58 -14.5t61 -4.5q26 0 48 7.5t39 27t26.5 52t9.5 83.5v342h295v-387q0 -77 -19.5 -144.5t-62 -118t-109 -79.5t-161.5 -29z" horiz-adv-x="598"/>
</font>
</defs>
</svg>
